<svg width="114" height="113" viewBox="0 0 114 113" fill="none" xmlns="http://www.w3.org/2000/svg">
<path d="M76.84 3.17196C68.9872 1.50136 60.8227 0.700624 52.8398 1.21103C45.7645 1.66343 37.7445 2.89812 32.0508 7.32087C29.3374 9.42859 26.1016 13.2159 25.2141 16.557C25.214 16.5574 20.5423 34.1436 11.199 37.9121C1.85565 41.6806 -4.63279 105.997 66.2211 99.7162C66.2211 99.7162 107.837 98.0704 110.343 50.6632C110.948 39.2111 110.61 26.6213 103.358 17.0454C97.8014 9.70741 90.0157 6.44466 81.0691 4.16167C79.6716 3.80502 78.2609 3.47426 76.84 3.17196Z" fill="#F4F7FA"/>
<path d="M75.1671 53.3049L57.7646 47.2402L74.2277 0L91.6302 6.06473L75.1671 53.3049Z" fill="url(#paint0_linear_1052_1803)"/>
<path d="M85.7208 15.2311L72.5947 10.6567L75.3645 2.70904L88.4906 7.28345L85.7208 15.2311Z" fill="url(#paint1_linear_1052_1803)"/>
<path d="M82.4796 24.5329L69.3535 19.9585L72.1233 12.0108L85.2494 16.5852L82.4796 24.5329Z" fill="url(#paint2_linear_1052_1803)"/>
<path d="M79.2374 33.8347L66.1113 29.2602L68.8811 21.3125L82.0072 25.887L79.2374 33.8347Z" fill="url(#paint3_linear_1052_1803)"/>
<path d="M75.9962 43.1364L62.8701 38.562L65.6399 30.6143L78.766 35.1887L75.9962 43.1364Z" fill="url(#paint4_linear_1052_1803)"/>
<g opacity="0.3">
<path d="M91.6303 6.06468L82.3792 2.84071C82.8739 4.78694 83.0657 6.98401 82.5498 9.2658C81.5682 13.6075 78.7204 15.1816 75.6987 20.1044C72.545 25.2421 72.591 28.5061 70.9601 34.0181C69.7701 38.0398 67.6767 43.2928 63.6826 49.3025L75.1672 53.3048L91.6303 6.06468Z" fill="url(#paint5_linear_1052_1803)"/>
</g>
<path d="M69.3759 55.7207L57.0586 42.0126L94.27 8.57646L106.587 22.2845L69.3759 55.7207Z" fill="url(#paint6_linear_1052_1803)"/>
<path d="M96.9888 27.4628L87.6982 17.1232L93.9587 11.4979L103.249 21.8374L96.9888 27.4628Z" fill="url(#paint7_linear_1052_1803)"/>
<path d="M89.6617 34.0464L80.3711 23.7069L86.6316 18.0816L95.9221 28.4211L89.6617 34.0464Z" fill="url(#paint8_linear_1052_1803)"/>
<path d="M82.3345 40.6302L73.0439 30.2906L79.3044 24.6653L88.595 35.0048L82.3345 40.6302Z" fill="url(#paint9_linear_1052_1803)"/>
<path d="M75.0083 47.2138L65.7178 36.8743L71.9783 31.249L81.2688 41.5885L75.0083 47.2138Z" fill="url(#paint10_linear_1052_1803)"/>
<g opacity="0.3">
<path d="M106.587 22.2846L98.4744 13.2564C97.8442 16.4662 96.565 18.4151 95.3801 19.6576C92.0512 23.1486 88.4808 22.1037 83.6421 25.7569C79.105 29.1825 78.4208 32.988 76.0782 36.7264C73.8493 40.2832 69.7899 44.3046 61.7773 47.265L69.3753 55.7209L106.587 22.2846Z" fill="url(#paint11_linear_1052_1803)"/>
</g>
<path d="M64.8123 55.666L60.6367 37.7163L109.362 26.3814L113.538 44.3311L64.8123 55.666Z" fill="url(#paint12_linear_1052_1803)"/>
<path d="M102.633 44.2361L99.4834 30.6973L107.681 28.7903L110.831 42.3291L102.633 44.2361Z" fill="url(#paint13_linear_1052_1803)"/>
<path d="M93.0382 46.468L89.8887 32.9292L98.0863 31.0222L101.236 44.561L93.0382 46.468Z" fill="url(#paint14_linear_1052_1803)"/>
<path d="M83.4445 48.6999L80.2949 35.1611L88.4925 33.254L91.6421 46.7929L83.4445 48.6999Z" fill="url(#paint15_linear_1052_1803)"/>
<path d="M73.8497 50.9318L70.7002 37.3929L78.8978 35.4859L82.0473 49.0248L73.8497 50.9318Z" fill="url(#paint16_linear_1052_1803)"/>
<g opacity="0.3">
<path d="M113.538 44.3312L110.858 32.8113C108.376 36.584 105.813 38.0621 103.852 38.7056C99.2691 40.2099 96.6158 37.6023 90.6254 38.5364C85.0082 39.4123 82.6075 42.4432 78.7767 44.6315C75.3804 46.5717 70.3918 48.1157 62.8818 47.3658L64.8127 55.6661L113.538 44.3312Z" fill="url(#paint17_linear_1052_1803)"/>
</g>
<path d="M66.4559 47.7831C67.5383 47.7831 68.4157 46.9056 68.4157 45.8233C68.4157 44.7409 67.5383 43.8635 66.4559 43.8635C65.3735 43.8635 64.4961 44.7409 64.4961 45.8233C64.4961 46.9056 65.3735 47.7831 66.4559 47.7831Z" fill="url(#paint18_linear_1052_1803)"/>
<path d="M75.368 23.5599L73.0553 23.5639C72.896 22.0362 72.5287 20.5698 71.9823 19.1921L73.9376 18.0582C74.472 17.7483 74.6547 17.0493 74.3467 16.4953L73.525 15.0177C73.2151 14.4603 72.5269 14.2557 71.9869 14.5622L70.0558 15.6582C69.1571 14.3987 68.0844 13.2632 66.8695 12.2865L67.9802 10.3786C68.2989 9.83116 68.1098 9.11073 67.557 8.76769L66.0788 7.85054C65.5199 7.50383 64.8029 7.66769 64.4783 8.21837L63.3651 10.1068C61.9347 9.44051 60.3891 8.95989 58.7588 8.70208V6.46271C58.7588 5.80209 58.2154 5.24174 57.5429 5.21105L55.7431 5.12891C55.062 5.09784 54.5082 5.61398 54.5082 6.28189V8.54586C52.8276 8.6859 51.2076 9.06363 49.6847 9.64819L48.4833 7.60146C48.1302 7.00002 47.3461 6.7668 46.7307 7.08239L45.0848 7.92652C44.4624 8.24574 44.2487 8.99693 44.6087 9.60246L45.8535 11.6965C44.491 12.6596 43.273 13.8127 42.2414 15.1202L39.9898 13.8463C39.3515 13.4852 38.5323 13.6724 38.1613 14.2666L37.1715 15.8519C36.7981 16.45 37.0198 17.2262 37.6655 17.5836L39.9953 18.8728C39.3493 20.3606 38.9129 21.9554 38.723 23.6229L35.9283 23.6277C35.1762 23.629 34.5645 24.1991 34.5645 24.901V26.7678C34.5645 27.4697 35.1762 28.0311 35.9283 28.0218L38.7972 27.9861C39.0394 29.6146 39.5178 31.1649 40.1976 32.6042L37.6654 34.0413C37.0197 34.4078 36.798 35.1871 37.1715 35.78L38.1613 37.3513C38.5322 37.9402 39.3515 38.1158 39.9898 37.7456L42.551 36.2603C43.5743 37.4706 44.7645 38.5341 46.0852 39.4192L44.6086 41.9241C44.2486 42.5347 44.4623 43.2829 45.0847 43.5933L46.7306 44.4141C47.346 44.721 48.1301 44.4767 48.4832 43.8702L49.9476 41.3546C51.3937 41.8647 52.924 42.1884 54.5081 42.3001V45.1044C54.5081 45.7723 55.062 46.2806 55.7431 46.2399L57.5429 46.1323C58.2153 46.0921 58.7588 45.5241 58.7588 44.8634V42.0896C60.2962 41.8268 61.7584 41.3668 63.1195 40.7412L64.4782 43.0268C64.8028 43.5728 65.5198 43.7266 66.0787 43.3719L67.5569 42.4338C68.1098 42.083 68.2988 41.3598 67.9801 40.8169L66.6612 38.5699C67.8418 37.6356 68.8928 36.5547 69.787 35.3593L71.9868 36.5766C72.5268 36.8754 73.215 36.661 73.525 36.0993L74.3467 34.61C74.6547 34.0517 74.472 33.3553 73.9376 33.0529L71.8103 31.8494C72.3864 30.4979 72.7896 29.0592 72.993 27.5605L75.3679 27.5309C75.9801 27.5233 76.4749 27.0061 76.4749 26.3758V24.6993C76.475 24.069 75.9802 23.5589 75.368 23.5599ZM56.6451 37.3604C49.8019 37.6143 44.0753 32.3033 44.0753 25.4897C44.0753 18.6761 49.8019 13.2919 56.6451 13.4584C63.2557 13.6192 68.4521 18.9339 68.4521 25.3339C68.4521 31.734 63.2557 37.1151 56.6451 37.3604Z" fill="#97A6B7"/>
<path d="M48.9886 6.99453L47.3414 6.93773L46.7734 8.41449L48.9886 6.99453Z" fill="#97A6B7"/>
<path d="M65.3213 7.67612L67.2206 7.69503V9.09608L65.3213 7.67612Z" fill="#97A6B7"/>
<path d="M72.5596 14.4343L74.4529 14.5108L73.9795 15.5711L72.5596 14.4343Z" fill="#97A6B7"/>
<path d="M75.5322 23.5796L77.4444 23.7311L76.8196 24.6588L75.5322 23.5796Z" fill="#97A6B7"/>
<path d="M72.3506 36.7L74.206 36.9651L74.4332 35.4505L72.3506 36.7Z" fill="#97A6B7"/>
<path d="M65.251 43.5347L66.9171 43.8376L67.0496 42.607L65.251 43.5347Z" fill="#97A6B7"/>
<path d="M56.9205 46.4882L55.4248 46.2232L56.7122 44.311L56.9205 46.4882Z" fill="#97A6B7"/>
<path d="M48.818 44.879L47.0762 44.5192L48.4204 42.891L48.818 44.879Z" fill="#97A6B7"/>
<path d="M39.0293 13.6778L40.8469 13.7346L40.1274 15.0599L39.0293 13.6778Z" fill="#97A6B7"/>
<path d="M35.4131 27.9342L37.0792 28.1803L36.9467 26.8171L35.4131 27.9342Z" fill="#97A6B7"/>
<path d="M38.9912 37.9117L40.6194 38.1768L40.752 37.0976L38.9912 37.9117Z" fill="#97A6B7"/>
<path d="M77.2365 23.71L74.9046 23.714C74.744 22.1739 74.3737 20.6955 73.8227 19.3066L75.7942 18.1634C76.3331 17.851 76.5173 17.1463 76.2067 16.5878L75.3782 15.0981C75.0657 14.5363 74.3718 14.3299 73.8273 14.6389L71.8803 15.7438C70.9741 14.4741 69.8925 13.3293 68.6676 12.3447L69.7874 10.4213C70.1088 9.86938 69.9182 9.14306 69.3607 8.79726L67.8702 7.87262C67.3067 7.52307 66.5838 7.68829 66.2565 8.24346L65.1341 10.1472C63.6919 9.47554 62.1334 8.99102 60.4897 8.73113V6.47352C60.4897 5.80748 59.9417 5.24261 59.2637 5.21165L57.449 5.12885C56.7622 5.0975 56.2037 5.61789 56.2037 6.29122V8.57363C54.5093 8.7148 52.8758 9.09562 51.3403 9.68493L50.1289 7.62151C49.7729 7.01516 48.9823 6.78003 48.3618 7.09824L46.7023 7.94923C46.0747 8.27106 45.8593 9.02833 46.2222 9.63881L47.4773 11.7498C46.1036 12.7209 44.8756 13.8834 43.8353 15.2015L41.5651 13.9173C40.9215 13.5532 40.0955 13.742 39.7214 14.3409L38.7234 15.9392C38.3468 16.5422 38.5704 17.3247 39.2214 17.6849L41.5706 18.9847C40.9192 20.4846 40.4792 22.0924 40.2878 23.7735L37.4699 23.7783C36.7116 23.7796 36.0947 24.3544 36.0947 25.062V26.944C36.0947 27.6516 36.7116 28.2176 37.4699 28.2082L40.3626 28.1722C40.6068 29.8139 41.0891 31.3769 41.7746 32.8279L39.2214 34.2768C38.5704 34.6463 38.3468 35.4319 38.7234 36.0296L39.7214 37.6137C40.0955 38.2074 40.9215 38.3845 41.5651 38.0113L44.1475 36.5138C45.1793 37.7341 46.3794 38.8062 47.7111 39.6986L46.2222 42.2238C45.8593 42.8394 46.0747 43.5936 46.7023 43.9066L48.3618 44.7341C48.9823 45.0435 49.773 44.7972 50.1289 44.1858L51.6055 41.6497C53.0635 42.1639 54.6066 42.4902 56.2038 42.6028V45.43C56.2038 46.1034 56.7623 46.6158 57.449 46.5748L59.2637 46.4663C59.9417 46.4257 60.4897 45.853 60.4897 45.187V42.3906C62.0399 42.1256 63.5142 41.6619 64.8866 41.0312L66.2565 43.3354C66.5839 43.8859 67.3068 44.0409 67.8702 43.6834L69.3607 42.7376C69.9182 42.3839 70.1088 41.6549 69.7875 41.1076L68.4576 38.8423C69.648 37.9004 70.7077 36.8106 71.6093 35.6055L73.8273 36.8328C74.3718 37.134 75.0657 36.9179 75.3783 36.3515L76.2067 34.8501C76.5173 34.2872 76.3331 33.5852 75.7943 33.2804L73.6494 32.0671C74.2303 30.7045 74.6368 29.2541 74.8419 27.7432L77.2365 27.7134C77.8538 27.7058 78.3526 27.1844 78.3526 26.5489V24.8588C78.3526 24.2232 77.8537 23.7089 77.2365 23.71ZM58.3584 37.6228C51.4585 37.8788 45.6843 32.5246 45.6843 25.6554C45.6843 18.7863 51.4585 13.3583 58.3584 13.5261C65.0237 13.6882 70.2632 19.0462 70.2632 25.4984C70.2632 31.9506 65.0238 37.3756 58.3584 37.6228Z" fill="#D8DEE8"/>
<path d="M43.4573 53.107C40.9417 50.7464 37.6224 46.9125 36.1204 41.4915C34.1505 34.382 37.0372 30.7893 36.7117 18.7526C36.5059 11.142 36.2855 5.83275 32.4486 2.99296C29.4419 0.767544 24.5741 0.325128 21.6199 2.38785C19.1635 4.10293 17.7424 7.75076 17.3088 10.3546C16.9554 12.4767 17.2393 14.0175 16.016 15.1354C14.7659 16.2778 13.4163 15.631 12.2473 16.4772C9.87667 18.1932 11.2493 23.8774 11.4712 24.796C13.939 35.0151 23.3551 41.9073 27.4986 44.8642C30.9246 47.3091 36.2245 50.567 43.4573 53.107Z" fill="url(#paint19_linear_1052_1803)"/>
<mask id="mask0_1052_1803" style="mask-type:luminance" maskUnits="userSpaceOnUse" x="10" y="1" width="34" height="53">
<path d="M43.4583 53.107C40.9427 50.7463 37.6234 46.9124 36.1213 41.4915C34.1515 34.382 37.0381 30.7892 36.7126 18.7526C36.5068 11.1419 36.2865 5.83272 32.4496 2.99292C29.4428 0.767513 24.5751 0.325098 21.6208 2.38782C19.1645 4.1029 17.7434 7.75073 17.3098 10.3545C16.9564 12.4766 17.2402 14.0174 16.017 15.1353C14.7668 16.2778 13.4172 15.631 12.2483 16.4772C9.87764 18.1932 11.2503 23.8773 11.4722 24.796C13.94 35.0151 23.3561 41.9073 27.4996 44.8642C30.9256 47.3091 36.2254 50.567 43.4583 53.107Z" fill="white"/>
</mask>
<g mask="url(#mask0_1052_1803)">
<g opacity="0.5">
<path d="M46.3207 55.0271C41.9316 53.3592 38.1536 51.3694 35.0917 49.1129C30.5559 45.7702 27.7305 41.9291 26.6942 37.6962C25.8839 34.387 26.184 30.8047 26.5641 26.2693C26.8792 22.5091 27.441 19.8758 27.9366 17.5526C28.5779 14.5466 29.0845 12.1723 28.7332 8.7416C28.3762 5.25538 27.2259 1.78833 25.3145 -1.56327L25.5554 -1.7007C27.4862 1.68467 28.6482 5.18844 29.0091 8.71334C29.3648 12.1874 28.8542 14.5806 28.2079 17.6104C27.7139 19.9256 27.1541 22.5497 26.8405 26.2915C26.4477 30.9789 26.164 34.365 26.9635 37.6302C27.984 41.7983 30.774 45.5864 35.2561 48.8895C38.2978 51.1311 42.0536 53.1087 46.4192 54.7676L46.3207 55.0271Z" fill="white"/>
<path d="M26.913 23.6932L26.8682 23.543C24.8479 16.7613 21.2217 12.5169 18.5355 10.1505C15.6236 7.5852 13.1573 6.61155 13.1328 6.60204L13.233 6.34341C13.258 6.35308 15.7615 7.3397 18.7088 9.93349C21.4055 12.3066 25.0379 16.5483 27.0877 23.3096C27.6465 23.0382 29.7645 21.9273 31.8835 19.7439C34.1477 17.4108 36.8773 13.3384 37.0228 7.18703L37.3001 7.19362C37.1524 13.4402 34.3767 17.576 32.0742 19.9456C29.5795 22.5131 27.0815 23.6197 27.0566 23.6306L26.913 23.6932Z" fill="white"/>
<path d="M26.3866 33.8258L26.2899 33.7973C22.9744 32.8242 19.2146 29.0134 15.1147 22.4706C12.0696 17.6109 9.96515 12.9749 9.94434 12.9286L10.197 12.8145C10.2799 12.9978 18.5377 31.104 26.2725 33.5024C26.664 32.9418 28.9858 29.677 31.9064 26.8114C33.5896 25.1599 36.4283 24.0917 38.5132 23.4864C40.7651 22.8326 42.6483 22.5624 42.667 22.5598L42.7059 22.8344C42.6317 22.8449 35.2492 23.9201 32.1006 27.0094C28.9287 30.1216 26.4679 33.7067 26.4434 33.7425L26.3866 33.8258Z" fill="white"/>
<path d="M33.9632 48.2074L33.6888 48.1747C33.6517 48.1703 29.9301 47.7145 25.0708 46.0201C20.5846 44.4559 14.1797 41.4853 9.14397 36.2167L-0.567383 26.0559L-0.366799 25.8643L9.34455 36.025C14.342 41.2538 20.7046 44.204 25.1622 45.7582C29.2414 47.1805 32.5081 47.7243 33.4483 47.8617C31.5945 44.4441 31.9405 40.7264 34.4557 37.092C36.391 34.2956 38.9562 32.5085 38.9818 32.4908L39.1393 32.7191C39.114 32.7366 36.5854 34.4992 34.6796 37.256C32.1377 40.9326 31.8503 44.5365 33.8253 47.9678L33.9632 48.2074Z" fill="white"/>
</g>
</g>
<path d="M42.0792 47.6607C37.1877 50.0566 30.6146 52.411 23.3177 52.5857C21.4555 52.6303 9.95168 52.9058 8.99585 48.0661C8.65916 46.3613 9.91561 45.4616 9.50528 43.1745C9.01908 40.4644 6.94377 39.9929 4.46951 37.5149C2.9931 36.0363 -1.32759 31.7091 0.402077 27.3287C1.43568 24.711 4.58308 22.1927 7.57999 21.5245C11.9758 20.5445 15.1862 23.7368 20.525 29.2322C25.2577 34.1037 25.4458 35.7683 28.9149 39.2167C31.4896 41.776 35.5861 45.0341 42.0792 47.6607Z" fill="url(#paint20_linear_1052_1803)"/>
<mask id="mask1_1052_1803" style="mask-type:luminance" maskUnits="userSpaceOnUse" x="0" y="21" width="43" height="32">
<path d="M42.0792 47.6607C37.1877 50.0566 30.6146 52.411 23.3177 52.5857C21.4555 52.6303 9.95168 52.9058 8.99585 48.0661C8.65916 46.3613 9.91561 45.4616 9.50528 43.1745C9.01908 40.4644 6.94377 39.9929 4.46951 37.5149C2.9931 36.0363 -1.32759 31.7091 0.402077 27.3287C1.43568 24.711 4.58308 22.1927 7.57999 21.5245C11.9758 20.5445 15.1862 23.7368 20.525 29.2322C25.2577 34.1037 25.4458 35.7683 28.9149 39.2167C31.4896 41.776 35.5861 45.0341 42.0792 47.6607Z" fill="white"/>
</mask>
<g mask="url(#mask1_1052_1803)">
<g opacity="0.5">
<path d="M41.963 47.622C36.5821 47.622 31.1009 46.2011 25.5952 43.3712C17.5873 39.2551 11.5338 33.1873 7.86571 28.8219C5.307 25.7768 3.6279 21.8544 2.875 17.1636L3.14888 17.1197C3.89371 21.7602 5.55218 25.6374 8.0781 28.6435C11.7298 32.9894 17.7551 39.0295 25.722 43.1245C33.3693 47.0553 40.9668 48.2479 48.303 46.6691C53.8104 45.4838 58.976 42.8474 63.6566 38.833L63.8371 39.0436C59.1212 43.0883 53.9144 45.7451 48.3614 46.9402C46.2483 47.3949 44.1133 47.622 41.963 47.622Z" fill="white"/>
<path d="M16.1631 36.9668L16.0394 36.9512C2.14385 35.1999 -1.54451 27.2613 -2.344 24.8699C-2.35882 24.8256 -2.36837 24.796 -2.37402 24.7827L-2.12412 24.6626C-2.11722 24.6765 -2.10264 24.7169 -2.08093 24.7819C-1.2968 27.1273 2.31621 34.8972 15.9479 36.6599C16.1774 35.5388 17.7144 26.9654 12.5345 20.8966L12.7455 20.7165C18.3618 27.2967 16.2141 36.7507 16.1917 36.8454L16.1631 36.9668Z" fill="white"/>
<path d="M12.7513 47.7491C12.3516 47.7491 11.9756 47.7346 11.6231 47.7093C8.28098 47.4704 6.38664 46.2857 6.30762 46.2354L6.45654 46.0014C6.47545 46.0134 8.38309 47.2034 11.661 47.4339C14.6779 47.6462 19.5032 47.0656 25.3853 43.1062C25.3633 42.3193 25.0469 35.3775 20.7686 27.9692L16.1742 20.0137L16.4143 19.875L21.0087 27.8305C25.5688 35.7266 25.6638 43.1044 25.6643 43.178L25.6647 43.2522L25.6032 43.2938C20.3044 46.8776 15.839 47.7491 12.7513 47.7491Z" fill="white"/>
</g>
</g>
<path d="M101.362 75.6708V24.9193C101.362 23.8786 100.499 23.7591 99.4477 23.7168L12.2614 19.4454C10.9345 19.3921 9.8457 20.3089 9.8457 21.483V77.5712L101.362 75.6708Z" fill="#97A6B7"/>
<path d="M9.8457 77.5712V88.7725C9.8457 89.9466 10.9345 90.8612 12.2614 90.8051L99.0586 86.3711C100.11 86.3267 101.362 86.1868 101.362 85.1461V75.3453L9.8457 77.5712Z" fill="#97A6B7"/>
<path d="M70.513 98.3525C68.9418 97.8313 67.7674 96.4978 67.4362 94.8588L65.1493 83.5403L45.5867 84.235L43.1791 96.0263C42.8419 97.6777 44.1917 99.3344 45.7462 99.9426L53.9307 103.145C55.453 103.741 57.0894 103.978 58.7157 103.839L76.0127 102.359C76.5183 102.316 76.924 101.918 76.9828 101.408C77.0417 100.898 77.3959 100.326 76.9137 100.166L70.513 98.3525Z" fill="#97A6B7"/>
<path d="M70.7062 97.6641C69.1366 97.1495 67.9634 95.8327 67.6325 94.2144L65.3479 83.0382L46.2621 83.7249L43.857 95.3679C43.5201 96.9985 44.4113 98.6337 45.9643 99.2343L54.1407 102.396C55.6614 102.984 57.2961 103.219 58.9208 103.081L76.2004 101.62C76.7055 101.577 77.1107 101.185 77.1695 100.681C77.2283 100.178 76.9244 99.7027 76.4427 99.5448L70.7062 97.6641Z" fill="url(#paint21_linear_1052_1803)"/>
<path d="M101.934 24.919V75.6715L47.9921 76.7912L10.3994 77.5717V21.4823C10.3994 20.3094 11.5029 19.3918 12.8302 19.4451L20.1919 19.7409L100.027 22.9511C101.079 22.9929 101.934 23.8788 101.934 24.919Z" fill="url(#paint22_linear_1052_1803)"/>
<path d="M13.126 29.2888V73.1017C13.126 74.1953 14.1368 75.0613 15.3689 75.0263L98.1197 72.6729C99.1073 72.6448 99.9134 71.8238 99.9134 70.8485V31.7724L13.126 29.2888Z" fill="url(#paint23_linear_1052_1803)"/>
<path d="M99.9133 31.7724V27.288C99.9133 26.3326 99.1238 25.5215 98.1564 25.4854L15.3231 22.3952C14.1162 22.3501 13.126 23.1896 13.126 24.2608V29.2889L99.9133 31.7724Z" fill="url(#paint24_linear_1052_1803)"/>
<path d="M19.1805 25.8777C19.1805 26.2542 18.8374 26.5486 18.4136 26.5351C17.9891 26.5217 17.6445 26.2048 17.6445 25.8273C17.6445 25.4498 17.9891 25.1555 18.4136 25.1699C18.8374 25.1843 19.1805 25.5012 19.1805 25.8777Z" fill="white"/>
<path d="M22.4868 25.9864C22.4868 26.3606 22.1477 26.6534 21.7288 26.6401C21.3093 26.6268 20.9688 26.3118 20.9688 25.9365C20.9688 25.5612 21.3093 25.2686 21.7288 25.2829C22.1477 25.2971 22.4868 25.6121 22.4868 25.9864Z" fill="white"/>
<path d="M25.7534 26.0937C25.7534 26.4658 25.4182 26.7568 25.0042 26.7437C24.5895 26.7306 24.2529 26.4175 24.2529 26.0444C24.2529 25.6713 24.5895 25.3803 25.0042 25.3944C25.4182 25.4085 25.7534 25.7216 25.7534 26.0937Z" fill="white"/>
<path d="M101.934 75.3455V85.1462C101.934 86.1865 101.083 87.0738 100.031 87.1185L96.8731 87.2527L12.8288 90.8048C11.5014 90.8611 10.3994 89.9464 10.3994 88.772V77.5717L47.8796 76.6599L101.934 75.3455Z" fill="url(#paint25_linear_1052_1803)"/>
<path opacity="0.1" d="M96.876 87.2527L12.8302 90.8048C11.5029 90.8611 10.3994 89.9464 10.3994 88.772V21.4823C10.3994 20.3094 11.5029 19.3918 12.8302 19.4451L20.1919 19.7409C21.3216 20.4984 22.331 21.4333 23.139 22.5442C23.1751 22.5932 23.2117 22.6423 23.2449 22.6914C23.8724 23.583 24.3193 24.5136 24.6323 25.4716C24.7708 25.89 24.8824 26.3127 24.9733 26.7412C25.1768 27.6891 25.2766 28.6572 25.3184 29.6383C25.4079 31.7116 25.2449 33.8397 25.2536 35.936C25.2709 40.185 25.5365 44.4311 28.3556 47.8519C30.4433 50.3854 33.8439 51.3478 36.666 52.8208C39.9599 54.5406 42.8498 56.8216 44.5233 60.2093C46.5779 64.3673 44.6489 68.8832 45.9618 73.1784C46.0628 73.5102 46.1825 73.8334 46.3196 74.1465C46.7164 75.0598 47.256 75.8966 47.9009 76.6598C47.937 76.7045 47.9744 76.7478 48.0134 76.7911C50.5253 79.6781 54.5464 81.4816 58.0321 82.3544C65.1853 84.1435 72.6041 81.043 79.7055 80.7991C84.8216 80.6245 91.897 81.7788 95.6597 85.6266C96.1142 86.0913 96.5225 86.6439 96.876 87.2527Z" fill="white"/>
<path d="M71.7963 47.4301V62.6321C71.7963 64.2745 70.7868 65.7948 69.0487 67.037C68.6321 67.3342 68.1804 67.6169 67.6844 67.8803C64.9793 69.3226 61.172 70.2204 56.9525 70.2204C52.7331 70.2204 48.9222 69.3226 46.2171 67.8803C43.6578 66.5174 42.0869 64.669 42.0869 62.6321V47.4301H71.7963Z" fill="url(#paint26_linear_1052_1803)"/>
<path opacity="0.3" d="M69.0605 67.037C68.644 67.3342 68.1864 67.6169 67.6903 67.8803C64.9853 69.3226 61.175 70.2204 56.9555 70.2204C52.736 70.2204 48.9237 69.3226 46.2186 67.8803C43.6593 66.5175 42.0869 64.669 42.0869 62.6321V54.7435C44.209 55.6649 47.1311 57.4692 47.6786 60.3847C48.5351 64.9471 54.8057 66.4924 61.04 65.4622C63.7863 65.0074 66.6616 65.7212 69.0605 67.037Z" fill="url(#paint27_linear_1052_1803)"/>
<path d="M79.6009 48.8448L57.3028 37.8328L35.0047 48.8448H34.165V49.2032L57.3666 60.6568L80.5682 49.2032V48.8448H79.6009Z" fill="url(#paint28_linear_1052_1803)"/>
<path d="M57.3025 37.3082L34.1104 48.7617L57.3025 60.2153L80.4946 48.7617L57.3025 37.3082Z" fill="url(#paint29_linear_1052_1803)"/>
<path d="M80.3553 64.6633C80.1852 64.6633 80.0017 64.5254 80.0017 64.3554V49.3419C80.0017 49.0023 79.8154 48.7034 79.4758 48.7034H57.3021C57.132 48.7034 56.9941 48.5906 56.9941 48.4205C56.9941 48.2504 57.132 48.1375 57.3021 48.1375H79.4758C80.1551 48.1375 80.709 48.6627 80.709 49.3419V64.3554C80.709 64.5255 80.5254 64.6633 80.3553 64.6633Z" fill="url(#paint30_linear_1052_1803)"/>
<path d="M81.1543 61.9349L80.8831 61.4686C80.7829 61.2918 80.5905 61.1838 80.3873 61.1871C80.184 61.1904 79.9971 61.3045 79.9026 61.4844L79.6594 61.9697C79.5979 62.0869 79.5771 62.2174 79.5771 62.3498V66.4341C79.5771 66.5218 79.9582 66.5929 80.426 66.5929C80.8938 66.5929 81.2748 66.5218 81.2748 66.4341V62.3382C81.2748 62.1969 81.224 62.0579 81.1543 61.9349Z" fill="url(#paint31_linear_1052_1803)"/>
<path d="M5.49121 89.9041L29.4455 88.8626L57.0449 89.8297L29.8174 95.781L5.49121 89.9041Z" fill="url(#paint32_linear_1052_1803)"/>
<path d="M24.7917 112.987L5.38836 107.765C3.43426 107.239 1.91602 105.303 1.91602 103.425V103.405C1.91602 101.527 3.43426 100.267 5.38836 100.612L26.1994 104.018L24.7917 112.987Z" fill="url(#paint33_linear_1052_1803)"/>
<path d="M57.0783 109.066L25.7266 112.567C23.7629 112.786 22.1484 111.417 22.1484 109.505V108.208C22.1484 106.297 23.7629 104.619 25.7266 104.462L57.0783 101.967C55.691 104.549 55.3709 106.966 57.0783 109.066Z" fill="url(#paint34_linear_1052_1803)"/>
<path d="M57.3513 109.413L25.9894 112.969C23.4281 113.26 21.3057 111.466 21.3057 108.965V108.937C21.3057 106.436 23.4281 104.236 25.9894 104.037L57.3513 101.59C57.54 101.576 57.6927 101.733 57.6927 101.941C57.6927 102.15 57.54 102.331 57.3513 102.347L25.9894 104.9C23.9289 105.068 22.2276 106.841 22.2276 108.849V108.877C22.2276 110.885 23.9289 112.332 25.9894 112.106L57.3513 108.657C57.54 108.636 57.6927 108.788 57.6927 108.997C57.6927 109.205 57.54 109.392 57.3513 109.413Z" fill="url(#paint35_linear_1052_1803)"/>
<path d="M25.6069 104.039L5.38836 100.612C3.43426 100.267 1.91602 97.7059 1.91602 94.8867V94.8557C1.91602 92.0364 3.43426 89.7992 5.38836 89.8718L26.8362 90.6685L25.6069 104.039Z" fill="url(#paint36_linear_1052_1803)"/>
<path d="M57.0783 101.043L27.4836 103.275C24.5649 103.496 22.1484 101.351 22.1484 98.4808V96.5336C22.1484 93.6633 24.5649 91.2706 27.4836 91.1911L57.0783 90.3842C55.6865 94.2543 55.3754 97.8781 57.0783 101.043Z" fill="url(#paint37_linear_1052_1803)"/>
<path d="M57.3513 101.591L25.9894 104.037C23.4281 104.236 21.3057 101.347 21.3057 97.5917V97.5505C21.3057 93.7954 23.4281 90.6876 25.9894 90.6239L57.3513 89.8445C57.54 89.8398 57.6927 90.0898 57.6927 90.4029C57.6927 90.716 57.54 90.9744 57.3513 90.9801L25.9894 91.9206C23.9289 91.9824 22.2276 94.4871 22.2276 97.5031V97.5442C22.2276 100.56 23.9289 102.89 25.9894 102.74L57.3513 100.455C57.54 100.441 57.6927 100.684 57.6927 100.997C57.6927 101.31 57.54 101.576 57.3513 101.591Z" fill="url(#paint38_linear_1052_1803)"/>
<path opacity="0.5" d="M19.3367 101.213L15.0148 100.458C14.0057 97.7034 14.0815 95.1731 15.0148 92.1488L19.3367 92.4561C18.4509 95.6385 18.585 98.5211 19.3367 101.213Z" fill="white"/>
<path d="M54.5039 54.4376L54.5469 43.1377C54.5496 42.4101 55.1332 41.9223 55.6341 42.2274L64.4911 47.6221C65.0387 47.9557 65.0319 48.9969 64.4799 49.3637L55.5809 55.2767C55.0791 55.61 54.5012 55.1607 54.5039 54.4376Z" fill="white"/>
<path d="M92.9402 109.156C92.9402 109.156 93.0282 109.856 92.9691 110.091C92.9099 110.326 90.8727 110.496 90.1812 110.414C89.4897 110.332 90.5931 109.626 91.0337 109.494C91.4742 109.361 92.9402 109.156 92.9402 109.156Z" fill="url(#paint39_linear_1052_1803)"/>
<path d="M91.915 107.987L92.1298 109.393C92.1298 109.393 92.6773 109.639 92.9406 109.396L92.9695 107.924L91.915 107.987Z" fill="url(#paint40_linear_1052_1803)"/>
<path d="M103.399 107.924C103.399 107.924 102.967 108.245 103.082 108.629C103.197 109.013 104.206 110.552 104.925 110.989C105.644 111.426 105.418 110.516 105.209 109.949C105 109.382 104.465 108.133 104.257 107.924C104.048 107.715 103.399 107.924 103.399 107.924Z" fill="url(#paint41_linear_1052_1803)"/>
<path d="M102.622 106.38C102.831 106.962 103.032 107.441 103.189 107.794C103.537 108.576 103.727 108.869 103.942 109.123C104.13 109.344 104.575 109.817 104.694 109.738C104.815 109.658 104.49 109.084 103.864 107.402C103.772 107.158 103.485 106.38 103.485 106.38H102.622Z" fill="url(#paint42_linear_1052_1803)"/>
<path d="M87.6488 82.0416C87.4997 83.5057 87.3566 85.778 87.5705 88.5358C87.8493 92.1288 88.5677 94.4025 89.4687 98.2335C90.0194 100.575 90.7613 104.021 91.4328 108.33C91.5886 108.419 92.0469 108.654 92.637 108.566C92.9674 108.517 93.2145 108.386 93.3604 108.292C95.1221 102.908 94.6018 99.5726 93.7516 97.4943C93.3892 96.6084 92.9499 95.9094 92.715 94.5476C92.4042 92.7459 92.7885 91.7387 93.3364 87.5652C93.7269 84.5906 93.6593 84.1308 93.3995 83.6847C92.3608 81.9011 89.1837 81.936 87.6488 82.0416Z" fill="url(#paint43_linear_1052_1803)"/>
<path d="M93.7119 82.6677C94.7911 88.241 95.8504 91.1682 96.6519 92.8238C96.8496 93.2321 97.5091 94.5495 98.1326 96.4381C98.6845 98.1097 98.9145 99.3395 99.0324 99.8807C99.4044 101.589 100.324 104.084 102.798 107.355C102.829 107.373 103.251 107.612 103.654 107.399C103.859 107.292 103.96 107.12 104.001 107.04C103.677 103.912 103.306 101.283 102.984 99.2547C102.916 98.8292 102.618 96.9678 102.151 94.5084C101.968 93.5459 101.7 92.1357 101.38 90.6873C100.98 88.8835 100.368 86.4296 99.4236 83.4892C97.5197 83.2153 95.6158 82.9416 93.7119 82.6677Z" fill="url(#paint44_linear_1052_1803)"/>
<path d="M76.5615 69.0424C76.8051 68.7568 77.0488 68.4713 77.2924 68.1858C77.4084 68.2744 79.0926 69.5164 81.1056 68.79C82.4916 68.2899 83.1526 67.0031 83.5764 66.1815C84.8492 63.7137 83.6728 62.1956 85.1671 60.4314C85.5821 59.9416 86.4402 59.2991 87.0696 59.3715C88.5691 59.544 90.0062 63.7822 89.0798 67.4012C88.8929 68.1316 87.8632 72.1535 84.3878 73.0556C81.5817 73.784 78.2784 72.1937 76.5615 69.0424Z" fill="url(#paint45_linear_1052_1803)"/>
<path d="M92.7928 60.6231C92.1807 60.0573 91.0098 59.4051 90.4225 57.889C90.2457 57.4327 89.6195 55.8157 90.5433 54.5789C91.0917 53.8446 92.1102 53.3461 93.0079 53.5226C93.7751 53.6734 93.895 54.2078 95.1987 55.2831C95.706 55.7016 96.5217 56.3744 97.4295 56.7484C98.9847 57.3894 99.919 56.7863 101.48 56.8551C103.398 56.9397 105.627 58.0101 106.7 59.5668C108.606 62.3296 105.845 65.1323 107.932 68.369C108.616 69.4293 108.953 69.1916 110.573 71.2443C112.195 73.2997 113.006 74.3273 112.862 75.5867C112.661 77.3345 110.779 79.0042 109.006 79.1176C107.274 79.2286 106.173 77.8661 105.292 78.4621C104.664 78.8861 105.023 79.7111 104.357 80.7025C103.498 81.9807 101.809 82.2354 101.536 82.2763C99.0049 82.6582 95.592 79.69 94.1424 76.1735C91.5285 69.8323 96.1201 63.6987 92.7928 60.6231Z" fill="url(#paint46_linear_1052_1803)"/>
<path opacity="0.3" d="M93.7515 97.4943C93.3892 96.6083 92.9498 95.9094 92.7149 94.5476C92.4041 92.7459 92.7884 91.7387 93.3363 87.5652C93.7269 84.5906 93.6593 84.1308 93.3994 83.6847C92.8349 82.7154 91.6387 82.2854 90.4179 82.1097C90.4342 82.1723 90.4506 82.235 90.4639 82.2956C91.1044 85.2208 88.6599 87.0057 89.7625 90.2213C90.3062 91.8067 91.1736 92.1698 91.3757 94.0088C91.565 95.7315 90.8783 96.0904 91.025 97.6561C91.2443 99.9966 92.9069 100.563 93.3396 102.355C93.6207 103.52 93.384 105.223 91.3307 107.688C91.3648 107.901 91.3989 108.114 91.4327 108.33C91.5886 108.419 92.0468 108.654 92.6369 108.566C92.9673 108.517 93.2144 108.386 93.3603 108.292C95.122 102.908 94.6017 99.5726 93.7515 97.4943Z" fill="url(#paint47_linear_1052_1803)"/>
<path opacity="0.3" d="M87.3233 63.5849C84.9983 66.0091 85.8373 69.9241 84.2601 70.3471C83.7783 70.4764 83.7532 70.0967 82.5311 69.8787C80.7437 69.5598 80.0181 70.2329 78.7564 69.9772C78.2338 69.8713 77.5339 69.5875 76.7733 68.7941C76.7027 68.8769 76.632 68.9596 76.5615 69.0424C78.2784 72.1937 81.5817 73.784 84.3878 73.0556C87.8632 72.1535 88.8929 68.1316 89.0799 67.4011C89.5145 65.7031 89.4288 63.8687 89.0604 62.382C88.4821 62.6414 87.8671 63.0179 87.3233 63.5849Z" fill="url(#paint48_linear_1052_1803)"/>
<path d="M85.3958 60.2017C85.5573 59.9507 86.0709 59.2556 88.2501 58.7432C89.0317 58.5594 90.2881 58.2819 91.8918 58.3408C92.1606 58.3506 93.0268 58.3949 93.9604 58.5972C95.9501 59.0283 99.9168 60.5433 100.055 62.6071C100.154 64.0809 98.1887 64.1756 97.077 66.7846C96.2671 68.6854 96.2723 71.06 97.1559 72.9071C97.865 74.3895 99.1196 75.5024 100.072 76.3477C101.501 77.6155 102.242 77.8103 102.721 78.9462C103.242 80.1831 102.717 80.7862 103.365 81.633C104.06 82.5423 104.876 82.1196 106.055 83.0392C107.263 83.9812 106.833 84.7564 107.933 85.7973C109.531 87.3097 111.649 86.8185 111.747 87.499C111.832 88.0844 110.327 88.8787 109.048 89.2008C106.515 89.8387 104.306 88.768 103.649 88.4379C101.831 87.5242 102.145 86.9328 100.758 86.2362C98.4362 85.0699 96.8494 86.3678 91.561 86.5014C88.6972 86.5739 87.2491 86.5902 86.4558 85.6212C85.7312 84.7361 86.1121 83.7654 86.5469 79.5816C86.5469 79.5816 86.5469 79.5815 86.5469 79.5811C86.6866 78.1838 86.9791 75.2584 86.981 73.5913C86.982 72.6061 86.6404 70.9963 85.957 67.7767C85.9166 67.5869 85.5468 65.8475 85.248 63.5239C84.9789 61.4315 85.0179 60.789 85.3958 60.2017Z" fill="url(#paint49_linear_1052_1803)"/>
<g opacity="0.3">
<path d="M107.932 85.7972C106.833 84.7563 107.263 83.981 106.054 83.0392C104.875 82.1196 104.06 82.5422 103.364 81.6329C102.716 80.7862 103.242 80.183 102.72 78.9462C102.241 77.8103 101.501 77.6156 100.072 76.3477C99.1188 75.5023 97.8643 74.3894 97.1551 72.9071C95.9243 70.3345 96.7849 67.5879 97.0763 66.7846C98.0125 64.2023 99.9031 62.8412 100.588 62.3951C100.522 62.324 97.3217 65.1733 97.2384 65.088C92.7248 65.7083 93.2158 65.3862 92.8904 66.1585C92.138 67.9437 93.3291 68.5996 93.3599 73.748C93.3745 76.209 93.1091 77.1807 93.9075 78.2078C94.8207 79.3826 95.8731 79.0191 97.1936 80.5551C98.2083 81.7352 98.0458 82.4833 98.9932 82.9805C100.012 83.515 100.661 82.892 101.81 83.1371C103.73 83.5464 104.14 85.7598 105.409 86.9708C106.369 87.8865 108.143 88.5267 111.642 87.8395C111.723 87.7217 111.762 87.6067 111.747 87.4989C111.648 86.8184 109.53 87.3096 107.932 85.7972Z" fill="url(#paint50_linear_1052_1803)"/>
</g>
<path d="M92.4949 55.807C92.4949 55.807 92.7225 57.6268 93.3942 58.0438C94.0659 58.4605 95.1517 59.0051 95.2713 59.153C95.391 59.3006 91.1105 59.7609 88.9893 58.6905C89.6883 58.5447 89.8783 58.4911 89.8783 58.4911C90.0681 58.4374 90.422 58.3377 90.7768 58.1355C91.0183 57.998 91.4075 57.7293 91.7645 57.2221L91.7567 56.2144L92.4949 55.807Z" fill="url(#paint51_linear_1052_1803)"/>
<path d="M92.5971 56.4516C92.5971 56.4516 92.1591 57.0526 91.4724 56.8021C90.8574 56.5778 91.2244 54.9896 91.7122 54.8084C91.8749 54.7481 92.1736 54.7748 92.3733 54.8994C92.5138 54.987 92.8889 55.4529 92.6739 55.9751C92.8292 55.9301 92.9659 55.9709 93.0002 56.0479C93.0437 56.1454 92.9121 56.2783 92.8824 56.3084C92.7791 56.4128 92.6545 56.442 92.5971 56.4516Z" fill="url(#paint52_linear_1052_1803)"/>
<path d="M107.319 81.2624C107.299 82.3366 106.884 83.2262 106.073 83.9312L69.1191 66.6755L70.3654 64.0066L107.319 81.2624Z" fill="url(#paint53_linear_1052_1803)"/>
<path d="M106.709 83.2279C106.922 82.9201 107.08 82.5861 107.182 82.2261L69.9716 64.8506L69.5029 65.8543L106.709 83.2279Z" fill="url(#paint54_linear_1052_1803)"/>
<path d="M70.3657 64.0066C70.4691 65.1262 70.0596 66.0184 69.1195 66.6755L61.337 61.5217C61.2494 61.4589 61.3136 61.3213 61.4181 61.3482L70.3657 64.0066Z" fill="url(#paint55_linear_1052_1803)"/>
<path d="M61.337 61.5217L64.3623 63.5251C64.6369 63.1867 64.8148 62.8054 64.8978 62.382L61.4181 61.3482C61.3136 61.3213 61.2494 61.4588 61.337 61.5217Z" fill="url(#paint56_linear_1052_1803)"/>
<path d="M77.7884 70.6027C77.7884 70.6027 76.6209 69.5566 76.2025 68.929C75.7841 68.3014 75.9933 69.6612 76.2025 70.0797C76.4117 70.4981 77.9097 71.5441 77.7884 70.6027Z" fill="url(#paint57_linear_1052_1803)"/>
<path d="M97.0728 59.6703C98.4315 60.3434 102.703 62.3628 103.635 68.188C104.567 74.0132 99.5966 77.0424 99.5966 77.0424L98.4315 76.2657C98.4315 76.2657 99.6742 67.1783 95.247 64.6152C90.8198 62.0521 97.0728 59.6703 97.0728 59.6703Z" fill="url(#paint58_linear_1052_1803)"/>
<path d="M98.7074 76.4493C98.4319 76.4986 98.2766 76.7316 97.6552 76.421C97.0338 76.1103 95.4805 76.4986 95.4805 76.4986C95.4805 76.4986 96.2571 77.1976 97.1115 77.0423C97.9659 76.887 98.7584 77.3086 98.9835 77.3697C99.2086 77.4307 99.2861 76.8351 99.2861 76.8351L98.7074 76.4493Z" fill="url(#paint59_linear_1052_1803)"/>
<path d="M76.799 88.7021V80.2508H71.317V88.7021C71.317 89.5252 70.8015 90.261 70.0269 90.5396C64.9843 92.3531 61.3496 97.3295 61.3496 101.916C61.3496 107.655 67.0394 110.61 74.058 110.61C81.0766 110.61 86.7664 107.655 86.7664 101.916C86.7664 97.3295 83.1316 92.3531 78.089 90.5396C77.3145 90.261 76.799 89.5252 76.799 88.7021Z" fill="url(#paint60_linear_1052_1803)"/>
<path d="M63.5248 97.9428C62.716 99.0597 62.2598 100.323 62.2598 101.66C62.2598 106.213 67.5418 109.904 74.0575 109.904C80.5732 109.904 85.8553 106.213 85.8553 101.66C85.8553 100.323 85.3991 99.0597 84.5902 97.9428H63.5248Z" fill="url(#paint61_linear_1052_1803)"/>
<path d="M74.0583 98.8565C79.8728 98.8565 84.5863 98.4474 84.5863 97.9428C84.5863 97.4382 79.8728 97.0291 74.0583 97.0291C68.2438 97.0291 63.5303 97.4382 63.5303 97.9428C63.5303 98.4474 68.2438 98.8565 74.0583 98.8565Z" fill="url(#paint62_linear_1052_1803)"/>
<g opacity="0.3">
<path d="M75.1585 106.83C73.7392 106.826 70.809 106.816 68.5552 104.629C67.1911 103.306 65.4908 100.619 66.3125 98.3998C67.559 95.0333 73.6181 95.4198 74.0372 92.627C74.2278 91.357 72.9967 91.1315 72.7082 88.9307C72.3902 86.5043 73.7244 85.5407 73.705 83.3241C73.698 82.5281 73.5155 81.4877 72.8125 80.2508H71.317V88.7021C71.317 89.5253 70.8015 90.2611 70.0269 90.5396C64.9843 92.3532 61.3496 97.3296 61.3496 101.916C61.3496 107.655 67.0394 110.61 74.058 110.61C81.0766 110.61 86.7664 107.655 86.7664 101.916C86.7664 101.589 86.7472 101.259 86.7109 100.929C84.7414 103.129 80.6262 106.849 75.1585 106.83Z" fill="white"/>
</g>
<path d="M76.5702 81.289H71.545C71.0633 81.289 70.6729 80.8986 70.6729 80.4169C70.6729 79.9352 71.0633 79.5448 71.545 79.5448H76.5702C77.0518 79.5448 77.4423 79.9352 77.4423 80.4169C77.4423 80.8986 77.0518 81.289 76.5702 81.289Z" fill="url(#paint63_linear_1052_1803)"/>
<defs>
<linearGradient id="paint0_linear_1052_1803" x1="71.5388" y1="19.7883" x2="78.9806" y2="35.9602" gradientUnits="userSpaceOnUse">
<stop offset="0.0036" stop-color="white"/>
<stop offset="1" stop-color="#F4F7FA"/>
</linearGradient>
<linearGradient id="paint1_linear_1052_1803" x1="81.8596" y1="-0.44615" x2="76.1101" y2="40.6621" gradientUnits="userSpaceOnUse">
<stop stop-color="#FFC444"/>
<stop offset="0.9964" stop-color="#F36F56"/>
</linearGradient>
<linearGradient id="paint2_linear_1052_1803" x1="80.4249" y1="-4.06053" x2="74.6754" y2="37.0477" gradientUnits="userSpaceOnUse">
<stop stop-color="#FFC444"/>
<stop offset="0.9964" stop-color="#F36F56"/>
</linearGradient>
<linearGradient id="paint3_linear_1052_1803" x1="78.5317" y1="-4.40364" x2="72.7822" y2="36.7046" gradientUnits="userSpaceOnUse">
<stop stop-color="#FFC444"/>
<stop offset="0.9964" stop-color="#F36F56"/>
</linearGradient>
<linearGradient id="paint4_linear_1052_1803" x1="76.2399" y1="-1.89068" x2="70.4905" y2="39.2176" gradientUnits="userSpaceOnUse">
<stop stop-color="#FFC444"/>
<stop offset="0.9964" stop-color="#F36F56"/>
</linearGradient>
<linearGradient id="paint5_linear_1052_1803" x1="91.8149" y1="5.72006" x2="76.7574" y2="31.5277" gradientUnits="userSpaceOnUse">
<stop stop-color="#FFC444"/>
<stop offset="0.9964" stop-color="#F36F56"/>
</linearGradient>
<linearGradient id="paint6_linear_1052_1803" x1="96.0249" y1="13.2474" x2="78.3593" y2="36.7582" gradientUnits="userSpaceOnUse">
<stop offset="0.0036" stop-color="white"/>
<stop offset="1" stop-color="#F4F7FA"/>
</linearGradient>
<linearGradient id="paint7_linear_1052_1803" x1="100.089" y1="13.4671" x2="78.8631" y2="41.1242" gradientUnits="userSpaceOnUse">
<stop offset="0.0036" stop-color="#E38DDD"/>
<stop offset="1" stop-color="#9571F6"/>
</linearGradient>
<linearGradient id="paint8_linear_1052_1803" x1="98.6575" y1="12.3681" x2="77.4321" y2="40.0252" gradientUnits="userSpaceOnUse">
<stop offset="0.0036" stop-color="#E38DDD"/>
<stop offset="1" stop-color="#9571F6"/>
</linearGradient>
<linearGradient id="paint9_linear_1052_1803" x1="97.2264" y1="11.2692" x2="76.001" y2="38.9263" gradientUnits="userSpaceOnUse">
<stop offset="0.0036" stop-color="#E38DDD"/>
<stop offset="1" stop-color="#9571F6"/>
</linearGradient>
<linearGradient id="paint10_linear_1052_1803" x1="99.6855" y1="5.10259" x2="78.46" y2="32.7597" gradientUnits="userSpaceOnUse">
<stop offset="0.0036" stop-color="#E38DDD"/>
<stop offset="1" stop-color="#9571F6"/>
</linearGradient>
<linearGradient id="paint11_linear_1052_1803" x1="98.7937" y1="15.3282" x2="81.1282" y2="38.8391" gradientUnits="userSpaceOnUse">
<stop offset="0.0036" stop-color="#E38DDD"/>
<stop offset="1" stop-color="#9571F6"/>
</linearGradient>
<linearGradient id="paint12_linear_1052_1803" x1="86.2525" y1="34.3588" x2="88.358" y2="51.1681" gradientUnits="userSpaceOnUse">
<stop offset="0.0036" stop-color="white"/>
<stop offset="1" stop-color="#F4F7FA"/>
</linearGradient>
<linearGradient id="paint13_linear_1052_1803" x1="106.428" y1="35.9565" x2="74.4937" y2="49.9406" gradientUnits="userSpaceOnUse">
<stop stop-color="#FF9085"/>
<stop offset="1" stop-color="#FB6FBB"/>
</linearGradient>
<linearGradient id="paint14_linear_1052_1803" x1="107.661" y1="33.4472" x2="75.7262" y2="47.4313" gradientUnits="userSpaceOnUse">
<stop stop-color="#FF9085"/>
<stop offset="1" stop-color="#FB6FBB"/>
</linearGradient>
<linearGradient id="paint15_linear_1052_1803" x1="108.081" y1="31.2937" x2="76.1469" y2="45.2778" gradientUnits="userSpaceOnUse">
<stop stop-color="#FF9085"/>
<stop offset="1" stop-color="#FB6FBB"/>
</linearGradient>
<linearGradient id="paint16_linear_1052_1803" x1="109.296" y1="28.7921" x2="77.3616" y2="42.7763" gradientUnits="userSpaceOnUse">
<stop stop-color="#FF9085"/>
<stop offset="1" stop-color="#FB6FBB"/>
</linearGradient>
<linearGradient id="paint17_linear_1052_1803" x1="106.407" y1="24.4163" x2="90.4931" y2="43.1595" gradientUnits="userSpaceOnUse">
<stop stop-color="#FF9085"/>
<stop offset="1" stop-color="#FB6FBB"/>
</linearGradient>
<linearGradient id="paint18_linear_1052_1803" x1="64.6053" y1="45.1783" x2="68.3065" y2="46.4682" gradientUnits="userSpaceOnUse">
<stop offset="0.0036" stop-color="#E38DDD"/>
<stop offset="1" stop-color="#9571F6"/>
</linearGradient>
<linearGradient id="paint19_linear_1052_1803" x1="10.875" y1="27.0828" x2="43.4573" y2="27.0828" gradientUnits="userSpaceOnUse">
<stop stop-color="#AA80F9"/>
<stop offset="0.9964" stop-color="#6165D7"/>
</linearGradient>
<linearGradient id="paint20_linear_1052_1803" x1="25.3388" y1="26.4928" x2="17.3676" y2="47.889" gradientUnits="userSpaceOnUse">
<stop offset="0.0036" stop-color="#E38DDD"/>
<stop offset="1" stop-color="#9571F6"/>
</linearGradient>
<linearGradient id="paint21_linear_1052_1803" x1="60.1946" y1="87.5664" x2="60.4919" y2="98.7176" gradientUnits="userSpaceOnUse">
<stop stop-color="#444B8C"/>
<stop offset="0.9964" stop-color="#26264F"/>
</linearGradient>
<linearGradient id="paint22_linear_1052_1803" x1="42.2182" y1="43.8473" x2="101.236" y2="72.5626" gradientUnits="userSpaceOnUse">
<stop stop-color="#444B8C"/>
<stop offset="0.6447" stop-color="#313365"/>
<stop offset="0.9964" stop-color="#26264F"/>
</linearGradient>
<linearGradient id="paint23_linear_1052_1803" x1="13.126" y1="52.1581" x2="99.9133" y2="52.1581" gradientUnits="userSpaceOnUse">
<stop stop-color="white"/>
<stop offset="0.9964" stop-color="#EBEFF2"/>
</linearGradient>
<linearGradient id="paint24_linear_1052_1803" x1="38.3577" y1="-37.327" x2="67.0548" y2="66.1635" gradientUnits="userSpaceOnUse">
<stop stop-color="#AA80F9"/>
<stop offset="0.9964" stop-color="#6165D7"/>
</linearGradient>
<linearGradient id="paint25_linear_1052_1803" x1="29.6145" y1="69.7413" x2="88.636" y2="98.4584" gradientUnits="userSpaceOnUse">
<stop stop-color="#444B8C"/>
<stop offset="0.9964" stop-color="#26264F"/>
</linearGradient>
<linearGradient id="paint26_linear_1052_1803" x1="49.848" y1="252.163" x2="57.2129" y2="47.528" gradientUnits="userSpaceOnUse">
<stop stop-color="#AA80F9"/>
<stop offset="0.9964" stop-color="#6165D7"/>
</linearGradient>
<linearGradient id="paint27_linear_1052_1803" x1="55.2395" y1="70.1777" x2="55.7772" y2="55.2363" gradientUnits="userSpaceOnUse">
<stop stop-color="#AA80F9"/>
<stop offset="0.9964" stop-color="#6165D7"/>
</linearGradient>
<linearGradient id="paint28_linear_1052_1803" x1="59.5623" y1="32.6437" x2="56.484" y2="55.6086" gradientUnits="userSpaceOnUse">
<stop stop-color="#AA80F9"/>
<stop offset="0.9964" stop-color="#6165D7"/>
</linearGradient>
<linearGradient id="paint29_linear_1052_1803" x1="59.0848" y1="26.1132" x2="55.062" y2="77.2315" gradientUnits="userSpaceOnUse">
<stop stop-color="#AA80F9"/>
<stop offset="0.9964" stop-color="#6165D7"/>
</linearGradient>
<linearGradient id="paint30_linear_1052_1803" x1="82.2034" y1="33.1595" x2="55.1593" y2="80.1977" gradientUnits="userSpaceOnUse">
<stop stop-color="#FFC444"/>
<stop offset="0.9964" stop-color="#F36F56"/>
</linearGradient>
<linearGradient id="paint31_linear_1052_1803" x1="79.2425" y1="75.4257" x2="81.0125" y2="58.8797" gradientUnits="userSpaceOnUse">
<stop stop-color="#FFC444"/>
<stop offset="0.9964" stop-color="#F36F56"/>
</linearGradient>
<linearGradient id="paint32_linear_1052_1803" x1="5.49123" y1="92.3218" x2="57.0449" y2="92.3218" gradientUnits="userSpaceOnUse">
<stop stop-color="#FFC444"/>
<stop offset="0.9964" stop-color="#F36F56"/>
</linearGradient>
<linearGradient id="paint33_linear_1052_1803" x1="11.1998" y1="112.761" x2="15.4023" y2="103.202" gradientUnits="userSpaceOnUse">
<stop stop-color="#AA80F9"/>
<stop offset="0.9964" stop-color="#6165D7"/>
</linearGradient>
<linearGradient id="paint34_linear_1052_1803" x1="22.1485" y1="107.278" x2="57.0783" y2="107.278" gradientUnits="userSpaceOnUse">
<stop stop-color="#FF9085"/>
<stop offset="1" stop-color="#FB6FBB"/>
</linearGradient>
<linearGradient id="paint35_linear_1052_1803" x1="21.3057" y1="107.295" x2="57.6928" y2="107.295" gradientUnits="userSpaceOnUse">
<stop stop-color="#AA80F9"/>
<stop offset="0.9964" stop-color="#6165D7"/>
</linearGradient>
<linearGradient id="paint36_linear_1052_1803" x1="17.3005" y1="86.9873" x2="9.93295" y2="111.804" gradientUnits="userSpaceOnUse">
<stop stop-color="#FFC444"/>
<stop offset="0.9964" stop-color="#F36F56"/>
</linearGradient>
<linearGradient id="paint37_linear_1052_1803" x1="22.1484" y1="96.8377" x2="57.0783" y2="96.8377" gradientUnits="userSpaceOnUse">
<stop stop-color="#FF9085"/>
<stop offset="1" stop-color="#FB6FBB"/>
</linearGradient>
<linearGradient id="paint38_linear_1052_1803" x1="21.3057" y1="96.9454" x2="57.6928" y2="96.9454" gradientUnits="userSpaceOnUse">
<stop stop-color="#FFC444"/>
<stop offset="0.9964" stop-color="#F36F56"/>
</linearGradient>
<linearGradient id="paint39_linear_1052_1803" x1="91.1762" y1="104.649" x2="91.8804" y2="117.324" gradientUnits="userSpaceOnUse">
<stop stop-color="#444B8C"/>
<stop offset="0.9964" stop-color="#26264F"/>
</linearGradient>
<linearGradient id="paint40_linear_1052_1803" x1="92.5065" y1="110.895" x2="92.1325" y2="93.7814" gradientUnits="userSpaceOnUse">
<stop stop-color="#FFC444"/>
<stop offset="0.9964" stop-color="#F36F56"/>
</linearGradient>
<linearGradient id="paint41_linear_1052_1803" x1="103.922" y1="103.941" x2="104.626" y2="116.616" gradientUnits="userSpaceOnUse">
<stop stop-color="#444B8C"/>
<stop offset="0.9964" stop-color="#26264F"/>
</linearGradient>
<linearGradient id="paint42_linear_1052_1803" x1="103.728" y1="110.65" x2="103.354" y2="93.5361" gradientUnits="userSpaceOnUse">
<stop stop-color="#FFC444"/>
<stop offset="0.9964" stop-color="#F36F56"/>
</linearGradient>
<linearGradient id="paint43_linear_1052_1803" x1="106.608" y1="84.9361" x2="84.4017" y2="99.0438" gradientUnits="userSpaceOnUse">
<stop stop-color="#311944"/>
<stop offset="1" stop-color="#A03976"/>
</linearGradient>
<linearGradient id="paint44_linear_1052_1803" x1="92.3523" y1="100.956" x2="108.999" y2="85.4316" gradientUnits="userSpaceOnUse">
<stop stop-color="#311944"/>
<stop offset="1" stop-color="#A03976"/>
</linearGradient>
<linearGradient id="paint45_linear_1052_1803" x1="78.3557" y1="66.9051" x2="96.7375" y2="65.2482" gradientUnits="userSpaceOnUse">
<stop stop-color="#FF9085"/>
<stop offset="1" stop-color="#FB6FBB"/>
</linearGradient>
<linearGradient id="paint46_linear_1052_1803" x1="113.219" y1="79.6621" x2="96.909" y2="65.5657" gradientUnits="userSpaceOnUse">
<stop stop-color="#311944"/>
<stop offset="1" stop-color="#6B3976"/>
</linearGradient>
<linearGradient id="paint47_linear_1052_1803" x1="87.9797" y1="100.448" x2="95.0872" y2="90.9086" gradientUnits="userSpaceOnUse">
<stop stop-color="#311944"/>
<stop offset="1" stop-color="#6B3976"/>
</linearGradient>
<linearGradient id="paint48_linear_1052_1803" x1="76.5756" y1="69.1438" x2="89.801" y2="67.3106" gradientUnits="userSpaceOnUse">
<stop stop-color="#FF9085"/>
<stop offset="1" stop-color="#FB6FBB"/>
</linearGradient>
<linearGradient id="paint49_linear_1052_1803" x1="79.1472" y1="75.6848" x2="97.529" y2="74.0278" gradientUnits="userSpaceOnUse">
<stop stop-color="#FF9085"/>
<stop offset="1" stop-color="#FB6FBB"/>
</linearGradient>
<linearGradient id="paint50_linear_1052_1803" x1="98.7132" y1="58.6801" x2="102.741" y2="83.3109" gradientUnits="userSpaceOnUse">
<stop stop-color="#FF9085"/>
<stop offset="1" stop-color="#FB6FBB"/>
</linearGradient>
<linearGradient id="paint51_linear_1052_1803" x1="91.9004" y1="59.2619" x2="96.249" y2="52.9493" gradientUnits="userSpaceOnUse">
<stop stop-color="#FFC444"/>
<stop offset="0.9964" stop-color="#F36F56"/>
</linearGradient>
<linearGradient id="paint52_linear_1052_1803" x1="91.5062" y1="56.06" x2="98.3798" y2="51.9218" gradientUnits="userSpaceOnUse">
<stop stop-color="#FFC444"/>
<stop offset="0.9964" stop-color="#F36F56"/>
</linearGradient>
<linearGradient id="paint53_linear_1052_1803" x1="86.7866" y1="74.8889" x2="93.8506" y2="70.3522" gradientUnits="userSpaceOnUse">
<stop stop-color="#AB316D"/>
<stop offset="1" stop-color="#792D3D"/>
</linearGradient>
<linearGradient id="paint54_linear_1052_1803" x1="89.535" y1="70.0948" x2="88.1072" y2="74.8186" gradientUnits="userSpaceOnUse">
<stop stop-color="#AB316D"/>
<stop offset="1" stop-color="#792D3D"/>
</linearGradient>
<linearGradient id="paint55_linear_1052_1803" x1="61.7106" y1="60.5616" x2="82.4732" y2="72.9164" gradientUnits="userSpaceOnUse">
<stop stop-color="#FFC444"/>
<stop offset="0.9964" stop-color="#F36F56"/>
</linearGradient>
<linearGradient id="paint56_linear_1052_1803" x1="59.469" y1="60.3959" x2="67.2308" y2="64.2425" gradientUnits="userSpaceOnUse">
<stop stop-color="#AB316D"/>
<stop offset="1" stop-color="#792D3D"/>
</linearGradient>
<linearGradient id="paint57_linear_1052_1803" x1="76.7943" y1="69.3727" x2="78.9609" y2="82.6224" gradientUnits="userSpaceOnUse">
<stop stop-color="#FFC444"/>
<stop offset="0.9964" stop-color="#F36F56"/>
</linearGradient>
<linearGradient id="paint58_linear_1052_1803" x1="98.9299" y1="75.1825" x2="98.5674" y2="60.4253" gradientUnits="userSpaceOnUse">
<stop stop-color="#FF9085"/>
<stop offset="1" stop-color="#FB6FBB"/>
</linearGradient>
<linearGradient id="paint59_linear_1052_1803" x1="96.8763" y1="76.2999" x2="100.643" y2="79.0571" gradientUnits="userSpaceOnUse">
<stop stop-color="#FFC444"/>
<stop offset="0.9964" stop-color="#F36F56"/>
</linearGradient>
<linearGradient id="paint60_linear_1052_1803" x1="83.3255" y1="80.8175" x2="60.5166" y2="132.238" gradientUnits="userSpaceOnUse">
<stop offset="0.0036" stop-color="#E38DDD"/>
<stop offset="1" stop-color="#9571F6"/>
</linearGradient>
<linearGradient id="paint61_linear_1052_1803" x1="62.2598" y1="103.923" x2="85.8553" y2="103.923" gradientUnits="userSpaceOnUse">
<stop stop-color="#AA80F9"/>
<stop offset="0.9964" stop-color="#6165D7"/>
</linearGradient>
<linearGradient id="paint62_linear_1052_1803" x1="73.6746" y1="98.4563" x2="79.1982" y2="91.0639" gradientUnits="userSpaceOnUse">
<stop stop-color="#AA80F9"/>
<stop offset="0.9964" stop-color="#6165D7"/>
</linearGradient>
<linearGradient id="paint63_linear_1052_1803" x1="74.931" y1="78.4478" x2="72.1135" y2="84.7996" gradientUnits="userSpaceOnUse">
<stop offset="0.0036" stop-color="#E38DDD"/>
<stop offset="1" stop-color="#9571F6"/>
</linearGradient>
</defs>
</svg>
