<svg width="159" height="113" viewBox="0 0 159 113" fill="none" xmlns="http://www.w3.org/2000/svg">
<path d="M55.0309 88.2327V105.501H52.4243L50.7952 95.0748L49.3291 87.0924L55.0309 88.2327Z" fill="#CAB5A1"/>
<path d="M49.3301 86.4408L48.3526 93.9344L47.0494 105.99L44.4428 105.827V96.541L43.1396 87.0924L49.3301 86.4408Z" fill="#CAB5A1"/>
<path d="M44.805 61.5237C44.805 61.5237 47.3674 60.3652 49.52 64.187C51.6725 68.009 57.7338 79.2395 59.5034 85.513C61.2731 91.7865 56.1214 88.7302 51.4298 90.7684C46.738 92.8067 42.7331 93.9131 42.0079 91.0719C41.2825 88.2308 33.3813 64.5238 44.805 61.5237Z" fill="#B26650"/>
<path d="M43.958 53.1525C41.1124 49.4416 36.353 52.7324 36.5613 56.795C36.6797 59.1053 38.7375 62.6987 41.3986 62.1314C41.6176 62.4765 42.0083 63.1334 42.408 63.2364C42.8409 63.3479 43.6602 62.6202 43.9874 62.3472C44.0782 62.2715 44.1706 62.1877 44.2074 62.0755C44.2535 61.9349 44.1427 61.6762 44.0042 61.3976C44.2669 61.2418 44.5187 61.0482 44.7553 60.8118C45.7479 59.8198 46.0531 58.2814 45.8027 56.8986C45.5522 55.5159 44.8133 54.2676 43.958 53.1525Z" fill="#EACDB0"/>
<path d="M40.6238 52.5497C40.6238 52.5497 37.0954 53.9726 37.3075 55.4958C37.6264 57.7856 37.6881 59.3436 38.0299 60.6839L35.2272 59.512L33.11 55.4593C33.11 55.4593 32.9268 51.9136 34.6698 51.0497C36.4127 50.186 40.1359 49.0463 40.1359 49.0463L43.1571 49.5572L45.2683 49.1079L45.4218 55.6079C45.4218 55.6079 43.8475 51.1691 40.6238 52.5497Z" fill="#5C3C30"/>
<path d="M55.031 105.501L56.4971 106.967L55.8455 107.945L52.9131 106.967V105.501H55.031Z" fill="#8C9498"/>
<path d="M46.6143 105.962L46.0712 108.107L44.2792 108.759L43.3018 108.27L44.8192 105.85L46.6143 105.962Z" fill="#8C9498"/>
<path d="M10.7611 103.736C14.2561 111.369 23.1598 115.007 31.0544 111.878C36.2965 109.799 39.8173 105.242 40.8056 100.086L56.6761 93.7939C60.9292 96.8719 66.6159 97.7783 71.8579 95.6999C79.7525 92.5698 83.744 83.8186 81.0589 75.8642L81.0851 75.8608L70.7284 49.7388L70.6974 49.7443C68.6242 45.4971 63.5954 43.4987 59.1286 45.2697C55.5951 46.6706 53.4222 50.0304 53.3613 53.6075L52.5356 65.7154L24.5809 76.7987L15.6827 68.546C13.1871 65.9824 9.3024 65.0245 5.76892 66.4253C1.30208 68.1963 -0.991263 73.0977 0.409281 77.6116L0.382895 77.6288L10.7396 103.751L10.7611 103.736Z" fill="#2E4661"/>
<path d="M10.7611 103.701C10.7611 103.701 -0.491274 72.8571 13.9246 67.1404C11.5555 65.6832 8.55346 65.3216 5.76892 66.4255C1.30208 68.1964 -0.991264 73.0978 0.409281 77.6118L0.382895 77.6289L10.7369 103.744L10.7611 103.701Z" fill="#283D54"/>
<path d="M57.2003 83.191L61.1444 81.6272C61.5982 81.4473 62.1119 81.6693 62.2918 82.1232L63.8556 86.0672C64.0355 86.521 64.5492 86.7431 65.003 86.5632L68.947 84.9994C69.4008 84.8195 69.6229 84.3058 69.443 83.852L67.8792 79.908C67.6993 79.4542 67.9214 78.9405 68.3752 78.7605L72.2371 77.2294C72.6909 77.0495 72.913 76.5358 72.7331 76.082L71.1693 72.1379C70.9893 71.6842 70.4756 71.4621 70.0219 71.642L66.16 73.1731C65.7062 73.3531 65.1925 73.1311 65.0125 72.6771L63.4814 68.8153C63.3015 68.3615 62.7878 68.1394 62.334 68.3193L58.39 69.8831C57.9362 70.063 57.7141 70.5767 57.894 71.0305L59.4251 74.8924C59.6051 75.3462 59.3829 75.8599 58.9292 76.0398L54.9851 77.6036C54.5313 77.7835 54.3094 78.2972 54.4891 78.751L56.0529 82.695C56.2327 83.149 56.7466 83.3711 57.2003 83.191Z" fill="#283D54"/>
<path d="M27.7055 99.4442C27.7591 97.8175 26.4838 96.4554 24.8571 96.4018C23.2304 96.3483 21.8683 97.6236 21.8147 99.2503C21.7612 100.877 23.0365 102.239 24.6632 102.293C26.2899 102.346 27.652 101.071 27.7055 99.4442Z" fill="#283D54"/>
<path d="M30.7137 92.7501C31.3593 91.2562 30.6717 89.5217 29.1778 88.8761C27.6839 88.2304 25.9494 88.9181 25.3038 90.412C24.6582 91.9059 25.3458 93.6403 26.8397 94.286C28.3336 94.9316 30.068 94.244 30.7137 92.7501Z" fill="#283D54"/>
<path d="M19.9901 97.0012C20.6357 95.5073 19.948 93.7729 18.4541 93.1272C16.9602 92.4816 15.2258 93.1693 14.5802 94.6632C13.9345 96.1571 14.6222 97.8915 16.1161 98.5371C17.61 99.1828 19.3444 98.4951 19.9901 97.0012Z" fill="#283D54"/>
<path d="M23.0779 89.4828C23.7236 87.9889 23.0359 86.2544 21.542 85.6088C20.0481 84.9632 18.3137 85.6508 17.6681 87.1447C17.0224 88.6386 17.7101 90.3731 19.204 91.0187C20.6979 91.6643 22.4323 90.9767 23.0779 89.4828Z" fill="#283D54"/>
<path d="M58.3459 83.6862L62.2899 82.1224C62.7437 81.9425 63.2574 82.1646 63.4374 82.6184L65.0011 86.5624C65.1811 87.0162 65.6948 87.2383 66.1486 87.0584L70.0926 85.4946C70.5464 85.3147 70.7685 84.801 70.5886 84.3472L69.0248 80.4032C68.8449 79.9494 69.0668 79.4357 69.5208 79.2557L73.3827 77.7246C73.8364 77.5447 74.0586 77.031 73.8786 76.5772L72.3148 72.6332C72.1349 72.1794 71.6212 71.9573 71.1674 72.1372L67.3055 73.6683C66.8517 73.8483 66.338 73.6263 66.1581 73.1725L64.627 69.3106C64.447 68.8568 63.9333 68.6349 63.4796 68.8147L59.5355 70.3784C59.0817 70.5584 58.8596 71.0721 59.0396 71.5259L60.5707 75.3877C60.7506 75.8415 60.5286 76.3552 60.0747 76.5352L56.1307 78.0989C55.6769 78.2789 55.4548 78.7926 55.6347 79.2464L57.1985 83.1904C57.3784 83.6442 57.8921 83.8661 58.3459 83.6862Z" fill="#FFDB8C"/>
<path d="M26.5752 102.712C28.16 102.342 29.1448 100.757 28.7747 99.172C28.4046 97.5871 26.8198 96.6024 25.2349 96.9725C23.65 97.3426 22.6653 98.9274 23.0354 100.512C23.4055 102.097 24.9903 103.082 26.5752 102.712Z" fill="#FFDB8C"/>
<path d="M31.8592 93.2454C32.5048 91.7515 31.8172 90.017 30.3233 89.3714C28.8294 88.7257 27.0949 89.4134 26.4493 90.9073C25.8037 92.4012 26.4913 94.1356 27.9852 94.7813C29.4791 95.4269 31.2136 94.7393 31.8592 93.2454Z" fill="#FFDB8C"/>
<path d="M21.1356 97.4965C21.7812 96.0026 21.0935 94.2682 19.5996 93.6225C18.1057 92.9769 16.3713 93.6646 15.7257 95.1585C15.08 96.6524 15.7677 98.3868 17.2616 99.0324C18.7555 99.6781 20.4899 98.9904 21.1356 97.4965Z" fill="#FFDB8C"/>
<path d="M22.8911 91.4209C24.3344 90.6686 24.8946 88.8888 24.1424 87.4455C23.3901 86.0022 21.6103 85.442 20.167 86.1943C18.7237 86.9465 18.1635 88.7263 18.9158 90.1696C19.668 91.6129 21.4478 92.1731 22.8911 91.4209Z" fill="#FFDB8C"/>
<path d="M68.3542 92.5896C66.0461 93.5048 63.6472 93.8117 61.335 93.5875C64.3956 94.8578 67.9341 94.9852 71.2579 93.6674C78.0349 90.9805 81.3506 83.3085 78.6637 76.5313C78.2514 75.4914 77.7208 74.5337 77.095 73.666C79.6814 81.2484 75.8829 89.6047 68.3542 92.5896Z" fill="#385575"/>
<path d="M67.2859 45.9843C64.9166 44.5267 61.9134 44.1656 59.1287 45.2697C55.5952 46.6705 53.4223 50.0303 53.3615 53.6075L52.5605 65.3533C52.5605 65.3524 53.7941 51.3334 67.2859 45.9843Z" fill="#283D54"/>
<path d="M27.892 79.8941L40.0478 75.1071L52.2035 70.3202L52.5357 65.6916L38.5354 71.2665L24.4932 76.7348L27.892 79.8941Z" fill="#283D54"/>
<path d="M41.2183 63.7108C41.2183 63.7108 28.2739 72.4088 41.2433 80.906C44.3739 82.6949 44.3739 82.6949 44.3739 82.6949L45.8646 81.2041L39.3054 72.2597L41.8396 67.4397L41.2183 63.7108Z" fill="#B26650"/>
<path d="M45.8848 61.3623C45.8848 61.3623 53.7402 59.1948 53.4552 71.5411C53.4681 76.2847 53.4681 78.819 53.4681 78.819H51.232L48.6978 67.539L45.8848 61.3623Z" fill="#B26650"/>
<path d="M51.3563 78.819L51.083 80.7569L51.8284 81.6514H52.7228L52.847 78.819H51.3563Z" fill="#EACDB0"/>
<path d="M45.6293 81.4401L47.0579 82.0986L47.207 83.7384L46.4616 83.8875L44.9336 82.1358L45.6293 81.4401Z" fill="#EACDB0"/>
<path d="M127.109 15.7609L108.624 18.7424L92.3754 13.2267L89.543 16.9535L107.793 25.9687L122.19 25.1526L127.109 15.7609Z" fill="#A1BDCC"/>
<path d="M137.706 20.4449L146.638 35.7367L157.651 45.9049L154.688 49.8987L141.725 41.3522L131.808 28.1036L137.706 20.4449Z" fill="#A1BDCC"/>
<path d="M113.884 49.7877L113.321 73.7876L117.477 104.79L120.955 104.831L123.491 76.3005L128.589 47.8004L113.884 49.7877Z" fill="#8C9498"/>
<path d="M120.94 104.417L120.918 106.298L117.135 108.133L115.276 106.231L117.179 104.372L120.94 104.417Z" fill="#3A3029"/>
<path d="M132.776 105.323L129.785 107.865L130.533 109.36L136.065 108.164V105.323H132.776Z" fill="#3A3029"/>
<path d="M125.945 59.2287L128.431 82.4915L131.711 105.679L136.389 105.457L136.219 81.4019L139.035 59.0913L132.421 56.0105L125.945 59.2287Z" fill="#8C9498"/>
<path d="M126.905 15.7991C126.905 15.7994 120.656 18.7843 115.307 30.5468C109.861 42.5247 108.101 59.1306 108.101 59.1306C108.101 59.1306 139.876 69.1802 139.958 63.6652C139.958 63.6652 147.144 20.0333 132.854 16.9425C132.204 16.8019 127.298 15.5764 126.905 15.7991Z" fill="#A1BDCC"/>
<path d="M128.591 15.9286C125.3 21.572 122.198 28.2534 118.844 33.8598C116.856 37.1819 116.326 40.8673 115.588 44.598C114.854 48.3071 114.12 52.016 113.386 55.7251C113.076 57.2922 112.766 58.8592 112.456 60.4265L125.859 63.7527C125.707 59.1146 125.441 54.4795 125.375 49.8391C125.315 45.5592 124.982 40.7173 126.342 36.601C127.004 34.5973 127.696 32.5992 128.368 30.5973C129.601 26.9244 130.456 23.1091 131.721 19.4471C131.81 19.1911 131.831 16.9425 131.784 16.6672L128.591 15.9286Z" fill="white"/>
<path d="M128.626 17.5504C129.704 17.4379 130.782 17.3253 131.86 17.2128C131.866 16.3481 131.803 15.4832 131.671 14.6287C132.569 14.3079 133.605 13.8283 133.757 12.8874C133.805 12.591 133.752 12.2887 133.7 11.9931C133.482 10.7713 133.264 9.54934 133.046 8.32754C132.971 7.90492 132.891 7.46992 132.659 7.10872C132.252 6.47486 131.467 6.20071 130.725 6.07579C128.829 5.75692 126.768 6.1779 125.306 7.4258C124.917 7.75793 124.565 8.15656 124.396 8.63911C124.134 9.38313 124.337 10.2012 124.541 10.9632C124.73 11.6663 124.918 12.3695 125.107 13.0727C125.324 13.8814 125.636 14.8006 126.417 15.1002C126.833 15.2593 127.321 15.2097 127.698 15.4464C128.362 15.8637 128.278 16.8477 128.626 17.5504Z" fill="#EACDB0"/>
<path d="M122.587 9.5155L125.216 13.245L124.278 9.60957L122.587 9.5155Z" fill="#3A3029"/>
<path d="M118.004 5.39392C117.977 4.55553 118.09 3.70625 118.252 2.94046C118.532 1.62459 120.078 1.02383 121.419 0.921861C124.316 0.70168 127.105 -0.630438 129.942 0.365074C131.563 0.934236 133.737 1.05916 135.206 1.86684C135.82 2.20419 136.311 2.7337 136.695 3.31941C138.024 5.34889 138.045 8.15669 136.748 10.2066C136.457 10.6665 136.108 11.0873 135.741 11.4894C134.982 12.3215 134.074 13.3492 133.025 13.6615C132.995 12.7219 133.836 9.75416 133.11 8.98778C131.958 7.77149 129.371 8.2114 127.952 8.51968C126.404 8.85599 125.028 9.96078 123.493 10.2032C122.388 10.3776 120.974 9.84286 120.031 9.27623C118.553 8.38835 118.052 6.9088 118.004 5.39392Z" fill="#3A3029"/>
<path d="M156.355 48.801C159.679 41.0917 156.413 32.0446 148.799 28.2823C143.744 25.7841 138.002 26.2245 133.513 28.9461L118.207 21.3827C117.642 16.1632 114.504 11.3349 109.448 8.83669C101.835 5.07438 92.6641 7.97609 88.5594 15.2996L88.5393 15.2825L76.0904 40.4745L76.1153 40.4938C74.3521 44.8788 76.2388 49.9505 80.5465 52.0793C83.9542 53.7632 87.9041 53.1246 90.6 50.7727L100.14 43.2718L127.1 56.594L126.937 68.729C126.707 72.2993 128.599 75.8248 132.007 77.5087C136.314 79.6375 141.489 78.0552 143.901 73.9907L143.932 73.9988L156.38 48.8065L156.355 48.801Z" fill="#2E4661"/>
<path d="M156.329 48.824C156.329 48.824 140.976 77.8453 127.072 70.976C127.578 73.7109 129.321 76.1816 132.007 77.5085C136.315 79.6373 141.489 78.055 143.901 73.9906L143.932 73.9986L156.377 48.8131L156.329 48.824Z" fill="#283D54"/>
<path d="M109.986 28.0989L106.183 26.2192C105.745 26.0029 105.565 25.4728 105.782 25.0351L107.661 21.2314C107.878 20.7937 107.698 20.2636 107.261 20.0473L103.457 18.1676C103.019 17.9513 102.489 18.1308 102.273 18.5685L100.393 22.3722C100.177 22.8099 99.6467 22.9894 99.209 22.7731L95.4845 20.9326C95.0469 20.7163 94.5168 20.8958 94.3005 21.3335L92.4208 25.1372C92.2045 25.5749 92.384 26.105 92.8217 26.3213L96.5461 28.1618C96.9838 28.3781 97.1633 28.9082 96.947 29.3459L95.1065 33.0703C94.8902 33.508 95.0697 34.0381 95.5074 34.2544L99.3111 36.1341C99.7488 36.3504 100.279 36.1709 100.495 35.7332L102.336 32.0088C102.552 31.5711 103.082 31.3916 103.52 31.6079L107.323 33.4876C107.761 33.7039 108.291 33.5244 108.507 33.0867L110.387 29.283C110.604 28.8451 110.424 28.315 109.986 28.0989Z" fill="#283D54"/>
<path d="M144.672 44.1389C146.213 43.617 147.04 41.9441 146.518 40.4026C145.996 38.861 144.323 38.0344 142.782 38.5563C141.24 39.0783 140.413 40.7511 140.935 42.2927C141.457 43.8343 143.13 44.6609 144.672 44.1389Z" fill="#283D54"/>
<path d="M136.719 46.9266C138.261 46.4046 139.088 44.7318 138.566 43.1902C138.044 41.6486 136.371 40.8221 134.829 41.344C133.288 41.8659 132.461 43.5388 132.983 45.0804C133.505 46.6219 135.178 47.4485 136.719 46.9266Z" fill="#283D54"/>
<path d="M147.062 52.0366C148.604 51.5147 149.43 49.8419 148.909 48.3003C148.387 46.7587 146.714 45.9321 145.172 46.454C143.631 46.976 142.804 48.6488 143.326 50.1904C143.848 51.732 145.521 52.5586 147.062 52.0366Z" fill="#283D54"/>
<path d="M139.412 54.7833C140.953 54.2613 141.78 52.5885 141.258 51.0469C140.736 49.5053 139.063 48.6787 137.522 49.2007C135.98 49.7226 135.154 51.3955 135.676 52.937C136.197 54.4786 137.87 55.3052 139.412 54.7833Z" fill="#283D54"/>
<path d="M109.586 26.9166L105.782 25.037C105.345 24.8207 105.165 24.2906 105.381 23.853L107.261 20.0493C107.477 19.6116 107.298 19.0815 106.86 18.8653L103.056 16.9857C102.619 16.7694 102.089 16.9488 101.872 17.3865L99.9927 21.1903C99.7764 21.628 99.2463 21.8074 98.8086 21.5911L95.0842 19.7507C94.6465 19.5344 94.1164 19.7139 93.9001 20.1515L92.0204 23.9553C91.8041 24.393 91.9836 24.9231 92.4213 25.1394L96.1457 26.9798C96.5834 27.1962 96.7629 27.7263 96.5466 28.1639L94.7061 31.8884C94.4898 32.3261 94.6693 32.8562 95.107 33.0723L98.9107 34.952C99.3484 35.1683 99.8785 34.9888 100.095 34.5511L101.935 30.8267C102.152 30.389 102.682 30.2095 103.119 30.4258L106.923 32.3055C107.361 32.5218 107.891 32.3423 108.107 31.9046L109.987 28.1009C110.203 27.6631 110.024 27.133 109.586 26.9166Z" fill="#FFDB8C"/>
<path d="M143.322 43.1169C144.949 43.1169 146.269 41.7975 146.269 40.17C146.269 38.5424 144.949 37.2231 143.322 37.2231C141.694 37.2231 140.375 38.5424 140.375 40.17C140.375 41.7975 141.694 43.1169 143.322 43.1169Z" fill="#FFDB8C"/>
<path d="M136.319 45.7443C137.861 45.2223 138.687 43.5495 138.165 42.0079C137.643 40.4663 135.971 39.6397 134.429 40.1617C132.887 40.6836 132.061 42.3564 132.583 43.898C133.105 45.4396 134.778 46.2662 136.319 45.7443Z" fill="#FFDB8C"/>
<path d="M146.662 50.8545C148.203 50.3325 149.03 48.6597 148.508 47.1181C147.986 45.5766 146.313 44.75 144.772 45.2719C143.23 45.7939 142.404 47.4667 142.926 49.0083C143.447 50.5499 145.12 51.3764 146.662 50.8545Z" fill="#FFDB8C"/>
<path d="M139.012 53.601C140.553 53.0791 141.38 51.4062 140.858 49.8647C140.336 48.3231 138.663 47.4965 137.121 48.0184C135.58 48.5404 134.753 50.2132 135.275 51.7548C135.797 53.2964 137.47 54.123 139.012 53.601Z" fill="#FFDB8C"/>
<path d="M109.487 13.5213C111.713 14.6213 113.549 16.1961 114.932 18.0627C113.824 14.9397 111.547 12.2278 108.342 10.6439C101.806 7.41421 93.8892 10.0942 90.6596 16.6301C90.1639 17.633 89.8086 18.6685 89.584 19.7146C93.4788 12.7136 102.227 9.9334 109.487 13.5213Z" fill="#385575"/>
<path d="M75.6104 45.5457C76.1162 48.281 77.8606 50.7521 80.5463 52.0793C83.954 53.7632 87.9038 53.1246 90.5998 50.7727L99.8549 43.4961C99.854 43.4967 88.6218 51.9754 75.6104 45.5457Z" fill="#283D54"/>
<path d="M127.179 52.0624L115.48 46.2477L103.781 40.4329L100.123 43.288L113.643 49.944L127.112 56.7023L127.179 52.0624Z" fill="#283D54"/>
<path d="M155.583 50.4216C155.881 50.495 158.117 48.8552 158.117 48.8552V45.4266L154.689 43.7867L153.496 46.7682L156.069 49.3025L155.583 50.4216Z" fill="#EACDB0"/>
<path d="M87.7549 12.7795L88.1162 16.14L88.5002 15.3137L91.6308 15.7609L92.8234 13.9721L89.991 11.4378L87.7549 12.7795Z" fill="#EACDB0"/>
</svg>
