<svg width="181" height="76" viewBox="0 0 181 76" fill="none" xmlns="http://www.w3.org/2000/svg">
<path d="M89.8142 10.553L85.3252 42.019H150.107L156.271 10.553H89.8142Z" fill="#3A2835"/>
<path d="M89.814 44.907L94.16 10.553H57.192L59.26 0H20.482L18.415 10.553H11.968L0 71.641H174.943L180.181 44.907H89.814Z" fill="#16ACFF"/>
<path d="M88.6789 45.907L91.7849 21.362H10.8689L1.21387 70.642H174.12L178.966 45.907H88.6789Z" fill="#0F87EA"/>
<path d="M27.0508 5.00702V17.023L32.5598 10.516L27.0508 5.00702Z" fill="white"/>
<path d="M34.5674 5.00702V17.023L40.0764 10.516L34.5674 5.00702Z" fill="white"/>
<path d="M42.084 5.00702V17.023L47.593 10.516L42.084 5.00702Z" fill="white"/>
<path d="M100.264 31.9431V17.5505H102.043V30.254H108.72V31.9431H100.264ZM110.611 31.9431V17.5505H112.39V31.9431H110.611ZM118.907 31.9431L114.089 17.5505H115.938L120.126 30.0541L124.354 17.5505H126.203L121.385 31.9431H118.907ZM127.706 31.9431V17.5505H136.802V19.2396H129.486V23.7473H135.602V25.4364H129.486V30.254H136.802V31.9431H127.706Z" fill="white"/>
<path d="M9.67215 61.173V27.2594H13.8643V42.2144H31.716V27.2594H35.9081V61.173H31.716V46.1945H13.8643V61.173H9.67215ZM42.5149 61.173V27.2594H52.9716C53.317 27.2594 53.9215 27.2673 54.785 27.283C55.6486 27.2987 56.4728 27.3615 57.2579 27.4714C59.8799 27.8168 62.0702 28.7746 63.8286 30.3446C65.6028 31.899 66.9374 33.8773 67.8323 36.2795C68.7273 38.6817 69.1747 41.3273 69.1747 44.2162C69.1747 47.1052 68.7273 49.7508 67.8323 52.153C66.9374 54.5552 65.6028 56.5413 63.8286 58.1114C62.0702 59.6658 59.8799 60.6157 57.2579 60.9611C56.4728 61.0553 55.6407 61.1181 54.7615 61.1495C53.8979 61.1652 53.3013 61.173 52.9716 61.173H42.5149ZM46.8247 57.1693H52.9716C53.5682 57.1693 54.2355 57.1536 54.9734 57.1222C55.7114 57.0751 56.3551 57.0045 56.9046 56.9103C58.7573 56.5649 60.2567 55.7877 61.4029 54.5787C62.549 53.3698 63.389 51.8625 63.9228 50.0569C64.4567 48.2513 64.7236 46.3044 64.7236 44.2162C64.7236 42.0809 64.4488 40.1105 63.8993 38.3049C63.3655 36.4993 62.5255 34.9999 61.3793 33.8067C60.2332 32.6134 58.7416 31.8519 56.9046 31.5222C56.3551 31.4123 55.7035 31.3416 54.9499 31.3102C54.1962 31.2788 53.5368 31.2631 52.9716 31.2631H46.8247V57.1693Z" fill="white"/>
<path d="M91.8319 66.4397C90.8124 66.4397 89.8929 66.2665 89.0733 65.92C88.2604 65.5735 87.5874 65.0804 87.0543 64.4408C86.5279 63.7944 86.1848 63.0315 86.0248 62.1519L87.8639 61.8621C88.0971 62.7683 88.5802 63.4779 89.3132 63.991C90.0528 64.4974 90.9223 64.7506 91.9218 64.7506C92.5682 64.7506 93.1512 64.6507 93.6709 64.4508C94.1973 64.2442 94.6138 63.951 94.9203 63.5712C95.2268 63.1914 95.3801 62.7416 95.3801 62.2219C95.3801 61.9021 95.3234 61.6289 95.2102 61.4023C95.1035 61.1691 94.9536 60.9725 94.7604 60.8126C94.5738 60.646 94.3606 60.5061 94.1207 60.3928C93.8808 60.2795 93.631 60.1863 93.3711 60.113L89.703 59.0235C89.3032 58.9036 88.9167 58.7537 88.5436 58.5738C88.1704 58.3872 87.8372 58.1573 87.5441 57.8841C87.2509 57.6042 87.0177 57.2711 86.8444 56.8846C86.6712 56.4915 86.5846 56.0284 86.5846 55.4953C86.5846 54.6424 86.8044 53.9161 87.2442 53.3164C87.6907 52.7101 88.2937 52.247 89.0533 51.9271C89.8129 51.6073 90.6691 51.4507 91.622 51.4574C92.5882 51.464 93.451 51.6373 94.2107 51.9771C94.9769 52.3103 95.6099 52.79 96.1097 53.4164C96.6161 54.0427 96.9559 54.7923 97.1292 55.6652L95.2401 55.9951C95.1402 55.4087 94.917 54.9056 94.5705 54.4858C94.2307 54.0594 93.8042 53.7329 93.2911 53.5063C92.7781 53.2731 92.215 53.1532 91.602 53.1465C91.0156 53.1399 90.4859 53.2331 90.0128 53.4264C89.5397 53.6196 89.1632 53.8895 88.8834 54.236C88.6035 54.5758 88.4636 54.9689 88.4636 55.4154C88.4636 55.8551 88.5902 56.2116 88.8434 56.4848C89.0966 56.7513 89.4064 56.9646 89.7729 57.1245C90.1461 57.2777 90.5092 57.4043 90.8624 57.5043L93.601 58.2939C93.9141 58.3805 94.274 58.5005 94.6804 58.6537C95.0935 58.807 95.4933 59.0235 95.8798 59.3034C96.2663 59.5766 96.5861 59.9431 96.8393 60.4028C97.0925 60.8559 97.2191 61.429 97.2191 62.1219C97.2191 62.8149 97.0792 63.4313 96.7993 63.971C96.5261 64.5107 96.143 64.9638 95.6499 65.3303C95.1568 65.6901 94.5838 65.9633 93.9308 66.1499C93.2778 66.3431 92.5782 66.4397 91.8319 66.4397ZM103.024 66.1399V53.4364H98.1163V51.7472H109.71V53.4364H104.803V66.1399H103.024ZM111.302 66.1399V51.7472H116.989C117.129 51.7472 117.295 51.7539 117.489 51.7672C117.682 51.7739 117.868 51.7939 118.048 51.8272C118.828 51.9471 119.481 52.2137 120.007 52.6268C120.54 53.0399 120.94 53.563 121.207 54.196C121.473 54.8223 121.607 55.5186 121.607 56.2849C121.607 57.3977 121.317 58.3639 120.737 59.1834C120.157 59.9964 119.308 60.5061 118.188 60.7127L117.509 60.8226H113.081V66.1399H111.302ZM119.867 66.1399L117.029 60.2829L118.788 59.7432L121.906 66.1399H119.867ZM113.081 59.1335H116.929C117.056 59.1335 117.199 59.1268 117.359 59.1135C117.525 59.1002 117.682 59.0768 117.828 59.0435C118.288 58.9369 118.661 58.7437 118.948 58.4638C119.241 58.1773 119.454 57.8441 119.588 57.4643C119.721 57.0778 119.787 56.6847 119.787 56.2849C119.787 55.8851 119.721 55.4953 119.588 55.1155C119.454 54.729 119.241 54.3926 118.948 54.106C118.661 53.8195 118.288 53.6263 117.828 53.5263C117.682 53.4863 117.525 53.463 117.359 53.4564C117.199 53.443 117.056 53.4364 116.929 53.4364H113.081V59.1335ZM124.108 66.1399V51.7472H133.203V53.4364H125.887V57.9441H132.004V59.6332H125.887V64.4508H133.203V66.1399H124.108ZM134.606 66.1399L139.424 51.7472H141.903L146.72 66.1399H144.871L140.363 52.7867H140.923L136.455 66.1399H134.606ZM136.925 62.7716V61.1025H144.401V62.7716H136.925ZM148.509 66.1399V51.7472H150.129L155.566 63.2114L160.973 51.7472H162.612V66.1299H160.923V55.6552L156.036 66.1399H155.086L150.199 55.6552V66.1399H148.509Z" fill="white"/>
</svg>
