<svg width="125" height="113" viewBox="0 0 125 113" fill="none" xmlns="http://www.w3.org/2000/svg">
<path d="M110.835 72.4937C104.399 95.0142 80.9258 108.053 58.4054 101.618C35.8846 95.1819 22.8454 71.7082 29.2809 49.1882C35.7165 26.6673 59.1906 13.6281 81.711 20.0637C104.232 26.4996 117.271 49.9733 110.835 72.4937Z" fill="url(#paint0_linear_1035_5391)"/>
<path d="M102.726 84.4178C114.765 68.6322 111.728 46.0758 95.9427 34.0366C80.1571 21.9975 57.6007 25.0345 45.5616 40.82C33.5224 56.6056 36.5594 79.162 52.3449 91.2011C68.1305 103.24 90.6869 100.203 102.726 84.4178Z" fill="#CFD1D2"/>
<path d="M115.485 46.3519C115.454 46.2347 115.419 46.1192 115.387 46.0024C115.391 46.0137 115.395 46.0249 115.398 46.0365C115.395 46.0245 115.391 46.0125 115.387 46.0004C115.335 45.8127 115.283 45.6245 115.23 45.4371C115.28 45.6161 115.329 45.7958 115.379 45.9752C115.329 45.8107 115.277 45.6462 115.225 45.4821C115.185 45.3228 115.145 45.1631 115.103 45.0042C115.143 45.1583 115.182 45.3127 115.22 45.4672C115.176 45.3252 115.13 45.1835 115.084 45.0419C115.043 44.8634 114.999 44.6856 114.956 44.5075C115.003 44.6648 115.05 44.8225 115.096 44.9805C115.099 44.9886 115.101 44.9962 115.103 45.0042C115.101 44.9966 115.099 44.9898 115.097 44.9821C115.141 45.1338 115.186 45.2851 115.23 45.4371C115.183 45.2726 115.135 45.1093 115.087 44.9452C115.011 44.6519 114.932 44.3594 114.851 44.0674C114.841 44.0256 114.831 43.9839 114.821 43.9422C114.831 43.9823 114.84 44.0224 114.849 44.0625C113.791 40.2345 112.375 36.5269 110.641 32.8994C106.293 24.4518 99.9188 18.0523 92.345 12.9821C83.2979 7.70892 73.9664 5.14914 63.6915 4.70178C53.3409 4.88835 43.9022 7.25072 34.679 12.3205C26.8332 17.3125 20.197 23.6899 15.5116 32.1644C12.0423 38.9426 9.63696 46.0241 8.56249 53.6878C8.18615 56.9477 7.88283 60.1871 7.83789 63.4731C7.94261 60.1891 8.30009 56.9585 8.73221 53.707C9.89975 46.0771 12.3813 39.0473 15.9233 32.3325C20.6384 23.931 27.2846 17.627 35.1172 12.7033C44.2818 7.67521 53.6631 5.3325 63.9443 5.14633C74.1429 5.54996 83.4118 8.05958 92.404 13.2662C99.9453 18.2794 106.306 24.6091 110.647 32.9945C112.383 36.6031 113.8 40.2915 114.859 44.1011C114.888 44.2218 114.916 44.3434 114.945 44.4646C113.849 40.8179 112.425 37.2896 110.704 33.8407C106.065 25.7802 100.254 19.7471 92.7249 14.8045C83.9728 9.84822 74.9786 7.48744 65.0974 7.1777C55.2226 7.47621 46.2365 9.82976 37.4896 14.7812C29.9816 19.735 24.1964 25.7682 19.5896 33.8339C16.4244 40.2827 14.2839 46.9991 13.4289 54.2463C13.144 57.324 12.9286 60.3789 12.9603 63.4731C12.9863 60.3813 13.2568 57.3341 13.599 54.2655C14.5423 47.0532 16.765 40.3854 20.0016 34.0024C24.6361 26.0117 30.4333 20.0492 37.9277 15.1648C46.6169 10.2551 55.5452 7.92076 65.351 7.62225C75.1568 7.88786 84.0847 10.2005 92.7847 15.0885C100.281 19.9758 106.079 25.9379 110.71 33.9354C112.432 37.361 113.857 40.8668 114.952 44.4923C114.994 44.668 115.037 44.8437 115.077 45.0199C113.936 41.5048 112.487 38.1097 110.768 34.7816C106.148 27.0705 100.45 21.3066 93.1049 16.6272C84.6039 12.0068 76.0222 9.86146 66.5033 9.65322C57.0751 10.0994 48.6142 12.4272 40.3001 17.2427C33.4064 21.9361 27.6091 27.747 23.6684 35.5041C20.8294 41.6452 18.9296 47.962 18.2961 54.8048C18.0369 57.6847 17.9747 60.5823 18.0834 63.4731C18.0329 60.5847 18.1504 57.6936 18.4662 54.8236C19.1936 48.015 21.168 41.7499 24.0804 35.6727C28.0497 27.9889 33.8577 22.2487 40.7394 17.6262C48.9961 12.8521 57.3972 10.5443 66.7565 10.0986C76.2003 10.2619 84.717 12.359 93.1647 16.9121C100.477 21.5349 106.164 27.2286 110.775 34.8774C112.494 38.1811 113.943 41.5537 115.083 45.0463C115.113 45.1767 115.141 45.3079 115.17 45.4387C113.995 42.099 112.537 38.8768 110.831 35.7236C106.499 28.2946 100.515 22.7855 93.4856 18.4507C85.2819 14.1453 77.0349 12.1965 67.9096 12.1299C58.96 12.6848 50.9472 15.0035 43.113 19.7046C36.6891 24.2263 31.3048 29.7856 27.7464 37.1744C25.2103 42.9877 23.5769 48.939 23.1632 55.3629C22.9995 58.0643 23.0216 60.7741 23.2066 63.4731C23.0766 60.7773 23.1107 58.0719 23.3326 55.3821C23.8381 48.9927 25.5497 43.0896 28.1588 37.3425C32.0631 30.06 37.0025 24.6845 43.5504 20.0881C51.3272 15.4284 59.2818 13.1294 68.1631 12.5749C77.2126 12.597 85.3955 14.4971 93.5454 18.7352C100.545 23.015 106.511 28.4511 110.837 35.8187C112.546 38.9514 114.004 42.1539 115.178 45.4748C115.242 45.7649 115.306 46.0546 115.367 46.3459C115.368 46.3459 115.369 46.3459 115.37 46.3459C115.31 46.0606 115.247 45.7766 115.184 45.4925C115.233 45.6317 115.281 45.7713 115.33 45.911C115.365 46.0562 115.401 46.201 115.435 46.3467C115.436 46.3467 115.437 46.3467 115.437 46.3467C115.403 46.2063 115.369 46.0666 115.334 45.9266C115.383 46.0678 115.432 46.2091 115.48 46.3511C115.481 46.3511 115.482 46.3511 115.483 46.3515C115.484 46.3515 115.485 46.3519 115.485 46.3519ZM114.86 44.1075C114.937 44.3843 115.012 44.6616 115.085 44.9396C115.04 44.7855 114.995 44.6319 114.949 44.4786C114.919 44.3546 114.891 44.2307 114.86 44.1075ZM115.176 45.4564C115.147 45.3268 115.119 45.1968 115.09 45.0672C115.135 45.2072 115.181 45.3472 115.225 45.4873C115.257 45.6149 115.289 45.7428 115.32 45.8708C115.273 45.7328 115.225 45.5944 115.176 45.4564ZM115.23 45.5029C115.28 45.6614 115.331 45.8199 115.38 45.9788C115.413 46.0999 115.448 46.2203 115.48 46.3419C115.43 46.1898 115.377 46.0385 115.326 45.8869C115.294 45.7585 115.263 45.6305 115.23 45.5029Z" fill="url(#paint1_linear_1035_5391)"/>
<path d="M91.9639 11.1578C82.6232 5.56682 72.9534 2.80844 62.2854 2.22467C51.4866 2.26519 41.5255 4.65204 31.867 9.85826C23.4121 15.1038 16.7683 21.7159 11.4329 30.4941C7.65706 37.6021 4.98975 45.0496 3.69582 53.1293C3.15578 56.5493 2.83681 60.0082 2.71484 63.4735C2.89339 60.0106 3.27214 56.5593 3.86514 53.149C5.24974 45.1041 7.99649 37.7052 11.845 30.6627C17.2069 21.9594 23.8627 15.4167 32.3051 10.2422C41.9067 5.07814 51.808 2.71095 62.5378 2.67002C73.1299 3.21006 82.7375 5.91829 92.0237 11.4427C99.7448 16.7111 106.24 23.3216 110.583 32.0529C112.367 35.919 113.797 39.8658 114.82 43.9418C113.797 39.8341 112.364 35.8556 110.577 31.9574C106.225 23.1651 99.7187 16.4824 91.9639 11.1578Z" fill="url(#paint2_linear_1035_5391)"/>
<path d="M3.79288 39.0906C3.50521 38.6585 2.85242 38.4732 2.30957 38.604C1.71096 38.748 1.12116 39.0951 0.740408 39.5003C0.396564 39.8662 -0.0271235 40.3633 0.00136308 40.8512C0.0318557 41.3948 0.549829 41.8839 1.1986 41.9285C1.94406 41.981 2.59404 41.5413 3.0739 41.1156C3.49919 40.7368 3.79248 40.257 3.88877 39.7438C3.94053 39.4734 3.90763 39.2612 3.79288 39.0906Z" fill="#231F20"/>
<path d="M3.39769 39.2696C3.15455 38.9049 2.60248 38.748 2.14468 38.8588C1.63875 38.9815 1.14043 39.274 0.819861 39.6163C0.528576 39.9256 0.170689 40.3457 0.195564 40.7565C0.221242 41.2163 0.658571 41.6292 1.20744 41.6665C1.83655 41.7102 2.38461 41.3403 2.79025 40.9796C3.15054 40.6606 3.39769 40.2554 3.47914 39.8209C3.52167 39.5942 3.49519 39.4145 3.39769 39.2696Z" fill="url(#paint3_linear_1035_5391)"/>
<path d="M3.79288 39.0906C3.50521 38.6585 2.85242 38.4732 2.30957 38.604C1.71096 38.748 1.12116 39.0951 0.740408 39.5003C0.396564 39.8662 -0.0271235 40.3633 0.00136308 40.8512C0.0318557 41.3948 0.549829 41.8839 1.1986 41.9285C1.94406 41.981 2.59404 41.5413 3.0739 41.1156C3.49919 40.7368 3.79248 40.257 3.88877 39.7438C3.94053 39.4734 3.90763 39.2612 3.79288 39.0906Z" fill="#231F20"/>
<path d="M3.39769 39.2696C3.15455 38.9049 2.60248 38.748 2.14468 38.8588C1.63875 38.9815 1.14043 39.274 0.819861 39.6163C0.528576 39.9256 0.170689 40.3457 0.195564 40.7565C0.221242 41.2163 0.658571 41.6292 1.20744 41.6665C1.83655 41.7102 2.38461 41.3403 2.79025 40.9796C3.15054 40.6606 3.39769 40.2554 3.47914 39.8209C3.52167 39.5942 3.49519 39.4145 3.39769 39.2696Z" fill="url(#paint4_linear_1035_5391)"/>
<path d="M10.6059 42.0027C10.3166 41.571 9.66303 41.3852 9.12099 41.5164C8.52397 41.6601 7.93298 42.0071 7.55302 42.4123C7.20958 42.7783 6.78549 43.2754 6.81278 43.7628C6.84487 44.3069 7.36325 44.7956 8.01162 44.8405C8.75668 44.8919 9.40585 44.4521 9.88491 44.0264C10.3118 43.6485 10.6063 43.1674 10.7022 42.6543C10.7527 42.3859 10.7198 42.1732 10.6059 42.0027Z" fill="#231F20"/>
<path d="M10.2112 42.182C9.96769 41.8169 9.41481 41.6601 8.95621 41.7712C8.45068 41.8928 7.95277 42.1861 7.63139 42.5275C7.34131 42.8368 6.98342 43.2569 7.00589 43.6686C7.03357 44.1276 7.4713 44.54 8.01937 44.5785C8.64888 44.6223 9.19614 44.2507 9.60218 43.8912C9.96167 43.5711 10.2108 43.1662 10.2919 42.7329C10.3344 42.5062 10.3067 42.3269 10.2112 42.182Z" fill="url(#paint5_linear_1035_5391)"/>
<path d="M10.6059 42.0027C10.3166 41.571 9.66303 41.3852 9.12099 41.5164C8.52397 41.6601 7.93298 42.0071 7.55302 42.4123C7.20958 42.7783 6.78549 43.2754 6.81278 43.7628C6.84487 44.3069 7.36325 44.7956 8.01162 44.8405C8.75668 44.8919 9.40585 44.4521 9.88491 44.0264C10.3118 43.6485 10.6063 43.1674 10.7022 42.6543C10.7527 42.3859 10.7198 42.1732 10.6059 42.0027Z" fill="#231F20"/>
<path d="M10.2112 42.182C9.96769 41.8169 9.41481 41.6601 8.95621 41.7712C8.45068 41.8928 7.95277 42.1861 7.63139 42.5275C7.34131 42.8368 6.98342 43.2569 7.00589 43.6686C7.03357 44.1276 7.4713 44.54 8.01937 44.5785C8.64888 44.6223 9.19614 44.2507 9.60218 43.8912C9.96167 43.5711 10.2108 43.1662 10.2919 42.7329C10.3344 42.5062 10.3067 42.3269 10.2112 42.182Z" fill="url(#paint6_linear_1035_5391)"/>
<path d="M10.6316 38.2084C10.6079 36.8057 10.5329 35.4007 10.4763 33.9976C10.4799 33.9711 10.4819 33.9442 10.4839 33.9186C10.4799 33.9141 10.4755 33.9081 10.4735 33.9017C10.4711 33.8768 10.4711 33.8536 10.4687 33.8303C10.4735 33.7862 10.4755 33.7416 10.4783 33.6979C10.4731 33.6947 10.4687 33.6871 10.4647 33.6863C10.4623 33.671 10.4474 33.6678 10.4334 33.6722C9.02028 33.0624 8.19176 32.6483 7.00897 32.1648C6.00071 31.7544 5.17981 31.3467 3.65197 30.7734C3.65077 30.7449 3.5946 30.7618 3.5946 30.7842C3.5946 30.7854 3.5946 30.7866 3.5946 30.7874C3.59259 30.7874 3.59259 30.7887 3.59018 30.7887C3.59259 30.8123 3.59259 30.8344 3.59299 30.8585C3.57494 32.2964 3.51957 33.7332 3.50593 35.1712C3.4983 35.8729 3.4983 36.5726 3.51315 37.274C3.5304 38.0599 3.44374 38.8772 3.56451 39.656C3.58858 39.8153 3.86903 39.7178 3.87585 39.595C3.96613 38.1643 3.84375 36.7279 3.81888 35.2971C3.79481 33.8985 3.72098 32.5003 3.66441 31.1028C4.72042 31.5935 5.75997 32.1075 6.8212 32.5885C7.39133 32.8481 7.96708 33.0997 8.55326 33.3344C9.16472 33.5787 9.73966 33.9274 10.3993 34.0951C10.3764 35.4243 10.3311 36.7536 10.317 38.0836C10.3102 38.7857 10.3094 39.4855 10.3254 40.1864C10.3423 40.9716 10.2552 41.7889 10.3756 42.5684C10.4001 42.7273 10.6809 42.6302 10.6877 42.5066C10.7784 41.0767 10.6544 39.6387 10.6316 38.2084Z" fill="#231F20"/>
<path d="M91.0248 18.6072C90.7006 18.1218 89.966 17.9127 89.3553 18.06C88.6837 18.2233 88.0196 18.6125 87.5923 19.0682C87.2064 19.4803 86.7293 20.0388 86.7602 20.5873C86.7963 21.1987 87.3789 21.748 88.1087 21.7977C88.9461 21.8555 89.6759 21.3628 90.2155 20.8838C90.6958 20.4581 91.0252 19.9184 91.1339 19.3411C91.1889 19.0382 91.1532 18.7994 91.0248 18.6072Z" fill="#231F20"/>
<path d="M90.5808 18.8103C90.3064 18.3994 89.6857 18.2233 89.1709 18.3473C88.6028 18.4849 88.0427 18.8147 87.6796 19.1987C87.3546 19.5461 86.951 20.0187 86.9778 20.4817C87.0079 20.9981 87.5002 21.4623 88.1165 21.5049C88.8243 21.5538 89.4401 21.1365 89.8963 20.7325C90.3007 20.373 90.5816 19.9172 90.6711 19.4302C90.7196 19.1738 90.6883 18.972 90.5808 18.8103Z" fill="url(#paint7_linear_1035_5391)"/>
<path d="M91.0248 18.6072C90.7006 18.1218 89.966 17.9127 89.3553 18.06C88.6837 18.2233 88.0196 18.6125 87.5923 19.0682C87.2064 19.4803 86.7293 20.0388 86.7602 20.5873C86.7963 21.1987 87.3789 21.748 88.1087 21.7977C88.9461 21.8555 89.6759 21.3628 90.2155 20.8838C90.6958 20.4581 91.0252 19.9184 91.1339 19.3411C91.1889 19.0382 91.1532 18.7994 91.0248 18.6072Z" fill="#231F20"/>
<path d="M90.5808 18.8103C90.3064 18.3994 89.6857 18.2233 89.1709 18.3473C88.6028 18.4849 88.0427 18.8147 87.6796 19.1987C87.3546 19.5461 86.951 20.0187 86.9778 20.4817C87.0079 20.9981 87.5002 21.4623 88.1165 21.5049C88.8243 21.5538 89.4401 21.1365 89.8963 20.7325C90.3007 20.373 90.5816 19.9172 90.6711 19.4302C90.7196 19.1738 90.6883 18.972 90.5808 18.8103Z" fill="url(#paint8_linear_1035_5391)"/>
<path d="M98.5786 21.7937C98.2532 21.3071 97.519 21.0992 96.9092 21.2465C96.2363 21.4086 95.5727 21.799 95.1446 22.2547C94.7586 22.6652 94.2816 23.2253 94.3141 23.7738C94.3486 24.384 94.9311 24.9345 95.6606 24.9842C96.4995 25.042 97.2277 24.5481 97.7674 24.0703C98.2476 23.6446 98.5786 23.1049 98.6853 22.528C98.7427 22.2251 98.7066 21.9855 98.5786 21.7937Z" fill="#231F20"/>
<path d="M98.1336 21.9964C97.8604 21.5859 97.2385 21.4086 96.7233 21.5334C96.1564 21.671 95.5947 21.9996 95.234 22.3847C94.9074 22.7326 94.5054 23.2052 94.5315 23.6682C94.562 24.1846 95.0535 24.6484 95.6701 24.6914C96.3775 24.7403 96.9926 24.323 97.4491 23.919C97.8548 23.5595 98.1328 23.1041 98.2247 22.6154C98.2732 22.3603 98.2428 22.1585 98.1336 21.9964Z" fill="url(#paint9_linear_1035_5391)"/>
<path d="M98.5786 21.7937C98.2532 21.3071 97.519 21.0992 96.9092 21.2465C96.2363 21.4086 95.5727 21.799 95.1446 22.2547C94.7586 22.6652 94.2816 23.2253 94.3141 23.7738C94.3486 24.384 94.9311 24.9345 95.6606 24.9842C96.4995 25.042 97.2277 24.5481 97.7674 24.0703C98.2476 23.6446 98.5786 23.1049 98.6853 22.528C98.7427 22.2251 98.7066 21.9855 98.5786 21.7937Z" fill="#231F20"/>
<path d="M98.1336 21.9964C97.8604 21.5859 97.2385 21.4086 96.7233 21.5334C96.1564 21.671 95.5947 21.9996 95.234 22.3847C94.9074 22.7326 94.5054 23.2052 94.5315 23.6682C94.562 24.1846 95.0535 24.6484 95.6701 24.6914C96.3775 24.7403 96.9926 24.323 97.4491 23.919C97.8548 23.5595 98.1328 23.1041 98.2247 22.6154C98.2732 22.3603 98.2428 22.1585 98.1336 21.9964Z" fill="url(#paint10_linear_1035_5391)"/>
<path d="M106.169 20.6234C106.14 18.9283 106.044 17.2323 105.982 15.538C105.981 15.5187 105.959 15.5187 105.941 15.5263C105.941 15.5239 105.941 15.5207 105.941 15.5187C103.914 14.565 96.0375 11.4788 94.7821 10.9669C93.5046 10.4453 92.189 9.98108 90.8855 9.49881C90.8855 9.50202 90.8855 9.50644 90.8855 9.50965C90.8554 9.49881 90.8269 9.48878 90.7972 9.47675C90.7747 11.0511 90.7174 12.6259 90.7009 14.2015C90.6937 14.9899 90.6917 15.7771 90.7097 16.5655C90.7286 17.449 90.6311 18.3674 90.7671 19.2432C90.7956 19.4222 91.1097 19.3134 91.1182 19.1746C91.2181 17.5669 91.0805 15.9496 91.0528 14.3411C91.0271 12.8197 90.9918 11.3264 90.9408 9.81136C92.0659 10.2832 95.7851 11.7404 96.389 11.9816C96.5848 12.0602 97.3371 12.3675 98.3477 12.7796C98.3253 14.3154 98.2699 15.8517 98.2547 17.388C98.2458 18.1764 98.245 18.9636 98.2619 19.752C98.2811 20.6354 98.1836 21.5526 98.3197 22.4293C98.3477 22.6086 98.6623 22.4987 98.6711 22.3603C98.7718 20.7526 98.6334 19.1365 98.6065 17.528C98.5869 16.3609 98.5343 15.1929 98.4841 14.0258C99.6192 14.557 100.74 15.1095 101.884 15.6266C102.527 15.9191 103.172 16.2016 103.832 16.4652C104.512 16.7372 105.152 17.1236 105.883 17.3146C105.858 18.3698 105.827 19.4258 105.817 20.483C105.808 21.2714 105.807 22.0586 105.826 22.847C105.845 23.73 105.746 24.6484 105.883 25.5243C105.911 25.7048 106.226 25.5949 106.234 25.4561C106.335 23.8484 106.196 22.2323 106.169 20.6234ZM102.238 15.2972C101.005 14.7941 99.7351 14.3435 98.4773 13.8797C98.4621 13.5242 98.448 13.1704 98.4344 12.8149C100.787 13.773 104.465 15.2623 105.913 15.7775C105.908 16.1117 105.903 16.4451 105.895 16.7789C104.733 16.1976 103.454 15.7931 102.238 15.2972Z" fill="#231F20"/>
<path d="M106.14 24.8896C105.816 24.4029 105.081 24.1955 104.471 24.3423C103.798 24.5048 103.135 24.894 102.708 25.3494C102.32 25.761 101.843 26.3215 101.877 26.8688C101.91 27.4798 102.494 28.0291 103.224 28.0805C104.061 28.1382 104.791 27.6439 105.33 27.1649C105.811 26.7396 106.14 26.1995 106.249 25.6234C106.304 25.3205 106.268 25.0817 106.14 24.8896Z" fill="#231F20"/>
<path d="M105.696 25.091C105.422 24.6805 104.801 24.5044 104.286 24.6292C103.719 24.7668 103.158 25.0954 102.796 25.4802C102.47 25.8268 102.068 26.2994 102.094 26.7629C102.123 27.2792 102.616 27.743 103.232 27.7868C103.94 27.8349 104.556 27.4176 105.011 27.0132C105.417 26.6537 105.695 26.1983 105.788 25.7109C105.835 25.4549 105.804 25.2543 105.696 25.091Z" fill="url(#paint11_linear_1035_5391)"/>
<path d="M106.14 24.8896C105.816 24.4029 105.081 24.1955 104.471 24.3423C103.798 24.5048 103.135 24.894 102.708 25.3494C102.32 25.761 101.843 26.3215 101.877 26.8688C101.91 27.4798 102.494 28.0291 103.224 28.0805C104.061 28.1382 104.791 27.6439 105.33 27.1649C105.811 26.7396 106.14 26.1995 106.249 25.6234C106.304 25.3205 106.268 25.0817 106.14 24.8896Z" fill="#231F20"/>
<path d="M105.696 25.091C105.422 24.6805 104.801 24.5044 104.286 24.6292C103.719 24.7668 103.158 25.0954 102.796 25.4802C102.47 25.8268 102.068 26.2994 102.094 26.7629C102.123 27.2792 102.616 27.743 103.232 27.7868C103.94 27.8349 104.556 27.4176 105.011 27.0132C105.417 26.6537 105.695 26.1983 105.788 25.7109C105.835 25.4549 105.804 25.2543 105.696 25.091Z" fill="url(#paint12_linear_1035_5391)"/>
<path d="M30.948 12.9673C30.6816 12.5693 30.0818 12.3996 29.5827 12.5204C29.0322 12.6528 28.4902 12.9717 28.1407 13.3441C27.8245 13.6803 27.4341 14.1377 27.4602 14.5858C27.4895 15.0861 27.9654 15.5351 28.5632 15.5768C29.2481 15.6238 29.8447 15.2206 30.2848 14.829C30.6772 14.4815 30.9484 14.0398 31.0355 13.5671C31.0824 13.3196 31.0519 13.1242 30.948 12.9673Z" fill="#231F20"/>
<path d="M30.5834 13.133C30.3587 12.7968 29.852 12.6527 29.4303 12.7554C28.9661 12.8674 28.5075 13.1362 28.2118 13.4508C27.945 13.7356 27.6168 14.1216 27.6377 14.5003C27.6613 14.9216 28.0646 15.3012 28.5685 15.3365C29.1471 15.3758 29.6518 15.0348 30.0241 14.705C30.3547 14.4101 30.5846 14.0381 30.658 13.6389C30.6974 13.4303 30.6721 13.265 30.5834 13.133Z" fill="url(#paint13_linear_1035_5391)"/>
<path d="M30.948 12.9673C30.6816 12.5693 30.0818 12.3996 29.5827 12.5204C29.0322 12.6528 28.4902 12.9717 28.1407 13.3441C27.8245 13.6803 27.4341 14.1377 27.4602 14.5858C27.4895 15.0861 27.9654 15.5351 28.5632 15.5768C29.2481 15.6238 29.8447 15.2206 30.2848 14.829C30.6772 14.4815 30.9484 14.0398 31.0355 13.5671C31.0824 13.3196 31.0519 13.1242 30.948 12.9673Z" fill="#231F20"/>
<path d="M30.5834 13.133C30.3587 12.7968 29.852 12.6527 29.4303 12.7554C28.9661 12.8674 28.5075 13.1362 28.2118 13.4508C27.945 13.7356 27.6168 14.1216 27.6377 14.5003C27.6613 14.9216 28.0646 15.3012 28.5685 15.3365C29.1471 15.3758 29.6518 15.0348 30.0241 14.705C30.3547 14.4101 30.5846 14.0381 30.658 13.6389C30.6974 13.4303 30.6721 13.265 30.5834 13.133Z" fill="url(#paint14_linear_1035_5391)"/>
<path d="M37.1238 15.5724C36.8574 15.1756 36.2579 15.0051 35.7584 15.1254C35.2075 15.259 34.6663 15.5768 34.316 15.9499C34.0007 16.2862 33.6103 16.7436 33.636 17.1917C33.6645 17.6908 34.1411 18.141 34.7381 18.1815C35.4234 18.2297 36.0196 17.8252 36.4605 17.4337C36.8529 17.0862 37.1238 16.6453 37.2112 16.173C37.2582 15.9255 37.2285 15.7301 37.1238 15.5724Z" fill="#231F20"/>
<path d="M36.7602 15.7377C36.5363 15.4019 36.0283 15.2586 35.6071 15.3602C35.1433 15.4721 34.6847 15.7417 34.389 16.0567C34.1226 16.3403 33.7936 16.7267 33.8144 17.1051C33.8381 17.5275 34.2413 17.9063 34.7452 17.9416C35.3246 17.9821 35.8281 17.6407 36.2005 17.3101C36.5319 17.0168 36.7606 16.6432 36.834 16.244C36.8741 16.0366 36.8488 15.8709 36.7602 15.7377Z" fill="url(#paint15_linear_1035_5391)"/>
<path d="M37.1238 15.5724C36.8574 15.1756 36.2579 15.0051 35.7584 15.1254C35.2075 15.259 34.6663 15.5768 34.316 15.9499C34.0007 16.2862 33.6103 16.7436 33.636 17.1917C33.6645 17.6908 34.1411 18.141 34.7381 18.1815C35.4234 18.2297 36.0196 17.8252 36.4605 17.4337C36.8529 17.0862 37.1238 16.6453 37.2112 16.173C37.2582 15.9255 37.2285 15.7301 37.1238 15.5724Z" fill="#231F20"/>
<path d="M36.7602 15.7377C36.5363 15.4019 36.0283 15.2586 35.6071 15.3602C35.1433 15.4721 34.6847 15.7417 34.389 16.0567C34.1226 16.3403 33.7936 16.7267 33.8144 17.1051C33.8381 17.5275 34.2413 17.9063 34.7452 17.9416C35.3246 17.9821 35.8281 17.6407 36.2005 17.3101C36.5319 17.0168 36.7606 16.6432 36.834 16.244C36.8741 16.0366 36.8488 15.8709 36.7602 15.7377Z" fill="url(#paint16_linear_1035_5391)"/>
<path d="M43.3319 14.6155C43.3087 13.2297 43.2292 11.8419 43.1771 10.4573C43.1771 10.4412 43.1598 10.4412 43.1454 10.4476C43.1454 10.4456 43.1454 10.4432 43.1454 10.4412C41.4875 9.66244 35.0464 7.13838 34.02 6.7195C32.9745 6.29261 31.8992 5.91426 30.8332 5.51906C30.8332 5.52227 30.8332 5.52467 30.8332 5.52788C30.8091 5.51906 30.7854 5.51063 30.7622 5.5014C30.7425 6.78851 30.696 8.07643 30.6831 9.36394C30.6763 10.0091 30.6751 10.6527 30.6891 11.297C30.704 12.0204 30.6253 12.7715 30.7361 13.4873C30.7597 13.6345 31.0165 13.545 31.0242 13.4319C31.1048 12.1167 30.9933 10.7947 30.9704 9.47949C30.9491 8.23571 30.9202 7.0144 30.8781 5.77584C31.7985 6.16061 34.8397 7.35263 35.3328 7.55003C35.4937 7.61422 36.1096 7.86579 36.9357 8.20281C36.9168 9.45862 36.8719 10.714 36.8591 11.9707C36.8531 12.615 36.851 13.2598 36.8659 13.9037C36.8819 14.6259 36.8017 15.3766 36.9124 16.0936C36.9361 16.24 37.1933 16.1502 37.1997 16.0374C37.282 14.723 37.1688 13.4014 37.1475 12.085C37.1303 11.1313 37.0878 10.1756 37.0468 9.2211C37.9753 9.65643 38.8928 10.1078 39.8273 10.5323C40.3533 10.7702 40.8813 11.0013 41.4209 11.2172C41.9766 11.4398 42.499 11.7548 43.0968 11.9105C43.0764 12.7743 43.0519 13.6373 43.0439 14.5015C43.0362 15.1471 43.0362 15.7903 43.0511 16.4358C43.0659 17.1576 42.9873 17.9091 43.098 18.6245C43.1197 18.7717 43.3777 18.6822 43.3845 18.5687C43.4675 17.2527 43.3544 15.9307 43.3319 14.6155ZM40.1182 10.2599C39.1087 9.84901 38.0712 9.48109 37.0416 9.10034C37.03 8.81026 37.0184 8.52098 37.0067 8.2309C38.931 9.01367 41.9381 10.231 43.1221 10.6523C43.1193 10.9251 43.1141 11.1983 43.1085 11.4715C42.1576 10.9961 41.1108 10.6663 40.1182 10.2599Z" fill="#231F20"/>
<path d="M43.3083 18.1049C43.0423 17.7069 42.4417 17.5364 41.9438 17.6568C41.3929 17.79 40.85 18.1081 40.5002 18.4801C40.1836 18.8175 39.7952 19.2749 39.8205 19.723C39.8482 20.2222 40.3264 20.6715 40.9231 20.7133C41.6079 20.761 42.2037 20.357 42.6455 19.9654C43.0383 19.6175 43.3083 19.1758 43.3966 18.7044C43.4423 18.4568 43.4126 18.2618 43.3083 18.1049Z" fill="#231F20"/>
<path d="M42.9444 18.269C42.7201 17.9344 42.2125 17.7899 41.7925 17.8915C41.3275 18.0034 40.8685 18.273 40.574 18.5868C40.3064 18.8716 39.9766 19.2576 40.0002 19.6364C40.0235 20.0576 40.4271 20.4372 40.9307 20.4725C41.5092 20.5122 42.0135 20.1716 42.3859 19.841C42.7165 19.5465 42.9448 19.1746 43.0198 18.7753C43.0579 18.5667 43.0342 18.4026 42.9444 18.269Z" fill="url(#paint17_linear_1035_5391)"/>
<path d="M43.3083 18.1049C43.0423 17.7069 42.4417 17.5364 41.9438 17.6568C41.3929 17.79 40.85 18.1081 40.5002 18.4801C40.1836 18.8175 39.7952 19.2749 39.8205 19.723C39.8482 20.2222 40.3264 20.6715 40.9231 20.7133C41.6079 20.761 42.2037 20.357 42.6455 19.9654C43.0383 19.6175 43.3083 19.1758 43.3966 18.7044C43.4423 18.4568 43.4126 18.2618 43.3083 18.1049Z" fill="#231F20"/>
<path d="M42.9444 18.269C42.7201 17.9344 42.2125 17.7899 41.7925 17.8915C41.3275 18.0034 40.8685 18.273 40.574 18.5868C40.3064 18.8716 39.9766 19.2576 40.0002 19.6364C40.0235 20.0576 40.4271 20.4372 40.9307 20.4725C41.5092 20.5122 42.0135 20.1716 42.3859 19.841C42.7165 19.5465 42.9448 19.1746 43.0198 18.7753C43.0579 18.5667 43.0342 18.4026 42.9444 18.269Z" fill="url(#paint18_linear_1035_5391)"/>
<path d="M16.6886 20.3726C16.4198 19.9705 15.8128 19.7976 15.3084 19.9192C14.7528 20.0548 14.2035 20.3766 13.8492 20.7533C13.5302 21.0936 13.1366 21.5554 13.1623 22.0087C13.1916 22.5143 13.6743 22.9693 14.2769 23.0102C14.969 23.0583 15.5733 22.6499 16.0186 22.2551C16.4158 21.902 16.6882 21.4559 16.7781 20.9784C16.8251 20.7288 16.7958 20.5314 16.6886 20.3726Z" fill="#231F20"/>
<path d="M16.3223 20.5387C16.096 20.1997 15.5812 20.0548 15.1559 20.1571C14.6869 20.2711 14.2227 20.5431 13.9242 20.8609C13.6537 21.1481 13.3199 21.5397 13.344 21.9225C13.3673 22.349 13.7745 22.7334 14.2845 22.7675C14.8686 22.8092 15.3786 22.4633 15.7565 22.1295C16.0911 21.8318 16.3223 21.4551 16.3977 21.0518C16.4374 20.84 16.4113 20.6735 16.3223 20.5387Z" fill="url(#paint19_linear_1035_5391)"/>
<path d="M16.6886 20.3726C16.4198 19.9705 15.8128 19.7976 15.3084 19.9192C14.7528 20.0548 14.2035 20.3766 13.8492 20.7533C13.5302 21.0936 13.1366 21.5554 13.1623 22.0087C13.1916 22.5143 13.6743 22.9693 14.2769 23.0102C14.969 23.0583 15.5733 22.6499 16.0186 22.2551C16.4158 21.902 16.6882 21.4559 16.7781 20.9784C16.8251 20.7288 16.7958 20.5314 16.6886 20.3726Z" fill="#231F20"/>
<path d="M16.3223 20.5387C16.096 20.1997 15.5812 20.0548 15.1559 20.1571C14.6869 20.2711 14.2227 20.5431 13.9242 20.8609C13.6537 21.1481 13.3199 21.5397 13.344 21.9225C13.3673 22.349 13.7745 22.7334 14.2845 22.7675C14.8686 22.8092 15.3786 22.4633 15.7565 22.1295C16.0911 21.8318 16.3223 21.4551 16.3977 21.0518C16.4374 20.84 16.4113 20.6735 16.3223 20.5387Z" fill="url(#paint20_linear_1035_5391)"/>
<path d="M16.5622 12.7751C16.543 12.7506 16.5221 12.729 16.5029 12.7049C16.4852 14.0454 16.4343 15.3866 16.4214 16.7283C16.415 17.3803 16.413 18.0311 16.4278 18.6831C16.4435 19.4133 16.3624 20.1732 16.4748 20.8974C16.498 21.0458 16.7584 20.956 16.7657 20.8408C16.8491 19.5116 16.7348 18.1751 16.7115 16.8435C16.689 15.4877 16.616 14.13 16.5622 12.7751Z" fill="#231F20"/>
<path d="M20.0014 15.6053C20.0163 15.3942 20.0163 15.1848 20.0083 14.9758C19.9846 14.8012 19.9397 14.6311 19.8586 14.4747C19.7828 14.3563 19.6861 14.2484 19.5597 14.1609C19.0971 13.8343 18.4796 13.746 17.9131 13.541C17.3542 13.3384 16.8651 13.0856 16.5325 12.7366C16.5554 12.932 16.5221 13.1294 16.5433 13.3244C16.5582 13.464 16.5136 13.6522 16.5554 13.8026C16.5317 13.8014 16.5096 13.8219 16.5157 13.8375C16.693 14.2175 17.0517 14.1938 17.5765 14.2102C17.9986 14.2227 18.3889 14.2781 18.7701 14.4072C19.0915 14.516 19.4044 14.6684 19.6203 14.9011C19.8871 15.1912 19.8442 15.5423 19.8333 15.8845C19.7607 15.7738 19.6777 15.6711 19.5601 15.5892C19.0975 15.2638 18.48 15.1744 17.9135 14.9694C17.3546 14.7667 16.8655 14.514 16.5329 14.1653C16.5558 14.3603 16.5225 14.5577 16.5437 14.7531C16.5586 14.8927 16.514 15.0805 16.5558 15.231C16.5321 15.2297 16.51 15.2498 16.5161 15.2663C16.6934 15.6462 17.0521 15.6233 17.5769 15.6386C17.999 15.6514 18.3893 15.708 18.7705 15.836C19.3206 16.0226 19.5757 16.2797 19.8594 16.6906C19.8947 16.3275 19.9746 15.9712 20.0014 15.6053Z" fill="#231F20"/>
<path d="M16.731 14.4967C16.7057 14.4723 16.731 15.3128 16.731 15.3128C16.731 15.3128 16.8509 15.4942 17.2229 15.5014C17.5928 15.5102 18.2929 15.5399 18.5874 15.6603C18.8819 15.7822 19.0994 15.5251 18.7282 15.3734C18.3579 15.2221 17.4524 15.1624 16.731 14.4967Z" fill="url(#paint21_linear_1035_5391)"/>
<path d="M16.731 13.0684C16.7057 13.0439 16.731 13.8845 16.731 13.8845C16.731 13.8845 16.8509 14.0662 17.2229 14.0734C17.5928 14.0819 18.2929 14.1116 18.5874 14.2323C18.8819 14.3539 19.0994 14.0967 18.7282 13.9451C18.3579 13.7938 17.4524 13.7344 16.731 13.0684Z" fill="url(#paint22_linear_1035_5391)"/>
<path d="M113.359 40.383C113.049 39.92 112.348 39.7206 111.769 39.861C111.128 40.0159 110.496 40.3874 110.088 40.8211C109.72 41.2127 109.266 41.7459 109.296 42.2675C109.331 42.8497 109.885 43.3737 110.58 43.4218C111.378 43.4776 112.073 43.0069 112.587 42.5504C113.044 42.1451 113.359 41.6304 113.461 41.0815C113.515 40.7938 113.482 40.5663 113.359 40.383Z" fill="#231F20"/>
<path d="M112.935 40.5748C112.675 40.1836 112.084 40.0159 111.592 40.1342C111.051 40.2654 110.518 40.5792 110.172 40.9459C109.863 41.2765 109.479 41.7267 109.504 42.1672C109.532 42.6591 110.002 43.1016 110.588 43.1422C111.263 43.1883 111.849 42.7915 112.285 42.4063C112.669 42.0641 112.937 41.63 113.022 41.1658C113.067 40.9214 113.038 40.7296 112.935 40.5748Z" fill="url(#paint23_linear_1035_5391)"/>
<path d="M113.359 40.383C113.049 39.92 112.348 39.7206 111.769 39.861C111.128 40.0159 110.496 40.3874 110.088 40.8211C109.72 41.2127 109.266 41.7459 109.296 42.2675C109.331 42.8497 109.885 43.3737 110.58 43.4218C111.378 43.4776 112.073 43.0069 112.587 42.5504C113.044 42.1451 113.359 41.6304 113.461 41.0815C113.515 40.7938 113.482 40.5663 113.359 40.383Z" fill="#231F20"/>
<path d="M112.935 40.5748C112.675 40.1836 112.084 40.0159 111.592 40.1342C111.051 40.2654 110.518 40.5792 110.172 40.9459C109.863 41.2765 109.479 41.7267 109.504 42.1672C109.532 42.6591 110.002 43.1016 110.588 43.1422C111.263 43.1883 111.849 42.7915 112.285 42.4063C112.669 42.0641 112.937 41.63 113.022 41.1658C113.067 40.9214 113.038 40.7296 112.935 40.5748Z" fill="url(#paint24_linear_1035_5391)"/>
<path d="M113.212 31.6312C113.19 31.6043 113.165 31.5791 113.144 31.5502C113.124 33.0957 113.066 34.6396 113.05 36.1855C113.042 36.9365 113.042 37.6864 113.058 38.4375C113.077 39.2792 112.984 40.1535 113.113 40.988C113.139 41.159 113.44 41.055 113.448 40.923C113.543 39.3912 113.413 37.8517 113.385 36.3187C113.359 34.7567 113.273 33.1932 113.212 31.6312Z" fill="#231F20"/>
<path d="M117.173 34.8923C117.19 34.6492 117.192 34.408 117.182 34.1669C117.154 33.9651 117.102 33.7689 117.009 33.5895C116.922 33.4531 116.81 33.3284 116.666 33.2268C116.131 32.8525 115.42 32.7498 114.768 32.5139C114.125 32.2804 113.562 31.9879 113.179 31.5871C113.205 31.8126 113.167 32.0384 113.191 32.2647C113.207 32.4248 113.156 32.6415 113.205 32.8152C113.177 32.814 113.15 32.8365 113.158 32.8557C113.364 33.293 113.775 33.2666 114.381 33.2846C114.865 33.2987 115.316 33.3633 115.755 33.5117C116.125 33.6377 116.487 33.8122 116.733 34.0802C117.041 34.4153 116.993 34.8185 116.98 35.2145C116.897 35.0853 116.8 34.9681 116.666 34.873C116.13 34.4975 115.42 34.3952 114.768 34.1593C114.125 33.927 113.561 33.6345 113.179 33.2321C113.204 33.4571 113.167 33.6846 113.19 33.9105C113.207 34.0706 113.156 34.2869 113.204 34.4602C113.177 34.459 113.15 34.4823 113.158 34.5007C113.363 34.938 113.774 34.9116 114.38 34.9292C114.864 34.9445 115.316 35.0083 115.754 35.1563C116.388 35.3722 116.681 35.6687 117.008 36.1413C117.052 35.7232 117.144 35.3128 117.173 34.8923Z" fill="#231F20"/>
<path d="M113.408 33.6152C113.378 33.5876 113.408 34.5553 113.408 34.5553C113.408 34.5553 113.546 34.7643 113.973 34.7728C114.4 34.7824 115.205 34.8165 115.545 34.9561C115.885 35.0949 116.136 34.7992 115.708 34.6255C115.281 34.4506 114.238 34.3816 113.408 33.6152Z" fill="url(#paint25_linear_1035_5391)"/>
<path d="M113.408 31.9694C113.378 31.9414 113.408 32.9103 113.408 32.9103C113.408 32.9103 113.546 33.1193 113.973 33.1278C114.4 33.1362 115.205 33.1703 115.545 33.3099C115.885 33.4495 116.136 33.1542 115.708 32.9793C115.281 32.8056 114.238 32.7362 113.408 31.9694Z" fill="url(#paint26_linear_1035_5391)"/>
<path d="M68.2251 14.7616C67.9101 14.2901 67.1976 14.0875 66.6058 14.2304C65.955 14.388 65.311 14.766 64.8958 15.2073C64.521 15.6061 64.0576 16.149 64.0905 16.6806C64.1246 17.2728 64.6883 17.806 65.3961 17.855C66.209 17.9103 66.9171 17.4325 67.4399 16.9683C67.9049 16.5554 68.2251 16.0318 68.3294 15.4717C68.3852 15.18 68.3487 14.9473 68.2251 14.7616ZM67.5185 16.0098C67.0599 16.6401 65.8948 17.4818 65.0222 16.8375C64.8027 16.6754 64.7385 16.4383 64.7838 16.2027C64.9439 15.3879 66.172 14.1674 67.2935 14.5794C67.9848 14.8342 67.9218 15.4541 67.5185 16.0098Z" fill="#231F20"/>
<path d="M68.2526 10.6246C68.2245 8.98199 68.131 7.33579 68.07 5.694C68.0688 5.6627 68.0082 5.68076 68.007 5.70564C67.9882 7.30048 67.9268 8.89332 67.9107 10.4882C67.9023 11.2529 67.9023 12.0168 67.9196 12.7803C67.9376 13.6369 67.8425 14.528 67.9753 15.377C68.0022 15.5507 68.3079 15.4452 68.3152 15.3108C68.4123 13.7513 68.2791 12.1845 68.2526 10.6246Z" fill="#231F20"/>
<path d="M81.9157 9.08349C81.6024 8.61206 80.8886 8.41025 80.2976 8.55308C79.646 8.71076 79.0013 9.08831 78.5868 9.53005C78.2121 9.92926 77.7499 10.4721 77.7808 11.0021C77.8141 11.5951 78.3794 12.1287 79.0879 12.1777C79.8996 12.2331 80.6069 11.754 81.1309 11.2902C81.5943 10.8785 81.9157 10.3546 82.02 9.79486C82.0758 9.50156 82.0405 9.27006 81.9157 9.08349ZM81.2092 10.3313C80.751 10.9628 79.5858 11.8038 78.7148 11.1602C78.4949 10.9969 78.4295 10.7602 78.4761 10.5255C78.6354 9.7106 79.8647 8.49009 80.9849 8.90174C81.6758 9.15611 81.6128 9.7756 81.2092 10.3313Z" fill="#231F20"/>
<path d="M81.9436 4.94655C81.9155 3.30396 81.8229 1.65896 81.7611 0.0159709C81.7611 -0.014923 81.6993 0.00433554 81.6993 0.0288099C81.6792 1.62325 81.6182 3.21609 81.6026 4.81094C81.5946 5.57606 81.5934 6.33878 81.6106 7.1035C81.6303 7.9601 81.5356 8.85081 81.6664 9.69979C81.6933 9.87391 81.9978 9.76799 82.0066 9.63358C82.1041 8.07405 81.9701 6.50689 81.9436 4.94655Z" fill="#231F20"/>
<path d="M57.0731 10.7486C57.3676 11.1891 58.0332 11.3777 58.5857 11.2445C59.1959 11.096 59.7973 10.7442 60.1849 10.3301C60.536 9.95779 60.9665 9.45025 60.9388 8.95394C60.9067 8.39906 60.3779 7.90235 59.7167 7.85621C58.9576 7.80285 58.2956 8.25101 57.8069 8.68392C57.372 9.07029 57.0735 9.55978 56.9752 10.0826C56.9234 10.357 56.9551 10.5737 57.0731 10.7486ZM57.7319 9.58145C58.1612 8.99166 59.2497 8.20527 60.0662 8.8071C60.2716 8.95956 60.3318 9.18023 60.288 9.4001C60.1384 10.1628 58.9909 11.3031 57.9437 10.9183C57.2965 10.6804 57.3543 10.101 57.7319 9.58145Z" fill="#231F20"/>
<path d="M57.0466 14.6155C57.0735 16.1518 57.1602 17.69 57.2164 19.2251C57.2184 19.2548 57.2761 19.2379 57.2761 19.2143C57.293 17.7229 57.3508 16.234 57.3656 14.7423C57.374 14.0277 57.374 13.3139 57.3592 12.5994C57.3399 11.7989 57.4298 10.9664 57.3062 10.1724C57.2806 10.0091 56.9969 10.1082 56.9881 10.2342C56.8966 11.6926 57.0218 13.1571 57.0466 14.6155Z" fill="#231F20"/>
<path d="M25.6072 28.8054C25.206 28.2036 24.2968 27.9468 23.5437 28.1281C22.712 28.3295 21.8915 28.811 21.3635 29.3743C20.8856 29.8831 20.2967 30.5744 20.3348 31.2516C20.3785 32.0067 21.0983 32.6864 22.0014 32.7482C23.0358 32.8208 23.9381 32.2105 24.6065 31.6183C25.1983 31.0923 25.6072 30.4255 25.7416 29.7109C25.811 29.3374 25.7649 29.0421 25.6072 28.8054Z" fill="#231F20"/>
<path d="M25.0588 29.0549C24.7194 28.547 23.9519 28.3291 23.316 28.4832C22.6126 28.6529 21.9209 29.0593 21.4732 29.5348C21.0691 29.9649 20.5724 30.5495 20.6061 31.1212C20.6422 31.7591 21.2501 32.3329 22.0124 32.3854C22.887 32.4464 23.6486 31.9313 24.2115 31.4305C24.7126 30.9868 25.0588 30.4235 25.1704 29.8209C25.2294 29.5051 25.192 29.2555 25.0588 29.0549Z" fill="url(#paint27_linear_1035_5391)"/>
<path d="M25.6072 28.8054C25.206 28.2036 24.2968 27.9468 23.5437 28.1281C22.712 28.3295 21.8915 28.811 21.3635 29.3743C20.8856 29.8831 20.2967 30.5744 20.3348 31.2516C20.3785 32.0067 21.0983 32.6864 22.0014 32.7482C23.0358 32.8208 23.9381 32.2105 24.6065 31.6183C25.1983 31.0923 25.6072 30.4255 25.7416 29.7109C25.811 29.3374 25.7649 29.0421 25.6072 28.8054Z" fill="#231F20"/>
<path d="M25.0588 29.0549C24.7194 28.547 23.9519 28.3291 23.316 28.4832C22.6126 28.6529 21.9209 29.0593 21.4732 29.5348C21.0691 29.9649 20.5724 30.5495 20.6061 31.1212C20.6422 31.7591 21.2501 32.3329 22.0124 32.3854C22.887 32.4464 23.6486 31.9313 24.2115 31.4305C24.7126 30.9868 25.0588 30.4235 25.1704 29.8209C25.2294 29.5051 25.192 29.2555 25.0588 29.0549Z" fill="url(#paint28_linear_1035_5391)"/>
<path d="M25.6421 23.5314C25.6068 21.4362 25.4864 19.3386 25.4102 17.2447C25.4082 17.2049 25.3307 17.2286 25.3295 17.2607C25.3055 19.2941 25.2264 21.3242 25.2076 23.3572C25.1967 24.3322 25.1947 25.3051 25.2168 26.2805C25.2417 27.3714 25.1197 28.5077 25.2886 29.5906C25.3227 29.8124 25.7111 29.6772 25.7219 29.5051C25.8475 27.5175 25.6758 25.5198 25.6421 23.5314Z" fill="#231F20"/>
<path d="M48.2282 5.47659C48.5632 5.98012 49.3239 6.19437 49.9542 6.04311C50.6495 5.8746 51.3364 5.47258 51.7782 4.99954C52.179 4.57385 52.6721 3.99609 52.6384 3.42917C52.6035 2.79685 51.9996 2.22832 51.2449 2.17617C50.3787 2.11598 49.6232 2.62754 49.0655 3.12224C48.5696 3.56198 48.2282 4.12087 48.1154 4.71829C48.0573 5.03044 48.0946 5.27799 48.2282 5.47659Z" fill="#231F20"/>
<path d="M48.6867 5.26714C48.9708 5.69203 49.6127 5.87419 50.1464 5.7462C50.7329 5.60336 51.3131 5.26313 51.6866 4.86512C52.0245 4.50563 52.4409 4.01695 52.4128 3.53789C52.3819 3.00347 51.8732 2.52361 51.2361 2.47988C50.503 2.42852 49.8667 2.86063 49.3949 3.2791C48.976 3.65023 48.6863 4.12166 48.5924 4.6264C48.5439 4.8908 48.5752 5.10024 48.6867 5.26714Z" fill="url(#paint29_linear_1035_5391)"/>
<path d="M48.2282 5.47659C48.5632 5.98012 49.3239 6.19437 49.9542 6.04311C50.6495 5.8746 51.3364 5.47258 51.7782 4.99954C52.179 4.57385 52.6721 3.99609 52.6384 3.42917C52.6035 2.79685 51.9996 2.22832 51.2449 2.17617C50.3787 2.11598 49.6232 2.62754 49.0655 3.12224C48.5696 3.56198 48.2282 4.12087 48.1154 4.71829C48.0573 5.03044 48.0946 5.27799 48.2282 5.47659Z" fill="#231F20"/>
<path d="M48.6867 5.26714C48.9708 5.69203 49.6127 5.87419 50.1464 5.7462C50.7329 5.60336 51.3131 5.26313 51.6866 4.86512C52.0245 4.50563 52.4409 4.01695 52.4128 3.53789C52.3819 3.00347 51.8732 2.52361 51.2361 2.47988C50.503 2.42852 49.8667 2.86063 49.3949 3.2791C48.976 3.65023 48.6863 4.12166 48.5924 4.6264C48.5439 4.8908 48.5752 5.10024 48.6867 5.26714Z" fill="url(#paint30_linear_1035_5391)"/>
<path d="M48.1978 9.88961C48.2279 11.6425 48.3258 13.3975 48.392 15.15C48.3932 15.1829 48.4578 15.1636 48.4578 15.1371C48.4794 13.4356 48.544 11.7364 48.5609 10.0349C48.5697 9.21998 48.5705 8.4047 48.5524 7.58982C48.5324 6.67545 48.6335 5.72536 48.4939 4.81901C48.4638 4.63364 48.1392 4.74679 48.1304 4.88962C48.026 6.55307 48.1689 8.22576 48.1978 9.88961Z" fill="#231F20"/>
<path d="M18.8411 45.3236C19.798 44.8497 20.6706 44.3017 21.4939 43.6999C21.7431 43.5506 21.989 43.4013 22.2302 43.2473C23.2156 42.6158 24.5364 41.7764 25.0118 40.7746C25.5137 39.7166 24.9633 38.8479 23.6958 38.5823C22.3746 38.3051 21.2997 38.6505 20.2526 39.3226C19.5677 39.7611 19.0385 40.3934 18.6352 41.0976C18.025 42.1656 17.7987 43.3452 17.7666 44.536C17.7285 44.8654 17.6988 45.196 17.6795 45.527C17.4015 45.7084 17.1243 45.8921 16.8494 46.0755C14.0124 47.5379 11.2079 49.3426 9.33499 51.6737C7.90103 53.4595 6.67451 55.8789 7.17804 58.0679C7.82601 60.882 10.8624 62.5772 14.1348 62.7722C14.9777 62.8223 15.919 62.8159 16.7507 62.6759C17.0922 62.6181 20.019 61.8863 19.9637 61.6199C20.0941 62.2386 20.218 62.8585 20.3296 63.4791C20.9719 67.0211 21.0851 72.3854 16.7784 74.4244C14.8028 75.36 12.2703 75.7729 9.98857 75.1582C8.60036 74.7851 7.37062 74.0657 6.53769 73.0602C5.93346 72.3292 5.56193 71.3896 5.46844 70.4531C6.69698 71.3695 8.53937 71.5729 9.97253 70.866C11.2801 70.2216 11.7921 68.8775 11.4105 67.6667C10.9495 66.1974 9.55847 65.6417 8.23364 65.4945C6.78043 65.3336 5.36333 66.1601 4.58777 67.1712C3.56105 68.5132 3.76888 70.2477 4.42327 71.6644C5.01426 72.9499 6.01049 73.9409 7.233 74.6278C7.7261 75.0503 8.3516 75.3969 9.1745 75.6309C11.6143 76.3218 14.8281 76.0553 17.0645 74.9392C19.4409 73.7531 20.9667 71.3133 21.4209 69.1223C21.7206 67.6767 21.5389 66.1332 21.3431 64.688C21.1946 63.5967 21.0325 62.4191 20.6891 61.3202C20.6871 61.3001 20.6847 61.2797 20.6815 61.2608C22.8031 60.0776 24.2671 58.171 23.8483 55.927C23.5458 54.2968 22.1323 53.3303 20.4415 52.9772C20.068 52.8609 19.684 52.7883 19.2956 52.751C19.2142 52.2795 19.1324 51.8089 19.0541 51.3375C18.9859 50.8817 18.9081 50.4275 18.8278 49.9717C18.7175 49.3093 18.6039 48.6461 18.4864 47.9845C18.3797 47.306 18.2966 46.6251 18.2565 45.9427C18.2569 45.8335 18.2585 45.726 18.2605 45.6173C18.4559 45.5198 18.6457 45.4199 18.8411 45.3236ZM19.9773 40.1222C20.4375 39.6664 21.0301 39.3242 21.8001 39.1982C22.8789 39.2664 23.5554 39.7751 23.0948 40.8243C22.7959 41.506 22.3152 42.0545 21.7692 42.6077C21.3383 43.0451 20.8712 43.4294 20.3817 43.7869C20.1783 43.9165 19.9753 44.0469 19.7743 44.1749C19.335 44.4545 18.8976 44.7362 18.4619 45.0179C18.4114 45.0532 18.3576 45.0829 18.297 45.1033C18.2802 45.1109 18.2757 45.1246 18.277 45.1354C18.1381 44.1219 18.5097 42.8545 18.8808 41.8968C19.1263 41.2612 19.4714 40.6237 19.9773 40.1222ZM22.7132 56.9706C22.9993 58.4916 22.0476 59.7675 20.7966 60.7392C20.7408 60.7733 20.6851 60.8078 20.6277 60.8407C20.3336 58.6059 19.9516 56.3655 19.5424 54.148C19.5404 54.1404 19.5388 54.1331 19.5376 54.1255C21.1553 54.4658 22.4548 55.5988 22.7132 56.9706ZM18.301 52.4914C18.3151 52.5712 18.3287 52.6522 18.3428 52.7325C18.3279 52.6502 16.6063 53.0767 16.4506 53.1357C14.7799 53.762 13.5959 55.2385 13.6044 56.7712C13.6405 57.1575 13.7669 57.5319 14.0124 57.8252C14.4176 58.3086 15.0885 58.5506 15.7681 58.5518C15.7621 58.5466 15.7621 58.5401 15.7513 58.5369C14.8253 58.2031 14.3847 57.8167 14.2323 56.9646C14.1039 56.242 14.4369 55.5699 15.011 55.0443C15.8845 54.2415 17.2767 53.9498 18.561 54.0096C18.9494 56.3222 19.3145 58.638 19.8253 60.935C19.8052 60.8391 19.8453 61.0301 19.8253 60.935C19.952 61.5184 16.5794 62.038 16.1609 62.0516C13.6116 62.1294 11.1846 61.2624 9.69328 59.5055C8.1526 57.6888 8.33114 55.2297 9.3711 53.2432C10.3922 51.2921 11.9806 49.9063 13.8375 48.4876C14.4393 48.0278 15.0536 47.5905 15.6758 47.1592C16.1409 46.8466 16.6091 46.5417 17.0785 46.2356C17.2731 46.1312 17.4693 46.0277 17.6659 45.9242C17.5901 48.1205 17.9187 50.328 18.301 52.4914Z" fill="#231F20"/>
<path d="M18.8632 45.332C19.3679 45.0805 19.8602 44.8056 20.3389 44.5067C20.8079 44.2134 21.2468 43.8724 21.7195 43.5863C22.5227 43.1 23.3392 42.5965 24.0501 41.9802C24.6131 41.492 25.2237 40.8307 25.2337 40.0375C25.2438 39.272 24.593 38.7978 23.9173 38.612C22.1752 38.1338 20.261 38.9229 19.1464 40.2963C18.4876 41.1076 18.0684 42.0866 17.8754 43.1101C17.7755 43.6405 17.7622 44.1721 17.7105 44.7069C17.6972 44.8445 17.6828 44.9818 17.6712 45.1198C17.6595 45.2598 17.6804 45.458 17.5801 45.5691C17.4974 45.6606 17.3382 45.7276 17.2334 45.797C17.0774 45.9001 16.9237 46.0109 16.76 46.102C15.8368 46.6139 14.906 47.1002 14.0125 47.6643C13.1306 48.2212 12.2756 48.8238 11.4739 49.4923C9.95372 50.7601 8.61526 52.2912 7.76427 54.0914C6.96785 55.7765 6.69703 57.7116 7.65313 59.3907C8.46721 60.8199 9.92885 61.7643 11.4579 62.2811C12.2928 62.5636 13.1663 62.7289 14.0453 62.787C14.9613 62.848 15.9251 62.8637 16.829 62.6779C17.3277 62.5752 17.822 62.438 18.3119 62.2996C18.809 62.1591 19.3402 62.0279 19.802 61.7904C19.861 61.7599 20.0099 61.6973 20.001 61.6107C19.9758 61.6175 19.9505 61.6243 19.9252 61.6311C20.5724 64.7073 21.1497 68.1273 19.8743 71.1308C19.2291 72.6498 18.08 73.8254 16.5734 74.501C14.5505 75.4078 12.1769 75.7231 10.0191 75.1426C8.93543 74.8513 7.89747 74.3365 7.06976 73.571C6.18106 72.7489 5.63581 71.6468 5.50621 70.4435C5.48174 70.4515 5.45726 70.4595 5.43279 70.4676C6.3271 71.1232 7.46817 71.4004 8.56711 71.2832C9.60907 71.1721 10.6719 70.6939 11.2176 69.7602C11.7303 68.8832 11.6645 67.775 11.1048 66.9352C10.5435 66.0931 9.55972 65.6834 8.59359 65.5233C7.48382 65.3396 6.40053 65.62 5.48776 66.274C4.53927 66.9541 3.90896 67.9559 3.84276 69.1343C3.77656 70.3171 4.19824 71.5276 4.84701 72.505C5.17842 73.0041 5.58284 73.4526 6.03903 73.8406C6.27695 74.0432 6.52892 74.229 6.79132 74.3987C7.02683 74.5512 7.25191 74.7012 7.479 74.8657C8.44353 75.5651 9.65562 75.8427 10.8224 75.9651C12.0389 76.0927 13.2794 76.0341 14.4803 75.8026C15.6065 75.5855 16.7251 75.2164 17.7005 74.6033C18.6678 73.9955 19.4875 73.1682 20.1258 72.2229C20.7321 71.325 21.1878 70.3151 21.4274 69.2571C21.7419 67.8693 21.6095 66.4317 21.4278 65.0351C21.3355 64.3277 21.2408 63.6196 21.112 62.9178C21.0462 62.5603 20.9712 62.2045 20.8805 61.8526C20.8404 61.6965 20.7461 61.5072 20.7385 61.3487C20.7309 61.1934 20.9608 61.122 21.0827 61.0457C21.9995 60.4744 22.8373 59.7257 23.3793 58.7809C23.9097 57.8557 24.1031 56.7531 23.8411 55.7115C23.5928 54.7249 22.8806 53.9654 21.9959 53.4964C21.5076 53.2376 20.9929 53.0932 20.462 52.9548C20.3124 52.9159 20.1639 52.8725 20.0123 52.8396C19.8357 52.8015 19.6484 52.7939 19.4746 52.7493C19.345 52.716 19.3218 52.6711 19.2977 52.5327C19.2833 52.4496 19.2688 52.3662 19.2544 52.2831C19.2211 52.0893 19.1878 51.8952 19.1549 51.7014C18.9045 50.2221 18.6124 48.7404 18.421 47.2526C18.3737 46.8847 18.3352 46.5156 18.3087 46.1457C18.2979 45.9948 18.2337 45.7056 18.356 45.5888C18.4776 45.4749 18.7139 45.4062 18.8632 45.332C18.9085 45.3095 18.8395 45.3043 18.8178 45.3152C18.6237 45.4115 18.4319 45.5114 18.2389 45.6097C18.2313 45.6137 18.224 45.6193 18.2236 45.6281C18.2016 46.839 18.4632 48.0487 18.6654 49.2371C18.8652 50.4114 19.0554 51.5878 19.2588 52.7618C19.2596 52.7674 19.2688 52.7694 19.2728 52.7698C19.7748 52.8212 20.261 52.9451 20.7477 53.0735C21.1204 53.1718 21.4851 53.3038 21.8306 53.4764C22.5139 53.8174 23.1229 54.3289 23.4872 55.0086C24.2475 56.4273 23.8499 58.169 22.9031 59.3899C22.3016 60.1655 21.5108 60.7741 20.6594 61.2528C20.653 61.2564 20.643 61.2624 20.6442 61.2712C20.6739 61.4987 20.7698 61.7282 20.8259 61.9513C20.8849 62.1864 20.9375 62.4231 20.9844 62.6611C21.0783 63.1321 21.1525 63.6067 21.2203 64.0818C21.3564 65.0351 21.4932 65.9932 21.5321 66.9565C21.5995 68.6348 21.2344 70.2321 20.393 71.6881C19.5834 73.0887 18.3946 74.2848 16.9277 74.9873C15.371 75.7332 13.5868 76.0232 11.8703 75.9895C11.0153 75.9727 10.1575 75.8696 9.33023 75.6489C8.91978 75.5394 8.51816 75.3945 8.14021 75.1991C7.78313 75.0146 7.49305 74.747 7.15121 74.5468C5.73972 73.7211 4.6476 72.4396 4.15812 70.8692C3.91698 70.0952 3.82591 69.2563 4.01368 68.4603C4.21028 67.6277 4.72062 66.9252 5.38785 66.4016C6.10924 65.8359 7.01198 65.4708 7.9376 65.4941C8.67062 65.5125 9.4522 65.7131 10.0865 66.0843C11.348 66.8229 11.9024 68.4639 11.1465 69.763C10.259 71.2881 8.11815 71.5549 6.58148 71.0088C6.19591 70.8716 5.83401 70.6802 5.50421 70.4387C5.48896 70.4274 5.42837 70.4375 5.43078 70.4628C5.54794 71.5509 6.00453 72.5756 6.76403 73.3668C7.45814 74.0898 8.34122 74.6158 9.27847 74.9592C11.303 75.7015 13.5755 75.5863 15.6025 74.9127C16.4715 74.6238 17.3185 74.2378 18.0407 73.6681C18.6421 73.193 19.1464 72.6049 19.5348 71.9449C20.332 70.5903 20.6342 68.9995 20.6891 67.4448C20.7589 65.47 20.4067 63.5337 20.0018 61.6095C19.9974 61.5878 19.9236 61.6063 19.926 61.6299C19.9368 61.7366 19.6239 61.8345 19.5573 61.8614C19.3045 61.9637 19.0441 62.0468 18.7833 62.1266C18.2501 62.2899 17.7105 62.4344 17.1688 62.5656C16.4643 62.7361 15.7425 62.785 15.0187 62.7818C14.0742 62.7774 13.1334 62.6875 12.217 62.4532C10.6771 62.0596 9.16613 61.2801 8.16589 60.015C7.69767 59.4228 7.35944 58.7299 7.20136 57.9905C7.00236 57.0588 7.11911 56.0903 7.40197 55.1888C7.97451 53.3656 9.16051 51.7395 10.5158 50.4159C11.9454 49.02 13.6201 47.8922 15.3513 46.9064C15.787 46.6584 16.228 46.4193 16.6729 46.1874C16.8663 46.0867 17.0421 45.9708 17.2238 45.8504C17.3394 45.7742 17.4549 45.6979 17.5705 45.6221C17.7113 45.5298 17.7145 45.5579 17.7249 45.3974C17.7586 44.8818 17.7959 44.3627 17.8453 43.8483C17.8934 43.3456 17.9841 42.8465 18.1298 42.3626C18.7007 40.4692 20.2345 38.815 22.2623 38.5398C23.1005 38.4262 24.2415 38.5306 24.8417 39.2062C25.3637 39.7944 25.1519 40.5988 24.735 41.1802C24.209 41.914 23.4242 42.446 22.6788 42.9343C22.2788 43.1963 21.8635 43.4343 21.4639 43.6954C21.0254 43.9819 20.6089 44.2965 20.1615 44.5709C19.725 44.8385 19.2764 45.0861 18.8178 45.3148C18.7725 45.3376 18.8415 45.3429 18.8632 45.332Z" fill="black"/>
<path d="M20.0114 40.1214C20.5554 39.5922 21.3723 39.1167 22.1527 39.262C22.6522 39.3547 23.193 39.6275 23.2027 40.204C23.2079 40.5286 23.0662 40.8392 22.915 41.1188C22.7292 41.4623 22.4937 41.776 22.2377 42.0701C21.6832 42.7068 21.0497 43.2998 20.3528 43.7789C19.9536 44.0533 19.5355 44.3029 19.1279 44.5649C18.9413 44.6845 18.7551 44.8048 18.5694 44.9248C18.5068 44.9653 18.2965 45.0596 18.2737 45.0945C18.2588 45.1174 18.2444 45.1105 18.2388 45.1406C18.2641 45.1354 18.2893 45.1302 18.3142 45.125C18.2011 44.2231 18.4298 43.3002 18.7154 42.4501C19.0011 41.5979 19.3714 40.769 20.0114 40.1214C20.0306 40.1017 19.9568 40.1078 19.9415 40.123C19.2988 40.7734 18.9269 41.6051 18.6392 42.4609C18.3527 43.3139 18.1244 44.2399 18.2376 45.1451C18.2404 45.1667 18.3098 45.1475 18.313 45.1294C18.3178 45.1049 18.4386 45.0536 18.4643 45.0383C18.5666 44.9765 18.6653 44.9087 18.7656 44.8437C18.9931 44.6969 19.221 44.5504 19.4489 44.4044C19.8344 44.1577 20.2344 43.9253 20.6003 43.6493C21.3129 43.1117 21.9842 42.495 22.5362 41.7913C22.9058 41.3202 23.4338 40.5868 23.242 39.9481C23.0831 39.4181 22.46 39.2443 21.9725 39.1926C21.6142 39.1545 21.2238 39.3041 20.9021 39.4526C20.543 39.6183 20.2244 39.8478 19.9415 40.123C19.9227 40.1419 19.9961 40.1362 20.0114 40.1214Z" fill="black"/>
<path d="M22.6753 56.9806C22.8093 57.7389 22.6428 58.4868 22.2488 59.1436C21.8589 59.7932 21.2622 60.4483 20.605 60.8323C20.6251 60.8319 20.6456 60.8311 20.6656 60.8307C20.516 59.6961 20.3451 58.5646 20.1593 57.4356C19.9771 56.3286 19.8058 55.2136 19.5755 54.1155C19.5551 54.1251 19.5342 54.1344 19.5137 54.144C20.9549 54.4573 22.3728 55.4616 22.6753 56.9806C22.6797 57.0019 22.756 56.9838 22.7512 56.9601C22.4462 55.4275 21.0131 54.4228 19.5611 54.1067C19.5474 54.1039 19.4949 54.1135 19.4993 54.1352C19.7296 55.2333 19.9009 56.3483 20.0831 57.4553C20.2688 58.5843 20.4397 59.7161 20.5894 60.8504C20.5922 60.87 20.642 60.8536 20.65 60.8488C21.3164 60.4596 21.9226 59.7992 22.3182 59.1416C22.7171 58.4784 22.8864 57.7257 22.7512 56.9601C22.7472 56.9393 22.6709 56.9569 22.6753 56.9806Z" fill="black"/>
<path d="M18.2628 52.5014C18.2769 52.5817 18.2905 52.6623 18.3045 52.7425C18.3298 52.7357 18.3551 52.7289 18.3804 52.7221C18.3463 52.6623 18.1304 52.7237 18.0843 52.7317C17.8331 52.775 17.5835 52.8324 17.3356 52.8906C16.8256 53.0101 16.3438 53.1285 15.8764 53.3729C15.1778 53.7384 14.5584 54.2724 14.1315 54.938C13.7367 55.5531 13.4438 56.3684 13.6187 57.1022C13.855 58.092 14.7979 58.5566 15.752 58.5694C15.7612 58.5694 15.8214 58.553 15.8029 58.5369C15.6874 58.4354 15.4647 58.3981 15.3231 58.3295C15.1453 58.2432 14.9736 58.1409 14.824 58.0113C14.5612 57.7838 14.3975 57.4825 14.3116 57.1483C14.0528 56.1421 14.6579 55.2273 15.492 54.7037C16.3297 54.1777 17.3621 54.0052 18.3378 54.0208C18.4161 54.022 18.4526 54.0092 18.5064 54.0633C18.5581 54.1159 18.5533 54.2006 18.5645 54.2696C18.5878 54.4088 18.6111 54.5484 18.6343 54.6876C18.6809 54.9665 18.727 55.2449 18.7736 55.5238C18.8666 56.0811 18.9605 56.6384 19.0576 57.1953C19.2779 58.4587 19.5254 59.7149 19.7923 60.9691C19.7971 60.9916 19.8681 60.9719 19.8681 60.9487C19.8681 60.9326 19.8609 60.9142 19.8577 60.8985C19.8528 60.876 19.7818 60.8957 19.7818 60.919C19.7818 61.1128 19.6462 61.1954 19.4789 61.2809C19.2113 61.4177 18.916 61.5027 18.6271 61.5814C17.9932 61.7539 17.3436 61.8767 16.6936 61.9714C14.9921 62.2197 13.1112 61.8333 11.6094 61.0092C10.7444 60.5346 9.94354 59.873 9.39387 59.0469C8.83457 58.2067 8.5786 57.2041 8.60267 56.1994C8.65282 54.1095 9.81355 52.2266 11.229 50.7621C12.0945 49.867 13.0743 49.0854 14.0677 48.338C15.22 47.4709 16.4108 46.6047 17.6879 45.9314C17.6678 45.9323 17.6473 45.9327 17.6273 45.9331C17.5563 48.1422 17.88 50.3336 18.2628 52.5014C18.2664 52.5227 18.3431 52.505 18.3386 52.4809C17.9559 50.3128 17.6321 48.1213 17.7023 45.9138C17.7031 45.8941 17.6477 45.9122 17.6417 45.9154C16.4569 46.5405 15.3536 47.3349 14.2771 48.1301C13.3495 48.8158 12.4359 49.5316 11.5998 50.3276C10.0671 51.7872 8.7459 53.6621 8.54891 55.8267C8.45382 56.8699 8.64399 57.9331 9.17641 58.8423C9.69278 59.7241 10.4968 60.4331 11.3735 60.9451C12.2594 61.4622 13.2484 61.7896 14.2595 61.9517C15.0117 62.0725 15.7965 62.1294 16.554 62.0255C17.2883 61.9252 18.0257 61.7876 18.7387 61.5842C19.0348 61.4999 19.3445 61.4081 19.6109 61.25C19.7654 61.1585 19.8569 61.0763 19.8569 60.8985C19.8316 60.9053 19.8063 60.9122 19.781 60.919C19.7842 60.9346 19.7915 60.9531 19.7915 60.9691C19.8167 60.9623 19.842 60.9555 19.8673 60.9487C19.377 58.6433 18.9878 56.3226 18.5978 53.9984C18.5962 53.9899 18.581 53.9899 18.5754 53.9899C17.4363 53.9426 16.1945 54.1328 15.2521 54.8176C14.3545 55.4696 13.8117 56.6504 14.4452 57.6791C14.568 57.8785 14.7357 58.0426 14.9295 58.1738C15.035 58.2453 15.1469 58.3074 15.2617 58.3628C15.3985 58.429 15.6204 58.4667 15.7319 58.5646C15.7488 58.5538 15.766 58.543 15.7829 58.5321C14.9487 58.5209 14.0765 58.1514 13.7672 57.3221C13.5196 56.6584 13.6889 55.9146 13.9954 55.2979C14.5704 54.1416 15.689 53.3327 16.9251 53.023C17.1859 52.9576 17.4479 52.8954 17.7107 52.8388C17.7585 52.8284 18.2736 52.688 18.3045 52.7421C18.3158 52.7618 18.3844 52.7461 18.3804 52.7221C18.3663 52.6418 18.3527 52.5612 18.3386 52.4809C18.335 52.4605 18.2588 52.4773 18.2628 52.5014Z" fill="black"/>
<path d="M10.9294 68.417C10.9294 69.7867 9.597 70.8981 7.9532 70.8981C6.30941 70.8981 4.97656 69.7867 4.97656 68.417C4.97656 67.0472 6.30941 65.9366 7.9532 65.9366C9.597 65.9366 10.9294 67.0472 10.9294 68.417Z" fill="url(#paint31_linear_1035_5391)"/>
<path d="M9.46963 52.6555C9.46963 52.6555 6.52227 56.9617 9.62931 59.9472C12.7351 62.9327 16.2546 62.2711 16.5716 62.2193C16.8898 62.1671 12.2288 63.4354 8.8674 60.2385C5.50719 57.0408 10.1453 51.3659 9.46963 52.6555Z" fill="url(#paint32_linear_1035_5391)"/>
<path d="M14.5352 55.271C14.5352 55.271 16.3495 52.8665 20.2818 54.0028C24.2122 55.1386 23.1666 58.098 23.0073 58.3881C22.8484 58.6798 23.9622 57.2599 23.4815 55.7725C23.0041 54.2852 20.4074 52.4709 17.1423 53.1835C17.1423 53.1835 15.0182 53.7384 14.5352 55.271Z" fill="url(#paint33_linear_1035_5391)"/>
<path d="M21.6455 39.0489C21.6455 39.0489 23.7359 38.8644 23.5152 40.3172C23.2921 41.77 21.6455 43.1185 21.6455 43.1185C21.6455 43.1185 23.7427 42.2354 24.4657 41.0799C25.1891 39.9248 24.1808 38.283 21.6455 39.0489Z" fill="url(#paint34_linear_1035_5391)"/>
<path d="M108.712 72.4937C103.383 91.142 83.9451 101.939 65.2969 96.6102C46.6482 91.2808 35.851 71.8434 41.18 53.1951C46.509 34.5465 65.9468 23.7493 84.5955 29.0783C103.244 34.4076 114.041 53.8455 108.712 72.4937Z" fill="white"/>
<defs>
<linearGradient id="paint0_linear_1035_5391" x1="44.781" y1="23.744" x2="104.316" y2="111.117" gradientUnits="userSpaceOnUse">
<stop offset="0.1124" stop-color="#F0C83B"/>
<stop offset="0.2416" stop-color="#F1563C"/>
<stop offset="0.2688" stop-color="#E65352"/>
<stop offset="0.3232" stop-color="#D34F7A"/>
<stop offset="0.3666" stop-color="#C74C92"/>
<stop offset="0.3933" stop-color="#C34B9B"/>
<stop offset="0.6068" stop-color="#00B3C1"/>
<stop offset="0.8146" stop-color="#00B36C"/>
<stop offset="1" stop-color="#00B3C1"/>
</linearGradient>
<linearGradient id="paint1_linear_1035_5391" x1="7.83781" y1="34.0872" x2="115.485" y2="34.0872" gradientUnits="userSpaceOnUse">
<stop offset="0.1124" stop-color="#F0C83B"/>
<stop offset="0.2416" stop-color="#F1563C"/>
<stop offset="0.2688" stop-color="#E65352"/>
<stop offset="0.3232" stop-color="#D34F7A"/>
<stop offset="0.3666" stop-color="#C74C92"/>
<stop offset="0.3933" stop-color="#C34B9B"/>
<stop offset="0.7865" stop-color="#00B3C1"/>
<stop offset="0.8146" stop-color="#00B36C"/>
<stop offset="1" stop-color="#00B3C1"/>
</linearGradient>
<linearGradient id="paint2_linear_1035_5391" x1="2.71476" y1="32.8491" x2="114.821" y2="32.8491" gradientUnits="userSpaceOnUse">
<stop offset="0.1124" stop-color="#F0C83B"/>
<stop offset="0.2416" stop-color="#F1563C"/>
<stop offset="0.2688" stop-color="#E65352"/>
<stop offset="0.3232" stop-color="#D34F7A"/>
<stop offset="0.3666" stop-color="#C74C92"/>
<stop offset="0.3933" stop-color="#C34B9B"/>
<stop offset="0.7865" stop-color="#00B3C1"/>
<stop offset="0.8146" stop-color="#00B36C"/>
<stop offset="1" stop-color="#00B3C1"/>
</linearGradient>
<linearGradient id="paint3_linear_1035_5391" x1="0.0608751" y1="37.9113" x2="1.81849" y2="40.16" gradientUnits="userSpaceOnUse">
<stop stop-color="white"/>
<stop offset="1"/>
</linearGradient>
<linearGradient id="paint4_linear_1035_5391" x1="0.0608751" y1="37.9113" x2="1.81849" y2="40.16" gradientUnits="userSpaceOnUse">
<stop stop-color="white"/>
<stop offset="1"/>
</linearGradient>
<linearGradient id="paint5_linear_1035_5391" x1="6.87329" y1="40.8223" x2="8.63119" y2="43.0714" gradientUnits="userSpaceOnUse">
<stop stop-color="white"/>
<stop offset="1"/>
</linearGradient>
<linearGradient id="paint6_linear_1035_5391" x1="6.87329" y1="40.8223" x2="8.63119" y2="43.0714" gradientUnits="userSpaceOnUse">
<stop stop-color="white"/>
<stop offset="1"/>
</linearGradient>
<linearGradient id="paint7_linear_1035_5391" x1="86.8279" y1="17.2815" x2="88.8043" y2="19.8102" gradientUnits="userSpaceOnUse">
<stop stop-color="white"/>
<stop offset="1"/>
</linearGradient>
<linearGradient id="paint8_linear_1035_5391" x1="86.8279" y1="17.2815" x2="88.8043" y2="19.8102" gradientUnits="userSpaceOnUse">
<stop stop-color="white"/>
<stop offset="1"/>
</linearGradient>
<linearGradient id="paint9_linear_1035_5391" x1="94.3807" y1="20.4674" x2="96.3574" y2="22.9963" gradientUnits="userSpaceOnUse">
<stop stop-color="white"/>
<stop offset="1"/>
</linearGradient>
<linearGradient id="paint10_linear_1035_5391" x1="94.3807" y1="20.4674" x2="96.3574" y2="22.9963" gradientUnits="userSpaceOnUse">
<stop stop-color="white"/>
<stop offset="1"/>
</linearGradient>
<linearGradient id="paint11_linear_1035_5391" x1="101.944" y1="23.5633" x2="103.92" y2="26.0915" gradientUnits="userSpaceOnUse">
<stop stop-color="white"/>
<stop offset="1"/>
</linearGradient>
<linearGradient id="paint12_linear_1035_5391" x1="101.944" y1="23.5633" x2="103.92" y2="26.0915" gradientUnits="userSpaceOnUse">
<stop stop-color="white"/>
<stop offset="1"/>
</linearGradient>
<linearGradient id="paint13_linear_1035_5391" x1="27.5145" y1="11.8826" x2="29.131" y2="13.9508" gradientUnits="userSpaceOnUse">
<stop stop-color="white"/>
<stop offset="1"/>
</linearGradient>
<linearGradient id="paint14_linear_1035_5391" x1="27.5145" y1="11.8826" x2="29.131" y2="13.9508" gradientUnits="userSpaceOnUse">
<stop stop-color="white"/>
<stop offset="1"/>
</linearGradient>
<linearGradient id="paint15_linear_1035_5391" x1="33.6919" y1="14.4891" x2="35.3076" y2="16.5562" gradientUnits="userSpaceOnUse">
<stop stop-color="white"/>
<stop offset="1"/>
</linearGradient>
<linearGradient id="paint16_linear_1035_5391" x1="33.6919" y1="14.4891" x2="35.3076" y2="16.5562" gradientUnits="userSpaceOnUse">
<stop stop-color="white"/>
<stop offset="1"/>
</linearGradient>
<linearGradient id="paint17_linear_1035_5391" x1="39.8762" y1="17.0196" x2="41.4924" y2="19.0874" gradientUnits="userSpaceOnUse">
<stop stop-color="white"/>
<stop offset="1"/>
</linearGradient>
<linearGradient id="paint18_linear_1035_5391" x1="39.8762" y1="17.0196" x2="41.4924" y2="19.0874" gradientUnits="userSpaceOnUse">
<stop stop-color="white"/>
<stop offset="1"/>
</linearGradient>
<linearGradient id="paint19_linear_1035_5391" x1="13.2187" y1="19.2759" x2="14.8531" y2="21.3668" gradientUnits="userSpaceOnUse">
<stop stop-color="white"/>
<stop offset="1"/>
</linearGradient>
<linearGradient id="paint20_linear_1035_5391" x1="13.2187" y1="19.2759" x2="14.8531" y2="21.3668" gradientUnits="userSpaceOnUse">
<stop stop-color="white"/>
<stop offset="1"/>
</linearGradient>
<linearGradient id="paint21_linear_1035_5391" x1="18.5954" y1="13.4116" x2="17.7091" y2="15.2906" gradientUnits="userSpaceOnUse">
<stop stop-color="white"/>
<stop offset="1"/>
</linearGradient>
<linearGradient id="paint22_linear_1035_5391" x1="18.5323" y1="12.1171" x2="17.6458" y2="13.9965" gradientUnits="userSpaceOnUse">
<stop stop-color="white"/>
<stop offset="1"/>
</linearGradient>
<linearGradient id="paint23_linear_1035_5391" x1="109.36" y1="39.1194" x2="111.243" y2="41.5282" gradientUnits="userSpaceOnUse">
<stop stop-color="white"/>
<stop offset="1"/>
</linearGradient>
<linearGradient id="paint24_linear_1035_5391" x1="109.36" y1="39.1194" x2="111.243" y2="41.5282" gradientUnits="userSpaceOnUse">
<stop stop-color="white"/>
<stop offset="1"/>
</linearGradient>
<linearGradient id="paint25_linear_1035_5391" x1="115.555" y1="32.3656" x2="114.534" y2="34.5297" gradientUnits="userSpaceOnUse">
<stop stop-color="white"/>
<stop offset="1"/>
</linearGradient>
<linearGradient id="paint26_linear_1035_5391" x1="115.483" y1="30.8731" x2="114.461" y2="33.039" gradientUnits="userSpaceOnUse">
<stop stop-color="white"/>
<stop offset="1"/>
</linearGradient>
<linearGradient id="paint27_linear_1035_5391" x1="20.4192" y1="27.1651" x2="22.8621" y2="30.2906" gradientUnits="userSpaceOnUse">
<stop stop-color="white"/>
<stop offset="1"/>
</linearGradient>
<linearGradient id="paint28_linear_1035_5391" x1="20.4192" y1="27.1651" x2="22.8621" y2="30.2906" gradientUnits="userSpaceOnUse">
<stop stop-color="white"/>
<stop offset="1"/>
</linearGradient>
<linearGradient id="paint29_linear_1035_5391" x1="52.5691" y1="6.84847" x2="50.5249" y2="4.23304" gradientUnits="userSpaceOnUse">
<stop stop-color="white"/>
<stop offset="1"/>
</linearGradient>
<linearGradient id="paint30_linear_1035_5391" x1="52.5691" y1="6.84847" x2="50.5249" y2="4.23304" gradientUnits="userSpaceOnUse">
<stop stop-color="white"/>
<stop offset="1"/>
</linearGradient>
<linearGradient id="paint31_linear_1035_5391" x1="10.0873" y1="64.3728" x2="7.77815" y2="68.7481" gradientUnits="userSpaceOnUse">
<stop stop-color="white"/>
<stop offset="1"/>
</linearGradient>
<linearGradient id="paint32_linear_1035_5391" x1="6.12523" y1="65.4709" x2="11.3247" y2="59.3585" gradientUnits="userSpaceOnUse">
<stop stop-color="white"/>
<stop offset="1"/>
</linearGradient>
<linearGradient id="paint33_linear_1035_5391" x1="17.2403" y1="60.0668" x2="20.5855" y2="53.0804" gradientUnits="userSpaceOnUse">
<stop stop-color="white"/>
<stop offset="1"/>
</linearGradient>
<linearGradient id="paint34_linear_1035_5391" x1="12.7149" y1="46.2138" x2="25.1297" y2="39.128" gradientUnits="userSpaceOnUse">
<stop stop-color="white"/>
<stop offset="1"/>
</linearGradient>
</defs>
</svg>
