<svg width="142" height="115" viewBox="0 0 142 115" fill="none" xmlns="http://www.w3.org/2000/svg">
<path d="M109.078 96.9421C95.6271 104.382 78.5044 108.055 60.7556 103.96C55.0476 102.641 49.2756 100.521 43.5419 97.4635C-1.89541 73.2411 10.1051 13.0384 41.9465 3.32909C73.7879 -6.38023 80.9434 14.7938 98.9932 26.0512C117.043 37.3099 133.142 30.3356 136.231 57.7709C137.759 71.3511 126.5 87.3074 109.078 96.9421Z" fill="url(#paint0_linear_1035_3309)"/>
<path d="M104.399 84.5415C107.205 69.6534 126.88 59.3786 130.377 63.0193C133.873 66.66 113.041 81.2079 113.041 81.2079C113.041 81.2079 131.19 66.1745 140.377 72.5661C149.564 78.9578 114.685 85.7105 114.685 85.7105C114.685 85.7105 139.076 80.6567 140.54 88.3427C142.003 96.0287 115.016 92.4096 110.619 95.2975" fill="url(#paint1_linear_1035_3309)"/>
<path opacity="0.35" d="M104.114 91.3706C109.318 82.0506 134.767 75.0116 134.767 75.0116" stroke="white" stroke-width="2.3888" stroke-miterlimit="10" stroke-linecap="round"/>
<path opacity="0.35" d="M105.822 93.5056C109.888 88.1185 134.198 88.5092 134.198 88.5092" stroke="white" stroke-width="2.3888" stroke-miterlimit="10" stroke-linecap="round"/>
<path opacity="0.35" d="M105.182 89.8159C107.042 80.5135 120.376 68.5142 125.092 66.2209" stroke="white" stroke-width="2.3888" stroke-miterlimit="10" stroke-linecap="round"/>
<path d="M37.2611 60.7663C34.8345 45.8124 15.4252 35.0469 11.8379 38.5987C8.25049 42.1505 28.7069 57.2168 28.7069 57.2168C28.7069 57.2168 10.945 41.7323 1.59833 47.8915C-7.74836 54.0506 26.9495 61.6766 26.9495 61.6766C26.9495 61.6766 2.6938 56.0123 1.03576 63.6588C-0.622284 71.3057 26.448 68.3651 30.7702 71.3627" fill="url(#paint2_linear_1035_3309)"/>
<path opacity="0.35" d="M37.3722 67.6007C32.4068 58.1527 7.14453 50.4773 7.14453 50.4773" stroke="white" stroke-width="2.3888" stroke-miterlimit="10" stroke-linecap="round"/>
<path opacity="0.35" d="M35.6121 69.692C31.6848 64.2044 7.37207 63.9845 7.37207 63.9845" stroke="white" stroke-width="2.3888" stroke-miterlimit="10" stroke-linecap="round"/>
<path opacity="0.35" d="M36.346 66.0194C34.7219 56.6733 21.6962 44.343 17.04 41.932" stroke="white" stroke-width="2.3888" stroke-miterlimit="10" stroke-linecap="round"/>
<path d="M109.079 96.9422C95.6274 104.382 78.5047 108.055 60.7559 103.96L67.8126 85.2745L65.7746 73.008L82.3257 68.5939L108.376 74.9314L109.079 96.9422Z" fill="url(#paint3_linear_1035_3309)"/>
<path d="M116.91 39.4882L114.342 44.9593L112.759 48.331L111.476 51.0657L109.992 54.2265L108.409 57.5996L107.528 59.477C107.528 59.477 107.657 61.6253 107.815 64.3315C107.877 65.401 107.944 66.5574 108.009 67.7032C108.192 70.929 108.361 74.0693 108.375 74.9312C108.393 75.9911 106.565 76.2067 104.293 76.1702C103.427 76.1576 102.497 76.1069 101.578 76.0545C100.492 75.9895 99.4237 75.9215 98.5036 75.9009C98.0546 75.8913 97.3348 75.8963 96.4163 75.9089C95.6394 75.9185 94.7189 75.9358 93.7014 75.9533C92.1553 75.9818 90.3833 76.015 88.5393 76.0406C87.6445 76.0532 86.7336 76.0644 85.8244 76.0721C84.0588 76.088 82.2961 76.091 80.6624 76.0721C79.7039 76.0611 78.79 76.0419 77.9475 76.0134C74.7741 75.9089 72.6024 75.6648 72.8111 75.1737C73.072 74.5542 73.1503 71.333 73.1503 67.7032C73.1503 66.5972 73.1423 65.4517 73.1313 64.3315C73.1044 61.8631 73.058 59.5131 73.0214 57.9461C73.018 57.8258 73.0167 57.71 73.015 57.5992C72.9897 56.6186 72.9737 56.0243 72.9737 56.0243L68.5202 54.6888L66.9741 54.2262L65.3311 53.7334C65.3311 53.7334 65.6813 51.4202 66.2369 48.3307C66.4262 47.2771 66.6382 46.1329 66.8704 44.9589C67.2607 42.9784 67.7033 40.9139 68.1682 39.0618C68.4835 37.8115 68.8084 36.6567 69.1364 35.69C69.2224 35.4333 69.31 35.1909 69.396 34.9627C70.3578 32.4373 73.6363 30.292 77.9478 28.7392C78.814 28.4272 79.7232 28.1386 80.6627 27.8757C82.2134 27.4432 83.8505 27.0804 85.5255 26.7952C85.6242 26.7776 85.7245 26.762 85.8248 26.7461C86.7213 26.5972 87.6288 26.4718 88.5396 26.3707C90.2657 26.1774 92.0027 26.0679 93.7017 26.0536C93.9487 26.0503 94.1936 26.0503 94.4389 26.052C95.1028 26.0566 95.762 26.0822 96.4166 26.1313C96.7222 26.1535 97.0265 26.1803 97.3304 26.2122C98.7808 26.3627 100.205 26.6148 101.579 26.9617C102.507 27.1961 103.414 27.4734 104.294 27.7904C108.968 29.4698 112.872 32.2616 115.153 35.6903C115.863 36.7582 116.415 37.8864 116.785 39.0621C116.829 39.203 116.87 39.3456 116.91 39.4882Z" fill="url(#paint4_linear_1035_3309)"/>
<path d="M74.9834 40.2268L72.9741 56.0246L68.5205 54.6891L74.9834 40.2268Z" fill="url(#paint5_linear_1035_3309)"/>
<path d="M107.528 59.4773C107.528 59.4773 108.342 72.9892 108.376 74.9316C108.409 76.8723 102.244 75.9822 98.5037 75.9013C94.7634 75.8204 72.1617 76.7108 72.8116 75.174C73.3292 73.9509 73.1269 62.5576 73.0219 57.9468C87.3377 59.3523 102.457 54.8636 106.096 40.2268L111.476 51.0657L107.528 59.4773Z" fill="url(#paint6_linear_1035_3309)"/>
<path opacity="0.25" d="M108.01 67.7035H73.1508C73.1508 66.5975 73.1428 65.4521 73.1318 64.3318H107.815C107.877 65.4013 107.944 66.5577 108.01 67.7035Z" fill="white"/>
<g opacity="0.45">
<path opacity="0.25" d="M105.491 54.2265C105.489 54.2454 105.489 54.263 105.487 54.2803C105.416 55.6174 105.231 56.6299 104.846 56.9688C104.631 57.1575 104.037 57.3714 103.185 57.5996H73.0155C72.9902 56.619 72.9742 56.0247 72.9742 56.0247L66.9746 54.2262L105.491 54.2265Z" fill="white"/>
<path opacity="0.25" d="M105.404 48.331H73.8496C74.0392 47.2774 74.2509 46.1332 74.4832 44.9592H105.285C105.296 45.9037 105.35 47.0824 105.404 48.331Z" fill="white"/>
<path opacity="0.25" d="M110.949 35.6907C109.319 35.9663 107.725 37.061 106.631 39.0624H75.7812C76.0965 37.8122 76.4215 36.6574 76.7494 35.6907H110.949Z" fill="white"/>
</g>
<path d="M97.3308 26.2125C96.4997 28.6288 93.5588 31.525 89.2359 30.9579C85.8142 30.5095 85.4003 28.2866 85.5259 26.7955C88.4621 26.2948 91.5175 26.0334 94.4394 26.0523C95.4122 26.059 96.377 26.1127 97.3308 26.2125Z" fill="white"/>
<path d="M84.5467 12.094C82.4328 11.8244 80.7797 9.0735 81.3216 8.18372C81.8635 7.29361 84.1675 8.18372 84.1675 8.18372C84.1675 8.18372 81.7556 6.21513 82.4058 4.56988C83.0563 2.92463 86.2541 5.21723 86.2541 5.21723C86.2541 5.21723 85.4682 2.35853 86.7147 1.90021C87.9615 1.44189 88.4221 4.2734 89.9398 4.75891C91.4575 5.24443 95.3872 4.94761 97.2845 6.83562C99.1815 8.7233 98.0434 10.7459 98.0434 10.7459C98.0434 10.7459 100.51 11.4742 99.9404 13.9552C99.3711 16.4362 97.4635 16.7413 96.8726 18.0181C96.2817 19.2949 95.7124 21.5603 93.3819 21.1557" fill="#542076"/>
<path d="M95.3159 26.1856C95.2569 26.5295 94.0118 28.895 90.6714 28.9567C87.331 29.0171 87.2227 26.9732 87.2227 26.9732C87.2227 26.9732 87.256 26.5978 87.2783 26.0018C87.304 25.2872 87.3116 24.2528 87.2227 23.1707L93.4196 20.2758L94.886 19.5913C94.886 19.5913 94.905 19.8304 94.9336 20.2188C95.0566 21.811 95.3622 25.9083 95.3159 26.1856Z" fill="url(#paint7_linear_1035_3309)"/>
<path d="M94.9336 20.2188C94.6074 22.8364 91.2063 26.5261 87.2783 26.0018C87.304 25.2872 87.3116 24.2528 87.2227 23.1706L93.4196 20.2758L94.9336 20.2188Z" fill="#D25482"/>
<path d="M83.8648 10.1016C88.4993 12.2861 94.6016 11.4802 94.6016 11.4802C94.6016 11.4802 94.4186 16.3144 94.8456 16.8805C95.2725 17.447 95.2318 14.9793 96.4513 14.5342C97.6707 14.0892 99.0368 15.3945 98.2063 16.9479C97.3754 18.5016 95.4825 18.0671 95.4825 18.0671C95.4825 18.0671 95.0082 24.1417 89.1542 24.1215C83.3003 24.1013 83.5442 17.568 83.6052 14.7365C83.6659 11.905 83.8648 10.1016 83.8648 10.1016Z" fill="url(#paint8_linear_1035_3309)"/>
<path d="M96.4851 16.8328C96.0515 15.8601 97.0003 15.1242 97.5692 15.8601" stroke="#D16B83" stroke-width="0.9555" stroke-miterlimit="10" stroke-linecap="round"/>
<path d="M88.6967 15.4648L87.8758 18.3484C87.7805 18.6827 87.9871 19.0283 88.3281 19.1046L89.2352 19.3078" stroke="#D16B83" stroke-width="0.9555" stroke-miterlimit="10" stroke-linecap="round" stroke-linejoin="round"/>
<path d="M94.0844 16.8328C94.0844 18.1176 93.0379 19.1589 91.7468 19.1589C90.4557 19.1589 89.4092 18.1176 89.4092 16.8328C89.4092 15.5481 90.4557 14.5067 91.7468 14.5067C93.0379 14.507 94.0844 15.5484 94.0844 16.8328Z" stroke="white" stroke-width="0.9555" stroke-miterlimit="10"/>
<path d="M87.8529 16.4842C87.8529 17.7689 86.8064 18.8103 85.5153 18.8103C84.2242 18.8103 83.1777 17.7689 83.1777 16.4842C83.1777 15.1994 84.2242 14.1581 85.5153 14.1581C86.8061 14.1581 87.8529 15.1998 87.8529 16.4842Z" stroke="white" stroke-width="0.9555" stroke-miterlimit="10"/>
<path d="M87.835 16.197L89.4593 16.3527" stroke="white" stroke-width="0.9555" stroke-miterlimit="10"/>
<path d="M91.2411 17.1777C91.5555 17.1777 91.8103 16.9241 91.8103 16.6112C91.8103 16.2984 91.5555 16.0448 91.2411 16.0448C90.9267 16.0448 90.6719 16.2984 90.6719 16.6112C90.6719 16.9241 90.9267 17.1777 91.2411 17.1777Z" fill="#330E49"/>
<path d="M85.5155 16.9184C85.8299 16.9184 86.0848 16.6648 86.0848 16.352C86.0848 16.0391 85.8299 15.7855 85.5155 15.7855C85.2011 15.7855 84.9463 16.0391 84.9463 16.352C84.9463 16.6648 85.2011 16.9184 85.5155 16.9184Z" fill="#330E49"/>
<path d="M84.791 13.2939C84.791 13.2939 85.5905 12.5524 86.905 13.2939" stroke="#330E49" stroke-width="0.9555" stroke-miterlimit="10" stroke-linecap="round" stroke-linejoin="round"/>
<path d="M92.6696 13.4587C92.6696 13.4587 91.8701 12.7172 90.5557 13.4587" stroke="#330E49" stroke-width="0.9555" stroke-miterlimit="10" stroke-linecap="round" stroke-linejoin="round"/>
<path d="M88.9102 21.0183C88.9102 21.0183 90.0076 21.7735 91.3087 20.762" stroke="#D16B83" stroke-width="0.9555" stroke-miterlimit="10" stroke-linecap="round" stroke-linejoin="round"/>
<path d="M94.0342 16.3527L95.3163 16.197" stroke="white" stroke-width="0.9555" stroke-miterlimit="10" stroke-linecap="round"/>
<path d="M84.731 99.9854C84.3694 102.202 82.545 103.988 80.1931 104.214L44.3057 107.671C41.5049 107.941 39.0147 105.9 38.744 103.113L38.5767 101.396L36.4098 79.1142L34.3971 58.4251L33.2633 46.7813L31.9576 33.3567C31.687 30.5683 33.7376 28.0899 36.5384 27.8207L72.4261 24.3633C75.227 24.0941 77.7172 26.1346 77.9878 28.9217L80.6167 55.9388L81.0719 60.6192C81.0719 60.6208 81.0719 60.6208 81.0719 60.6208L81.1373 61.2974L82.2724 72.9617L82.6467 76.815L84.774 98.6798C84.8169 99.1252 84.801 99.5626 84.731 99.9854Z" fill="url(#paint9_linear_1035_3309)"/>
<path d="M80.4598 99.6064L43.1563 103.199C41.7729 103.333 40.5428 102.325 40.4088 100.948L34.0099 35.1631C33.876 33.7865 34.8891 32.5624 36.2725 32.4291L73.576 28.8362C74.9594 28.7029 76.1895 29.711 76.3235 31.0877L82.7224 96.8724C82.8564 98.249 81.8432 99.4731 80.4598 99.6064Z" fill="white"/>
<path d="M72.3631 58.5891L43.4799 61.4074C42.8637 61.4674 42.3148 61.0191 42.2544 60.4059C42.1941 59.7927 42.6447 59.2468 43.2609 59.1864L72.1442 56.3682C72.7604 56.3082 73.3093 56.7565 73.3696 57.3697C73.43 57.9829 72.9794 58.5291 72.3631 58.5891Z" fill="#D6E9FC"/>
<path d="M73.4276 65.9224L44.5443 68.7407C43.9281 68.8007 43.3792 68.3523 43.3189 67.7391C43.2586 67.1259 43.7092 66.58 44.3254 66.5197L73.2086 63.7014C73.8249 63.6414 74.3738 64.0898 74.4341 64.703C74.4947 65.3162 74.0442 65.8621 73.4276 65.9224Z" fill="#D6E9FC"/>
<path d="M74.4911 73.2552L45.6078 76.0734C44.9916 76.1334 44.443 75.6851 44.3824 75.0719C44.322 74.4587 44.7726 73.9128 45.3889 73.8524L74.2721 71.0342C74.8883 70.9742 75.4369 71.4225 75.4976 72.0357C75.5579 72.6493 75.1073 73.1951 74.4911 73.2552Z" fill="#D6E9FC"/>
<path d="M75.5545 80.5883L46.6713 83.4065C46.0551 83.4666 45.5062 83.0182 45.4458 82.405C45.3855 81.7918 45.8361 81.2459 46.4523 81.1856L75.3356 78.3673C75.9518 78.3073 76.5007 78.7557 76.561 79.3689C76.6217 79.9821 76.1711 80.5283 75.5545 80.5883Z" fill="#D6E9FC"/>
<path d="M76.619 87.9214L47.7357 90.7397C47.1195 90.7997 46.5706 90.3513 46.5103 89.7381C46.45 89.1249 46.9006 88.5787 47.5168 88.5187L76.4 85.7005C77.0163 85.6404 77.5652 86.0888 77.6255 86.702C77.6858 87.3152 77.2352 87.8611 76.619 87.9214Z" fill="#D6E9FC"/>
<path d="M70.4263 35.5481L52.2061 37.3031L40.6572 38.4155H40.6558C40.5172 38.4287 40.3899 38.4742 40.2786 38.5421C39.9983 38.7133 39.825 39.0323 39.8587 39.3802L40.6698 47.7179L41.1204 52.3508C41.1678 52.8373 41.6013 53.1925 42.0886 53.1457L60.3101 51.3907L71.859 50.2784C72.3479 50.2313 72.7049 49.7999 72.6576 49.3134L71.8464 40.9757L71.3958 36.3427C71.3491 35.8575 70.9152 35.501 70.4263 35.5481Z" fill="#D6E9FC"/>
<path d="M72.6709 33.287L74.0573 47.5387C74.1093 48.0733 73.717 48.5472 73.1798 48.599L40.4689 51.7495C39.9333 51.8009 39.457 51.4109 39.4047 50.8763L38.0183 36.6246C37.9663 36.0916 38.3586 35.616 38.8941 35.5643L71.6051 32.4138C72.1426 32.362 72.6189 32.754 72.6709 33.287Z" fill="url(#paint10_linear_1035_3309)"/>
<path d="M73.1654 38.3776L74.0565 47.5388C74.1085 48.0734 73.7163 48.5473 73.179 48.599L60.4893 49.8211C60.9915 43.9163 65.67 39.0263 71.8096 38.435C72.2645 38.3912 72.7168 38.3717 73.1654 38.3776Z" fill="url(#paint11_linear_1035_3309)"/>
<path d="M38.9104 45.7857L38.0193 36.6246C37.9673 36.09 38.3595 35.6161 38.8968 35.5643L51.5866 34.3419C51.0843 40.2467 46.4058 45.1367 40.2662 45.728C39.8113 45.7721 39.359 45.7917 38.9104 45.7857Z" fill="url(#paint12_linear_1035_3309)"/>
<path d="M42.5319 46.2261L41.9745 40.4928L42.6912 40.4238L46.117 44.615L45.6815 40.1359L46.3983 40.0669L46.9557 45.8002L46.2389 45.8692L42.8128 41.674L43.2486 46.1571L42.5319 46.2261ZM48.0691 45.693L47.5117 39.9598L51.1351 39.6109L51.2005 40.2838L48.2858 40.5644L48.4604 42.36L50.8973 42.1254L50.9627 42.7983L48.5258 43.0329L48.7124 44.9519L51.6271 44.6713L51.6925 45.3442L48.0691 45.693ZM53.8721 45.1343L51.6543 39.5609L52.3949 39.4897L54.1099 43.9018L54.9396 39.2487L55.6838 39.173L57.3989 43.5852L58.2282 38.9281L58.9728 38.8564L57.8698 44.7495L57.161 44.8177L55.4339 40.4469L54.5808 45.0661L53.8721 45.1343ZM62.0996 44.4628C61.6935 44.5019 61.3204 44.4682 60.9805 44.3616C60.6432 44.2548 60.356 44.0842 60.1189 43.8498C59.8842 43.6125 59.7179 43.3218 59.6201 42.9775L60.3415 42.7915C60.4696 43.1436 60.6895 43.4077 61.0014 43.584C61.3156 43.7574 61.6718 43.8249 62.07 43.7865C62.3275 43.7617 62.5559 43.6996 62.7552 43.6C62.9569 43.4975 63.1115 43.3648 63.2189 43.2017C63.3263 43.0387 63.3699 42.8536 63.3498 42.6466C63.3374 42.5192 63.3043 42.4125 63.2504 42.3266C63.1988 42.2378 63.1315 42.1653 63.0483 42.109C62.9676 42.0498 62.8772 42.0022 62.7772 41.9663C62.6773 41.9304 62.5741 41.9028 62.4678 41.8836L60.9643 41.5903C60.8003 41.5578 60.6406 41.5129 60.485 41.4556C60.3291 41.3956 60.1875 41.3168 60.0601 41.2192C59.9324 41.119 59.8266 40.9952 59.7426 40.8479C59.6584 40.6979 59.606 40.5168 59.5853 40.3044C59.5523 39.9647 59.6117 39.6669 59.7637 39.4112C59.9181 39.1525 60.1404 38.9449 60.4306 38.7884C60.7208 38.6319 61.0559 38.5366 61.4357 38.5028C61.8209 38.4684 62.1714 38.5043 62.4872 38.6105C62.8053 38.7138 63.0761 38.8807 63.2994 39.111C63.5254 39.3411 63.6898 39.6266 63.7927 39.9677L63.0529 40.1716C62.9904 39.9418 62.8819 39.75 62.7277 39.596C62.5758 39.4392 62.3932 39.3255 62.1801 39.2549C61.9666 39.1817 61.7377 39.1555 61.4932 39.1764C61.2593 39.1962 61.0519 39.2537 60.8709 39.3488C60.6899 39.4439 60.5504 39.5659 60.4523 39.7146C60.354 39.8607 60.3135 40.0227 60.3308 40.2005C60.3478 40.3757 60.4121 40.5129 60.5235 40.612C60.6347 40.7084 60.7664 40.7815 60.9186 40.8311C61.0732 40.8779 61.2228 40.9144 61.3673 40.9406L62.4889 41.1501C62.617 41.1726 62.765 41.2066 62.9329 41.2521C63.1034 41.2973 63.271 41.3682 63.4358 41.4649C63.6004 41.5589 63.742 41.6926 63.8607 41.866C63.9791 42.0368 64.0517 42.2602 64.0786 42.5363C64.1054 42.8123 64.0735 43.0632 63.9829 43.2889C63.895 43.5144 63.7599 43.7096 63.5777 43.8745C63.3952 44.0367 63.1775 44.1675 62.9245 44.2669C62.6719 44.3689 62.3969 44.4342 62.0996 44.4628Z" fill="white"/>
<path d="M30.4124 55.5537C29.9714 49.3906 31.8758 46.8967 34.3557 46.4115C36.8356 45.926 41.3621 44.3888 41.8227 45.4809C42.2833 46.573 40.1403 48.002 38.015 48.6361C37.2015 48.8789 36.8762 49.2025 36.8762 49.2025C36.8762 49.2025 38.2583 50.942 37.7707 54.2998C37.2828 57.6573 34.0714 59.1944 32.8109 58.2237C31.5505 57.253 30.5017 56.8056 30.4124 55.5537Z" fill="url(#paint13_linear_1035_3309)"/>
<path d="M86.0117 62.0398C85.0362 61.9049 82.6783 55.4055 80.5913 55.945C78.5043 56.4843 80.9166 59.9635 81.2419 61.0419C81.5671 62.1208 75.4962 60.4218 74.3307 59.1543C73.1653 57.8868 72.0815 60.2599 73.1926 61.9052C74.3037 63.5504 75.3336 64.0628 75.3336 64.0628C75.3336 64.0628 72.9756 61.8515 71.7562 63.2268C70.5367 64.6021 75.2522 68.4046 75.2522 68.4046C75.2522 68.4046 71.5666 65.2222 70.9703 67.1102C70.3741 68.9979 73.0843 72.4499 77.7458 72.8814C82.4073 73.3128 86.1203 72.504 86.1203 72.504L86.0117 62.0398Z" fill="url(#paint14_linear_1035_3309)"/>
<path d="M74.6572 63.5823C76.0237 64.9592 77.6294 65.0806 77.6294 65.0806" stroke="#D16B83" stroke-width="0.9555" stroke-miterlimit="10" stroke-linecap="round" stroke-linejoin="round"/>
<path d="M74.4385 67.7032C76.0375 69.1867 77.7449 69.4831 77.7449 69.4831" stroke="#D16B83" stroke-width="0.9555" stroke-miterlimit="10" stroke-linecap="round" stroke-linejoin="round"/>
<g opacity="0.27">
<path d="M52.6126 100.13L40.4528 101.226L38.5771 101.395L36.4102 79.1142L38.2682 78.9464L50.581 77.8357C51.3595 77.7661 52.0491 78.3378 52.1191 79.1128L52.256 80.6195L52.4583 82.8424L52.9279 87.9917L53.1302 90.213L53.8944 98.5978C53.9661 99.3738 53.3915 100.06 52.6126 100.13Z" fill="#9F7AF6"/>
<path d="M84.7316 99.9853L57.4694 102.473C57.0475 102.511 56.6639 102.275 56.4966 101.914C56.4503 101.816 56.4203 101.71 56.4106 101.595L55.3534 89.9961L55.1511 87.7748L54.6816 82.6255L54.4776 80.4025L54.4746 80.3614C54.4269 79.8275 54.8219 79.3552 55.3584 79.3078L80.788 76.985L82.6476 76.8156L84.7749 98.6803C84.8176 99.1251 84.8016 99.5625 84.7316 99.9853Z" fill="#9F7AF6"/>
</g>
<path d="M118.058 54.2265C117.999 55.3673 117.907 56.4985 117.78 57.5996C117.533 59.7432 117.151 61.7666 116.611 63.4984C116.062 65.265 115.347 66.7275 114.441 67.7035C113.394 68.8301 111.157 69.7776 108.376 70.5619C99.9097 72.948 86.4045 73.8196 86.1195 73.6372C85.7389 73.3931 85.6849 61.5006 86.1195 60.9335C86.4681 60.4788 97.5008 58.9719 102.507 57.771C102.747 57.7123 102.973 57.6553 103.185 57.5999C104.037 57.3717 104.631 57.1578 104.846 56.9691C105.231 56.6302 105.415 55.6177 105.487 54.2805C105.489 54.2633 105.489 54.2457 105.49 54.2268C105.578 52.5378 105.492 50.345 105.404 48.3313C105.35 47.0827 105.296 45.9041 105.285 44.9596C105.277 44.3006 105.288 43.7554 105.334 43.3783C105.548 41.6356 106.008 40.2016 106.631 39.0624C107.724 37.0613 109.318 35.9666 110.949 35.6906C111.506 35.5955 112.068 35.5955 112.614 35.6906C114.302 35.9759 115.854 37.1339 116.733 39.0624C116.97 39.5821 117.158 40.1588 117.286 40.7896C117.529 41.9874 117.73 43.4055 117.875 44.9596C117.977 46.0291 118.05 47.162 118.095 48.3313C118.168 50.2402 118.162 52.2459 118.058 54.2265Z" fill="url(#paint15_linear_1035_3309)"/>
<path d="M102.507 57.7707C103.719 57.4792 104.577 57.2049 104.846 56.9691C105.231 56.6302 105.416 55.6177 105.487 54.2805C107.422 54.9319 109.474 55.7619 109.67 56.4037C110.049 57.644 102.507 57.7707 102.507 57.7707Z" fill="url(#paint16_linear_1035_3309)"/>
<path d="M116.611 63.4983C116.062 65.265 115.347 66.7275 114.441 67.7035C113.395 68.8301 111.158 69.7776 108.376 70.5619C108.634 66.6041 111.943 63.4731 115.985 63.4731C116.196 63.4731 116.404 63.4811 116.611 63.4983Z" fill="url(#paint17_linear_1035_3309)"/>
<path d="M50.3889 79.4402L6.29065 84.0281C5.06987 84.1551 3.97673 83.2733 3.84908 82.0585L2.2427 66.7697C2.11505 65.555 3.00123 64.4675 4.22202 64.3405L48.3203 59.7526C49.541 59.6256 50.6342 60.5074 50.7618 61.7222L52.3682 77.011C52.4955 78.2255 51.6093 79.3132 50.3889 79.4402Z" fill="url(#paint18_linear_1035_3309)"/>
<path opacity="0.74" d="M27.4123 68.3201L8.7866 70.2579C8.48532 70.2894 8.21537 70.0715 8.18371 69.7717C8.15205 69.4715 8.37101 69.2029 8.67262 69.1717L27.2983 67.234C27.6 67.2025 27.8699 67.4204 27.9012 67.7202C27.9326 68.0203 27.7139 68.2889 27.4123 68.3201Z" fill="white"/>
<path opacity="0.74" d="M27.839 72.3837L9.2133 74.3214C8.91169 74.3529 8.64207 74.135 8.61041 73.8349C8.57908 73.5348 8.79771 73.2665 9.09932 73.235L27.725 71.2972C28.0267 71.2657 28.2966 71.4836 28.3279 71.7837C28.3593 72.0839 28.1406 72.3525 27.839 72.3837Z" fill="white"/>
<path opacity="0.74" d="M20.9207 77.2116L9.64006 78.3852C9.33845 78.4167 9.06849 78.1989 9.03717 77.8991C9.00584 77.5989 9.22447 77.3303 9.52608 77.2991L20.8068 76.1255C21.1084 76.094 21.3783 76.3118 21.4097 76.612C21.441 76.9114 21.222 77.1801 20.9207 77.2116Z" fill="white"/>
<path d="M34.2256 75.8274L34.058 75.8446C33.6241 75.8897 33.2358 75.5763 33.1902 75.1445L32.8705 72.1011C32.8252 71.6693 33.1402 71.2829 33.5738 71.2378L33.7414 71.2203C34.1753 71.1752 34.5636 71.4886 34.6089 71.9204L34.9285 74.9638C34.9745 75.3956 34.6596 75.7823 34.2256 75.8274Z" fill="url(#paint19_linear_1035_3309)"/>
<path d="M39.3186 75.2974L39.2363 75.3061C38.779 75.3535 38.3694 75.0232 38.3214 74.5682L37.6159 67.8545C37.5682 67.3995 37.9002 66.9919 38.3574 66.9442L38.4397 66.9356C38.897 66.8881 39.3066 67.2184 39.3546 67.6735L40.0601 74.3871C40.1081 74.8424 39.7758 75.25 39.3186 75.2974Z" fill="url(#paint20_linear_1035_3309)"/>
<path d="M44.4122 74.7675C43.9319 74.8176 43.5023 74.4707 43.452 73.9928L43.0087 69.7751C42.9584 69.2972 43.307 68.8697 43.7873 68.8196C44.2675 68.7695 44.6971 69.1164 44.7474 69.5943L45.1907 73.8121C45.2407 74.29 44.8921 74.7178 44.4122 74.7675Z" fill="url(#paint21_linear_1035_3309)"/>
<path d="M53.0882 111.146L26.1603 113.947C25.0885 114.059 24.1286 113.285 24.0167 112.218L21.2012 85.4224C21.0892 84.3558 21.867 83.4007 22.9388 83.2893L49.8668 80.4876C50.9386 80.3762 51.8984 81.1502 52.0104 82.2168L54.8259 109.012C54.9382 110.079 54.16 111.034 53.0882 111.146Z" fill="#D6E9FC"/>
<path d="M49.6524 83.2325L51.5277 101.081C51.544 101.238 51.4311 101.376 51.2738 101.393L25.9096 104.031C25.7536 104.048 25.6143 103.935 25.5976 103.778L23.7223 85.93C23.7059 85.7748 23.8189 85.6345 23.9749 85.6183L49.3408 82.9791C49.4964 82.9635 49.636 83.0773 49.6524 83.2325Z" fill="white"/>
<path d="M49.3181 92.7776L50.0539 99.7825C50.0686 99.9224 49.9666 100.048 49.8257 100.063L27.0493 102.432C26.9094 102.447 26.784 102.346 26.7694 102.205L26.1045 95.8771L27.9585 93.6014C28.6827 92.7123 29.9941 92.576 30.8877 93.2967L33.3705 95.2997C34.2641 96.0204 35.5755 95.8841 36.2997 94.995L41.2412 88.9293C41.9657 88.0402 43.2771 87.9039 44.1706 88.6246L49.3181 92.7776Z" fill="#D6E9FC"/>
<path d="M35.8882 106.133L27.6653 106.988C27.2643 107.03 26.9054 106.741 26.8634 106.341C26.8214 105.942 27.1127 105.585 27.5136 105.543L35.7365 104.688C36.1374 104.646 36.4964 104.936 36.5384 105.335C36.58 105.734 36.2891 106.091 35.8882 106.133Z" fill="#A0BEED"/>
<path d="M44.2333 106.962L27.3789 108.716C27.2343 108.731 27.1046 108.626 27.0893 108.482C27.0743 108.338 27.1793 108.209 27.3239 108.194L44.1783 106.441C44.323 106.426 44.4526 106.53 44.4679 106.674C44.4833 106.819 44.3779 106.948 44.2333 106.962Z" fill="white"/>
<path d="M44.456 109.084L27.6016 110.838C27.4566 110.853 27.327 110.748 27.312 110.604C27.297 110.461 27.402 110.332 27.5466 110.316L44.401 108.563C44.5456 108.548 44.6753 108.652 44.6906 108.796C44.7059 108.94 44.6006 109.069 44.456 109.084Z" fill="white"/>
<path d="M114.845 108.498L59.8217 114.282C59.0839 114.359 58.4233 113.826 58.346 113.092L55.2779 83.8918C55.2009 83.1575 55.7365 82.5002 56.474 82.4236L111.498 76.6399C112.236 76.5633 112.896 77.0962 112.973 77.8301L116.042 107.03C116.119 107.764 115.583 108.421 114.845 108.498Z" fill="#D6E9FC"/>
<path d="M78.5178 90.5339C78.1135 90.8963 76.7408 93.5919 75.686 94.6783L74.4642 94.808L74.3389 93.5919C75.1891 92.3403 77.5553 90.446 77.8283 89.9777C78.1012 89.5091 77.6563 88.9523 78.0772 88.6034C78.4981 88.2542 79.205 88.9891 79.205 88.9891C79.205 88.9891 80.0745 89.526 79.8176 90.0076C79.5613 90.4894 78.9217 90.1714 78.5178 90.5339Z" fill="url(#paint22_linear_1035_3309)"/>
<path d="M66.4965 91.1567C66.8608 91.559 69.5696 92.925 70.6614 93.9746L70.7917 95.1904L69.5696 95.3151C68.3118 94.4691 66.4082 92.1144 65.9376 91.8428C65.467 91.5712 64.9071 92.014 64.5565 91.5951C64.2056 91.1762 64.9441 90.4728 64.9441 90.4728C64.9441 90.4728 65.4837 89.6076 65.9676 89.8633C66.4515 90.118 66.1319 90.7544 66.4965 91.1567Z" fill="url(#paint23_linear_1035_3309)"/>
<path d="M67.1226 103.118C67.5269 102.756 68.8997 100.06 69.9545 98.974L71.1763 98.8444L71.3016 100.06C70.4514 101.312 68.0851 103.206 67.8122 103.675C67.5392 104.143 67.9842 104.7 67.5632 105.049C67.1423 105.398 66.4354 104.663 66.4354 104.663C66.4354 104.663 65.5659 104.126 65.8229 103.645C66.0792 103.163 66.7187 103.481 67.1226 103.118Z" fill="url(#paint24_linear_1035_3309)"/>
<path d="M79.1429 102.496C78.7786 102.093 76.0698 100.727 74.978 99.6778L74.8477 98.462L76.0698 98.3373C77.3276 99.1833 79.2312 101.538 79.7018 101.81C80.1727 102.081 80.7323 101.638 81.0829 102.057C81.4338 102.476 80.6953 103.18 80.6953 103.18C80.6953 103.18 80.1557 104.045 79.6718 103.789C79.1879 103.534 79.5075 102.898 79.1429 102.496Z" fill="url(#paint25_linear_1035_3309)"/>
<path d="M72.4722 90.1743C72.4502 90.5995 73.1927 92.8582 73.2134 94.0458L72.6065 94.794L71.8573 94.1871C71.6307 93.0207 71.888 90.6582 71.778 90.2466C71.668 89.835 71.1094 89.7717 71.1484 89.3445C71.1874 88.9174 71.9913 88.935 71.9913 88.935C71.9913 88.935 72.7748 88.7526 72.9011 89.1625C73.0278 89.5721 72.4942 89.7491 72.4722 90.1743Z" fill="url(#paint26_linear_1035_3309)"/>
<path d="M66.1357 97.1725C66.563 97.1944 68.8329 96.4555 70.0264 96.4349L70.7783 97.0389L70.1684 97.7844C68.9962 98.0099 66.622 97.7539 66.2084 97.8633C65.7948 97.9727 65.7311 98.5286 65.3019 98.4898C64.8726 98.451 64.8903 97.651 64.8903 97.651C64.8903 97.651 64.707 96.8714 65.1186 96.7457C65.5305 96.6197 65.7085 97.1503 66.1357 97.1725Z" fill="url(#paint27_linear_1035_3309)"/>
<path d="M73.1683 103.478C73.1903 103.053 72.4478 100.794 72.4268 99.6063L73.0337 98.8582L73.7829 99.465C74.0095 100.631 73.7522 102.994 73.8622 103.406C73.9722 103.817 74.5307 103.88 74.4917 104.308C74.4527 104.735 73.6489 104.717 73.6489 104.717C73.6489 104.717 72.8654 104.9 72.739 104.49C72.6131 104.08 73.1463 103.903 73.1683 103.478Z" fill="url(#paint28_linear_1035_3309)"/>
<path d="M79.5048 96.4797C79.0776 96.4578 76.8076 97.1967 75.6142 97.2173L74.8623 96.6134L75.4722 95.8679C76.6443 95.6423 79.0186 95.8984 79.4322 95.7889C79.8458 95.6795 79.9094 95.1237 80.3387 95.1625C80.7679 95.2013 80.7503 96.0012 80.7503 96.0012C80.7503 96.0012 80.9336 96.7808 80.522 96.9065C80.11 97.0326 79.9324 96.5019 79.5048 96.4797Z" fill="url(#paint29_linear_1035_3309)"/>
<path d="M72.8203 102.281C75.8481 102.281 78.3026 99.839 78.3026 96.826C78.3026 93.8131 75.8481 91.3706 72.8203 91.3706C69.7924 91.3706 67.3379 93.8131 67.3379 96.826C67.3379 99.839 69.7924 102.281 72.8203 102.281Z" fill="url(#paint30_linear_1035_3309)"/>
<path d="M109.583 102.222L85.0827 104.771C84.4148 104.841 83.8169 104.359 83.7469 103.694L82.0829 87.8576C82.0129 87.193 82.4978 86.5981 83.1657 86.5284L107.666 83.9795C108.334 83.9098 108.932 84.3923 109.002 85.0569L110.666 100.893C110.736 101.558 110.251 102.153 109.583 102.222Z" fill="#A0BEED"/>
<path d="M105.547 89.0386L86.2907 91.042C86.0264 91.0696 85.7897 90.8785 85.7624 90.6159C85.7348 90.3529 85.9267 90.1174 86.1907 90.0899L105.447 88.0865C105.712 88.059 105.948 88.25 105.976 88.5126C106.004 88.776 105.812 89.0111 105.547 89.0386Z" fill="white"/>
<path d="M105.884 92.2461L86.6276 94.2496C86.3633 94.2771 86.1267 94.0861 86.0993 93.8234C86.0717 93.5604 86.2636 93.325 86.5276 93.2974L105.784 91.294C106.048 91.2665 106.285 91.4575 106.313 91.7202C106.34 91.9832 106.148 92.2186 105.884 92.2461Z" fill="white"/>
<path d="M106.221 95.4534L86.9648 97.4568C86.7005 97.4844 86.4639 97.2933 86.4362 97.0307C86.4086 96.7677 86.6006 96.5322 86.8645 96.5047L106.121 94.5013C106.385 94.4738 106.622 94.6648 106.65 94.9274C106.677 95.1904 106.485 95.4259 106.221 95.4534Z" fill="white"/>
<path d="M97.7579 99.5763L87.3017 100.664C87.0374 100.692 86.8008 100.501 86.7732 100.238C86.7455 99.975 86.9375 99.7395 87.2014 99.712L97.6576 98.6242C97.9219 98.5967 98.1585 98.7877 98.1858 99.0504C98.2141 99.3134 98.0222 99.5488 97.7579 99.5763Z" fill="white"/>
<defs>
<linearGradient id="paint0_linear_1035_3309" x1="46.3572" y1="12.8941" x2="258.212" y2="346.525" gradientUnits="userSpaceOnUse">
<stop stop-color="#B9F5FC"/>
<stop offset="1" stop-color="#3483F6"/>
</linearGradient>
<linearGradient id="paint1_linear_1035_3309" x1="151.499" y1="70.5325" x2="107.152" y2="85.8773" gradientUnits="userSpaceOnUse">
<stop stop-color="#A8FBD6"/>
<stop offset="0.9888" stop-color="#388AAA"/>
</linearGradient>
<linearGradient id="paint2_linear_1035_3309" x1="-9.46818" y1="45.5799" x2="34.4722" y2="62.0402" gradientUnits="userSpaceOnUse">
<stop stop-color="#A8FBD6"/>
<stop offset="0.9888" stop-color="#388AAA"/>
</linearGradient>
<linearGradient id="paint3_linear_1035_3309" x1="79.0189" y1="37.5576" x2="83.8499" y2="83.1934" gradientUnits="userSpaceOnUse">
<stop stop-color="#B9F5FC"/>
<stop offset="1" stop-color="#3483F6"/>
</linearGradient>
<linearGradient id="paint4_linear_1035_3309" x1="88.7039" y1="14.4805" x2="94.7423" y2="95.5521" gradientUnits="userSpaceOnUse">
<stop stop-color="#F097F8"/>
<stop offset="1" stop-color="#8F5FF5"/>
</linearGradient>
<linearGradient id="paint5_linear_1035_3309" x1="73.024" y1="19.9463" x2="71.4943" y2="53.3613" gradientUnits="userSpaceOnUse">
<stop stop-color="#F097F8"/>
<stop offset="1" stop-color="#8F5FF5"/>
</linearGradient>
<linearGradient id="paint6_linear_1035_3309" x1="92.3939" y1="21.9441" x2="92.1524" y2="61.0216" gradientUnits="userSpaceOnUse">
<stop stop-color="#F097F8"/>
<stop offset="1" stop-color="#8F5FF5"/>
</linearGradient>
<linearGradient id="paint7_linear_1035_3309" x1="96.4139" y1="38.7591" x2="86.8233" y2="10.8982" gradientUnits="userSpaceOnUse">
<stop stop-color="#F7CBCE"/>
<stop offset="1" stop-color="#F08EA3"/>
</linearGradient>
<linearGradient id="paint8_linear_1035_3309" x1="88.6373" y1="25.8399" x2="97.4562" y2="-18.958" gradientUnits="userSpaceOnUse">
<stop stop-color="#F7CBCE"/>
<stop offset="1" stop-color="#F08EA3"/>
</linearGradient>
<linearGradient id="paint9_linear_1035_3309" x1="36.9123" y1="38.0869" x2="154.585" y2="192.802" gradientUnits="userSpaceOnUse">
<stop stop-color="#773BA1"/>
<stop offset="1" stop-color="#4F206E"/>
</linearGradient>
<linearGradient id="paint10_linear_1035_3309" x1="12.6516" y1="-38.0132" x2="99.1966" y2="123.339" gradientUnits="userSpaceOnUse">
<stop stop-color="#F4B5BD"/>
<stop offset="1" stop-color="#EC4457"/>
</linearGradient>
<linearGradient id="paint11_linear_1035_3309" x1="63.0091" y1="37.2373" x2="75.5344" y2="59.9717" gradientUnits="userSpaceOnUse">
<stop stop-color="#F4B5BD"/>
<stop offset="1" stop-color="#EC4457"/>
</linearGradient>
<linearGradient id="paint12_linear_1035_3309" x1="40.1739" y1="33.2019" x2="60.0788" y2="60.3848" gradientUnits="userSpaceOnUse">
<stop stop-color="#F4B5BD"/>
<stop offset="1" stop-color="#EC4457"/>
</linearGradient>
<linearGradient id="paint13_linear_1035_3309" x1="43.0733" y1="45.1495" x2="16.5932" y2="67.2032" gradientUnits="userSpaceOnUse">
<stop stop-color="#F7CBCE"/>
<stop offset="1" stop-color="#F08EA3"/>
</linearGradient>
<linearGradient id="paint14_linear_1035_3309" x1="70.2183" y1="66.7649" x2="133.776" y2="54.3499" gradientUnits="userSpaceOnUse">
<stop stop-color="#F7CBCE"/>
<stop offset="1" stop-color="#F08EA3"/>
</linearGradient>
<linearGradient id="paint15_linear_1035_3309" x1="98.5323" y1="13.749" x2="104.571" y2="94.8203" gradientUnits="userSpaceOnUse">
<stop stop-color="#F097F8"/>
<stop offset="1" stop-color="#8F5FF5"/>
</linearGradient>
<linearGradient id="paint16_linear_1035_3309" x1="102.018" y1="41.9809" x2="107.174" y2="61.3031" gradientUnits="userSpaceOnUse">
<stop stop-color="#F097F8"/>
<stop offset="1" stop-color="#8F5FF5"/>
</linearGradient>
<linearGradient id="paint17_linear_1035_3309" x1="111.723" y1="66.0916" x2="132.737" y2="91.9211" gradientUnits="userSpaceOnUse">
<stop stop-color="#F097F8"/>
<stop offset="1" stop-color="#8F5FF5"/>
</linearGradient>
<linearGradient id="paint18_linear_1035_3309" x1="1.32736" y1="-38.3906" x2="31.2916" y2="90.0724" gradientUnits="userSpaceOnUse">
<stop stop-color="#B9F5FC"/>
<stop offset="1" stop-color="#3483F6"/>
</linearGradient>
<linearGradient id="paint19_linear_1035_3309" x1="28.1034" y1="54.6133" x2="46.2329" y2="114.372" gradientUnits="userSpaceOnUse">
<stop stop-color="#B9F5FC"/>
<stop offset="1" stop-color="#3483F6"/>
</linearGradient>
<linearGradient id="paint20_linear_1035_3309" x1="33.2977" y1="53.0376" x2="51.4271" y2="112.796" gradientUnits="userSpaceOnUse">
<stop stop-color="#B9F5FC"/>
<stop offset="1" stop-color="#3483F6"/>
</linearGradient>
<linearGradient id="paint21_linear_1035_3309" x1="37.9232" y1="51.6344" x2="56.0526" y2="111.393" gradientUnits="userSpaceOnUse">
<stop stop-color="#B9F5FC"/>
<stop offset="1" stop-color="#3483F6"/>
</linearGradient>
<linearGradient id="paint22_linear_1035_3309" x1="79.7637" y1="89.5088" x2="73.8212" y2="93.9473" gradientUnits="userSpaceOnUse">
<stop stop-color="#F4B5BD"/>
<stop offset="1" stop-color="#EC4457"/>
</linearGradient>
<linearGradient id="paint23_linear_1035_3309" x1="65.4663" y1="89.9168" x2="69.8704" y2="95.8717" gradientUnits="userSpaceOnUse">
<stop stop-color="#F4B5BD"/>
<stop offset="1" stop-color="#EC4457"/>
</linearGradient>
<linearGradient id="paint24_linear_1035_3309" x1="65.8769" y1="104.144" x2="71.8193" y2="99.705" gradientUnits="userSpaceOnUse">
<stop stop-color="#F4B5BD"/>
<stop offset="1" stop-color="#EC4457"/>
</linearGradient>
<linearGradient id="paint25_linear_1035_3309" x1="80.1732" y1="103.736" x2="75.769" y2="97.7807" gradientUnits="userSpaceOnUse">
<stop stop-color="#F4B5BD"/>
<stop offset="1" stop-color="#EC4457"/>
</linearGradient>
<linearGradient id="paint26_linear_1035_3309" x1="72.5923" y1="88.915" x2="71.7489" y2="94.6685" gradientUnits="userSpaceOnUse">
<stop stop-color="#F4B5BD"/>
<stop offset="1" stop-color="#EC4457"/>
</linearGradient>
<linearGradient id="paint27_linear_1035_3309" x1="64.8701" y1="97.0529" x2="70.6496" y2="97.9085" gradientUnits="userSpaceOnUse">
<stop stop-color="#F4B5BD"/>
<stop offset="1" stop-color="#EC4457"/>
</linearGradient>
<linearGradient id="paint28_linear_1035_3309" x1="73.0484" y1="104.737" x2="73.8917" y2="98.9836" gradientUnits="userSpaceOnUse">
<stop stop-color="#F4B5BD"/>
<stop offset="1" stop-color="#EC4457"/>
</linearGradient>
<linearGradient id="paint29_linear_1035_3309" x1="80.7705" y1="96.5993" x2="74.991" y2="95.7437" gradientUnits="userSpaceOnUse">
<stop stop-color="#F4B5BD"/>
<stop offset="1" stop-color="#EC4457"/>
</linearGradient>
<linearGradient id="paint30_linear_1035_3309" x1="81.9892" y1="76.9715" x2="61.5969" y2="121.567" gradientUnits="userSpaceOnUse">
<stop stop-color="#F4B5BD"/>
<stop offset="1" stop-color="#EC4457"/>
</linearGradient>
</defs>
</svg>
