<svg width="500" height="500" viewBox="0 0 500 500" fill="none" xmlns="http://www.w3.org/2000/svg">
<path d="M449.901 398.494H416.779V398.744H449.901V398.494Z" fill="#EBEBEB"/>
<path d="M331.22 401.208H322.527V401.458H331.22V401.208Z" fill="#EBEBEB"/>
<path d="M415.778 389.208H396.586V389.458H415.778V389.208Z" fill="#EBEBEB"/>
<path d="M95.652 390.888H52.459V391.138H95.652V390.888Z" fill="#EBEBEB"/>
<path d="M110.89 390.888H104.557V391.138H110.89V390.888Z" fill="#EBEBEB"/>
<path d="M225.147 395.111H131.471V395.361H225.147V395.111Z" fill="#EBEBEB"/>
<path d="M238.401 337.8H45.3017C42.1547 337.8 39.5938 335.239 39.5938 332.092V60.66C39.5938 57.513 42.1547 54.952 45.3017 54.952H238.401C241.547 54.952 244.108 57.513 244.108 60.66V332.092C244.108 335.239 241.547 337.8 238.401 337.8ZM45.3017 55.203C42.2917 55.203 39.8438 57.651 39.8438 60.661V332.093C39.8438 335.103 42.2917 337.551 45.3017 337.551H238.401C241.41 337.551 243.858 335.103 243.858 332.093V60.66C243.858 57.651 241.41 55.202 238.401 55.202L45.3017 55.203Z" fill="#EBEBEB"/>
<path d="M454.699 337.8H261.6C258.454 337.8 255.893 335.239 255.893 332.092V60.66C255.893 57.513 258.454 54.952 261.6 54.952H454.699C457.847 54.952 460.407 57.513 460.407 60.66V332.092C460.407 335.239 457.846 337.8 454.699 337.8ZM261.6 55.203C258.591 55.203 256.143 57.651 256.143 60.661V332.093C256.143 335.103 258.591 337.551 261.6 337.551H454.699C457.709 337.551 460.157 335.103 460.157 332.093V60.66C460.157 57.651 457.709 55.202 454.699 55.202L261.6 55.203Z" fill="#EBEBEB"/>
<path d="M500 382.398H0V382.648H500V382.398Z" fill="#EBEBEB"/>
<path d="M125.187 371.939L133.823 349.472H132.493L123.256 371.939H125.187Z" fill="#E0E0E0"/>
<path d="M128.473 372.058L139.267 355.889L138.218 355.653L126.951 371.715L128.473 372.058Z" fill="#E0E0E0"/>
<path d="M87.5344 371.88L78.8984 349.413H80.2284L89.4654 371.88H87.5344Z" fill="#E0E0E0"/>
<path d="M84.2491 371.998L73.4551 355.83L74.5031 355.594L85.7701 371.655L84.2491 371.998Z" fill="#E0E0E0"/>
<path d="M108.033 369.422H106.137L106.647 343.89H107.524L108.033 369.422Z" fill="#E0E0E0"/>
<path d="M87.8828 371.88L88.3258 372.883H89.6118L89.2028 371.88H87.8828Z" fill="#E0E0E0"/>
<path d="M124.862 371.88L124.419 372.883H123.133L123.543 371.88H124.862Z" fill="#E0E0E0"/>
<path d="M84.5996 371.939L85.2076 373.081H86.4716L85.3806 371.743L84.5996 371.939Z" fill="#E0E0E0"/>
<path d="M128.162 371.939L127.554 373.081H126.289L127.381 371.743L128.162 371.939Z" fill="#E0E0E0"/>
<path d="M106.404 369.422L106.412 371.471H107.763V369.422H106.404Z" fill="#E0E0E0"/>
<path d="M90.9973 378.76H85.6562V382.087H90.9973V378.76Z" fill="#E0E0E0"/>
<path d="M127.226 378.76H121.885V382.087H127.226V378.76Z" fill="#E0E0E0"/>
<path d="M129.092 380.233L117.487 381.489C110.126 382.286 102.7 382.286 95.3394 381.489L83.7344 380.233V373.032L93.1584 371.808C101.958 370.665 110.869 370.665 119.669 371.808L129.093 373.032L129.092 380.233Z" fill="#EBEBEB"/>
<path d="M88.3237 374.683C87.1437 374.683 86.1797 375.647 86.1797 376.839C86.1797 378.019 87.1437 378.983 88.3237 378.983C89.5157 378.983 90.4797 378.019 90.4797 376.839C90.4807 375.647 89.5157 374.683 88.3237 374.683ZM88.3237 378.133C87.6137 378.133 87.0427 377.562 87.0427 376.852C87.0427 376.142 87.6137 375.571 88.3237 375.571C89.0337 375.571 89.6177 376.142 89.6177 376.852C89.6177 377.562 89.0347 378.133 88.3237 378.133Z" fill="white"/>
<path d="M100.497 376.854C100.497 377.229 100.193 377.534 99.8167 377.534C99.4417 377.534 99.1367 377.23 99.1367 376.854C99.1367 376.479 99.4407 376.174 99.8167 376.174C100.193 376.174 100.497 376.478 100.497 376.854Z" fill="white"/>
<path d="M102.921 376.854C102.921 377.229 102.617 377.534 102.241 377.534C101.866 377.534 101.561 377.23 101.561 376.854C101.561 376.479 101.865 376.174 102.241 376.174C102.616 376.174 102.921 376.478 102.921 376.854Z" fill="white"/>
<path d="M105.342 376.854C105.342 377.229 105.038 377.534 104.662 377.534C104.287 377.534 103.982 377.23 103.982 376.854C103.982 376.479 104.286 376.174 104.662 376.174C105.038 376.174 105.342 376.478 105.342 376.854Z" fill="white"/>
<path d="M107.764 376.854C107.764 377.229 107.46 377.534 107.084 377.534C106.709 377.534 106.404 377.23 106.404 376.854C106.404 376.479 106.708 376.174 107.084 376.174C107.46 376.174 107.764 376.478 107.764 376.854Z" fill="white"/>
<path d="M110.188 376.854C110.188 377.229 109.884 377.534 109.508 377.534C109.133 377.534 108.828 377.23 108.828 376.854C108.828 376.479 109.132 376.174 109.508 376.174C109.884 376.174 110.188 376.478 110.188 376.854Z" fill="white"/>
<path d="M112.61 376.854C112.61 377.229 112.306 377.534 111.93 377.534C111.555 377.534 111.25 377.23 111.25 376.854C111.25 376.479 111.554 376.174 111.93 376.174C112.305 376.174 112.61 376.478 112.61 376.854Z" fill="white"/>
<path d="M115.032 376.854C115.032 377.229 114.728 377.534 114.352 377.534C113.977 377.534 113.672 377.23 113.672 376.854C113.672 376.479 113.976 376.174 114.352 376.174C114.728 376.174 115.032 376.478 115.032 376.854Z" fill="white"/>
<path d="M400.329 379.888L393.476 364.725H377.472L379.93 378.925C380.066 379.709 379.462 380.427 378.666 380.427H371.659C371.284 380.427 370.98 380.731 370.98 381.106V381.862C370.98 382.237 371.284 382.541 371.659 382.541H399.836C400.243 382.541 400.573 382.211 400.573 381.804V381.018C400.572 380.628 400.489 380.243 400.329 379.888Z" fill="#F5F5F5"/>
<path d="M401.236 379.888L394.383 364.725H393.477L400.33 379.888C400.491 380.243 400.574 380.629 400.574 381.018V381.804C400.574 382.211 400.244 382.541 399.837 382.541H400.743C401.15 382.541 401.48 382.211 401.48 381.804V381.018C401.479 380.628 401.396 380.243 401.236 379.888Z" fill="#E0E0E0"/>
<path d="M393.477 364.725H377.473L378.1 368.348H395.115L393.477 364.725Z" fill="#E0E0E0"/>
<path d="M417.993 366.316H349.709C348.33 366.316 347.311 365.198 347.431 363.82L351.748 314.478C351.869 313.099 353.084 311.982 354.463 311.982H422.747C424.126 311.982 425.146 313.1 425.025 314.478L420.708 363.82C420.587 365.199 419.372 366.316 417.993 366.316Z" fill="#E6E6E6"/>
<path d="M347.899 358.484L347.432 363.82C347.311 365.199 348.331 366.316 349.71 366.316H417.994C419.373 366.316 420.588 365.198 420.709 363.82L421.176 358.484H347.899Z" fill="#F5F5F5"/>
<path d="M418.765 356.977H350.572C349.824 356.977 349.271 356.371 349.337 355.623L352.905 314.842C352.97 314.095 353.629 313.488 354.377 313.488H422.57C423.318 313.488 423.871 314.094 423.805 314.842L420.237 355.623C420.172 356.371 419.513 356.977 418.765 356.977Z" fill="#E0E0E0"/>
<path d="M424.258 311.982H422.748C424.127 311.982 425.147 313.1 425.026 314.478L420.709 363.82C420.588 365.199 419.373 366.316 417.994 366.316H419.504C420.883 366.316 422.098 365.198 422.219 363.82L426.536 314.478C426.656 313.099 425.636 311.982 424.258 311.982Z" fill="#E0E0E0"/>
<path d="M395.704 381.109V381.83C395.704 382.222 395.386 382.54 394.994 382.54H371.658C371.283 382.54 370.98 382.236 370.98 381.862V381.106C370.98 380.731 371.284 380.428 371.658 380.428H378.667C378.758 380.428 378.845 380.419 378.929 380.4H394.994C395.386 380.399 395.704 380.717 395.704 381.109Z" fill="#FAFAFA"/>
<path d="M400.501 380.399H378.928C379.506 380.283 379.935 379.771 379.947 379.174H399.95L400.501 380.399Z" fill="#E0E0E0"/>
<g opacity="0.3">
<path d="M397.213 356.449H399.837L408.948 313.579L408.969 313.487H406.345L406.323 313.579L397.213 356.449Z" fill="white"/>
<path d="M384.707 356.449H394.56L403.67 313.579L403.691 313.487H393.839L393.817 313.579L384.707 356.449Z" fill="white"/>
</g>
<path d="M353.763 378.124H381.574V382.645H325.953V380.787L353.763 378.124Z" fill="#F0F0F0"/>
<path d="M353.764 382.645H381.574V378.124L353.764 380.787V382.645Z" fill="#E0E0E0"/>
<path d="M422.093 241.188H402.742C396.661 241.188 391.732 236.259 391.732 230.178V210.827C391.732 204.746 396.661 199.817 402.742 199.817H422.093C428.174 199.817 433.103 204.746 433.103 210.827V230.178C433.102 236.259 428.173 241.188 422.093 241.188Z" fill="#E0E0E0"/>
<path fill-rule="evenodd" clip-rule="evenodd" d="M405.075 227.211C404.332 226.986 403.751 226.429 403.497 225.698C402.794 223.841 402.503 216.093 403.786 214.533C404.2 214.025 404.796 213.699 405.434 213.629C408.943 213.253 419.786 213.301 421.035 213.757C421.744 213.994 422.299 214.531 422.559 215.23C423.323 217.151 423.429 224.147 422.588 225.995C422.366 226.477 421.981 226.872 421.505 227.108C420.276 227.788 406.806 227.78 405.075 227.211ZM408.817 225.454L418.166 220.579L408.698 215.669C408.742 218.934 408.774 222.176 408.817 225.454Z" fill="white"/>
<path d="M108.5 240.413H89.1227C83.0337 240.413 78.0977 235.477 78.0977 229.388V210.011C78.0977 203.922 83.0337 198.986 89.1227 198.986H108.5C114.589 198.986 119.525 203.922 119.525 210.011V229.388C119.525 235.477 114.589 240.413 108.5 240.413Z" fill="#E0E0E0"/>
<path d="M87.6581 207.421H86.6191V208.461H87.6581V207.421Z" fill="white"/>
<path d="M88.6982 207.421H87.6582V208.461H88.6982V207.421Z" fill="white"/>
<path d="M89.7363 207.421H88.6973V208.461H89.7363V207.421Z" fill="white"/>
<path d="M87.6581 208.46H86.6191V209.5H87.6581V208.46Z" fill="white"/>
<path d="M87.6591 209.5H86.6191V210.539H87.6591V209.5Z" fill="white"/>
<path d="M87.6591 231.107H86.6191V232.146H87.6591V231.107Z" fill="white"/>
<path d="M87.6591 230.067H86.6191V231.107H87.6591V230.067Z" fill="white"/>
<path d="M87.6591 229.028H86.6191V230.067H87.6591V229.028Z" fill="white"/>
<path d="M88.6982 231.107H87.6582V232.146H88.6982V231.107Z" fill="white"/>
<path d="M89.7363 231.107H88.6973V232.147H89.7363V231.107Z" fill="white"/>
<path d="M111.095 207.421H110.055V208.46H111.095V207.421Z" fill="white"/>
<path d="M111.095 208.46H110.055V209.5H111.095V208.46Z" fill="white"/>
<path d="M111.095 209.5H110.055V210.539H111.095V209.5Z" fill="white"/>
<path d="M110.056 207.421H109.016V208.46H110.056V207.421Z" fill="white"/>
<path d="M109.016 207.421H107.977V208.461H109.016V207.421Z" fill="white"/>
<path d="M111.046 231.107H110.006V232.146H111.046V231.107Z" fill="white"/>
<path d="M111.046 230.067H110.006V231.107H111.046V230.067Z" fill="white"/>
<path d="M111.046 229.028H110.006V230.067H111.046V229.028Z" fill="white"/>
<path d="M110.007 231.107H108.967V232.146H110.007V231.107Z" fill="white"/>
<path d="M108.967 231.107H107.928V232.147H108.967V231.107Z" fill="white"/>
<path d="M89.7363 209.813H88.6973V210.853H89.7363V209.813Z" fill="white"/>
<path d="M90.7763 209.813H89.7363V210.853H90.7763V209.813Z" fill="white"/>
<path d="M91.8144 209.813H90.7754V210.853H91.8144V209.813Z" fill="white"/>
<path d="M92.8534 209.813H91.8145V210.853H92.8534V209.813Z" fill="white"/>
<path d="M93.8945 209.813H92.8555V210.853H93.8945V209.813Z" fill="white"/>
<path d="M94.9335 209.813H93.8945V210.853H94.9335V209.813Z" fill="white"/>
<path d="M95.9736 209.813H94.9336V210.853H95.9736V209.813Z" fill="white"/>
<path d="M89.7363 210.853H88.6973V211.893H89.7363V210.853Z" fill="white"/>
<path d="M95.9726 210.853H94.9336V211.893H95.9726V210.853Z" fill="white"/>
<path d="M89.7373 211.892H88.6973V212.931H89.7373V211.892Z" fill="white"/>
<path d="M91.8144 211.892H90.7754V212.931H91.8144V211.892Z" fill="white"/>
<path d="M92.8534 211.892H91.8145V212.931H92.8534V211.892Z" fill="white"/>
<path d="M93.8945 211.892H92.8555V212.931H93.8945V211.892Z" fill="white"/>
<path d="M95.9726 211.892H94.9336V212.931H95.9726V211.892Z" fill="white"/>
<path d="M89.7363 212.932H88.6973V213.972H89.7363V212.932Z" fill="white"/>
<path d="M91.8144 212.932H90.7754V213.972H91.8144V212.932Z" fill="white"/>
<path d="M92.8545 212.932H91.8145V213.972H92.8545V212.932Z" fill="white"/>
<path d="M93.8945 212.932H92.8555V213.972H93.8945V212.932Z" fill="white"/>
<path d="M95.9736 212.932H94.9336V213.972H95.9736V212.932Z" fill="white"/>
<path d="M89.7363 213.971H88.6973V215.011H89.7363V213.971Z" fill="white"/>
<path d="M91.8144 213.971H90.7754V215.011H91.8144V213.971Z" fill="white"/>
<path d="M92.8534 213.971H91.8145V215.011H92.8534V213.971Z" fill="white"/>
<path d="M93.8955 213.971H92.8555V215.011H93.8955V213.971Z" fill="white"/>
<path d="M95.9726 213.971H94.9336V215.011H95.9726V213.971Z" fill="white"/>
<path d="M89.7363 215.011H88.6973V216.051H89.7363V215.011Z" fill="white"/>
<path d="M95.9726 215.011H94.9336V216.051H95.9726V215.011Z" fill="white"/>
<path d="M89.7373 216.05H88.6973V217.09H89.7373V216.05Z" fill="white"/>
<path d="M90.7753 216.05H89.7363V217.09H90.7753V216.05Z" fill="white"/>
<path d="M91.8144 216.05H90.7754V217.09H91.8144V216.05Z" fill="white"/>
<path d="M92.8545 216.05H91.8145V217.09H92.8545V216.05Z" fill="white"/>
<path d="M93.8945 216.05H92.8555V217.09H93.8945V216.05Z" fill="white"/>
<path d="M94.9335 216.05H93.8945V217.09H94.9335V216.05Z" fill="white"/>
<path d="M95.9736 216.05H94.9336V217.09H95.9736V216.05Z" fill="white"/>
<path d="M102.728 209.813H101.689V210.853H102.728V209.813Z" fill="white"/>
<path d="M103.769 209.813H102.729V210.853H103.769V209.813Z" fill="white"/>
<path d="M104.807 209.813H103.768V210.853H104.807V209.813Z" fill="white"/>
<path d="M105.848 209.813H104.809V210.853H105.848V209.813Z" fill="white"/>
<path d="M106.888 209.813H105.848V210.853H106.888V209.813Z" fill="white"/>
<path d="M107.926 209.813H106.887V210.853H107.926V209.813Z" fill="white"/>
<path d="M108.965 209.813H107.926V210.853H108.965V209.813Z" fill="white"/>
<path d="M102.729 210.853H101.689V211.893H102.729V210.853Z" fill="white"/>
<path d="M108.965 210.853H107.926V211.893H108.965V210.853Z" fill="white"/>
<path d="M102.729 211.892H101.689V212.931H102.729V211.892Z" fill="white"/>
<path d="M104.807 211.892H103.768V212.931H104.807V211.892Z" fill="white"/>
<path d="M105.849 211.892H104.809V212.931H105.849V211.892Z" fill="white"/>
<path d="M106.887 211.892H105.848V212.931H106.887V211.892Z" fill="white"/>
<path d="M108.966 211.892H107.926V212.931H108.966V211.892Z" fill="white"/>
<path d="M102.728 212.932H101.689V213.972H102.728V212.932Z" fill="white"/>
<path d="M104.807 212.932H103.768V213.972H104.807V212.932Z" fill="white"/>
<path d="M105.848 212.932H104.809V213.972H105.848V212.932Z" fill="white"/>
<path d="M106.887 212.932H105.848V213.972H106.887V212.932Z" fill="white"/>
<path d="M108.966 212.932H107.926V213.972H108.966V212.932Z" fill="white"/>
<path d="M102.728 213.971H101.689V215.011H102.728V213.971Z" fill="white"/>
<path d="M104.808 213.971H103.768V215.011H104.808V213.971Z" fill="white"/>
<path d="M105.848 213.971H104.809V215.011H105.848V213.971Z" fill="white"/>
<path d="M106.888 213.971H105.848V215.011H106.888V213.971Z" fill="white"/>
<path d="M108.965 213.971H107.926V215.011H108.965V213.971Z" fill="white"/>
<path d="M102.729 215.011H101.689V216.051H102.729V215.011Z" fill="white"/>
<path d="M108.965 215.011H107.926V216.051H108.965V215.011Z" fill="white"/>
<path d="M102.728 216.05H101.689V217.09H102.728V216.05Z" fill="white"/>
<path d="M103.768 216.05H102.729V217.09H103.768V216.05Z" fill="white"/>
<path d="M104.807 216.05H103.768V217.09H104.807V216.05Z" fill="white"/>
<path d="M105.849 216.05H104.809V217.09H105.849V216.05Z" fill="white"/>
<path d="M106.887 216.05H105.848V217.09H106.887V216.05Z" fill="white"/>
<path d="M107.926 216.05H106.887V217.09H107.926V216.05Z" fill="white"/>
<path d="M108.966 216.05H107.926V217.09H108.966V216.05Z" fill="white"/>
<path d="M107.929 225.925H106.889V226.965H107.929V225.925Z" fill="white"/>
<path d="M107.929 226.965H106.889V228.004H107.929V226.965Z" fill="white"/>
<path d="M107.929 228.004H106.889V229.043H107.929V228.004Z" fill="white"/>
<path d="M106.888 225.925H105.848V226.964H106.888V225.925Z" fill="white"/>
<path d="M106.888 226.965H105.848V228.005H106.888V226.965Z" fill="white"/>
<path d="M106.888 228.004H105.848V229.043H106.888V228.004Z" fill="white"/>
<path d="M105.848 225.925H104.809V226.964H105.848V225.925Z" fill="white"/>
<path d="M104.81 225.925H103.77V226.965H104.81V225.925Z" fill="white"/>
<path d="M103.77 224.886H102.73V225.926H103.77V224.886Z" fill="white"/>
<path d="M103.77 223.846H102.73V224.886H103.77V223.846Z" fill="white"/>
<path d="M103.77 226.965H102.73V228.005H103.77V226.965Z" fill="white"/>
<path d="M103.77 228.004H102.73V229.044H103.77V228.004Z" fill="white"/>
<path d="M89.7363 222.807H88.6973V223.846H89.7363V222.807Z" fill="white"/>
<path d="M90.7763 222.807H89.7363V223.846H90.7763V222.807Z" fill="white"/>
<path d="M91.8144 222.807H90.7754V223.846H91.8144V222.807Z" fill="white"/>
<path d="M92.8534 222.807H91.8145V223.846H92.8534V222.807Z" fill="white"/>
<path d="M93.8955 222.807H92.8555V223.846H93.8955V222.807Z" fill="white"/>
<path d="M94.9335 222.807H93.8945V223.846H94.9335V222.807Z" fill="white"/>
<path d="M95.9736 222.807H94.9336V223.846H95.9736V222.807Z" fill="white"/>
<path d="M89.7363 223.846H88.6973V224.886H89.7363V223.846Z" fill="white"/>
<path d="M95.9726 223.846H94.9336V224.886H95.9726V223.846Z" fill="white"/>
<path d="M89.7373 224.886H88.6973V225.925H89.7373V224.886Z" fill="white"/>
<path d="M91.8144 224.886H90.7754V225.925H91.8144V224.886Z" fill="white"/>
<path d="M92.8534 224.886H91.8145V225.925H92.8534V224.886Z" fill="white"/>
<path d="M93.8945 224.886H92.8555V225.925H93.8945V224.886Z" fill="white"/>
<path d="M95.9726 224.886H94.9336V225.925H95.9726V224.886Z" fill="white"/>
<path d="M89.7363 225.925H88.6973V226.965H89.7363V225.925Z" fill="white"/>
<path d="M91.8144 225.925H90.7754V226.965H91.8144V225.925Z" fill="white"/>
<path d="M92.8534 225.925H91.8145V226.965H92.8534V225.925Z" fill="white"/>
<path d="M93.8945 225.925H92.8555V226.965H93.8945V225.925Z" fill="white"/>
<path d="M95.9736 225.925H94.9336V226.965H95.9736V225.925Z" fill="white"/>
<path d="M89.7363 226.965H88.6973V228.005H89.7363V226.965Z" fill="white"/>
<path d="M91.8154 226.965H90.7754V228.005H91.8154V226.965Z" fill="white"/>
<path d="M92.8534 226.965H91.8145V228.005H92.8534V226.965Z" fill="white"/>
<path d="M93.8955 226.965H92.8555V228.005H93.8955V226.965Z" fill="white"/>
<path d="M95.9726 226.965H94.9336V228.005H95.9726V226.965Z" fill="white"/>
<path d="M89.7363 228.004H88.6973V229.043H89.7363V228.004Z" fill="white"/>
<path d="M95.9726 228.004H94.9336V229.043H95.9726V228.004Z" fill="white"/>
<path d="M89.7363 229.044H88.6973V230.084H89.7363V229.044Z" fill="white"/>
<path d="M90.7753 229.044H89.7363V230.084H90.7753V229.044Z" fill="white"/>
<path d="M91.8144 229.044H90.7754V230.084H91.8144V229.044Z" fill="white"/>
<path d="M92.8545 229.044H91.8145V230.084H92.8545V229.044Z" fill="white"/>
<path d="M93.8945 229.044H92.8555V230.084H93.8945V229.044Z" fill="white"/>
<path d="M94.9335 229.044H93.8945V230.084H94.9335V229.044Z" fill="white"/>
<path d="M95.9736 229.044H94.9336V230.084H95.9736V229.044Z" fill="white"/>
<path d="M256.504 105.008H237.127C231.038 105.008 226.102 100.072 226.102 93.9831V74.6061C226.102 68.5171 231.038 63.5811 237.127 63.5811H256.504C262.593 63.5811 267.529 68.5171 267.529 74.6061V93.9831C267.53 100.072 262.593 105.008 256.504 105.008Z" fill="#E0E0E0"/>
<path fill-rule="evenodd" clip-rule="evenodd" d="M252.483 84.27C252.483 87.29 250.023 89.75 247.013 89.75C243.993 89.75 241.533 87.29 241.533 84.27C241.533 81.26 243.993 78.8 247.013 78.8C250.022 78.8 252.483 81.26 252.483 84.27Z" fill="white"/>
<path fill-rule="evenodd" clip-rule="evenodd" d="M258.133 76.15H235.973C233.933 76.15 232.273 77.8 232.273 79.84V88.71C232.273 90.75 233.933 92.4 235.973 92.4H258.133C260.173 92.4 261.823 90.75 261.823 88.71V79.84C261.822 77.8 260.173 76.15 258.133 76.15ZM247.012 91.25C243.162 91.25 240.032 88.12 240.032 84.27C240.032 80.43 243.162 77.3 247.012 77.3C250.852 77.3 253.982 80.43 253.982 84.27C253.983 88.12 250.853 91.25 247.012 91.25ZM258.062 79.84H254.432V77.9H258.062V79.84Z" fill="white"/>
<path fill-rule="evenodd" clip-rule="evenodd" d="M239.209 76.48H236.682V75.638C236.682 75.083 237.132 74.634 237.686 74.634H238.204C238.759 74.634 239.208 75.084 239.208 75.638L239.209 76.48Z" fill="white"/>
<path d="M250 423.714C357.082 423.714 443.889 418.645 443.889 412.391C443.889 406.137 357.082 401.068 250 401.068C142.918 401.068 56.1113 406.137 56.1113 412.391C56.1113 418.645 142.918 423.714 250 423.714Z" fill="#F5F5F5"/>
<path d="M297.099 342.082H214.802C205.544 342.082 198.563 334.577 199.209 325.319L212.943 128.619C213.589 119.361 221.619 111.856 230.877 111.856H313.174C322.432 111.856 329.413 119.361 328.767 128.619L315.033 325.319C314.386 334.576 306.357 342.082 297.099 342.082Z" fill="#2E4053"/>
<path opacity="0.6" d="M297.099 342.082H214.802C205.544 342.082 198.563 334.577 199.209 325.319L212.943 128.619C213.589 119.361 221.619 111.856 230.877 111.856H313.174C322.432 111.856 329.413 119.361 328.767 128.619L315.033 325.319C314.386 334.576 306.357 342.082 297.099 342.082Z" fill="white"/>
<path d="M292.826 342.082H210.529C201.271 342.082 194.29 334.577 194.936 325.319L208.67 128.619C209.316 119.361 217.345 111.856 226.604 111.856H308.9C318.158 111.856 325.139 119.361 324.493 128.619L310.759 325.319C310.113 334.576 302.084 342.082 292.826 342.082Z" fill="#2E4053"/>
<path d="M308.631 115.701H287.24C285.839 115.701 284.583 116.742 284.309 118.132L284.177 118.802C283.507 122.196 280.441 124.739 277.02 124.739H256.684C253.263 124.739 250.552 122.196 250.356 118.802L250.317 118.132C250.237 116.742 249.127 115.701 247.726 115.701H226.335C219.201 115.701 213.014 121.484 212.516 128.618L198.782 325.318C198.284 332.452 203.663 338.235 210.797 338.235H293.094C300.228 338.235 306.415 332.452 306.913 325.318L320.647 128.618C321.145 121.484 315.766 115.701 308.631 115.701Z" fill="#2E4053"/>
<path opacity="0.6" d="M320.645 128.617L320.363 132.614L306.916 325.319C306.416 332.456 300.224 338.238 293.094 338.238H210.794C203.656 338.238 198.287 332.457 198.786 325.319L212.233 132.614L212.515 128.617C213.015 121.488 219.199 115.698 226.328 115.698H247.724C249.129 115.698 250.235 116.74 250.316 118.136L250.356 118.798C250.55 122.189 253.263 124.741 256.679 124.741H277.01C280.442 124.741 283.51 122.19 284.171 118.798L284.3 118.136C284.582 116.739 285.842 115.698 287.239 115.698H308.627C315.767 115.698 321.145 121.488 320.645 128.617Z" fill="black"/>
<g opacity="0.7">
<path d="M262.353 117.88C262.29 118.783 261.507 119.514 260.604 119.514C259.701 119.514 259.021 118.782 259.084 117.88C259.147 116.977 259.93 116.245 260.833 116.245C261.735 116.246 262.416 116.978 262.353 117.88Z" fill="black"/>
<path d="M274.056 116.246C273.41 116.246 269.098 116.246 268.452 116.246C267.549 116.246 266.766 116.978 266.703 117.881C266.64 118.784 267.321 119.515 268.223 119.515C268.784 119.515 273.267 119.515 273.827 119.515C274.73 119.515 275.513 118.783 275.576 117.881C275.64 116.978 274.959 116.246 274.056 116.246Z" fill="black"/>
</g>
<path d="M221.746 124.707H223.477L223.598 122.976H221.867L221.746 124.707Z" fill="#2E4053"/>
<path d="M225.328 122.976L225.207 124.707H226.938L227.059 122.976L227.18 121.246H225.449L225.328 122.976Z" fill="#2E4053"/>
<path d="M229.032 119.515L228.912 121.246L228.791 122.976L228.67 124.707H230.4L230.521 122.976L230.642 121.246L230.763 119.515H229.032Z" fill="#2E4053"/>
<path d="M303.448 119.63L303.359 120.899H302.513L302.336 123.437H303.182L303.093 124.706H310.708L311.062 119.629L303.448 119.63ZM306.567 123.438H304.029L304.206 120.9H306.744L306.567 123.438Z" fill="#2E4053"/>
<path d="M290.752 407.2C290.721 407.2 290.689 407.197 290.657 407.191C290.386 407.138 290.208 406.876 290.261 406.605C290.29 406.452 293.353 391.18 304.608 382.568C313.201 375.993 322.359 361.006 322.451 360.856C322.595 360.621 322.902 360.546 323.138 360.688C323.374 360.832 323.449 361.139 323.305 361.376C323.213 361.528 313.958 376.672 305.215 383.363C294.259 391.746 291.272 406.645 291.242 406.795C291.196 407.034 290.987 407.2 290.752 407.2Z" fill="#263238"/>
<path d="M303.197 387.188C303.197 387.188 314.803 384.833 310.766 391.898C306.729 398.963 297.478 395.935 297.478 395.935C297.478 395.935 289.572 390.717 293.609 384.411C297.646 378.105 303.197 387.188 303.197 387.188Z" fill="#2E4053"/>
<path opacity="0.1" d="M293.609 384.411C297.646 378.105 303.197 387.188 303.197 387.188C303.197 387.188 304.038 391.73 297.478 395.935C297.478 395.935 289.572 390.717 293.609 384.411Z" fill="black"/>
<path d="M322.437 361.164C322.437 361.164 329.798 354.38 329.972 361.256C330.146 368.131 322.131 369.992 322.131 369.992C322.131 369.992 314.131 369.68 314.289 363.353C314.447 357.027 322.437 361.164 322.437 361.164Z" fill="#2E4053"/>
<path opacity="0.1" d="M314.287 363.353C314.445 357.026 322.435 361.164 322.435 361.164C322.435 361.164 325.031 364.08 322.129 369.992C322.129 369.992 314.129 369.68 314.287 363.353Z" fill="black"/>
<path d="M313.127 373.979C313.127 373.979 316.022 364.397 309.759 367.238C303.496 370.08 305.316 378.104 305.316 378.104C305.316 378.104 309.085 385.168 314.71 382.266C320.334 379.365 313.127 373.979 313.127 373.979Z" fill="#2E4053"/>
<path opacity="0.1" d="M314.71 382.266C320.334 379.365 313.127 373.979 313.127 373.979C313.127 373.979 309.371 372.914 305.316 378.104C305.316 378.104 309.085 385.168 314.71 382.266Z" fill="black"/>
<path d="M281.163 407.2C280.956 407.2 280.764 407.071 280.691 406.866C280.644 406.733 275.896 393.511 264.412 386.279C252.667 378.883 247.352 369.697 247.3 369.605C247.163 369.366 247.247 369.06 247.487 368.923C247.727 368.787 248.032 368.87 248.169 369.111C248.22 369.201 253.425 378.178 264.945 385.433C276.731 392.854 281.587 406.398 281.634 406.535C281.725 406.795 281.589 407.08 281.328 407.172C281.274 407.191 281.218 407.2 281.163 407.2Z" fill="#263238"/>
<path d="M283.35 407.2C283.338 407.2 283.326 407.2 283.313 407.199C283.038 407.178 282.831 406.938 282.851 406.663C282.859 406.549 283.703 395.099 284.606 384.369C285.522 373.494 290.146 367.452 290.342 367.2C290.512 366.982 290.826 366.943 291.044 367.113C291.262 367.283 291.301 367.596 291.131 367.814C291.085 367.875 286.491 373.894 285.602 384.453C284.699 395.177 283.856 406.622 283.848 406.737C283.829 407 283.61 407.2 283.35 407.2Z" fill="#263238"/>
<path d="M286.073 376.527C286.073 376.527 289.454 369.104 281.214 371.025C272.974 372.947 275.827 379.383 275.827 379.383C275.827 379.383 281.24 385.161 288.622 383.159C296.003 381.157 286.073 376.527 286.073 376.527Z" fill="#2E4053"/>
<path opacity="0.1" d="M288.621 383.159C296.003 381.157 286.072 376.527 286.072 376.527C286.072 376.527 280.987 375.491 275.826 379.383C275.826 379.383 281.239 385.16 288.621 383.159Z" fill="black"/>
<path d="M253.892 377.81C253.892 377.81 257.273 370.387 249.033 372.308C240.793 374.23 243.646 380.666 243.646 380.666C243.646 380.666 249.059 386.444 256.441 384.442C263.823 382.44 253.892 377.81 253.892 377.81Z" fill="#2E4053"/>
<path opacity="0.1" d="M256.441 384.442C263.823 382.44 253.892 377.81 253.892 377.81C253.892 377.81 248.807 376.774 243.646 380.666C243.646 380.666 249.059 386.444 256.441 384.442Z" fill="black"/>
<path d="M272.435 393.741C272.435 393.741 274.087 385.753 266.478 389.452C258.868 393.151 263.076 398.795 263.076 398.795C263.076 398.795 269.635 403.23 276.39 399.643C283.144 396.056 272.435 393.741 272.435 393.741Z" fill="#2E4053"/>
<path opacity="0.1" d="M276.389 399.644C283.144 396.057 272.435 393.742 272.435 393.742C272.435 393.742 267.247 393.858 263.076 398.797C263.076 398.797 269.634 403.231 276.389 399.644Z" fill="black"/>
<path d="M285.206 389.318C285.206 389.318 287.511 384.257 281.893 385.567C276.275 386.877 278.22 391.265 278.22 391.265C278.22 391.265 281.91 395.204 286.943 393.839C291.976 392.474 285.206 389.318 285.206 389.318Z" fill="#2E4053"/>
<path opacity="0.1" d="M286.944 393.839C291.976 392.474 285.206 389.318 285.206 389.318C285.206 389.318 281.739 388.612 278.221 391.265C278.221 391.265 281.911 395.204 286.944 393.839Z" fill="black"/>
<path d="M290.21 367.074C290.21 367.074 287.322 359.337 294.018 361.496C300.714 363.655 298.547 370.24 298.547 370.24C298.547 370.24 294.297 376.091 288.292 373.868C282.286 371.644 290.21 367.074 290.21 367.074Z" fill="#2E4053"/>
<path opacity="0.1" d="M288.292 373.868C282.287 371.644 290.21 367.074 290.21 367.074C290.21 367.074 294.295 366.112 298.547 370.24C298.547 370.24 294.297 376.091 288.292 373.868Z" fill="black"/>
<path d="M248.18 366.443C248.18 366.443 251.466 361.612 246.501 361.97C241.537 362.328 241.919 367.217 241.919 367.217C241.919 367.217 243.855 371.952 248.356 371.434C252.856 370.915 248.18 366.443 248.18 366.443Z" fill="#2E4053"/>
<path opacity="0.1" d="M248.355 371.433C252.855 370.915 248.179 366.442 248.179 366.442C248.179 366.442 245.534 365.094 241.918 367.216C241.918 367.216 243.855 371.951 248.355 371.433Z" fill="black"/>
<path d="M262.917 383.288C262.917 383.288 251.183 381.688 257.322 376.348C263.461 371.008 271.198 376.914 271.198 376.914C271.198 376.914 276.943 384.445 271.054 389.069C265.166 393.693 262.917 383.288 262.917 383.288Z" fill="#2E4053"/>
<path opacity="0.1" d="M271.056 389.069C265.167 393.693 262.918 383.288 262.918 383.288C262.918 383.288 263.62 378.723 271.199 376.914C271.199 376.914 276.945 384.445 271.056 389.069Z" fill="black"/>
<path d="M274.299 418.425H293.235C295.036 418.425 296.579 417.134 296.897 415.361L299.053 403.336H268.482L270.638 415.361C270.955 417.135 272.498 418.425 274.299 418.425Z" fill="#2E4053"/>
<path opacity="0.6" d="M274.299 418.425H293.235C295.036 418.425 296.579 417.134 296.897 415.361L299.053 403.336H268.482L270.638 415.361C270.955 417.135 272.498 418.425 274.299 418.425Z" fill="black"/>
<path d="M169.196 397.345L166.832 412.863H174.334L179.259 397.345H169.196Z" fill="#FFC3BD"/>
<path d="M165.878 409.402L175.901 409.167C176.252 409.149 176.531 409.393 176.53 409.717L176.552 417.075C176.506 417.879 175.768 418.55 174.902 418.577C171.417 418.603 169.759 418.448 165.348 418.553C160.63 418.534 155.945 418.226 151.322 417.629C147.753 417.018 148.717 413.668 150.332 413.613C157.622 413.347 161.693 411.828 164.307 409.948C164.762 409.608 165.317 409.415 165.878 409.402Z" fill="#263238"/>
<path opacity="0.2" d="M168.248 403.569L169.196 397.345H179.259L176.836 405.104L168.248 403.569Z" fill="black"/>
<path d="M235.211 310.38C235.211 310.38 174.231 310.986 173.282 330.301C171.933 358.07 167.24 400.407 167.24 400.407L178.741 403.568C178.741 403.568 195.144 361.589 195.785 339.903C212.937 336.485 257.04 339.903 262.219 328.637C264.758 322.778 265.43 316.501 264.174 310.379H235.211V310.38Z" fill="#2E4053"/>
<path opacity="0.3" d="M235.211 310.38C235.211 310.38 174.231 310.986 173.282 330.301C171.933 358.07 167.24 400.407 167.24 400.407L178.741 403.568C178.741 403.568 195.144 361.589 195.785 339.903C212.937 336.485 257.04 339.903 262.219 328.637C264.758 322.778 265.43 316.501 264.174 310.379H235.211V310.38Z" fill="white"/>
<path d="M158.626 395.927L150.422 408.208L155.116 414.956L166.313 402.708L158.626 395.927Z" fill="#FFC3BD"/>
<path opacity="0.2" d="M162.099 407.316L166.312 402.708L159.323 394.92L154.811 401.631L162.099 407.316Z" fill="black"/>
<path d="M150.82 407.611L157.369 412.468C157.685 412.651 157.802 413.043 157.63 413.343C157.628 413.346 157.626 413.349 157.625 413.352L153.81 420.249C153.345 420.974 152.353 421.173 151.579 420.696C148.538 418.674 147.176 417.552 143.291 415.059C140.907 413.529 137.812 411.732 134.51 409.613C131.208 407.494 133.286 404.468 134.848 405.104C141.932 407.878 144.258 407.174 147.538 406.94C148.112 406.893 150.315 407.308 150.82 407.611Z" fill="#263238"/>
<path d="M155.852 398.785L164.86 406.082C164.86 406.082 184.663 384.875 204.421 348.272L204.175 347.815C221.953 346.427 270.814 341.581 276.648 334.426C282.814 326.865 282.384 318.224 280.057 310.379L251.105 310.387C251.105 310.387 204.825 317.233 189.709 331.748C178.292 341.841 155.852 398.785 155.852 398.785Z" fill="#2E4053"/>
<g opacity="0.4">
<path d="M155.852 398.785L164.86 406.082C164.86 406.082 184.663 384.875 204.421 348.272L204.175 347.815C221.953 346.427 270.814 341.581 276.648 334.426C282.814 326.865 282.384 318.224 280.057 310.379L251.105 310.387C251.105 310.387 204.825 317.233 189.709 331.748C178.292 341.841 155.852 398.785 155.852 398.785Z" fill="white"/>
</g>
<path d="M248.028 244.786C241.329 245.787 234.63 246.788 227.931 247.79C216.679 249.472 205.025 243.697 195.349 237.713L190.678 242.59C190.678 242.59 211.171 257.734 221.372 257.77C227.154 257.79 236.191 256.253 242.937 254.916C247.527 254.007 250.03 249.016 248.028 244.786Z" fill="#FF8B7B"/>
<path d="M183.379 228.811C183.935 232.095 184.491 235.378 185.048 238.662C186.922 239.854 188.535 241.459 190.409 242.651C192.201 241.564 194.333 239.807 195.416 238.013C195.068 236.482 194.45 235.012 194.102 233.48C193.526 230.942 190.424 229.283 188.712 227.323C187.182 227.681 184.908 228.452 183.379 228.811Z" fill="#FF8B7B"/>
<path d="M243.759 260.308L228.708 259.913L226.637 245.924C226.637 245.924 235.008 244.278 242.85 242.681C243.18 247.229 243.429 255.761 243.759 260.308Z" fill="#2E4053"/>
<path opacity="0.1" d="M243.759 260.308L228.708 259.913L226.637 245.924C226.637 245.924 235.008 244.278 242.85 242.681C243.18 247.229 243.429 255.761 243.759 260.308Z" fill="black"/>
<path opacity="0.2" d="M228.707 259.914L242.74 257.321L242.805 260.329L228.707 259.914Z" fill="black"/>
<path d="M281.209 311.93C275.847 313.19 265.527 312.178 255.805 311.816C249.049 311.558 239.865 310.38 239.865 310.38C240.588 299.037 240.278 287.673 237.21 267.114C235.753 257.32 242.944 242.578 242.975 242.578C244.091 242.402 245.299 242.237 246.549 242.092C247.251 242.009 247.954 241.947 248.667 241.896C254.493 241.658 260.33 241.751 266.147 242.185C267.242 242.257 268.358 242.361 269.453 242.474C270.538 242.598 271.447 242.712 272.366 242.846L273.657 243.032C276.984 243.559 279.256 246.668 278.729 249.995C278.729 250.016 278.729 250.036 278.719 250.067C278.192 254.737 277.769 258.848 277.469 262.598C277.459 262.722 277.448 262.846 277.448 262.97C277.097 267.133 276.911 270.873 276.88 274.458C276.756 285.68 278.12 295.36 281.209 311.93Z" fill="#2E4053"/>
<path d="M277.531 261.299C277.51 261.733 277.479 262.167 277.469 262.601C277.459 262.725 277.448 262.849 277.448 262.973C277.097 267.136 276.911 270.876 276.88 274.461C274.401 269.74 271.963 263.045 272.118 259.698L277.531 261.299Z" fill="#2E4053"/>
<path opacity="0.2" d="M277.531 261.299C277.51 261.733 277.479 262.167 277.469 262.601C277.459 262.673 277.459 262.735 277.459 262.797C277.108 267.033 276.911 270.824 276.88 274.461C274.401 269.74 271.963 263.045 272.118 259.698L277.531 261.299Z" fill="black"/>
<path d="M264.714 222.506C263.516 228.111 262.249 238.39 266.113 242.21C263.012 245.195 258.956 248.63 252.28 248.757C245.603 248.883 246.852 244.28 248.645 241.918C254.941 240.52 254.859 235.876 253.836 231.488L264.714 222.506Z" fill="#FF8B7B"/>
<path opacity="0.2" d="M260.289 226.137L253.857 231.446C254.11 232.465 254.273 233.505 254.343 234.552C257.163 234.1 259.57 232.267 260.757 229.669C261.365 228.082 260.894 226.37 260.289 226.137Z" fill="black"/>
<path d="M250.491 206.454C245.807 214.81 243.222 224.086 242.199 233.61C242.066 234.85 241.975 236.129 242.334 237.323C242.693 238.517 243.597 239.623 244.818 239.878C243.78 238.976 243.998 237.506 245.038 236.606C244.796 237.877 245.257 239.894 246.085 240.888C246.912 241.882 248.197 242.48 249.49 242.472C249.262 241.89 249.214 241.281 249.341 240.669C250.257 241.937 252.109 242.637 253.406 241.763C255.59 240.292 255.633 237.043 256.089 234.45C257.677 225.433 259.264 216.416 260.852 207.399C259.804 206.063 258.164 205.4 256.467 205.333C254.77 205.266 253.096 205.69 251.451 206.109C251.574 206.112 251.697 206.116 251.82 206.119" fill="#263238"/>
<path d="M269.692 216.301C267.339 223.562 266.326 227.919 261.633 230.736C254.561 234.976 246.333 229.248 246.487 221.408C246.619 214.378 250.449 203.701 258.42 202.627C264.107 201.833 269.361 205.799 270.155 211.486C270.382 213.106 270.223 214.755 269.692 216.301Z" fill="#FF8B7B"/>
<path d="M264.802 218.202C264.275 219.649 263.634 221.054 262.889 222.401C264.082 221.934 266.338 221.732 267.616 221.808C268.175 221.841 268.734 221.927 269.293 221.896C269.852 221.865 270.429 221.702 270.829 221.309C271.333 220.813 271.464 220.014 271.259 219.338C271.054 218.661 270.555 218.103 269.971 217.704C269.328 217.265 268.555 216.995 267.777 217.025C266.999 217.055 265.069 217.47 264.802 218.202Z" fill="#263238"/>
<path d="M270.275 224.003C269.01 225.194 267.325 225.835 265.588 225.784C263.283 225.7 262.832 223.478 264.058 221.667C265.16 220.039 267.693 218.126 269.711 219.092C271.729 220.059 271.799 222.555 270.275 224.003Z" fill="#FF8B7B"/>
<path d="M253.274 214.602C252.093 216.254 250.692 217.736 249.109 219.008C249.916 220.269 251.836 220.283 251.836 220.283L253.274 214.602Z" fill="#FF5652"/>
<path d="M252.347 223.24C253.739 223.424 255.146 223.03 256.239 222.149C256.314 222.081 256.32 221.965 256.252 221.89C256.184 221.815 256.068 221.809 255.993 221.876C254.76 222.838 253.143 223.156 251.638 222.731C251.542 222.707 251.444 222.765 251.42 222.861C251.395 222.959 251.451 223.059 251.548 223.088C251.812 223.154 252.078 223.204 252.347 223.24Z" fill="#263238"/>
<path d="M260.638 213.822C260.7 213.83 260.763 213.823 260.822 213.803C261.006 213.728 261.093 213.518 261.018 213.334C261.017 213.331 261.016 213.329 261.015 213.326C260.594 212.23 259.664 211.409 258.524 211.127C258.329 211.091 258.142 211.221 258.106 211.416C258.106 211.418 258.105 211.421 258.105 211.421C258.065 211.615 258.19 211.805 258.385 211.845C258.385 211.845 258.387 211.846 258.389 211.846C259.289 212.077 260.021 212.732 260.35 213.601C260.395 213.725 260.508 213.811 260.638 213.822Z" fill="#263238"/>
<path d="M248.881 210.639C249.002 210.649 249.121 210.602 249.202 210.512C249.781 209.788 250.672 209.386 251.598 209.433C251.797 209.456 251.978 209.315 252.005 209.116C252.032 208.919 251.894 208.738 251.697 208.712C250.525 208.631 249.387 209.128 248.65 210.043C248.52 210.193 248.537 210.42 248.687 210.55C248.688 210.551 248.69 210.552 248.691 210.554C248.746 210.597 248.811 210.627 248.881 210.639Z" fill="#263238"/>
<path d="M272.205 246.374C272.155 246.346 272.076 246.361 272.063 246.417C270.012 254.974 270.408 263.903 268.473 272.739C267.122 278.909 254.847 278.806 243.086 283.635L244.434 291.061C244.434 291.061 268.887 289.772 275.611 280.566C279.422 275.349 280.269 272.778 281.211 265.151C282.178 257.32 282.673 247.324 277.533 246.36L272.205 246.374Z" fill="#FF8B7B"/>
<path d="M233.068 293.675H239.507C240.832 293.675 241.677 292.601 241.396 291.276L237.819 274.45C237.538 273.125 236.235 272.051 234.911 272.051H228.472C227.147 272.051 226.302 273.125 226.583 274.45L230.16 291.276C230.442 292.601 231.744 293.675 233.068 293.675Z" fill="#2E4053"/>
<path opacity="0.3" d="M233.068 293.675H239.507C240.832 293.675 241.677 292.601 241.396 291.276L237.819 274.45C237.538 273.125 236.235 272.051 234.911 272.051H228.472C227.147 272.051 226.302 273.125 226.583 274.45L230.16 291.276C230.442 292.601 231.744 293.675 233.068 293.675Z" fill="white"/>
<path d="M232.123 293.675H238.562C239.887 293.675 240.732 292.601 240.451 291.276L236.874 274.45C236.593 273.125 235.29 272.051 233.966 272.051H227.527C226.202 272.051 225.357 273.125 225.638 274.45L229.215 291.276C229.496 292.601 230.798 293.675 232.123 293.675Z" fill="#2E4053"/>
<path opacity="0.6" d="M232.123 293.675H238.562C239.887 293.675 240.732 292.601 240.451 291.276L236.874 274.45C236.593 273.125 235.29 272.051 233.966 272.051H227.527C226.202 272.051 225.357 273.125 225.638 274.45L229.215 291.276C229.496 292.601 230.798 293.675 232.123 293.675Z" fill="white"/>
<path d="M234.681 277.028H234.055C233.166 277.028 232.292 276.307 232.103 275.418L231.97 274.792C231.781 273.903 232.349 273.182 233.237 273.182H233.863C234.752 273.182 235.626 273.903 235.815 274.792L235.948 275.418C236.137 276.307 235.57 277.028 234.681 277.028Z" fill="#2E4053"/>
<path d="M233.132 274.144C233.21 274.513 233.572 274.811 233.941 274.811C234.31 274.811 234.545 274.512 234.466 274.144C234.388 273.776 234.026 273.477 233.657 273.477C233.288 273.477 233.054 273.776 233.132 274.144Z" fill="#263238"/>
<path d="M233.54 276.067C233.618 276.435 233.98 276.734 234.349 276.734C234.718 276.734 234.953 276.435 234.874 276.067C234.796 275.699 234.433 275.4 234.065 275.4C233.697 275.4 233.462 275.698 233.54 276.067Z" fill="#263238"/>
<path d="M233.111 290.063C233.765 290.616 241.973 291.394 244.433 291.061C245.18 288.841 244.523 286.594 244.154 284.281C242.753 283.224 241.165 282.415 239.764 281.358C237.442 279.606 234.089 280.427 231.214 279.987C230.574 280.848 230.378 282.938 230.465 284.755C230.564 286.814 231.537 288.732 233.111 290.063Z" fill="#FF8B7B"/>
<path d="M268.144 246.657C267.98 256.421 268.509 256.601 266.99 266.235L283.487 264.978C283.487 264.978 285.241 257.993 283.361 252C281.972 247.57 279.494 243.609 274.166 242.529C271.681 242.025 268.194 243.654 268.144 246.657Z" fill="#2E4053"/>
<path opacity="0.1" d="M268.144 246.657C267.98 256.421 268.509 256.601 266.99 266.235L283.487 264.978C283.487 264.978 285.241 257.993 283.361 252C281.972 247.57 279.494 243.609 274.166 242.529C271.681 242.025 268.194 243.654 268.144 246.657Z" fill="white"/>
<path d="M276.189 224.201C276.076 224.573 275.693 224.81 275.301 224.862C275.198 224.872 274.888 224.852 274.474 224.8C273.379 224.676 271.612 224.397 271.333 224.325C269.887 221.339 270.641 218.808 268.471 216.298C269.173 216.629 269.855 216.897 270.537 217.166C271.209 217.435 271.88 217.693 272.572 218.023C273.626 219.583 274.969 221.422 275.899 223.054C276.106 223.405 276.313 223.808 276.189 224.201Z" fill="#263238"/>
<path d="M264.309 207.949C264.626 209.882 264.528 211.98 264.083 213.888C261.953 213.093 260.268 211.067 259.626 208.886C259.482 209.847 259.619 210.865 260.056 211.733C258.384 211.195 257.16 209.677 256.752 207.969C256.532 208.863 256.46 209.638 256.79 210.497C255.24 210.368 253.913 208.985 253.542 207.475C253.151 208.062 253.051 208.676 253.204 209.364C252.072 208.735 251.413 207.352 251.637 206.076C251.861 204.8 252.951 203.724 254.229 203.518C256.134 203.21 258.151 203.38 259.845 204.304C261.539 205.228 262.935 206.593 264.309 207.949Z" fill="#263238"/>
<path opacity="0.2" d="M276.763 224.516C276.647 224.896 276.256 225.139 275.855 225.192C275.749 225.203 275.433 225.181 275.01 225.129C273.891 225.002 272.085 224.717 271.8 224.643C270.322 221.592 271.092 219.005 268.875 216.439C269.593 216.777 270.29 217.051 270.987 217.326C271.673 217.6 272.36 217.864 273.067 218.202C274.144 219.796 275.517 221.676 276.467 223.344C276.679 223.703 276.89 224.115 276.763 224.516Z" fill="black"/>
<path d="M276.763 224.516C276.647 224.896 276.256 225.139 275.855 225.192C275.749 225.203 275.433 225.181 275.01 225.129C273.574 222.796 272.054 220.515 270.449 218.287C270.618 217.939 270.808 217.632 270.988 217.326C271.674 217.6 272.361 217.864 273.068 218.202C274.145 219.796 275.518 221.676 276.468 223.344C276.679 223.703 276.89 224.115 276.763 224.516Z" fill="#2E4053"/>
<path d="M273.046 217.896C273.046 217.949 271.916 220.441 271.916 220.515C271.789 220.325 271.652 220.124 271.515 219.924C269.667 217.179 264.071 210.509 263.269 209.862C259.779 207.045 255.56 204.504 250.197 207.139C250.873 205.26 256.649 191.364 269.361 201.753C272.011 203.918 273.774 206.599 274.545 208.679C275.495 211.244 275.358 214.749 273.046 217.896Z" fill="#2E4053"/>
<path d="M260.726 205.963C261.127 205.339 260.997 204.472 260.548 203.882C260.099 203.291 259.392 202.945 258.672 202.769C257.955 202.593 257.176 202.57 256.497 202.859C255.817 203.147 255.261 203.79 255.215 204.527C257.303 204.462 258.865 205.011 260.595 206.181L260.726 205.963Z" fill="#263238"/>
<path d="M257.982 215.479C257.801 216.071 257.385 216.479 256.993 216.378C256.601 216.277 256.408 215.711 256.564 215.111C256.719 214.511 257.164 214.102 257.555 214.203C257.947 214.304 258.137 214.879 257.982 215.479Z" fill="#263238"/>
<path d="M257.521 214.462C257.564 214.511 257.51 214.594 257.445 214.602C257.38 214.609 257.32 214.569 257.269 214.529C256.969 214.293 256.729 213.983 256.576 213.634C256.885 213.898 257.227 214.063 257.59 214.245C257.57 214.305 257.542 214.4 257.521 214.462Z" fill="#263238"/>
<path d="M251.204 213.725C251.023 214.317 250.607 214.725 250.215 214.624C249.823 214.523 249.622 213.954 249.777 213.354C249.932 212.754 250.374 212.354 250.774 212.457C251.175 212.561 251.36 213.125 251.204 213.725Z" fill="#263238"/>
<path d="M250.634 212.723C250.677 212.772 250.623 212.855 250.558 212.863C250.493 212.87 250.433 212.83 250.382 212.79C250.083 212.554 249.842 212.244 249.689 211.895C249.998 212.159 250.34 212.324 250.703 212.506C250.683 212.567 250.654 212.662 250.634 212.723Z" fill="#263238"/>
<path d="M266.382 219.05C265.683 217.827 264.55 216.95 263.191 216.58L260.174 215.758C260.526 214.035 259.495 212.307 257.775 211.838C256.106 211.383 254.397 212.281 253.775 213.853C253.571 213.699 253.314 213.629 253.061 213.658C253.323 211.987 252.306 210.347 250.637 209.892C248.846 209.404 246.992 210.464 246.504 212.255C246.016 214.046 247.075 215.9 248.867 216.389C250.619 216.866 252.422 215.857 252.958 214.137C253.196 214.034 253.47 214.108 253.623 214.318C253.211 216.072 254.253 217.857 256.005 218.334C257.725 218.803 259.49 217.836 260.061 216.173L263.078 216.995C264.326 217.335 265.366 218.14 266.008 219.263L266.716 220.502L267.09 220.288L266.382 219.05ZM248.981 215.973C247.419 215.547 246.495 213.93 246.921 212.368C247.347 210.806 248.963 209.882 250.525 210.308C252.087 210.734 253.011 212.35 252.585 213.912C252.159 215.474 250.542 216.399 248.981 215.973ZM256.119 217.919C254.557 217.493 253.633 215.876 254.059 214.314C254.485 212.752 256.101 211.828 257.663 212.254C259.225 212.68 260.149 214.297 259.724 215.858C259.298 217.42 257.681 218.344 256.119 217.919Z" fill="#263238"/>
<path d="M271.912 231.205C271.912 234.087 271.705 237.104 270.176 239.542C267.893 243.168 263.192 244.563 258.915 244.428C260.227 244.314 261.425 243.343 261.818 242.083C260.62 242.6 259.442 242.496 258.15 242.372C259.038 242.155 259.72 241.391 260.082 240.543C260.433 239.686 260.516 238.756 260.599 237.836C261.395 228.518 262.236 218.988 263.031 209.67C263.878 210.218 265.596 212.204 265.937 212.596C267.972 214.931 269.294 216.645 271.102 219.331C271.124 219.426 271.923 227.455 271.912 231.205Z" fill="#263238"/>
<path d="M185.521 125.879H166.144C160.055 125.879 155.119 120.943 155.119 114.854V95.4761C155.119 89.3871 160.055 84.451 166.144 84.451H185.521C191.61 84.451 196.546 89.3871 196.546 95.4761V114.853C196.546 120.943 191.61 125.879 185.521 125.879Z" fill="#2E4053"/>
<path d="M177.931 114.572C177.931 115.787 176.944 116.774 175.729 116.774C174.515 116.774 173.535 115.787 173.535 114.572C173.535 114.501 173.535 114.431 173.543 114.36H177.923C177.931 114.431 177.931 114.501 177.931 114.572Z" fill="white"/>
<path d="M174.625 95.338C174.625 94.356 175.272 93.557 176.069 93.557C176.865 93.557 177.507 94.356 177.507 95.338C177.507 95.395 177.507 95.452 177.502 95.509H174.63C174.625 95.452 174.625 95.395 174.625 95.338Z" fill="white"/>
<path d="M184.85 113.577H166.812L168.081 110.341H168.152V102.905C168.152 99.583 170.222 96.638 173.223 95.688C174.68 95.227 177.332 95.227 178.59 95.743C179.587 96.152 180.502 96.73 181.246 97.475C182.633 98.87 183.495 100.782 183.495 102.905V110.341H183.581L184.85 113.577Z" fill="white"/>
<path d="M120.291 170.537H100.914C94.8247 170.537 89.8887 165.601 89.8887 159.512V140.135C89.8887 134.046 94.8247 129.11 100.914 129.11H120.291C126.38 129.11 131.316 134.046 131.316 140.135V159.512C131.316 165.601 126.38 170.537 120.291 170.537Z" fill="#2E4053"/>
<path opacity="0.6" d="M120.291 170.537H100.914C94.8247 170.537 89.8887 165.601 89.8887 159.512V140.135C89.8887 134.046 94.8247 129.11 100.914 129.11H120.291C126.38 129.11 131.316 134.046 131.316 140.135V159.512C131.316 165.601 126.38 170.537 120.291 170.537Z" fill="white"/>
<path fill-rule="evenodd" clip-rule="evenodd" d="M106.974 155.391C104.85 155.316 103.04 153.982 102.371 151.998C103.061 152.134 103.781 152.112 104.478 151.933H104.543C103.196 151.651 102.043 150.845 101.332 149.689C100.847 148.919 100.59 148.018 100.59 147.087C101.24 147.447 101.97 147.651 102.727 147.683C101.712 146.981 100.998 145.929 100.714 144.712C100.406 143.537 100.578 142.265 101.192 141.167C103.686 144.198 107.346 146.041 111.354 146.284C111.364 146.089 111.286 145.915 111.263 145.742C111.095 144.65 111.336 143.512 111.94 142.544C112.665 141.365 113.881 140.564 115.23 140.376C116.824 140.113 118.409 140.621 119.495 141.742C119.559 141.818 119.663 141.848 119.762 141.818C120.752 141.612 121.709 141.246 122.594 140.734H122.659C122.318 141.769 121.63 142.67 120.715 143.282C121.646 143.176 122.562 142.928 123.432 142.545C123.245 142.794 123.07 143.044 122.884 143.282C122.373 143.919 121.781 144.488 121.126 144.973C121.068 145.001 121.034 145.063 121.042 145.125C121.064 145.847 121.026 146.572 120.929 147.293C120.768 148.783 120.361 150.248 119.726 151.63C119.089 153.049 118.209 154.356 117.128 155.49C115.311 157.397 112.965 158.711 110.426 159.241C109.524 159.431 108.611 159.54 107.699 159.566C104.895 159.643 102.171 158.913 99.8506 157.463L99.7246 157.387C101.365 157.585 103.05 157.353 104.617 156.715C105.458 156.388 106.252 155.942 106.974 155.391Z" fill="#2E4053"/>
<path d="M139.656 305.596H120.279C114.19 305.596 109.254 300.66 109.254 294.571V275.194C109.254 269.105 114.19 264.169 120.279 264.169H139.656C145.745 264.169 150.681 269.105 150.681 275.194V294.571C150.681 300.66 145.745 305.596 139.656 305.596Z" fill="#2E4053"/>
<path d="M138.69 278.269L138.723 296.659C138.723 296.896 138.532 297.088 138.295 297.089L121.291 297.12C121.054 297.12 120.862 296.929 120.861 296.692L120.818 272.772C120.818 272.535 121.009 272.343 121.246 272.342L132.703 272.321L138.69 278.269Z" fill="#2E4053"/>
<g opacity="0.7">
<path d="M138.69 278.269L138.723 296.659C138.723 296.896 138.532 297.088 138.295 297.089L121.291 297.12C121.054 297.12 120.862 296.929 120.861 296.692L120.818 272.772C120.818 272.535 121.009 272.343 121.246 272.342L132.703 272.321L138.69 278.269Z" fill="white"/>
</g>
<path d="M132.713 272.308L132.723 277.855C132.723 278.092 132.916 278.283 133.153 278.283L138.683 278.273L132.713 272.308Z" fill="#2E4053"/>
<path d="M132.713 272.308L132.723 277.855C132.723 278.092 132.916 278.283 133.153 278.283L138.683 278.273L132.713 272.308Z" fill="white"/>
<path d="M136.66 281.558L122.94 281.624C122.726 281.625 122.554 281.799 122.555 282.013L122.556 282.138C122.557 282.352 122.731 282.524 122.945 282.523L136.665 282.457C136.879 282.456 137.051 282.282 137.05 282.068L137.049 281.943C137.047 281.73 136.873 281.557 136.66 281.558Z" fill="#2E4053"/>
<path d="M136.671 285.25L122.951 285.316C122.737 285.317 122.565 285.491 122.566 285.705L122.567 285.83C122.568 286.044 122.742 286.216 122.956 286.215L136.676 286.149C136.89 286.148 137.062 285.974 137.061 285.76L137.06 285.635C137.058 285.421 136.884 285.249 136.671 285.25Z" fill="#2E4053"/>
<path d="M136.683 288.942L122.963 289.008C122.749 289.009 122.577 289.183 122.578 289.397L122.579 289.522C122.58 289.736 122.754 289.908 122.968 289.907L136.688 289.841C136.902 289.84 137.074 289.666 137.073 289.452L137.072 289.327C137.071 289.113 136.897 288.941 136.683 288.942Z" fill="#2E4053"/>
<path d="M129.607 292.633L122.975 292.699C122.761 292.7 122.589 292.874 122.59 293.088L122.591 293.213C122.592 293.427 122.766 293.599 122.98 293.598L129.612 293.532C129.826 293.531 129.998 293.357 129.997 293.143L129.996 293.018C129.995 292.805 129.821 292.632 129.607 292.633Z" fill="#2E4053"/>
<path d="M178.849 231.047H159.472C153.383 231.047 148.447 226.111 148.447 220.022V200.645C148.447 194.556 153.383 189.62 159.472 189.62H178.849C184.938 189.62 189.874 194.556 189.874 200.645V220.022C189.874 226.11 184.938 231.047 178.849 231.047Z" fill="#2E4053"/>
<path opacity="0.6" d="M178.849 231.047H159.472C153.383 231.047 148.447 226.111 148.447 220.022V200.645C148.447 194.556 153.383 189.62 159.472 189.62H178.849C184.938 189.62 189.874 194.556 189.874 200.645V220.022C189.874 226.11 184.938 231.047 178.849 231.047Z" fill="white"/>
<path d="M176.528 224.524H162.115C160.841 224.524 159.809 223.491 159.809 222.218V197.765C159.809 196.491 160.842 195.459 162.115 195.459H176.528C177.802 195.459 178.834 196.492 178.834 197.765V222.218C178.834 223.491 177.802 224.524 176.528 224.524Z" fill="white"/>
<path d="M175.737 219.276L173.91 219.61L174.364 217.809L183.776 209C184.181 208.621 184.816 208.642 185.195 209.047C185.574 209.452 185.553 210.087 185.148 210.466L175.737 219.276Z" fill="#2E4053"/>
<path d="M167.719 221.442C167.365 221.442 167.033 221.317 166.795 221.079C166.309 220.593 166.318 219.783 166.82 218.965C167.326 218.141 168.023 217.429 168.835 216.905C169.303 216.603 169.758 216.406 170.198 216.314C170.118 216.147 170.005 215.999 169.856 215.884C169.121 215.323 167.946 215.802 167.162 216.384C165.795 217.4 164.716 218.841 164.124 220.439C164.028 220.698 163.742 220.833 163.481 220.734C163.222 220.638 163.09 220.351 163.186 220.091C163.844 218.314 165.044 216.712 166.564 215.581C167.677 214.753 169.286 214.188 170.462 215.089C170.871 215.402 171.126 215.834 171.253 216.305C172.064 216.486 172.867 217.209 172.832 218.153C172.816 218.583 172.635 218.945 172.476 219.263C172.433 219.35 172.389 219.437 172.349 219.525C172.218 219.819 172.193 220.092 172.288 220.206C172.377 220.313 172.636 220.309 172.818 220.199C173.09 220.036 173.299 219.703 173.484 219.408C173.63 219.175 173.939 219.105 174.173 219.251C174.406 219.397 174.477 219.707 174.33 219.94C174.098 220.31 173.809 220.77 173.331 221.056C172.805 221.371 171.991 221.407 171.522 220.849C171.164 220.424 171.132 219.792 171.435 219.115C171.48 219.014 171.53 218.914 171.581 218.814C171.706 218.564 171.825 218.328 171.832 218.115C171.843 217.816 171.617 217.547 171.335 217.393C171.306 217.685 171.238 217.969 171.137 218.226C170.75 219.213 169.986 219.948 169.312 220.598C169.054 220.846 168.733 221.156 168.312 221.323C168.117 221.404 167.914 221.442 167.719 221.442ZM170.342 217.307C170.041 217.379 169.718 217.525 169.377 217.746C168.689 218.189 168.1 218.792 167.672 219.489C167.478 219.805 167.352 220.222 167.501 220.372C167.582 220.453 167.776 220.463 167.944 220.396C168.183 220.301 168.405 220.087 168.62 219.88C169.22 219.302 169.9 218.647 170.208 217.864C170.275 217.693 170.321 217.503 170.342 217.307Z" fill="#2E4053"/>
<path d="M176.166 199.126L162.446 199.192C162.232 199.193 162.06 199.367 162.061 199.581L162.062 199.706C162.063 199.92 162.237 200.092 162.451 200.091L176.171 200.025C176.385 200.024 176.557 199.85 176.556 199.636L176.555 199.511C176.554 199.297 176.38 199.125 176.166 199.126Z" fill="#2E4053"/>
<path d="M176.177 202.818L162.457 202.884C162.243 202.885 162.071 203.059 162.072 203.273L162.073 203.398C162.074 203.612 162.248 203.784 162.462 203.783L176.182 203.717C176.396 203.716 176.568 203.542 176.567 203.328L176.566 203.203C176.565 202.989 176.391 202.817 176.177 202.818Z" fill="#2E4053"/>
<path d="M176.189 206.509L162.469 206.575C162.255 206.576 162.083 206.75 162.084 206.964L162.085 207.089C162.086 207.303 162.26 207.475 162.474 207.474L176.194 207.408C176.408 207.407 176.58 207.233 176.579 207.019L176.578 206.894C176.576 206.681 176.402 206.508 176.189 206.509Z" fill="#2E4053"/>
<path d="M169.113 210.201L162.481 210.267C162.267 210.268 162.095 210.442 162.096 210.656L162.097 210.781C162.098 210.995 162.272 211.167 162.486 211.166L169.118 211.1C169.332 211.099 169.504 210.925 169.503 210.711L169.502 210.586C169.501 210.372 169.327 210.2 169.113 210.201Z" fill="#2E4053"/>
<path d="M326.868 106.438H307.49C301.401 106.438 296.465 101.502 296.465 95.413V76.036C296.465 69.947 301.401 65.011 307.49 65.011H326.867C332.956 65.011 337.892 69.947 337.892 76.036V95.413C337.893 101.502 332.957 106.438 326.868 106.438Z" fill="#2E4053"/>
<path opacity="0.6" d="M326.868 106.438H307.49C301.401 106.438 296.465 101.502 296.465 95.413V76.036C296.465 69.947 301.401 65.011 307.49 65.011H326.867C332.956 65.011 337.892 69.947 337.892 76.036V95.413C337.893 101.502 332.957 106.438 326.868 106.438Z" fill="white"/>
<path d="M317.339 71.282C312.086 71.282 307.826 75.539 307.826 80.793C307.826 86.046 317.339 99.426 317.339 99.426C317.339 99.426 326.852 86.047 326.852 80.793C326.852 75.539 322.592 71.282 317.339 71.282ZM317.423 85.363C314.937 85.363 312.921 83.346 312.921 80.861C312.921 78.373 314.938 76.357 317.423 76.357C319.911 76.357 321.927 78.374 321.927 80.861C321.928 83.346 319.911 85.363 317.423 85.363Z" fill="#2E4053"/>
<path d="M393.144 150.941H373.793C367.712 150.941 362.783 146.012 362.783 139.931V120.58C362.783 114.499 367.712 109.57 373.793 109.57H393.144C399.225 109.57 404.154 114.499 404.154 120.58V139.931C404.154 146.012 399.225 150.941 393.144 150.941Z" fill="#2E4053"/>
<path d="M393.144 150.941H373.793C367.712 150.941 362.783 146.012 362.783 139.931V120.58C362.783 114.499 367.712 109.57 373.793 109.57H393.144C399.225 109.57 404.154 114.499 404.154 120.58V139.931C404.154 146.012 399.225 150.941 393.144 150.941Z" fill="#2E4053"/>
<path d="M388.102 123.674V129.498C388.102 131.911 386.146 133.867 383.734 133.867H378.173L371.82 140.22V133.867C369.407 133.867 367.451 131.911 367.451 129.498V123.674C367.451 121.261 369.407 119.306 371.82 119.306H383.733C386.146 119.306 388.102 121.262 388.102 123.674Z" fill="white"/>
<path d="M371.32 141.427V134.342C368.869 134.091 366.951 132.014 366.951 129.499V123.675C366.951 120.991 369.135 118.807 371.82 118.807H383.733C386.418 118.807 388.602 120.991 388.602 123.675V129.499C388.602 132.184 386.418 134.368 383.733 134.368H378.379L371.32 141.427ZM371.82 119.806C369.687 119.806 367.951 121.541 367.951 123.674V129.498C367.951 131.631 369.686 133.367 371.82 133.367H372.32V139.013L377.966 133.367H383.734C385.867 133.367 387.603 131.632 387.603 129.498V123.674C387.603 121.541 385.868 119.806 383.734 119.806H371.82Z" fill="#2E4053"/>
<path d="M399.487 132.462V136.942C399.487 138.798 397.982 140.302 396.126 140.302V145.189L391.239 140.302H386.962C385.106 140.302 383.602 138.798 383.602 136.942V132.462C383.602 130.606 385.106 129.101 386.962 129.101H396.126C397.982 129.101 399.487 130.607 399.487 132.462Z" fill="white"/>
<path d="M396.626 146.396L391.032 140.802H386.962C384.834 140.802 383.102 139.071 383.102 136.943V132.463C383.102 130.334 384.833 128.602 386.962 128.602H396.126C398.255 128.602 399.987 130.334 399.987 132.463V136.943C399.987 138.901 398.52 140.524 396.626 140.77V146.396ZM386.962 129.602C385.385 129.602 384.102 130.885 384.102 132.463V136.943C384.102 138.52 385.385 139.802 386.962 139.802H391.446L395.626 143.982V139.802H396.126C397.704 139.802 398.987 138.519 398.987 136.943V132.463C398.987 130.885 397.704 129.602 396.126 129.602H386.962Z" fill="#2E4053"/>
<path d="M383.482 124.042H372.699C372.423 124.042 372.199 123.818 372.199 123.542C372.199 123.266 372.423 123.042 372.699 123.042H383.482C383.758 123.042 383.982 123.266 383.982 123.542C383.982 123.818 383.758 124.042 383.482 124.042Z" fill="#2E4053"/>
<path d="M383.482 126.557H372.699C372.423 126.557 372.199 126.333 372.199 126.057C372.199 125.781 372.423 125.557 372.699 125.557H383.482C383.758 125.557 383.982 125.781 383.982 126.057C383.982 126.333 383.758 126.557 383.482 126.557Z" fill="#2E4053"/>
<path d="M380.483 129.072H372.699C372.423 129.072 372.199 128.848 372.199 128.572C372.199 128.296 372.423 128.072 372.699 128.072H380.483C380.759 128.072 380.983 128.296 380.983 128.572C380.983 128.848 380.759 129.072 380.483 129.072Z" fill="#2E4053"/>
<path d="M370.964 221.724H351.587C345.498 221.724 340.562 216.788 340.562 210.699V191.322C340.562 185.233 345.498 180.297 351.587 180.297H370.964C377.053 180.297 381.99 185.233 381.99 191.322V210.699C381.991 216.788 377.053 221.724 370.964 221.724Z" fill="#2E4053"/>
<path d="M376.972 203.754C376.972 204.2 376.94 205.769 376.88 206.2H345.266C345.245 205.975 345.234 204.619 345.234 204.387C345.234 200.69 348.056 197.652 351.662 197.306C351.66 197.22 351.658 197.132 351.658 197.044C351.658 192.439 355.389 188.708 359.994 188.708C363.721 188.708 366.873 191.15 367.941 194.523C368.443 194.534 368.939 194.585 369.419 194.673C373.715 195.464 376.972 199.229 376.972 203.754Z" fill="white"/>
<path d="M388.644 297.842H369.293C363.212 297.842 358.283 292.913 358.283 286.832V267.481C358.283 261.4 363.212 256.471 369.293 256.471H388.644C394.725 256.471 399.654 261.4 399.654 267.481V286.832C399.654 292.913 394.725 297.842 388.644 297.842Z" fill="#2E4053"/>
<g opacity="0.6">
<path d="M388.644 297.842H369.293C363.212 297.842 358.283 292.913 358.283 286.832V267.481C358.283 261.4 363.212 256.471 369.293 256.471H388.644C394.725 256.471 399.654 261.4 399.654 267.481V286.832C399.654 292.913 394.725 297.842 388.644 297.842Z" fill="white"/>
</g>
<path fill-rule="evenodd" clip-rule="evenodd" d="M391.561 272.994V284.892H366.367V272.894L378.708 280.927L391.561 272.994Z" fill="white"/>
<path fill-rule="evenodd" clip-rule="evenodd" d="M391.561 270.574V270.735L378.708 278.668L366.367 270.635V270.574H391.561Z" fill="white"/>
</svg>
