<svg width="174" height="198" viewBox="0 0 174 198" fill="none" xmlns="http://www.w3.org/2000/svg">
<path d="M15.1406 160.661L124.741 180.458L130.201 133.711L15.1406 160.661Z" fill="url(#paint0_linear_1022_808)"/>
<path d="M114.54 190.334L40.5 175.502L49.54 82.4437L125.6 94.7845L114.54 190.334Z" stroke="url(#paint1_linear_1022_808)" stroke-width="2" stroke-miterlimit="10"/>
<path style="mix-blend-mode:multiply" d="M15.1406 160.661L124.741 180.458L130.201 133.711L15.1406 160.661Z" fill="url(#paint2_linear_1022_808)"/>
<path d="M8.21088 70.3699L16.8009 65.1115L24.6209 82.2302L14.3309 83.7784C13.3809 83.7339 11.4309 80.9668 9.89088 77.5501C8.35088 74.1335 7.57088 71.055 8.21088 70.3699Z" fill="url(#paint3_linear_1022_808)"/>
<path style="mix-blend-mode:multiply" d="M8.21088 70.3699L16.8009 65.1115L24.6209 82.2302L14.3309 83.7784C13.3809 83.7339 11.4309 80.9668 9.89088 77.5501C8.35088 74.1335 7.57088 71.055 8.21088 70.3699Z" fill="url(#paint4_radial_1022_808)"/>
<path d="M18.5094 74.4894C20.4294 78.7068 23.0894 82.1679 24.6194 82.2302C26.3694 82.3103 25.9894 78.0128 23.5294 72.621C21.0694 67.2291 17.9794 63.946 16.7994 65.1115C15.7694 66.1347 16.5894 70.281 18.5094 74.4894Z" fill="url(#paint5_linear_1022_808)"/>
<path d="M47.6501 97.2758L46.1501 99.3311C38.5701 90.6561 30.5601 91.9462 25.5801 79.7567C27.6701 79.4809 33.5801 77.6391 35.6601 77.3722C39.3301 86.3497 42.0201 90.8785 47.6501 97.2758Z" fill="url(#paint6_linear_1022_808)"/>
<path d="M46.1501 99.3311L39.6801 107.339C32.1001 98.6727 29.0601 93.9926 24.0801 81.7676C26.1701 81.4917 32.0801 79.65 34.1601 79.3741C37.8301 88.4051 40.5501 92.9339 46.1501 99.3311Z" fill="url(#paint7_linear_1022_808)"/>
<path style="mix-blend-mode:multiply" d="M46.1501 99.3311C46.1501 99.3311 39.7401 107.606 39.6801 107.339C32.1001 98.6727 29.0601 93.9926 24.0801 81.7676C26.1701 81.4917 32.0801 79.65 34.1601 79.3741C37.8301 88.4051 40.5501 92.9339 46.1501 99.3311Z" fill="url(#paint8_linear_1022_808)"/>
<path d="M15.3706 62.5313L27.3706 58.1715L37.6106 80.6198L25.6106 84.9795C23.8506 85.629 20.1406 81.1358 17.3106 74.9343C14.4806 68.7328 13.6206 63.1808 15.3706 62.5313Z" fill="url(#paint9_linear_1022_808)"/>
<path style="mix-blend-mode:overlay" d="M15.3706 62.5313L27.3706 58.1715L37.6106 80.6198L25.6106 84.9795C23.8506 85.629 20.1406 81.1358 17.3106 74.9343C14.4806 68.7328 13.6206 63.1808 15.3706 62.5313Z" fill="url(#paint10_radial_1022_808)"/>
<path d="M29.3106 70.5745C32.1406 76.8027 35.8606 81.2515 37.6106 80.6197C39.3606 79.988 38.4906 74.3915 35.6606 68.1633C32.8306 61.9351 29.1206 57.4864 27.3706 58.127C25.6206 58.7676 26.4806 64.3819 29.3106 70.5745Z" fill="url(#paint11_linear_1022_808)"/>
<path style="mix-blend-mode:multiply" d="M29.3106 70.5745C32.1406 76.8027 35.8606 81.2515 37.6106 80.6197C39.3606 79.988 38.4906 74.3915 35.6606 68.1633C32.8306 61.9351 29.1206 57.4864 27.3706 58.127C25.6206 58.7676 26.4806 64.3819 29.3106 70.5745Z" fill="url(#paint12_radial_1022_808)"/>
<path d="M29.8596 59.5417L75.0796 21.6208L100.08 76.3935L38.3296 78.1196C38.3296 78.1196 35.8196 78.3064 31.6196 69.1154C27.8796 60.8941 29.8596 59.5417 29.8596 59.5417Z" fill="url(#paint13_linear_1022_808)"/>
<path style="mix-blend-mode:multiply" d="M29.8596 59.5417L75.0796 21.6208L100.08 76.3935L38.3296 78.1196C38.3296 78.1196 35.8196 78.3064 31.6196 69.1154C27.8796 60.8941 29.8596 59.5417 29.8596 59.5417Z" fill="url(#paint14_radial_1022_808)"/>
<path d="M63.1794 21.1581L78.6994 15.446L107.469 78.4666L91.9594 84.1788C87.6494 85.7803 77.7194 72.9769 69.7694 55.5735C61.8194 38.1701 58.8794 22.7597 63.1794 21.1581Z" fill="url(#paint15_linear_1022_808)"/>
<path style="mix-blend-mode:overlay" d="M63.1794 21.1581L78.6994 15.446L107.469 78.4666L91.9594 84.1788C87.6494 85.7803 77.7194 72.9769 69.7694 55.5735C61.8194 38.1701 58.8794 22.7597 63.1794 21.1581Z" fill="url(#paint16_radial_1022_808)"/>
<path d="M85.2899 49.8613C93.2899 67.2647 103.17 80.0681 107.47 78.4666C111.77 76.865 108.83 61.4546 100.88 44.0512C92.9299 26.6478 83.0199 13.8444 78.6999 15.4459C74.3799 17.0475 77.3499 32.4579 85.2899 49.8613Z" fill="url(#paint17_linear_1022_808)"/>
<path style="mix-blend-mode:multiply" d="M85.2899 49.8613C93.2899 67.2647 103.17 80.0681 107.47 78.4666C111.77 76.865 108.83 61.4546 100.88 44.0512C92.9299 26.6478 83.0199 13.8444 78.6999 15.4459C74.3799 17.0475 77.3499 32.4579 85.2899 49.8613Z" fill="url(#paint18_radial_1022_808)"/>
<path style="mix-blend-mode:overlay" d="M100.73 45.7684C92.7805 28.3472 82.8505 15.5616 78.5505 17.1632C77.5505 17.5191 77.0005 18.5512 76.7305 20.126C76.8005 17.5813 77.4405 15.9175 78.7305 15.4459C83.0305 13.8444 92.9705 26.6478 100.91 44.0512C107.1 57.6021 110.26 69.9428 109.32 75.5037C109.46 69.3645 106.34 58.0647 100.73 45.7684Z" fill="url(#paint19_radial_1022_808)"/>
<mask id="mask0_1022_808" style="mask-type:luminance" maskUnits="userSpaceOnUse" x="76" y="15" width="34" height="64">
<path d="M85.2899 49.8613C93.2899 67.2647 103.17 80.0681 107.47 78.4666C111.77 76.865 108.83 61.4546 100.88 44.0512C92.9299 26.6478 83.0199 13.8444 78.6999 15.4459C74.3799 17.0475 77.3499 32.4579 85.2899 49.8613Z" fill="white"/>
</mask>
<g mask="url(#mask0_1022_808)">
<path d="M79.02 39.478L89.21 38.4459L96.51 54.4613L88.51 60.3247C86.66 61.855 82.56 57.9758 79.59 51.4272C76.62 44.8787 76.52 39.5669 79.02 39.478Z" fill="url(#paint20_linear_1022_808)"/>
<path d="M90.4695 47.3256C92.6795 52.1747 95.4695 55.3333 96.4695 54.4436C97.4695 53.5538 96.6595 49.7635 94.8095 45.7152C92.9595 41.6669 90.4895 38.4104 89.1695 38.4638C87.8495 38.5172 88.2595 42.4765 90.4695 47.3256Z" fill="url(#paint21_linear_1022_808)"/>
<path style="mix-blend-mode:overlay" d="M90.4695 47.3256C92.6795 52.1747 95.4695 55.3333 96.4695 54.4436C97.4695 53.5538 96.6595 49.7635 94.8095 45.7152C92.9595 41.6669 90.4895 38.4104 89.1695 38.4638C87.8495 38.5172 88.2595 42.4765 90.4695 47.3256Z" fill="url(#paint22_radial_1022_808)"/>
</g>
<path d="M144.821 98.8328L173.761 95.5497L166.331 110.907L173.761 125.543L140.221 127.411L144.821 98.8328Z" fill="url(#paint23_linear_1022_808)"/>
<path style="mix-blend-mode:multiply" d="M144.821 98.8328L173.761 95.5497L166.331 110.907L173.761 125.543L140.221 127.411L144.821 98.8328Z" fill="url(#paint24_linear_1022_808)"/>
<path d="M1.53906 130.09L37.9391 156.346L30.3991 108.709L1.53906 130.09Z" fill="url(#paint25_linear_1022_808)"/>
<path style="mix-blend-mode:multiply" d="M1.53906 130.09L37.9391 156.346L30.3991 108.709L1.53906 130.09Z" fill="url(#paint26_linear_1022_808)"/>
<path d="M15.1404 160.661L139.85 165.181L151.17 77.9149L6.65039 95.7454L15.1404 160.661Z" fill="url(#paint27_linear_1022_808)"/>
<path style="mix-blend-mode:multiply" d="M13.9693 135.544L144.269 130.792L146.569 111.939L11.7793 122.5L13.9693 135.544Z" fill="url(#paint28_linear_1022_808)"/>
<path d="M154.88 116.29L1.53998 130.09L0 102.757L158.47 86.5811L154.88 116.29Z" fill="url(#paint29_linear_1022_808)"/>
<path d="M14.2441 121.03V108.384L22.2042 107.676V109.16L15.8012 109.729V113.69L21.1545 113.214V114.698L15.8012 115.174V119.407L22.2042 118.837V120.321L14.2441 121.03ZM26.9923 120.159C26.2867 120.222 25.6948 120.146 25.2166 119.93C24.7443 119.709 24.3856 119.396 24.1407 118.99C23.9016 118.584 23.7821 118.126 23.7821 117.617C23.7821 117.119 23.8754 116.681 24.062 116.301C24.2544 115.915 24.5227 115.587 24.8667 115.316C25.2108 115.04 25.6219 114.81 26.1001 114.627C26.5491 114.464 27.0506 114.314 27.6046 114.177C28.1645 114.033 28.7301 113.898 29.3016 113.771C29.8731 113.644 30.4067 113.523 30.9024 113.409L30.3425 113.784C30.36 112.939 30.1909 112.331 29.8352 111.958C29.4853 111.586 28.8788 111.438 28.0158 111.514C27.4443 111.565 26.9428 111.742 26.5112 112.043C26.0855 112.339 25.7852 112.787 25.6103 113.388L24.132 113.072C24.3594 112.22 24.7997 111.528 25.4528 110.996C26.1059 110.464 26.9661 110.15 28.0333 110.055C28.8905 109.979 29.6253 110.069 30.2376 110.324C30.8557 110.574 31.2989 110.997 31.5671 111.594C31.7013 111.874 31.7858 112.186 31.8208 112.528C31.8558 112.865 31.8733 113.22 31.8733 113.595V119.461L30.4912 119.584V117.31L30.8149 117.492C30.4592 118.29 29.9606 118.914 29.3191 119.363C28.6835 119.812 27.9079 120.077 26.9923 120.159ZM27.2285 118.829C27.7883 118.78 28.2723 118.637 28.6805 118.402C29.0946 118.16 29.427 117.864 29.6777 117.514C29.9285 117.158 30.0918 116.78 30.1676 116.381C30.2551 116.081 30.3017 115.752 30.3075 115.394C30.3192 115.03 30.325 114.751 30.325 114.558L30.8674 114.747C30.36 114.862 29.8614 114.974 29.3716 115.082C28.8817 115.19 28.4181 115.302 27.9808 115.417C27.5434 115.526 27.1498 115.646 26.7999 115.776C26.5433 115.881 26.3013 116.008 26.0739 116.157C25.8523 116.306 25.6715 116.489 25.5315 116.706C25.3974 116.917 25.3303 117.172 25.3303 117.47C25.3303 117.728 25.3945 117.968 25.5228 118.191C25.6569 118.413 25.861 118.585 26.1351 118.707C26.415 118.829 26.7795 118.869 27.2285 118.829ZM34.1476 119.259V109.774L35.5384 109.651V111.943L35.311 111.664C35.4218 111.362 35.5646 111.08 35.7396 110.818C35.9204 110.556 36.1216 110.336 36.3432 110.159C36.5881 109.938 36.8651 109.761 37.1741 109.628C37.4832 109.495 37.7981 109.406 38.1188 109.36C38.4396 109.308 38.7399 109.301 39.0198 109.341V110.808C38.6932 110.749 38.3346 110.757 37.9439 110.833C37.5532 110.909 37.1916 111.084 36.8592 111.36C36.556 111.603 36.3198 111.888 36.1507 112.213C35.9874 112.538 35.8737 112.885 35.8096 113.253C35.7454 113.616 35.7133 113.985 35.7133 114.36V119.12L34.1476 119.259ZM47.4005 118.08V113.329C47.4005 112.878 47.3597 112.448 47.2781 112.04C47.2022 111.631 47.0652 111.271 46.8669 110.961C46.6745 110.645 46.4121 110.404 46.0797 110.241C45.7531 110.077 45.3391 110.017 44.8376 110.062C44.4469 110.096 44.0911 110.195 43.7704 110.358C43.4555 110.515 43.1843 110.738 42.9569 111.028C42.7295 111.318 42.5516 111.673 42.4233 112.094C42.3009 112.509 42.2396 112.992 42.2396 113.542L41.2162 113.317C41.2162 112.398 41.3795 111.596 41.706 110.911C42.0384 110.22 42.502 109.672 43.0969 109.268C43.6975 108.857 44.4031 108.616 45.2137 108.544C45.826 108.489 46.3479 108.54 46.7795 108.694C47.211 108.849 47.5696 109.075 47.8554 109.372C48.1411 109.662 48.3656 109.999 48.5289 110.383C48.6922 110.761 48.8059 111.152 48.8701 111.556C48.94 111.953 48.975 112.334 48.975 112.697V117.94L47.4005 118.08ZM40.6651 118.679V109.195L42.0647 109.07V111.608L42.2396 111.592V118.539L40.6651 118.679ZM51.4241 106.56V104.944L52.9811 104.806V106.421L51.4241 106.56ZM51.4241 117.722V108.237L52.9811 108.099V117.583L51.4241 117.722ZM62.3324 116.751V112C62.3324 111.549 62.2915 111.12 62.2099 110.711C62.1341 110.302 61.9971 109.943 61.7988 109.633C61.6063 109.316 61.3439 109.076 61.0115 108.912C60.685 108.748 60.2709 108.688 59.7694 108.733C59.3787 108.768 59.023 108.867 58.7023 109.03C58.3874 109.187 58.1162 109.41 57.8888 109.699C57.6613 109.989 57.4835 110.344 57.3552 110.766C57.2327 111.181 57.1715 111.663 57.1715 112.213L56.1481 111.988C56.1481 111.069 56.3113 110.267 56.6379 109.582C56.9703 108.891 57.4339 108.344 58.0287 107.939C58.6294 107.529 59.335 107.288 60.1456 107.215C60.7579 107.161 61.2798 107.211 61.7113 107.366C62.1428 107.521 62.5015 107.746 62.7872 108.043C63.073 108.334 63.2975 108.671 63.4608 109.054C63.624 109.432 63.7378 109.823 63.8019 110.227C63.8719 110.625 63.9069 111.005 63.9069 111.368V116.611L62.3324 116.751ZM55.597 117.35V107.866L56.9965 107.741V110.279L57.1715 110.264V117.21L55.597 117.35ZM70.0036 120.547C69.5079 120.591 69.0239 120.558 68.5515 120.448C68.0792 120.338 67.6447 120.145 67.2482 119.87C66.8575 119.601 66.5309 119.243 66.2685 118.798L67.6943 117.916C67.9276 118.358 68.257 118.665 68.6827 118.838C69.1143 119.011 69.5575 119.076 70.0123 119.036C70.613 118.983 71.1116 118.827 71.5081 118.569C71.9047 118.317 72.1962 117.966 72.3828 117.517C72.5753 117.066 72.6686 116.519 72.6627 115.876V113.285L72.8464 113.269V106.331L74.2285 106.208V115.754C74.2285 116.012 74.2198 116.261 74.2023 116.503C74.1906 116.744 74.1614 116.984 74.1148 117.222C73.9923 117.906 73.7503 118.481 73.3888 118.946C73.0272 119.418 72.5607 119.784 71.9892 120.046C71.4177 120.313 70.7558 120.48 70.0036 120.547ZM69.8899 116.342C69.0093 116.42 68.2541 116.268 67.6243 115.885C66.9945 115.496 66.5076 114.939 66.1635 114.215C65.8253 113.49 65.6562 112.653 65.6562 111.704C65.6562 110.756 65.8253 109.889 66.1635 109.104C66.5076 108.318 66.9945 107.68 67.6243 107.191C68.2541 106.696 69.0064 106.409 69.8811 106.332C70.7733 106.252 71.5227 106.402 72.1292 106.781C72.7356 107.161 73.1934 107.714 73.5025 108.442C73.8174 109.169 73.9748 110.01 73.9748 110.964C73.9748 111.907 73.8174 112.773 73.5025 113.562C73.1934 114.345 72.7356 114.985 72.1292 115.484C71.5227 115.977 70.7763 116.263 69.8899 116.342ZM70.0823 114.894C70.7179 114.837 71.2399 114.638 71.6481 114.298C72.0563 113.951 72.3566 113.5 72.549 112.944C72.7473 112.382 72.8464 111.755 72.8464 111.065C72.8464 110.362 72.7473 109.753 72.549 109.238C72.3566 108.717 72.0592 108.325 71.6568 108.062C71.2544 107.793 70.7442 107.686 70.126 107.741C69.4846 107.798 68.9539 108.004 68.534 108.357C68.12 108.71 67.8109 109.165 67.6068 109.722C67.4086 110.278 67.3094 110.89 67.3094 111.557C67.3094 112.231 67.4115 112.83 67.6156 113.357C67.8197 113.877 68.1258 114.277 68.534 114.557C68.9481 114.836 69.4642 114.949 70.0823 114.894ZM19.4225 144.832C18.1688 144.944 17.1045 144.761 16.2298 144.282C15.3551 143.804 14.6873 143.09 14.2267 142.142C13.7718 141.193 13.5444 140.069 13.5444 138.769C13.5444 137.469 13.7718 136.305 14.2267 135.275C14.6873 134.244 15.3551 133.412 16.2298 132.778C17.1045 132.144 18.1688 131.771 19.4225 131.66C20.8804 131.53 22.0788 131.795 23.0177 132.455C23.9624 133.115 24.6126 134.058 24.9683 135.285L23.385 135.847C23.1285 134.928 22.6707 134.225 22.0117 133.739C21.3528 133.253 20.4897 133.058 19.4225 133.153C18.4837 133.236 17.7022 133.519 17.0783 134.002C16.4543 134.485 15.9849 135.124 15.67 135.919C15.3551 136.708 15.1947 137.609 15.1889 138.623C15.183 139.63 15.3376 140.503 15.6525 141.242C15.9674 141.975 16.4397 142.531 17.0695 142.908C17.6993 143.279 18.4837 143.423 19.4225 143.34C20.4897 143.245 21.3528 142.896 22.0117 142.292C22.6707 141.683 23.1285 140.899 23.385 139.94L24.9683 140.22C24.6126 141.505 23.9624 142.564 23.0177 143.397C22.0788 144.224 20.8804 144.703 19.4225 144.832ZM30.9104 143.81C29.9715 143.894 29.161 143.752 28.4787 143.386C27.8022 143.018 27.2803 142.474 26.9129 141.751C26.5455 141.028 26.3618 140.178 26.3618 139.201C26.3618 138.205 26.5484 137.316 26.9217 136.534C27.2949 135.751 27.8226 135.122 28.5049 134.645C29.1872 134.163 29.989 133.881 30.9104 133.799C31.8551 133.715 32.6686 133.856 33.3509 134.223C34.0332 134.584 34.5551 135.126 34.9167 135.849C35.284 136.565 35.4677 137.413 35.4677 138.39C35.4677 139.38 35.284 140.268 34.9167 141.056C34.5493 141.838 34.0244 142.474 33.3422 142.962C32.6599 143.444 31.8493 143.727 30.9104 143.81ZM30.9104 142.326C31.8901 142.239 32.619 141.846 33.0972 141.148C33.5754 140.45 33.8145 139.58 33.8145 138.537C33.8145 137.466 33.5725 136.636 33.0885 136.047C32.6045 135.451 31.8784 135.197 30.9104 135.283C30.2515 135.342 29.7091 135.539 29.2834 135.876C28.8577 136.212 28.5399 136.653 28.33 137.199C28.12 137.744 28.0151 138.363 28.0151 139.053C28.0151 140.119 28.26 140.952 28.7498 141.552C29.2397 142.153 29.9599 142.411 30.9104 142.326ZM48.6864 141.965L48.6951 135.896C48.6951 135.188 48.5056 134.651 48.1265 134.287C47.7533 133.916 47.2664 133.758 46.6657 133.811C46.3159 133.842 45.9835 133.954 45.6686 134.146C45.3537 134.332 45.0971 134.606 44.8988 134.969C44.7005 135.327 44.6014 135.772 44.6014 136.304L43.7791 136.044C43.7675 135.372 43.9045 134.771 44.1903 134.242C44.4818 133.707 44.8784 133.276 45.3799 132.951C45.8814 132.625 46.4471 132.434 47.0769 132.378C48.0624 132.29 48.838 132.523 49.4036 133.076C49.9693 133.623 50.2521 134.402 50.2521 135.415L50.2434 141.827L48.6864 141.965ZM37.3849 142.971V133.486L38.7757 133.363V135.901L38.9507 135.885V142.831L37.3849 142.971ZM43.0444 142.467L43.0531 136.46C43.0531 135.734 42.8665 135.182 42.4933 134.806C42.1201 134.423 41.6244 134.26 41.0063 134.315C40.394 134.369 39.8983 134.624 39.5192 135.079C39.1402 135.534 38.9507 136.11 38.9507 136.807L38.1284 136.389C38.1284 135.774 38.2742 135.21 38.5658 134.699C38.8574 134.187 39.2539 133.771 39.7554 133.451C40.2569 133.125 40.8255 132.934 41.4611 132.878C42.0968 132.821 42.6507 132.907 43.1231 133.134C43.5955 133.361 43.9599 133.715 44.2165 134.196C44.4731 134.671 44.6014 135.253 44.6014 135.944L44.5926 142.329L43.0444 142.467ZM63.8232 140.618L63.832 134.549C63.832 133.841 63.6424 133.305 63.2634 132.94C62.8902 132.569 62.4033 132.411 61.8026 132.464C61.4527 132.495 61.1203 132.607 60.8054 132.799C60.4905 132.985 60.2339 133.26 60.0357 133.623C59.8374 133.98 59.7383 134.425 59.7383 134.958L58.916 134.697C58.9043 134.025 59.0414 133.424 59.3271 132.895C59.6187 132.36 60.0153 131.93 60.5168 131.604C61.0183 131.278 61.5839 131.087 62.2137 131.031C63.1993 130.944 63.9748 131.176 64.5405 131.729C65.1062 132.276 65.389 133.056 65.389 134.068L65.3802 140.48L63.8232 140.618ZM52.5218 141.624V132.14L53.9126 132.016V134.554L54.0875 134.538V141.485L52.5218 141.624ZM58.1812 141.12L58.19 135.113C58.19 134.387 58.0034 133.836 57.6302 133.459C57.2569 133.077 56.7613 132.913 56.1431 132.968C55.5308 133.022 55.0351 133.277 54.6561 133.732C54.277 134.188 54.0875 134.764 54.0875 135.46L53.2653 135.042C53.2653 134.427 53.4111 133.864 53.7026 133.352C53.9942 132.84 54.3908 132.424 54.8923 132.104C55.3938 131.779 55.9624 131.588 56.598 131.531C57.2336 131.474 57.7876 131.56 58.26 131.787C58.7323 132.014 59.0968 132.368 59.3534 132.849C59.61 133.324 59.7383 133.907 59.7383 134.598L59.7295 140.983L58.1812 141.12ZM71.2538 140.203C70.6473 140.257 70.1254 140.207 69.688 140.053C69.2565 139.898 68.8978 139.672 68.6121 139.376C68.3263 139.079 68.1018 138.742 67.9385 138.364C67.7753 137.986 67.6586 137.596 67.5886 137.192C67.5245 136.788 67.4924 136.407 67.4924 136.05V130.808L69.0669 130.668V135.418C69.0669 135.863 69.1078 136.29 69.1894 136.699C69.271 137.107 69.4081 137.469 69.6005 137.786C69.7988 138.102 70.0612 138.342 70.3878 138.506C70.7202 138.67 71.1342 138.73 71.6299 138.686C72.0206 138.651 72.3763 138.552 72.6971 138.389C73.0178 138.225 73.2919 138.002 73.5193 137.718C73.7467 137.429 73.9217 137.074 74.0441 136.653C74.1666 136.232 74.2278 135.75 74.2278 135.205L75.2513 135.43C75.2513 136.344 75.0851 137.146 74.7527 137.837C74.4261 138.528 73.9625 139.078 73.3618 139.489C72.767 139.893 72.0643 140.131 71.2538 140.203ZM74.4028 139.677V137.139L74.2278 137.155V130.208L75.7936 130.069V139.553L74.4028 139.677ZM84.9693 138.737V133.986C84.9693 133.535 84.9285 133.106 84.8469 132.697C84.7711 132.288 84.634 131.929 84.4357 131.618C84.2433 131.302 83.9809 131.062 83.6485 130.898C83.3219 130.734 82.9079 130.674 82.4064 130.719C82.0157 130.754 81.6599 130.853 81.3392 131.016C81.0243 131.173 80.7531 131.396 80.5257 131.685C80.2983 131.975 80.1204 132.33 79.9921 132.752C79.8697 133.166 79.8084 133.649 79.8084 134.199L78.785 133.974C78.785 133.055 78.9483 132.253 79.2749 131.568C79.6073 130.877 80.0709 130.33 80.6657 129.925C81.2663 129.515 81.9719 129.273 82.7825 129.201C83.3948 129.147 83.9167 129.197 84.3483 129.352C84.7798 129.507 85.1384 129.732 85.4242 130.029C85.7099 130.32 85.9344 130.657 86.0977 131.04C86.261 131.418 86.3747 131.809 86.4389 132.213C86.5088 132.611 86.5438 132.991 86.5438 133.354V138.597L84.9693 138.737ZM78.2339 139.336V129.852L79.6335 129.727V132.265L79.8084 132.25V139.196L78.2339 139.336ZM88.9929 127.217V125.601L90.5499 125.463V127.079L88.9929 127.217ZM88.9929 138.379V128.895L90.5499 128.756V138.24L88.9929 138.379ZM98.4491 137.538C97.8893 137.699 97.3353 137.792 96.7871 137.817C96.2448 137.848 95.7608 137.783 95.3351 137.621C94.9094 137.454 94.5858 137.167 94.3642 136.759C94.1775 136.401 94.0755 136.033 94.058 135.654C94.0463 135.268 94.0405 134.833 94.0405 134.347V125.811L95.5975 125.672V134.138C95.5975 134.525 95.6004 134.855 95.6063 135.13C95.6179 135.404 95.6792 135.635 95.79 135.825C95.9999 136.181 96.3323 136.371 96.7871 136.395C97.2478 136.418 97.8018 136.351 98.4491 136.194V137.538ZM92.1249 129.907V128.616L98.4491 128.053V129.344L92.1249 129.907ZM101.423 141.488L103.251 136.338L103.277 137.811L99.1486 127.991L100.784 127.845L104.021 135.751L103.461 135.801L106.496 127.337L108.08 127.196L102.936 141.354L101.423 141.488Z" fill="#C6D4E8"/>
<path d="M14.2441 121.295V108.65L22.2042 107.941V109.425L15.8012 109.995V113.956L21.1545 113.479V114.964L15.8012 115.44V119.673L22.2042 119.103V120.587L14.2441 121.295ZM26.9923 120.425C26.2867 120.487 25.6948 120.411 25.2166 120.196C24.7443 119.975 24.3856 119.661 24.1407 119.256C23.9016 118.849 23.7821 118.392 23.7821 117.882C23.7821 117.385 23.8754 116.946 24.062 116.567C24.2544 116.181 24.5227 115.852 24.8667 115.582C25.2108 115.305 25.6219 115.075 26.1001 114.892C26.5491 114.729 27.0506 114.579 27.6046 114.442C28.1645 114.299 28.7301 114.164 29.3016 114.037C29.8731 113.91 30.4067 113.789 30.9024 113.675L30.3425 114.049C30.36 113.205 30.1909 112.596 29.8352 112.224C29.4853 111.851 28.8788 111.703 28.0158 111.78C27.4443 111.831 26.9428 112.007 26.5112 112.309C26.0855 112.605 25.7852 113.053 25.6103 113.654L24.132 113.337C24.3594 112.486 24.7997 111.794 25.4528 111.262C26.1059 110.729 26.9661 110.416 28.0333 110.321C28.8905 110.244 29.6253 110.334 30.2376 110.59C30.8557 110.839 31.2989 111.262 31.5671 111.859C31.7013 112.14 31.7858 112.452 31.8208 112.794C31.8558 113.13 31.8733 113.486 31.8733 113.861V119.727L30.4912 119.85V117.575L30.8149 117.757C30.4592 118.556 29.9606 119.18 29.3191 119.629C28.6835 120.078 27.9079 120.343 26.9923 120.425ZM27.2285 119.095C27.7883 119.045 28.2723 118.903 28.6805 118.667C29.0946 118.426 29.427 118.13 29.6777 117.779C29.9285 117.423 30.0918 117.046 30.1676 116.647C30.2551 116.346 30.3017 116.017 30.3075 115.66C30.3192 115.296 30.325 115.017 30.325 114.824L30.8674 115.013C30.36 115.128 29.8614 115.24 29.3716 115.348C28.8817 115.456 28.4181 115.567 27.9808 115.682C27.5434 115.791 27.1498 115.911 26.7999 116.042C26.5433 116.147 26.3013 116.274 26.0739 116.423C25.8523 116.571 25.6715 116.754 25.5315 116.972C25.3974 117.183 25.3303 117.437 25.3303 117.736C25.3303 117.993 25.3945 118.234 25.5228 118.456C25.6569 118.679 25.861 118.851 26.1351 118.973C26.415 119.094 26.7795 119.135 27.2285 119.095ZM34.1476 119.524V110.04L35.5384 109.916V112.208L35.311 111.93C35.4218 111.627 35.5646 111.345 35.7396 111.084C35.9204 110.822 36.1216 110.602 36.3432 110.424C36.5881 110.203 36.8651 110.027 37.1741 109.894C37.4832 109.761 37.7981 109.671 38.1188 109.625C38.4396 109.573 38.7399 109.567 39.0198 109.607V111.073C38.6932 111.014 38.3346 111.023 37.9439 111.099C37.5532 111.174 37.1916 111.35 36.8592 111.625C36.556 111.869 36.3198 112.153 36.1507 112.479C35.9874 112.804 35.8737 113.15 35.8096 113.519C35.7454 113.882 35.7133 114.251 35.7133 114.625V119.385L34.1476 119.524ZM47.4005 118.345V113.594C47.4005 113.144 47.3597 112.714 47.2781 112.305C47.2022 111.897 47.0652 111.537 46.8669 111.227C46.6745 110.91 46.4121 110.67 46.0797 110.506C45.7531 110.342 45.3391 110.283 44.8376 110.327C44.4469 110.362 44.0911 110.461 43.7704 110.624C43.4555 110.781 43.1843 111.004 42.9569 111.294C42.7295 111.583 42.5516 111.939 42.4233 112.36C42.3009 112.775 42.2396 113.257 42.2396 113.808L41.2162 113.583C41.2162 112.663 41.3795 111.861 41.706 111.177C42.0384 110.485 42.502 109.938 43.0969 109.534C43.6975 109.123 44.4031 108.882 45.2137 108.81C45.826 108.755 46.3479 108.805 46.7795 108.96C47.211 109.115 47.5696 109.341 47.8554 109.637C48.1411 109.928 48.3656 110.265 48.5289 110.649C48.6922 111.026 48.8059 111.417 48.8701 111.821C48.94 112.219 48.975 112.599 48.975 112.962V118.205L47.4005 118.345ZM40.6651 118.945V109.46L42.0647 109.336V111.874L42.2396 111.858V118.804L40.6651 118.945ZM51.4241 106.826V105.21L52.9811 105.071V106.687L51.4241 106.826ZM51.4241 117.987V108.503L52.9811 108.364V117.849L51.4241 117.987ZM62.3324 117.017V112.266C62.3324 111.815 62.2915 111.385 62.2099 110.977C62.1341 110.568 61.9971 110.208 61.7988 109.898C61.6063 109.582 61.3439 109.342 61.0115 109.178C60.685 109.014 60.2709 108.954 59.7694 108.999C59.3787 109.033 59.023 109.132 58.7023 109.296C58.3874 109.452 58.1162 109.676 57.8888 109.965C57.6613 110.255 57.4835 110.61 57.3552 111.031C57.2327 111.446 57.1715 111.929 57.1715 112.479L56.1481 112.254C56.1481 111.335 56.3113 110.533 56.6379 109.848C56.9703 109.157 57.4339 108.609 58.0287 108.205C58.6294 107.794 59.335 107.553 60.1456 107.481C60.7579 107.427 61.2798 107.477 61.7113 107.632C62.1428 107.786 62.5015 108.012 62.7872 108.309C63.073 108.599 63.2975 108.936 63.4608 109.32C63.624 109.698 63.7378 110.089 63.8019 110.493C63.8719 110.891 63.9069 111.271 63.9069 111.634V116.877L62.3324 117.017ZM55.597 117.616V108.132L56.9965 108.007V110.545L57.1715 110.529V117.476L55.597 117.616ZM70.0036 120.813C69.5079 120.857 69.0239 120.824 68.5515 120.714C68.0792 120.604 67.6447 120.411 67.2482 120.136C66.8575 119.866 66.5309 119.509 66.2685 119.064L67.6943 118.182C67.9276 118.624 68.257 118.931 68.6827 119.104C69.1143 119.276 69.5575 119.342 70.0123 119.302C70.613 119.248 71.1116 119.093 71.5081 118.835C71.9047 118.583 72.1962 118.232 72.3828 117.782C72.5753 117.332 72.6686 116.785 72.6627 116.141V113.551L72.8464 113.535V106.597L74.2285 106.474V116.02C74.2285 116.277 74.2198 116.527 74.2023 116.769C74.1906 117.01 74.1614 117.249 74.1148 117.488C73.9923 118.172 73.7503 118.747 73.3888 119.212C73.0272 119.683 72.5607 120.05 71.9892 120.311C71.4177 120.579 70.7558 120.746 70.0036 120.813ZM69.8899 116.608C69.0093 116.686 68.2541 116.534 67.6243 116.151C66.9945 115.762 66.5076 115.205 66.1635 114.48C65.8253 113.755 65.6562 112.918 65.6562 111.97C65.6562 111.022 65.8253 110.155 66.1635 109.369C66.5076 108.584 66.9945 107.946 67.6243 107.457C68.2541 106.962 69.0064 106.675 69.8811 106.597C70.7733 106.518 71.5227 106.668 72.1292 107.047C72.7356 107.426 73.1934 107.98 73.5025 108.708C73.8174 109.435 73.9748 110.276 73.9748 111.23C73.9748 112.172 73.8174 113.038 73.5025 113.827C73.1934 114.61 72.7356 115.251 72.1292 115.75C71.5227 116.243 70.7763 116.529 69.8899 116.608ZM70.0823 115.159C70.7179 115.103 71.2399 114.904 71.6481 114.563C72.0563 114.217 72.3566 113.765 72.549 113.21C72.7473 112.648 72.8464 112.021 72.8464 111.33C72.8464 110.628 72.7473 110.019 72.549 109.504C72.3566 108.982 72.0592 108.59 71.6568 108.327C71.2544 108.059 70.7442 107.952 70.126 108.007C69.4846 108.064 68.9539 108.269 68.534 108.623C68.12 108.976 67.8109 109.431 67.6068 109.987C67.4086 110.544 67.3094 111.156 67.3094 111.823C67.3094 112.496 67.4115 113.096 67.6156 113.622C67.8197 114.143 68.1258 114.543 68.534 114.823C68.9481 115.102 69.4642 115.214 70.0823 115.159ZM19.4225 145.098C18.1688 145.21 17.1045 145.026 16.2298 144.548C15.3551 144.069 14.6873 143.356 14.2267 142.408C13.7718 141.459 13.5444 140.334 13.5444 139.035C13.5444 137.735 13.7718 136.57 14.2267 135.54C14.6873 134.51 15.3551 133.678 16.2298 133.044C17.1045 132.41 18.1688 132.037 19.4225 131.925C20.8804 131.796 22.0788 132.061 23.0177 132.721C23.9624 133.38 24.6126 134.323 24.9683 135.551L23.385 136.113C23.1285 135.193 22.6707 134.49 22.0117 134.005C21.3528 133.519 20.4897 133.323 19.4225 133.418C18.4837 133.502 17.7022 133.785 17.0783 134.268C16.4543 134.751 15.9849 135.39 15.67 136.185C15.3551 136.974 15.1947 137.875 15.1889 138.888C15.183 139.896 15.3376 140.769 15.6525 141.508C15.9674 142.241 16.4397 142.796 17.0695 143.173C17.6993 143.545 18.4837 143.689 19.4225 143.605C20.4897 143.51 21.3528 143.161 22.0117 142.558C22.6707 141.949 23.1285 141.165 23.385 140.205L24.9683 140.486C24.6126 141.77 23.9624 142.829 23.0177 143.663C22.0788 144.49 20.8804 144.968 19.4225 145.098ZM30.9104 144.076C29.9715 144.159 29.161 144.018 28.4787 143.651C27.8022 143.284 27.2803 142.739 26.9129 142.017C26.5455 141.294 26.3618 140.444 26.3618 139.466C26.3618 138.471 26.5484 137.582 26.9217 136.799C27.2949 136.017 27.8226 135.387 28.5049 134.911C29.1872 134.429 29.989 134.147 30.9104 134.065C31.8551 133.981 32.6686 134.122 33.3509 134.489C34.0332 134.849 34.5551 135.391 34.9167 136.114C35.284 136.831 35.4677 137.678 35.4677 138.656C35.4677 139.645 35.284 140.534 34.9167 141.322C34.5493 142.104 34.0244 142.739 33.3422 143.227C32.6599 143.709 31.8493 143.992 30.9104 144.076ZM30.9104 142.592C31.8901 142.505 32.619 142.112 33.0972 141.414C33.5754 140.715 33.8145 139.845 33.8145 138.803C33.8145 137.732 33.5725 136.901 33.0885 136.312C32.6045 135.717 31.8784 135.463 30.9104 135.549C30.2515 135.607 29.7091 135.805 29.2834 136.141C28.8577 136.478 28.5399 136.919 28.33 137.464C28.12 138.01 28.0151 138.628 28.0151 139.319C28.0151 140.385 28.26 141.218 28.7498 141.818C29.2397 142.418 29.9599 142.676 30.9104 142.592ZM48.6864 142.231L48.6951 136.162C48.6951 135.453 48.5056 134.917 48.1265 134.553C47.7533 134.182 47.2664 134.023 46.6657 134.077C46.3159 134.108 45.9835 134.219 45.6686 134.411C45.3537 134.597 45.0971 134.872 44.8988 135.235C44.7005 135.592 44.6014 136.037 44.6014 136.57L43.7791 136.309C43.7675 135.637 43.9045 135.037 44.1903 134.508C44.4818 133.972 44.8784 133.542 45.3799 133.216C45.8814 132.891 46.4471 132.7 47.0769 132.644C48.0624 132.556 48.838 132.789 49.4036 133.341C49.9693 133.888 50.2521 134.668 50.2521 135.681L50.2434 142.092L48.6864 142.231ZM37.3849 143.236V133.752L38.7757 133.628V136.166L38.9507 136.151V143.097L37.3849 143.236ZM43.0444 142.733L43.0531 136.725C43.0531 135.999 42.8665 135.448 42.4933 135.071C42.1201 134.689 41.6244 134.525 41.0063 134.58C40.394 134.635 39.8983 134.89 39.5192 135.345C39.1402 135.8 38.9507 136.376 38.9507 137.073L38.1284 136.654C38.1284 136.039 38.2742 135.476 38.5658 134.964C38.8574 134.452 39.2539 134.037 39.7554 133.717C40.2569 133.391 40.8255 133.2 41.4611 133.143C42.0968 133.087 42.6507 133.172 43.1231 133.4C43.5955 133.627 43.9599 133.981 44.2165 134.461C44.4731 134.936 44.6014 135.519 44.6014 136.21L44.5926 142.595L43.0444 142.733ZM63.8232 140.884L63.832 134.815C63.832 134.107 63.6424 133.57 63.2634 133.206C62.8902 132.835 62.4033 132.676 61.8026 132.73C61.4527 132.761 61.1203 132.873 60.8054 133.065C60.4905 133.251 60.2339 133.525 60.0357 133.888C59.8374 134.245 59.7383 134.69 59.7383 135.223L58.916 134.963C58.9043 134.29 59.0414 133.69 59.3271 133.161C59.6187 132.626 60.0153 132.195 60.5168 131.87C61.0183 131.544 61.5839 131.353 62.2137 131.297C63.1993 131.209 63.9748 131.442 64.5405 131.995C65.1062 132.541 65.389 133.321 65.389 134.334L65.3802 140.746L63.8232 140.884ZM52.5218 141.89V132.405L53.9126 132.281V134.819L54.0875 134.804V141.75L52.5218 141.89ZM58.1812 141.386L58.19 135.379C58.19 134.653 58.0034 134.101 57.6302 133.725C57.2569 133.342 56.7613 133.178 56.1431 133.233C55.5308 133.288 55.0351 133.543 54.6561 133.998C54.277 134.453 54.0875 135.029 54.0875 135.726L53.2653 135.307C53.2653 134.693 53.4111 134.129 53.7026 133.617C53.9942 133.106 54.3908 132.69 54.8923 132.37C55.3938 132.044 55.9624 131.853 56.598 131.797C57.2336 131.74 57.7876 131.825 58.26 132.053C58.7323 132.28 59.0968 132.634 59.3534 133.115C59.61 133.589 59.7383 134.172 59.7383 134.863L59.7295 141.248L58.1812 141.386ZM71.2538 140.469C70.6473 140.523 70.1254 140.473 69.688 140.318C69.2565 140.164 68.8978 139.938 68.6121 139.641C68.3263 139.345 68.1018 139.008 67.9385 138.63C67.7753 138.252 67.6586 137.861 67.5886 137.458C67.5245 137.054 67.4924 136.673 67.4924 136.316V131.073L69.0669 130.933V135.684C69.0669 136.129 69.1078 136.556 69.1894 136.964C69.271 137.373 69.4081 137.735 69.6005 138.052C69.7988 138.368 70.0612 138.608 70.3878 138.772C70.7202 138.936 71.1342 138.995 71.6299 138.951C72.0206 138.916 72.3763 138.817 72.6971 138.654C73.0178 138.491 73.2919 138.268 73.5193 137.984C73.7467 137.694 73.9217 137.339 74.0441 136.919C74.1666 136.498 74.2278 136.015 74.2278 135.471L75.2513 135.696C75.2513 136.609 75.0851 137.411 74.7527 138.103C74.4261 138.793 73.9625 139.344 73.3618 139.754C72.767 140.159 72.0643 140.397 71.2538 140.469ZM74.4028 139.943V137.405L74.2278 137.42V130.474L75.7936 130.335V139.819L74.4028 139.943ZM84.9693 139.003V134.252C84.9693 133.801 84.9285 133.371 84.8469 132.963C84.7711 132.554 84.634 132.194 84.4357 131.884C84.2433 131.568 83.9809 131.327 83.6485 131.164C83.3219 131 82.9079 130.94 82.4064 130.985C82.0157 131.019 81.6599 131.118 81.3392 131.281C81.0243 131.438 80.7531 131.661 80.5257 131.951C80.2983 132.241 80.1204 132.596 79.9921 133.017C79.8697 133.432 79.8084 133.915 79.8084 134.465L78.785 134.24C78.785 133.321 78.9483 132.519 79.2749 131.834C79.6073 131.143 80.0709 130.595 80.6657 130.191C81.2663 129.78 81.9719 129.539 82.7825 129.467C83.3948 129.412 83.9167 129.463 84.3483 129.617C84.7798 129.772 85.1384 129.998 85.4242 130.294C85.7099 130.585 85.9344 130.922 86.0977 131.306C86.261 131.684 86.3747 132.075 86.4389 132.479C86.5088 132.876 86.5438 133.257 86.5438 133.62V138.863L84.9693 139.003ZM78.2339 139.602V130.118L79.6335 129.993V132.531L79.8084 132.515V139.462L78.2339 139.602ZM88.9929 127.483V125.867L90.5499 125.729V127.344L88.9929 127.483ZM88.9929 138.645V129.16L90.5499 129.022V138.506L88.9929 138.645ZM98.4491 137.803C97.8893 137.964 97.3353 138.057 96.7871 138.083C96.2448 138.114 95.7608 138.048 95.3351 137.887C94.9094 137.72 94.5858 137.433 94.3642 137.025C94.1775 136.667 94.0755 136.298 94.058 135.919C94.0463 135.534 94.0405 135.098 94.0405 134.613V126.077L95.5975 125.938V134.404C95.5975 134.79 95.6004 135.121 95.6063 135.395C95.6179 135.669 95.6792 135.901 95.79 136.09C95.9999 136.446 96.3323 136.636 96.7871 136.66C97.2478 136.684 97.8018 136.617 98.4491 136.46V137.803ZM92.1249 130.173V128.882L98.4491 128.319V129.61L92.1249 130.173ZM101.423 141.754L103.251 136.603L103.277 138.076L99.1486 128.257L100.784 128.111L104.021 136.017L103.461 136.066L106.496 127.603L108.08 127.462L102.936 141.619L101.423 141.754Z" fill="white"/>
<path d="M25.0697 159.998V140.481L37.355 139.388V141.678L27.4728 142.557V148.67L35.735 147.935V150.226L27.4728 150.961V157.494L37.355 156.614V158.905L25.0697 159.998ZM39.2504 158.736L45.7575 138.64L49.1056 138.342L55.6128 157.28L53.1152 157.503L47.0266 139.937L47.7826 139.869L41.7479 158.514L39.2504 158.736ZM42.3824 153.89V151.627L52.4807 150.728V152.992L42.3824 153.89ZM58.0296 157.065V137.548L65.7112 136.865C65.9003 136.848 66.1253 136.837 66.3863 136.832C66.6473 136.817 66.8993 136.822 67.1423 136.846C68.1953 136.915 69.0773 137.198 69.7884 137.695C70.5084 138.191 71.0484 138.852 71.4084 139.678C71.7684 140.496 71.9484 141.424 71.9484 142.463C71.9484 143.972 71.5569 145.317 70.7739 146.498C69.9909 147.67 68.8433 148.463 67.3313 148.878L66.4133 149.109L60.4326 149.641V156.852L58.0296 157.065ZM69.5993 156.036L65.7653 148.435L68.1413 147.491L72.3534 155.791L69.5993 156.036ZM60.4326 147.35L65.6302 146.888C65.8013 146.873 65.9948 146.847 66.2108 146.809C66.4358 146.771 66.6473 146.721 66.8453 146.658C67.4663 146.458 67.9703 146.151 68.3573 145.737C68.7533 145.313 69.0413 144.836 69.2213 144.305C69.4013 143.765 69.4913 143.224 69.4913 142.682C69.4913 142.14 69.4013 141.619 69.2213 141.12C69.0413 140.612 68.7533 140.181 68.3573 139.828C67.9703 139.474 67.4663 139.257 66.8453 139.176C66.6473 139.14 66.4358 139.127 66.2108 139.138C65.9948 139.139 65.8013 139.147 65.6302 139.162L60.4326 139.625V147.35ZM75.3269 155.526V136.009L77.7569 135.793L87.8957 150.139V134.891L90.3257 134.675V154.192L87.8957 154.408L77.7569 140.049V155.31L75.3269 155.526ZM25.0697 196.998V177.481L27.4998 177.264L37.6386 191.61V176.362L40.0686 176.146V195.663L37.6386 195.88L27.4998 181.52V196.782L25.0697 196.998ZM51.8359 195.023C49.9008 195.195 48.2583 194.912 46.9082 194.174C45.5582 193.436 44.5277 192.335 43.8166 190.871C43.1146 189.406 42.7636 187.671 42.7636 185.665C42.7636 183.659 43.1146 181.861 43.8166 180.272C44.5277 178.682 45.5582 177.397 46.9082 176.419C48.2583 175.44 49.9008 174.865 51.8359 174.693C53.7799 174.52 55.4269 174.802 56.777 175.541C58.127 176.279 59.153 177.38 59.8551 178.845C60.5571 180.309 60.9081 182.045 60.9081 184.051C60.9081 186.057 60.5571 187.854 59.8551 189.444C59.153 191.033 58.127 192.317 56.777 193.296C55.4269 194.274 53.7799 194.85 51.8359 195.023ZM51.8359 192.719C53.2849 192.599 54.4909 192.166 55.4539 191.421C56.426 190.666 57.1505 189.675 57.6275 188.449C58.1135 187.222 58.3565 185.832 58.3565 184.278C58.3565 182.714 58.1135 181.367 57.6275 180.236C57.1505 179.104 56.426 178.251 55.4539 177.678C54.4909 177.104 53.2849 176.877 51.8359 176.997C50.3868 177.117 49.1808 177.549 48.2178 178.294C47.2637 179.039 46.5437 180.025 46.0577 181.252C45.5717 182.479 45.3242 183.874 45.3152 185.438C45.3062 186.993 45.5447 188.336 46.0307 189.468C46.5167 190.599 47.2412 191.456 48.2043 192.039C49.1763 192.612 50.3868 192.839 51.8359 192.719ZM66.9467 193.272L61.3171 174.256L63.8282 174.032L68.1483 189.085L72.4549 173.278L74.9794 173.04L79.2996 188.093L83.6062 172.272L86.1307 172.048L80.5011 192.066L78.098 192.28L73.7239 177.367L69.3498 193.058L66.9467 193.272Z" fill="#A6AAAB"/>
<path d="M24.9096 160.518V141.001L37.1949 139.908V142.198L27.3126 143.077V149.19L35.5749 148.455V150.746L27.3126 151.481V158.014L37.1949 157.134V159.425L24.9096 160.518ZM39.0902 159.256L45.5974 139.16L48.9455 138.862L55.4526 157.8L52.9551 158.023L46.8664 140.457L47.6224 140.389L41.5878 159.034L39.0902 159.256ZM42.2223 154.41V152.146L52.3205 151.248V153.511L42.2223 154.41ZM57.8694 157.585V138.068L65.5511 137.385C65.7401 137.368 65.9651 137.357 66.2261 137.352C66.4871 137.337 66.7391 137.342 66.9821 137.366C68.0352 137.435 68.9172 137.718 69.6282 138.215C70.3482 138.711 70.8882 139.372 71.2482 140.198C71.6082 141.016 71.7883 141.944 71.7883 142.983C71.7883 144.492 71.3967 145.837 70.6137 147.018C69.8307 148.19 68.6832 148.983 67.1711 149.398L66.2531 149.629L60.2725 150.161V157.372L57.8694 157.585ZM69.4392 156.556L65.6051 148.955L67.9812 148.011L72.1933 156.311L69.4392 156.556ZM60.2725 147.87L65.4701 147.408C65.6411 147.393 65.8346 147.366 66.0506 147.329C66.2756 147.291 66.4871 147.241 66.6851 147.178C67.3061 146.978 67.8101 146.671 68.1972 146.257C68.5932 145.833 68.8812 145.356 69.0612 144.825C69.2412 144.285 69.3312 143.744 69.3312 143.202C69.3312 142.659 69.2412 142.139 69.0612 141.64C68.8812 141.132 68.5932 140.701 68.1972 140.348C67.8101 139.994 67.3061 139.777 66.6851 139.696C66.4871 139.66 66.2756 139.647 66.0506 139.658C65.8346 139.659 65.6411 139.667 65.4701 139.682L60.2725 140.145V147.87ZM75.1667 156.046V136.529L77.5968 136.313L87.7355 150.659V135.411L90.1656 135.195V154.712L87.7355 154.928L77.5968 140.569V155.83L75.1667 156.046ZM24.9096 197.518V178.001L27.3396 177.784L37.4784 192.13V176.882L39.9085 176.666V196.183L37.4784 196.4L27.3396 182.04V197.302L24.9096 197.518ZM51.6757 195.543C49.7406 195.715 48.0981 195.432 46.7481 194.694C45.398 193.956 44.3675 192.855 43.6565 191.391C42.9545 189.926 42.6035 188.191 42.6035 186.185C42.6035 184.179 42.9545 182.381 43.6565 180.792C44.3675 179.201 45.398 177.917 46.7481 176.939C48.0981 175.96 49.7406 175.385 51.6757 175.213C53.6197 175.04 55.2668 175.322 56.6168 176.06C57.9669 176.799 58.9929 177.9 59.6949 179.365C60.3969 180.829 60.7479 182.565 60.7479 184.571C60.7479 186.577 60.3969 188.374 59.6949 189.964C58.9929 191.553 57.9669 192.837 56.6168 193.816C55.2668 194.794 53.6197 195.37 51.6757 195.543ZM51.6757 193.239C53.1247 193.119 54.3308 192.686 55.2938 191.941C56.2658 191.186 56.9903 190.195 57.4673 188.969C57.9534 187.742 58.1964 186.352 58.1964 184.798C58.1964 183.234 57.9534 181.887 57.4673 180.756C56.9903 179.624 56.2658 178.771 55.2938 178.198C54.3308 177.624 53.1247 177.397 51.6757 177.517C50.2267 177.637 49.0206 178.069 48.0576 178.814C47.1036 179.559 46.3836 180.545 45.8975 181.772C45.4115 182.999 45.164 184.394 45.155 185.958C45.146 187.513 45.3845 188.856 45.8705 189.988C46.3566 191.119 47.0811 191.976 48.0441 192.559C49.0161 193.132 50.2267 193.359 51.6757 193.239ZM66.7866 193.792L61.1569 174.776L63.668 174.552L67.9881 189.605L72.2947 173.798L74.8193 173.56L79.1394 188.613L83.446 172.792L85.9706 172.568L80.3409 192.586L77.9379 192.8L73.5638 177.887L69.1896 193.578L66.7866 193.792Z" fill="white"/>
<path d="M99.3203 36.2927L114.26 0L121.86 3.00734L99.3203 36.2927Z" fill="url(#paint30_linear_1022_808)"/>
<path d="M102.891 40.3944L140.441 6.0058L153.601 11.5578L102.891 40.3944Z" fill="url(#paint31_linear_1022_808)"/>
<path d="M107.5 50.8222L150.55 55.8048L150.15 48.8381L107.5 50.8222Z" fill="url(#paint32_linear_1022_808)"/>
<path d="M104.439 44.941L158.599 36.4351L161.209 26.0073L104.439 44.941Z" fill="url(#paint33_linear_1022_808)"/>
<defs>
<linearGradient id="paint0_linear_1022_808" x1="72.6706" y1="136.084" x2="74.7355" y2="182.499" gradientUnits="userSpaceOnUse">
<stop stop-color="#FF559D"/>
<stop offset="1" stop-color="#F50B9A"/>
</linearGradient>
<linearGradient id="paint1_linear_1022_808" x1="39.42" y1="136.407" x2="126.69" y2="136.407" gradientUnits="userSpaceOnUse">
<stop stop-color="#89D5FF"/>
<stop offset="0.07" stop-color="#7ACEFC"/>
<stop offset="0.25" stop-color="#58BDF4"/>
<stop offset="0.43" stop-color="#3DB0EE"/>
<stop offset="0.61" stop-color="#2AA7EA"/>
<stop offset="0.8" stop-color="#1FA2E8"/>
<stop offset="1" stop-color="#1BA0E7"/>
</linearGradient>
<linearGradient id="paint2_linear_1022_808" x1="73.7906" y1="160.199" x2="75.0667" y2="178.844" gradientUnits="userSpaceOnUse">
<stop stop-color="#5F627B"/>
<stop offset="1" stop-color="white" stop-opacity="0"/>
</linearGradient>
<linearGradient id="paint3_linear_1022_808" x1="19.2693" y1="72.9235" x2="8.85861" y2="77.7564" gradientUnits="userSpaceOnUse">
<stop stop-color="#89D5FF"/>
<stop offset="0.07" stop-color="#7ACEFC"/>
<stop offset="0.25" stop-color="#58BDF4"/>
<stop offset="0.43" stop-color="#3DB0EE"/>
<stop offset="0.61" stop-color="#2AA7EA"/>
<stop offset="0.8" stop-color="#1FA2E8"/>
<stop offset="1" stop-color="#1BA0E7"/>
</linearGradient>
<radialGradient id="paint4_radial_1022_808" cx="0" cy="0" r="1" gradientUnits="userSpaceOnUse" gradientTransform="translate(20.8557 75.2074) rotate(159.879) scale(7.00301 25.0821)">
<stop stop-color="#11327D"/>
<stop offset="1" stop-color="white" stop-opacity="0"/>
</radialGradient>
<linearGradient id="paint5_linear_1022_808" x1="22.0186" y1="71.9126" x2="17.1987" y2="74.1501" gradientUnits="userSpaceOnUse">
<stop stop-color="#89D5FF"/>
<stop offset="0.07" stop-color="#7ACEFC"/>
<stop offset="0.25" stop-color="#58BDF4"/>
<stop offset="0.43" stop-color="#3DB0EE"/>
<stop offset="0.61" stop-color="#2AA7EA"/>
<stop offset="0.8" stop-color="#1FA2E8"/>
<stop offset="1" stop-color="#1BA0E7"/>
</linearGradient>
<linearGradient id="paint6_linear_1022_808" x1="35.8614" y1="89.469" x2="49.5508" y2="76.7137" gradientUnits="userSpaceOnUse">
<stop stop-color="#89D5FF"/>
<stop offset="0.07" stop-color="#7ACEFC"/>
<stop offset="0.25" stop-color="#58BDF4"/>
<stop offset="0.43" stop-color="#3DB0EE"/>
<stop offset="0.61" stop-color="#2AA7EA"/>
<stop offset="0.8" stop-color="#1FA2E8"/>
<stop offset="1" stop-color="#1BA0E7"/>
</linearGradient>
<linearGradient id="paint7_linear_1022_808" x1="28.0486" y1="98.3318" x2="37.1216" y2="87.1223" gradientUnits="userSpaceOnUse">
<stop stop-color="#89D5FF"/>
<stop offset="0.07" stop-color="#7ACEFC"/>
<stop offset="0.25" stop-color="#58BDF4"/>
<stop offset="0.43" stop-color="#3DB0EE"/>
<stop offset="0.61" stop-color="#2AA7EA"/>
<stop offset="0.8" stop-color="#1FA2E8"/>
<stop offset="1" stop-color="#1BA0E7"/>
</linearGradient>
<linearGradient id="paint8_linear_1022_808" x1="38.7023" y1="99.2159" x2="33.7121" y2="82.307" gradientUnits="userSpaceOnUse">
<stop stop-color="white" stop-opacity="0"/>
<stop offset="1" stop-color="#284A7F"/>
</linearGradient>
<linearGradient id="paint9_linear_1022_808" x1="24.1421" y1="61.5871" x2="26.4264" y2="77.0125" gradientUnits="userSpaceOnUse">
<stop stop-color="#89D5FF"/>
<stop offset="0.07" stop-color="#7ACEFC"/>
<stop offset="0.25" stop-color="#58BDF4"/>
<stop offset="0.43" stop-color="#3DB0EE"/>
<stop offset="0.61" stop-color="#2AA7EA"/>
<stop offset="0.8" stop-color="#1FA2E8"/>
<stop offset="1" stop-color="#1BA0E7"/>
</linearGradient>
<radialGradient id="paint10_radial_1022_808" cx="0" cy="0" r="1" gradientUnits="userSpaceOnUse" gradientTransform="translate(12.6496 62.1317) rotate(-156.017) scale(15.0687 20.9246)">
<stop stop-color="white"/>
<stop offset="1" stop-color="white" stop-opacity="0"/>
</radialGradient>
<linearGradient id="paint11_linear_1022_808" x1="34.1038" y1="67.5291" x2="28.008" y2="70.3589" gradientUnits="userSpaceOnUse">
<stop stop-color="#89D5FF"/>
<stop offset="0.07" stop-color="#7ACEFC"/>
<stop offset="0.25" stop-color="#58BDF4"/>
<stop offset="0.43" stop-color="#3DB0EE"/>
<stop offset="0.61" stop-color="#2AA7EA"/>
<stop offset="0.8" stop-color="#1FA2E8"/>
<stop offset="1" stop-color="#1BA0E7"/>
</linearGradient>
<radialGradient id="paint12_radial_1022_808" cx="0" cy="0" r="1" gradientUnits="userSpaceOnUse" gradientTransform="translate(34.4553 74.3157) rotate(150.143) scale(7.74222 30.7536)">
<stop stop-color="#7D597D"/>
<stop offset="1" stop-color="white" stop-opacity="0"/>
</radialGradient>
<linearGradient id="paint13_linear_1022_808" x1="85.9858" y1="48.3565" x2="16.6375" y2="80.5499" gradientUnits="userSpaceOnUse">
<stop stop-color="#89D5FF"/>
<stop offset="0.07" stop-color="#7ACEFC"/>
<stop offset="0.25" stop-color="#58BDF4"/>
<stop offset="0.43" stop-color="#3DB0EE"/>
<stop offset="0.61" stop-color="#2AA7EA"/>
<stop offset="0.8" stop-color="#1FA2E8"/>
<stop offset="1" stop-color="#1BA0E7"/>
</linearGradient>
<radialGradient id="paint14_radial_1022_808" cx="0" cy="0" r="1" gradientUnits="userSpaceOnUse" gradientTransform="translate(81.692 67.5241) rotate(159.879) scale(32.4622 87.5418)">
<stop stop-color="#11327D"/>
<stop offset="1" stop-color="white" stop-opacity="0"/>
</radialGradient>
<linearGradient id="paint15_linear_1022_808" x1="91.485" y1="46.3068" x2="68.9005" y2="56.7911" gradientUnits="userSpaceOnUse">
<stop stop-color="#89D5FF"/>
<stop offset="0.07" stop-color="#7ACEFC"/>
<stop offset="0.25" stop-color="#58BDF4"/>
<stop offset="0.43" stop-color="#3DB0EE"/>
<stop offset="0.61" stop-color="#2AA7EA"/>
<stop offset="0.8" stop-color="#1FA2E8"/>
<stop offset="1" stop-color="#1BA0E7"/>
</linearGradient>
<radialGradient id="paint16_radial_1022_808" cx="0" cy="0" r="1" gradientUnits="userSpaceOnUse" gradientTransform="translate(59.0622 48.253) rotate(158.518) scale(15.3899 53.215)">
<stop stop-color="white"/>
<stop offset="1" stop-color="white" stop-opacity="0"/>
</radialGradient>
<linearGradient id="paint17_linear_1022_808" x1="99.0387" y1="43.5309" x2="84.0651" y2="50.4821" gradientUnits="userSpaceOnUse">
<stop stop-color="#89D5FF"/>
<stop offset="0.07" stop-color="#7ACEFC"/>
<stop offset="0.25" stop-color="#58BDF4"/>
<stop offset="0.43" stop-color="#3DB0EE"/>
<stop offset="0.61" stop-color="#2AA7EA"/>
<stop offset="0.8" stop-color="#1FA2E8"/>
<stop offset="1" stop-color="#1BA0E7"/>
</linearGradient>
<radialGradient id="paint18_radial_1022_808" cx="0" cy="0" r="1" gradientUnits="userSpaceOnUse" gradientTransform="translate(92.2101 53.0469) rotate(159.879) scale(10.8123 48.3958)">
<stop offset="0.24" stop-color="#11327D"/>
<stop offset="1" stop-color="white" stop-opacity="0"/>
</radialGradient>
<radialGradient id="paint19_radial_1022_808" cx="0" cy="0" r="1" gradientUnits="userSpaceOnUse" gradientTransform="translate(90.1911 29.5597) rotate(-156.017) scale(32.2369 44.7646)">
<stop stop-color="white"/>
<stop offset="1" stop-color="white" stop-opacity="0"/>
</radialGradient>
<linearGradient id="paint20_linear_1022_808" x1="86.4575" y1="39.6193" x2="87.2287" y2="53.0611" gradientUnits="userSpaceOnUse">
<stop stop-color="#89D5FF"/>
<stop offset="0.07" stop-color="#7ACEFC"/>
<stop offset="0.25" stop-color="#58BDF4"/>
<stop offset="0.43" stop-color="#3DB0EE"/>
<stop offset="0.61" stop-color="#2AA7EA"/>
<stop offset="0.8" stop-color="#1FA2E8"/>
<stop offset="1" stop-color="#1BA0E7"/>
</linearGradient>
<linearGradient id="paint21_linear_1022_808" x1="93.0213" y1="45.1386" x2="88.8216" y2="47.0883" gradientUnits="userSpaceOnUse">
<stop stop-color="#89D5FF"/>
<stop offset="0.07" stop-color="#7ACEFC"/>
<stop offset="0.25" stop-color="#58BDF4"/>
<stop offset="0.43" stop-color="#3DB0EE"/>
<stop offset="0.61" stop-color="#2AA7EA"/>
<stop offset="0.8" stop-color="#1FA2E8"/>
<stop offset="1" stop-color="#1BA0E7"/>
</linearGradient>
<radialGradient id="paint22_radial_1022_808" cx="0" cy="0" r="1" gradientUnits="userSpaceOnUse" gradientTransform="translate(95.2918 41.2747) rotate(159.879) scale(5.45323 14.7058)">
<stop stop-color="white"/>
<stop offset="1" stop-color="white" stop-opacity="0"/>
</radialGradient>
<linearGradient id="paint23_linear_1022_808" x1="156.991" y1="96.0938" x2="158.34" y2="126.419" gradientUnits="userSpaceOnUse">
<stop stop-color="#89D5FF"/>
<stop offset="0.07" stop-color="#7ACEFC"/>
<stop offset="0.25" stop-color="#58BDF4"/>
<stop offset="0.43" stop-color="#3DB0EE"/>
<stop offset="0.61" stop-color="#2AA7EA"/>
<stop offset="0.8" stop-color="#1FA2E8"/>
<stop offset="1" stop-color="#1BA0E7"/>
</linearGradient>
<linearGradient id="paint24_linear_1022_808" x1="178.601" y1="115.213" x2="153.293" y2="109.691" gradientUnits="userSpaceOnUse">
<stop stop-color="white" stop-opacity="0"/>
<stop offset="1" stop-color="#284A7F"/>
</linearGradient>
<linearGradient id="paint25_linear_1022_808" x1="19.7391" y1="109.051" x2="21.8683" y2="156.913" gradientUnits="userSpaceOnUse">
<stop stop-color="#89D5FF"/>
<stop offset="0.07" stop-color="#7ACEFC"/>
<stop offset="0.25" stop-color="#58BDF4"/>
<stop offset="0.43" stop-color="#3DB0EE"/>
<stop offset="0.61" stop-color="#2AA7EA"/>
<stop offset="0.8" stop-color="#1FA2E8"/>
<stop offset="1" stop-color="#1BA0E7"/>
</linearGradient>
<linearGradient id="paint26_linear_1022_808" x1="25.3091" y1="135.108" x2="20.0421" y2="123.921" gradientUnits="userSpaceOnUse">
<stop stop-color="white" stop-opacity="0"/>
<stop offset="1" stop-color="#284A7F"/>
</linearGradient>
<linearGradient id="paint27_linear_1022_808" x1="78.9104" y1="80.936" x2="82.7632" y2="167.541" gradientUnits="userSpaceOnUse">
<stop stop-color="#FF559D"/>
<stop offset="1" stop-color="#F50B9A"/>
</linearGradient>
<linearGradient id="paint28_linear_1022_808" x1="79.1793" y1="118.418" x2="79.7647" y2="131.578" gradientUnits="userSpaceOnUse">
<stop stop-color="#5F627B"/>
<stop offset="1" stop-color="white" stop-opacity="0"/>
</linearGradient>
<linearGradient id="paint29_linear_1022_808" x1="79.24" y1="89.9078" x2="80.8648" y2="126.431" gradientUnits="userSpaceOnUse">
<stop stop-color="#89D5FF"/>
<stop offset="0.07" stop-color="#7ACEFC"/>
<stop offset="0.25" stop-color="#58BDF4"/>
<stop offset="0.43" stop-color="#3DB0EE"/>
<stop offset="0.61" stop-color="#2AA7EA"/>
<stop offset="0.8" stop-color="#1FA2E8"/>
<stop offset="1" stop-color="#1BA0E7"/>
</linearGradient>
<linearGradient id="paint30_linear_1022_808" x1="99.3203" y1="18.1419" x2="121.86" y2="18.1419" gradientUnits="userSpaceOnUse">
<stop stop-color="#FF559D"/>
<stop offset="1" stop-color="#F50B9A"/>
</linearGradient>
<linearGradient id="paint31_linear_1022_808" x1="102.891" y1="23.2046" x2="153.601" y2="23.2046" gradientUnits="userSpaceOnUse">
<stop stop-color="#FF559D"/>
<stop offset="1" stop-color="#F50B9A"/>
</linearGradient>
<linearGradient id="paint32_linear_1022_808" x1="107.5" y1="52.317" x2="150.55" y2="52.317" gradientUnits="userSpaceOnUse">
<stop stop-color="#FF559D"/>
<stop offset="1" stop-color="#F50B9A"/>
</linearGradient>
<linearGradient id="paint33_linear_1022_808" x1="104.439" y1="35.4741" x2="161.209" y2="35.4741" gradientUnits="userSpaceOnUse">
<stop stop-color="#FF559D"/>
<stop offset="1" stop-color="#F50B9A"/>
</linearGradient>
</defs>
</svg>
