<svg width="174" height="192" viewBox="0 0 174 192" fill="none" xmlns="http://www.w3.org/2000/svg">
<path d="M15.1406 160.661L124.741 180.458L130.201 133.711L15.1406 160.661Z" fill="url(#paint0_linear_1022_808)"/>
<path d="M114.54 190.334L40.5 175.502L49.54 82.4437L125.6 94.7845L114.54 190.334Z" stroke="url(#paint1_linear_1022_808)" stroke-width="2" stroke-miterlimit="10"/>
<path style="mix-blend-mode:multiply" d="M15.1406 160.661L124.741 180.458L130.201 133.711L15.1406 160.661Z" fill="url(#paint2_linear_1022_808)"/>
<path d="M8.21088 70.3699L16.8009 65.1115L24.6209 82.2302L14.3309 83.7784C13.3809 83.7339 11.4309 80.9668 9.89088 77.5501C8.35088 74.1335 7.57088 71.055 8.21088 70.3699Z" fill="url(#paint3_linear_1022_808)"/>
<path style="mix-blend-mode:multiply" d="M8.21088 70.3699L16.8009 65.1115L24.6209 82.2302L14.3309 83.7784C13.3809 83.7339 11.4309 80.9668 9.89088 77.5501C8.35088 74.1335 7.57088 71.055 8.21088 70.3699Z" fill="url(#paint4_radial_1022_808)"/>
<path d="M18.5094 74.4894C20.4294 78.7068 23.0894 82.1679 24.6194 82.2302C26.3694 82.3103 25.9894 78.0128 23.5294 72.621C21.0694 67.2291 17.9794 63.946 16.7994 65.1115C15.7694 66.1347 16.5894 70.281 18.5094 74.4894Z" fill="url(#paint5_linear_1022_808)"/>
<path d="M47.6501 97.2758L46.1501 99.3311C38.5701 90.6561 30.5601 91.9462 25.5801 79.7567C27.6701 79.4809 33.5801 77.6391 35.6601 77.3722C39.3301 86.3497 42.0201 90.8785 47.6501 97.2758Z" fill="url(#paint6_linear_1022_808)"/>
<path d="M46.1501 99.3311L39.6801 107.339C32.1001 98.6727 29.0601 93.9926 24.0801 81.7676C26.1701 81.4917 32.0801 79.65 34.1601 79.3741C37.8301 88.4051 40.5501 92.9339 46.1501 99.3311Z" fill="url(#paint7_linear_1022_808)"/>
<path style="mix-blend-mode:multiply" d="M46.1501 99.3311C46.1501 99.3311 39.7401 107.606 39.6801 107.339C32.1001 98.6727 29.0601 93.9926 24.0801 81.7676C26.1701 81.4917 32.0801 79.65 34.1601 79.3741C37.8301 88.4051 40.5501 92.9339 46.1501 99.3311Z" fill="url(#paint8_linear_1022_808)"/>
<path d="M15.3706 62.5313L27.3706 58.1715L37.6106 80.6198L25.6106 84.9795C23.8506 85.629 20.1406 81.1358 17.3106 74.9343C14.4806 68.7328 13.6206 63.1808 15.3706 62.5313Z" fill="url(#paint9_linear_1022_808)"/>
<path style="mix-blend-mode:overlay" d="M15.3706 62.5313L27.3706 58.1715L37.6106 80.6198L25.6106 84.9795C23.8506 85.629 20.1406 81.1358 17.3106 74.9343C14.4806 68.7328 13.6206 63.1808 15.3706 62.5313Z" fill="url(#paint10_radial_1022_808)"/>
<path d="M29.3106 70.5745C32.1406 76.8027 35.8606 81.2515 37.6106 80.6197C39.3606 79.988 38.4906 74.3915 35.6606 68.1633C32.8306 61.9351 29.1206 57.4864 27.3706 58.127C25.6206 58.7676 26.4806 64.3819 29.3106 70.5745Z" fill="url(#paint11_linear_1022_808)"/>
<path style="mix-blend-mode:multiply" d="M29.3106 70.5745C32.1406 76.8027 35.8606 81.2515 37.6106 80.6197C39.3606 79.988 38.4906 74.3915 35.6606 68.1633C32.8306 61.9351 29.1206 57.4864 27.3706 58.127C25.6206 58.7676 26.4806 64.3819 29.3106 70.5745Z" fill="url(#paint12_radial_1022_808)"/>
<path d="M29.8596 59.5417L75.0796 21.6208L100.08 76.3935L38.3296 78.1196C38.3296 78.1196 35.8196 78.3064 31.6196 69.1154C27.8796 60.8941 29.8596 59.5417 29.8596 59.5417Z" fill="url(#paint13_linear_1022_808)"/>
<path style="mix-blend-mode:multiply" d="M29.8596 59.5417L75.0796 21.6208L100.08 76.3935L38.3296 78.1196C38.3296 78.1196 35.8196 78.3064 31.6196 69.1154C27.8796 60.8941 29.8596 59.5417 29.8596 59.5417Z" fill="url(#paint14_radial_1022_808)"/>
<path d="M63.1794 21.1581L78.6994 15.446L107.469 78.4666L91.9594 84.1788C87.6494 85.7803 77.7194 72.9769 69.7694 55.5735C61.8194 38.1701 58.8794 22.7597 63.1794 21.1581Z" fill="url(#paint15_linear_1022_808)"/>
<path style="mix-blend-mode:overlay" d="M63.1794 21.1581L78.6994 15.446L107.469 78.4666L91.9594 84.1788C87.6494 85.7803 77.7194 72.9769 69.7694 55.5735C61.8194 38.1701 58.8794 22.7597 63.1794 21.1581Z" fill="url(#paint16_radial_1022_808)"/>
<path d="M85.2899 49.8613C93.2899 67.2647 103.17 80.0681 107.47 78.4666C111.77 76.865 108.83 61.4546 100.88 44.0512C92.9299 26.6478 83.0199 13.8444 78.6999 15.4459C74.3799 17.0475 77.3499 32.4579 85.2899 49.8613Z" fill="url(#paint17_linear_1022_808)"/>
<path style="mix-blend-mode:multiply" d="M85.2899 49.8613C93.2899 67.2647 103.17 80.0681 107.47 78.4666C111.77 76.865 108.83 61.4546 100.88 44.0512C92.9299 26.6478 83.0199 13.8444 78.6999 15.4459C74.3799 17.0475 77.3499 32.4579 85.2899 49.8613Z" fill="url(#paint18_radial_1022_808)"/>
<path style="mix-blend-mode:overlay" d="M100.73 45.7684C92.7805 28.3472 82.8505 15.5616 78.5505 17.1632C77.5505 17.5191 77.0005 18.5512 76.7305 20.126C76.8005 17.5813 77.4405 15.9175 78.7305 15.4459C83.0305 13.8444 92.9705 26.6478 100.91 44.0512C107.1 57.6021 110.26 69.9428 109.32 75.5037C109.46 69.3645 106.34 58.0647 100.73 45.7684Z" fill="url(#paint19_radial_1022_808)"/>
<mask id="mask0_1022_808" style="mask-type:luminance" maskUnits="userSpaceOnUse" x="76" y="15" width="34" height="64">
<path d="M85.2899 49.8613C93.2899 67.2647 103.17 80.0681 107.47 78.4666C111.77 76.865 108.83 61.4546 100.88 44.0512C92.9299 26.6478 83.0199 13.8444 78.6999 15.4459C74.3799 17.0475 77.3499 32.4579 85.2899 49.8613Z" fill="white"/>
</mask>
<g mask="url(#mask0_1022_808)">
<path d="M79.02 39.478L89.21 38.4459L96.51 54.4613L88.51 60.3247C86.66 61.855 82.56 57.9758 79.59 51.4272C76.62 44.8787 76.52 39.5669 79.02 39.478Z" fill="url(#paint20_linear_1022_808)"/>
<path d="M90.4695 47.3256C92.6795 52.1747 95.4695 55.3333 96.4695 54.4436C97.4695 53.5538 96.6595 49.7635 94.8095 45.7152C92.9595 41.6669 90.4895 38.4104 89.1695 38.4638C87.8495 38.5172 88.2595 42.4765 90.4695 47.3256Z" fill="url(#paint21_linear_1022_808)"/>
<path style="mix-blend-mode:overlay" d="M90.4695 47.3256C92.6795 52.1747 95.4695 55.3333 96.4695 54.4436C97.4695 53.5538 96.6595 49.7635 94.8095 45.7152C92.9595 41.6669 90.4895 38.4104 89.1695 38.4638C87.8495 38.5172 88.2595 42.4765 90.4695 47.3256Z" fill="url(#paint22_radial_1022_808)"/>
</g>
<path d="M144.821 98.8328L173.761 95.5497L166.331 110.907L173.761 125.543L140.221 127.411L144.821 98.8328Z" fill="url(#paint23_linear_1022_808)"/>
<path style="mix-blend-mode:multiply" d="M144.821 98.8328L173.761 95.5497L166.331 110.907L173.761 125.543L140.221 127.411L144.821 98.8328Z" fill="url(#paint24_linear_1022_808)"/>
<path d="M1.53906 130.09L37.9391 156.346L30.3991 108.709L1.53906 130.09Z" fill="url(#paint25_linear_1022_808)"/>
<path style="mix-blend-mode:multiply" d="M1.53906 130.09L37.9391 156.346L30.3991 108.709L1.53906 130.09Z" fill="url(#paint26_linear_1022_808)"/>
<path d="M15.1404 160.661L139.85 165.181L151.17 77.9149L6.65039 95.7454L15.1404 160.661Z" fill="url(#paint27_linear_1022_808)"/>
<path style="mix-blend-mode:multiply" d="M13.9693 135.544L144.269 130.792L146.569 111.939L11.7793 122.5L13.9693 135.544Z" fill="url(#paint28_linear_1022_808)"/>
<path d="M154.88 116.29L1.53998 130.09L0 102.757L158.47 86.5811L154.88 116.29Z" fill="url(#paint29_linear_1022_808)"/>
<path d="M11.9064 119.694V110.334L17.7981 109.81V110.909L13.0589 111.33V114.262L17.0212 113.909V115.008L13.0589 115.36V118.493L17.7981 118.072V119.17L11.9064 119.694ZM21.3422 119.05C20.8199 119.096 20.3818 119.04 20.0279 118.881C19.6783 118.717 19.4128 118.485 19.2315 118.185C19.0546 117.884 18.9661 117.545 18.9661 117.168C18.9661 116.8 19.0351 116.475 19.1733 116.194C19.3157 115.909 19.5142 115.666 19.7689 115.465C20.0236 115.261 20.3279 115.09 20.6818 114.955C21.0141 114.834 21.3853 114.723 21.7954 114.622C22.2098 114.516 22.6284 114.416 23.0514 114.322C23.4744 114.228 23.8694 114.138 24.2363 114.054L23.8219 114.331C23.8348 113.706 23.7097 113.256 23.4464 112.98C23.1874 112.704 22.7385 112.594 22.0997 112.651C21.6767 112.689 21.3055 112.819 20.9861 113.043C20.671 113.262 20.4487 113.593 20.3192 114.038L19.225 113.804C19.3934 113.174 19.7193 112.662 20.2027 112.268C20.6861 111.874 21.3228 111.641 22.1126 111.571C22.7471 111.515 23.291 111.581 23.7442 111.77C24.2017 111.955 24.5298 112.268 24.7283 112.71C24.8276 112.918 24.8902 113.148 24.9161 113.402C24.942 113.651 24.9549 113.914 24.9549 114.191V118.533L23.932 118.624V116.941L24.1715 117.075C23.9082 117.667 23.5392 118.128 23.0644 118.461C22.5939 118.793 22.0198 118.989 21.3422 119.05ZM21.517 118.066C21.9314 118.029 22.2896 117.923 22.5917 117.749C22.8982 117.57 23.1442 117.351 23.3298 117.092C23.5154 116.828 23.6363 116.549 23.6924 116.254C23.7571 116.031 23.7917 115.788 23.796 115.523C23.8046 115.253 23.8089 115.047 23.8089 114.904L24.2104 115.044C23.8348 115.129 23.4658 115.212 23.1032 115.292C22.7407 115.372 22.3975 115.454 22.0738 115.54C21.7501 115.62 21.4587 115.709 21.1997 115.806C21.0098 115.883 20.8307 115.977 20.6624 116.088C20.4984 116.198 20.3645 116.333 20.261 116.494C20.1617 116.65 20.112 116.839 20.112 117.06C20.112 117.25 20.1595 117.428 20.2545 117.593C20.3538 117.757 20.5048 117.885 20.7077 117.975C20.9149 118.065 21.1846 118.095 21.517 118.066ZM26.6383 118.383V111.363L27.6677 111.272V112.968L27.4994 112.762C27.5814 112.538 27.6871 112.33 27.8166 112.136C27.9504 111.942 28.0993 111.779 28.2633 111.648C28.4446 111.484 28.6496 111.354 28.8784 111.255C29.1072 111.157 29.3403 111.091 29.5777 111.056C29.815 111.018 30.0373 111.013 30.2445 111.043V112.128C30.0028 112.085 29.7374 112.091 29.4482 112.147C29.159 112.203 28.8914 112.333 28.6453 112.537C28.4209 112.717 28.2461 112.928 28.1209 113.169C28 113.409 27.9159 113.666 27.8684 113.939C27.8209 114.207 27.7972 114.48 27.7972 114.757V118.28L26.6383 118.383ZM36.4476 117.511V113.994C36.4476 113.661 36.4174 113.343 36.357 113.04C36.3009 112.738 36.1994 112.471 36.0527 112.242C35.9102 112.008 35.716 111.83 35.47 111.709C35.2283 111.587 34.9218 111.543 34.5506 111.576C34.2614 111.602 33.9981 111.675 33.7607 111.796C33.5277 111.912 33.3269 112.077 33.1586 112.291C32.9903 112.506 32.8586 112.769 32.7637 113.08C32.673 113.388 32.6277 113.745 32.6277 114.152L31.8702 113.985C31.8702 113.305 31.9911 112.712 32.2328 112.205C32.4788 111.693 32.8219 111.288 33.2622 110.989C33.7068 110.685 34.2291 110.506 34.829 110.453C35.2822 110.412 35.6685 110.45 35.9879 110.564C36.3073 110.679 36.5728 110.846 36.7843 111.065C36.9958 111.28 37.162 111.53 37.2828 111.814C37.4037 112.093 37.4878 112.383 37.5353 112.682C37.5871 112.976 37.613 113.258 37.613 113.527V117.407L36.4476 117.511ZM31.4623 117.954V110.934L32.4982 110.842V112.721L32.6277 112.709V117.851L31.4623 117.954ZM39.4258 108.984V107.788L40.5782 107.686V108.882L39.4258 108.984ZM39.4258 117.246V110.226L40.5782 110.123V117.143L39.4258 117.246ZM47.4997 116.527V113.011C47.4997 112.677 47.4694 112.359 47.409 112.057C47.3529 111.754 47.2515 111.488 47.1047 111.259C46.9623 111.024 46.7681 110.846 46.522 110.725C46.2803 110.604 45.9739 110.56 45.6027 110.593C45.3135 110.618 45.0502 110.692 44.8128 110.812C44.5797 110.928 44.379 111.094 44.2107 111.308C44.0423 111.522 43.9107 111.785 43.8157 112.097C43.7251 112.404 43.6798 112.761 43.6798 113.169L42.9222 113.002C42.9222 112.322 43.0431 111.728 43.2848 111.221C43.5308 110.71 43.874 110.304 44.3142 110.005C44.7588 109.701 45.2811 109.523 45.8811 109.469C46.3343 109.429 46.7206 109.466 47.04 109.581C47.3594 109.695 47.6248 109.862 47.8363 110.082C48.0478 110.297 48.214 110.547 48.3349 110.831C48.4557 111.11 48.5399 111.399 48.5874 111.699C48.6392 111.993 48.6651 112.275 48.6651 112.543V116.424L47.4997 116.527ZM42.5144 116.971V109.951L43.5503 109.859V111.737L43.6798 111.726V116.867L42.5144 116.971ZM53.1776 119.337C52.8107 119.37 52.4525 119.345 52.1029 119.264C51.7533 119.182 51.4317 119.04 51.1382 118.836C50.849 118.637 50.6073 118.372 50.4131 118.043L51.4684 117.39C51.641 117.717 51.8849 117.944 52.2 118.072C52.5194 118.2 52.8474 118.249 53.1841 118.219C53.6287 118.179 53.9977 118.064 54.2912 117.873C54.5847 117.687 54.8006 117.427 54.9387 117.094C55.0811 116.761 55.1502 116.356 55.1459 115.88V113.962L55.2818 113.95V108.815L56.3048 108.724V115.789C56.3048 115.98 56.2983 116.165 56.2854 116.344C56.2767 116.522 56.2551 116.7 56.2206 116.876C56.13 117.382 55.9508 117.808 55.6832 118.152C55.4156 118.501 55.0703 118.772 54.6473 118.966C54.2243 119.164 53.7344 119.288 53.1776 119.337ZM53.0935 116.225C52.4417 116.283 51.8827 116.17 51.4166 115.886C50.9504 115.599 50.59 115.186 50.3354 114.65C50.085 114.113 49.9598 113.494 49.9598 112.792C49.9598 112.09 50.085 111.448 50.3354 110.867C50.59 110.285 50.9504 109.814 51.4166 109.451C51.8827 109.085 52.4395 108.873 53.087 108.815C53.7474 108.756 54.302 108.867 54.7509 109.148C55.1998 109.429 55.5386 109.839 55.7674 110.377C56.0005 110.916 56.117 111.538 56.117 112.244C56.117 112.942 56.0005 113.583 55.7674 114.167C55.5386 114.746 55.1998 115.22 54.7509 115.59C54.302 115.955 53.7495 116.166 53.0935 116.225ZM53.2359 115.152C53.7064 115.111 54.0927 114.964 54.3948 114.711C54.697 114.455 54.9193 114.121 55.0617 113.71C55.2084 113.293 55.2818 112.83 55.2818 112.318C55.2818 111.798 55.2084 111.348 55.0617 110.967C54.9193 110.581 54.6991 110.29 54.4013 110.096C54.1035 109.897 53.7258 109.818 53.2683 109.859C52.7935 109.901 52.4007 110.053 52.0899 110.314C51.7835 110.576 51.5547 110.912 51.4036 111.325C51.2569 111.736 51.1835 112.189 51.1835 112.683C51.1835 113.181 51.259 113.625 51.4101 114.015C51.5612 114.4 51.7878 114.696 52.0899 114.903C52.3964 115.11 52.7784 115.193 53.2359 115.152ZM64.5377 115.206C63.6097 115.289 62.822 115.153 62.1746 114.799C61.5271 114.445 61.0329 113.917 60.6919 113.215C60.3552 112.513 60.1869 111.681 60.1869 110.719C60.1869 109.757 60.3552 108.894 60.6919 108.132C61.0329 107.369 61.5271 106.753 62.1746 106.284C62.822 105.815 63.6097 105.539 64.5377 105.456C65.6168 105.36 66.5038 105.557 67.1987 106.045C67.8979 106.533 68.3792 107.231 68.6425 108.14L67.4706 108.556C67.2807 107.875 66.9419 107.355 66.4541 106.995C65.9664 106.636 65.3276 106.491 64.5377 106.561C63.8428 106.623 63.2644 106.833 62.8026 107.19C62.3407 107.548 61.9933 108.021 61.7602 108.609C61.5271 109.193 61.4084 109.86 61.4041 110.61C61.3998 111.356 61.5142 112.002 61.7472 112.549C61.9803 113.092 62.3299 113.503 62.7961 113.782C63.2623 114.057 63.8428 114.163 64.5377 114.101C65.3276 114.031 65.9664 113.773 66.4541 113.326C66.9419 112.876 67.2807 112.295 67.4706 111.585L68.6425 111.793C68.3792 112.743 67.8979 113.527 67.1987 114.144C66.5038 114.756 65.6168 115.11 64.5377 115.206ZM73.0407 114.45C72.3457 114.512 71.7458 114.407 71.2408 114.136C70.7401 113.864 70.3538 113.46 70.0818 112.926C69.8099 112.391 69.674 111.762 69.674 111.038C69.674 110.301 69.8121 109.643 70.0883 109.064C70.3646 108.485 70.7552 108.019 71.2602 107.666C71.7652 107.309 72.3587 107.101 73.0407 107.04C73.7399 106.978 74.342 107.082 74.847 107.354C75.352 107.621 75.7383 108.022 76.0059 108.557C76.2779 109.088 76.4138 109.715 76.4138 110.438C76.4138 111.171 76.2779 111.828 76.0059 112.412C75.734 112.99 75.3456 113.46 74.8405 113.822C74.3355 114.179 73.7356 114.388 73.0407 114.45ZM73.0407 113.351C73.7658 113.287 74.3053 112.996 74.6593 112.479C75.0132 111.963 75.1902 111.318 75.1902 110.547C75.1902 109.754 75.011 109.14 74.6528 108.703C74.2945 108.263 73.7572 108.075 73.0407 108.138C72.5529 108.182 72.1515 108.328 71.8364 108.577C71.5213 108.826 71.2861 109.152 71.1307 109.556C70.9753 109.96 70.8976 110.418 70.8976 110.929C70.8976 111.718 71.0789 112.334 71.4415 112.779C71.804 113.223 72.3371 113.414 73.0407 113.351ZM86.1978 113.084L86.2043 108.592C86.2043 108.068 86.064 107.671 85.7834 107.401C85.5072 107.127 85.1468 107.009 84.7022 107.049C84.4432 107.072 84.1972 107.154 83.9641 107.296C83.731 107.434 83.5411 107.637 83.3944 107.906C83.2476 108.171 83.1742 108.5 83.1742 108.894L82.5656 108.701C82.557 108.204 82.6584 107.759 82.8699 107.368C83.0858 106.972 83.3793 106.653 83.7505 106.412C84.1217 106.171 84.5403 106.03 85.0065 105.988C85.736 105.923 86.31 106.095 86.7287 106.504C87.1474 106.909 87.3567 107.486 87.3567 108.236L87.3502 112.982L86.1978 113.084ZM77.8328 113.828V106.808L78.8623 106.717V108.595L78.9918 108.584V113.725L77.8328 113.828ZM82.0218 113.456L82.0283 109.009C82.0283 108.472 81.8901 108.064 81.6139 107.785C81.3377 107.502 80.9708 107.381 80.5133 107.421C80.06 107.462 79.6932 107.65 79.4126 107.987C79.132 108.324 78.9918 108.751 78.9918 109.266L78.3832 108.957C78.3832 108.502 78.4911 108.085 78.7069 107.706C78.9227 107.327 79.2162 107.019 79.5874 106.782C79.9586 106.541 80.3794 106.4 80.8499 106.358C81.3204 106.316 81.7304 106.379 82.0801 106.548C82.4297 106.716 82.6995 106.978 82.8894 107.334C83.0793 107.685 83.1742 108.116 83.1742 108.628L83.1678 113.354L82.0218 113.456ZM97.4016 112.087L97.4081 107.595C97.4081 107.071 97.2678 106.674 96.9872 106.404C96.711 106.13 96.3506 106.012 95.906 106.052C95.647 106.075 95.401 106.158 95.1679 106.3C94.9348 106.437 94.7449 106.641 94.5982 106.909C94.4514 107.174 94.378 107.503 94.378 107.897L93.7694 107.705C93.7608 107.207 93.8622 106.762 94.0737 106.371C94.2895 105.975 94.5831 105.656 94.9543 105.415C95.3255 105.174 95.7441 105.033 96.2103 104.991C96.9397 104.926 97.5138 105.099 97.9325 105.508C98.3512 105.912 98.5605 106.49 98.5605 107.239L98.554 111.985L97.4016 112.087ZM89.0366 112.832V105.812L90.0661 105.72V107.599L90.1956 107.587V112.729L89.0366 112.832ZM93.2256 112.459L93.2321 108.012C93.2321 107.475 93.0939 107.067 92.8177 106.788C92.5415 106.505 92.1746 106.384 91.717 106.425C91.2638 106.465 90.8969 106.654 90.6164 106.991C90.3358 107.328 90.1956 107.754 90.1956 108.27L89.587 107.96C89.587 107.505 89.6949 107.088 89.9107 106.709C90.1265 106.33 90.42 106.022 90.7912 105.786C91.1624 105.544 91.5832 105.403 92.0537 105.361C92.5242 105.319 92.9342 105.383 93.2839 105.551C93.6335 105.719 93.9032 105.981 94.0932 106.337C94.2831 106.688 94.378 107.12 94.378 107.631L94.3716 112.357L93.2256 112.459ZM102.901 111.78C102.453 111.82 102.066 111.783 101.742 111.669C101.423 111.554 101.158 111.387 100.946 111.167C100.735 110.948 100.568 110.698 100.448 110.419C100.327 110.139 100.24 109.85 100.189 109.551C100.141 109.252 100.117 108.971 100.117 108.706V104.826L101.283 104.722V108.239C101.283 108.568 101.313 108.884 101.373 109.186C101.434 109.488 101.535 109.757 101.678 109.991C101.824 110.225 102.019 110.403 102.26 110.524C102.506 110.645 102.813 110.689 103.18 110.657C103.469 110.631 103.732 110.558 103.97 110.437C104.207 110.316 104.41 110.151 104.578 109.941C104.747 109.727 104.876 109.464 104.967 109.152C105.057 108.841 105.103 108.484 105.103 108.081L105.86 108.247C105.86 108.923 105.737 109.517 105.491 110.029C105.249 110.54 104.906 110.947 104.462 111.251C104.021 111.55 103.501 111.727 102.901 111.78ZM105.232 111.391V109.512L105.103 109.524V104.382L106.262 104.279V111.299L105.232 111.391ZM113.053 110.695V107.178C113.053 106.845 113.023 106.527 112.963 106.224C112.906 105.922 112.805 105.656 112.658 105.426C112.516 105.192 112.322 105.014 112.076 104.893C111.834 104.771 111.527 104.727 111.156 104.76C110.867 104.786 110.604 104.859 110.366 104.98C110.133 105.096 109.933 105.261 109.764 105.475C109.596 105.69 109.464 105.953 109.369 106.265C109.279 106.572 109.233 106.929 109.233 107.336L108.476 107.17C108.476 106.489 108.597 105.896 108.838 105.389C109.084 104.877 109.428 104.472 109.868 104.173C110.312 103.869 110.835 103.69 111.435 103.637C111.888 103.596 112.274 103.634 112.594 103.748C112.913 103.863 113.178 104.03 113.39 104.249C113.601 104.465 113.768 104.714 113.888 104.998C114.009 105.278 114.093 105.567 114.141 105.866C114.193 106.16 114.219 106.442 114.219 106.711V110.591L113.053 110.695ZM108.068 111.138V104.118L109.104 104.026V105.905L109.233 105.893V111.035L108.068 111.138ZM116.031 102.168V100.972L117.184 100.87V102.066L116.031 102.168ZM116.031 110.43V103.41L117.184 103.307V110.327L116.031 110.43ZM123.03 109.807C122.616 109.926 122.206 109.995 121.8 110.014C121.399 110.037 121.041 109.988 120.726 109.869C120.411 109.745 120.171 109.533 120.007 109.231C119.869 108.966 119.793 108.693 119.78 108.413C119.772 108.127 119.767 107.805 119.767 107.445V101.127L120.92 101.025V107.291C120.92 107.577 120.922 107.821 120.926 108.025C120.935 108.228 120.98 108.399 121.062 108.539C121.218 108.803 121.464 108.943 121.8 108.961C122.141 108.978 122.551 108.929 123.03 108.813V109.807ZM118.349 104.159V103.204L123.03 102.787V103.743L118.349 104.159ZM125.232 112.731L126.585 108.919L126.604 110.009L123.548 102.741L124.759 102.633L127.154 108.485L126.74 108.521L128.987 102.257L130.159 102.153L126.352 112.632L125.232 112.731Z" fill="#C6D4E8"/>
<path d="M11.9064 119.694V110.334L17.7981 109.81V110.909L13.0589 111.33V114.262L17.0212 113.909V115.008L13.0589 115.36V118.493L17.7981 118.072V119.17L11.9064 119.694ZM21.3422 119.05C20.8199 119.096 20.3818 119.04 20.0279 118.881C19.6783 118.717 19.4128 118.485 19.2315 118.185C19.0546 117.884 18.9661 117.545 18.9661 117.168C18.9661 116.8 19.0351 116.475 19.1733 116.194C19.3157 115.909 19.5142 115.666 19.7689 115.465C20.0236 115.261 20.3279 115.09 20.6818 114.955C21.0141 114.834 21.3853 114.723 21.7954 114.622C22.2098 114.516 22.6284 114.416 23.0514 114.322C23.4744 114.228 23.8694 114.138 24.2363 114.054L23.8219 114.331C23.8348 113.706 23.7097 113.256 23.4464 112.98C23.1874 112.704 22.7385 112.594 22.0997 112.651C21.6767 112.689 21.3055 112.819 20.9861 113.043C20.671 113.262 20.4487 113.593 20.3192 114.038L19.225 113.804C19.3934 113.174 19.7193 112.662 20.2027 112.268C20.6861 111.874 21.3228 111.641 22.1126 111.571C22.7471 111.515 23.291 111.581 23.7442 111.77C24.2017 111.955 24.5298 112.268 24.7283 112.71C24.8276 112.918 24.8902 113.148 24.9161 113.402C24.942 113.651 24.9549 113.914 24.9549 114.191V118.533L23.932 118.624V116.941L24.1715 117.075C23.9082 117.667 23.5392 118.128 23.0644 118.461C22.5939 118.793 22.0198 118.989 21.3422 119.05ZM21.517 118.066C21.9314 118.029 22.2896 117.923 22.5917 117.749C22.8982 117.57 23.1442 117.351 23.3298 117.092C23.5154 116.828 23.6363 116.549 23.6924 116.254C23.7571 116.031 23.7917 115.788 23.796 115.523C23.8046 115.253 23.8089 115.047 23.8089 114.904L24.2104 115.044C23.8348 115.129 23.4658 115.212 23.1032 115.292C22.7407 115.372 22.3975 115.454 22.0738 115.54C21.7501 115.62 21.4587 115.709 21.1997 115.806C21.0098 115.883 20.8307 115.977 20.6624 116.088C20.4984 116.198 20.3645 116.333 20.261 116.494C20.1617 116.65 20.112 116.839 20.112 117.06C20.112 117.25 20.1595 117.428 20.2545 117.593C20.3538 117.757 20.5048 117.885 20.7077 117.975C20.9149 118.065 21.1846 118.095 21.517 118.066ZM26.6383 118.383V111.363L27.6677 111.272V112.968L27.4994 112.762C27.5814 112.538 27.6871 112.33 27.8166 112.136C27.9504 111.942 28.0993 111.779 28.2633 111.648C28.4446 111.484 28.6496 111.354 28.8784 111.255C29.1072 111.157 29.3403 111.091 29.5777 111.056C29.815 111.018 30.0373 111.013 30.2445 111.043V112.128C30.0028 112.085 29.7374 112.091 29.4482 112.147C29.159 112.203 28.8914 112.333 28.6453 112.537C28.4209 112.717 28.2461 112.928 28.1209 113.169C28 113.409 27.9159 113.666 27.8684 113.939C27.8209 114.207 27.7972 114.48 27.7972 114.757V118.28L26.6383 118.383ZM36.4476 117.511V113.994C36.4476 113.661 36.4174 113.343 36.357 113.04C36.3009 112.738 36.1994 112.471 36.0527 112.242C35.9102 112.008 35.716 111.83 35.47 111.709C35.2283 111.587 34.9218 111.543 34.5506 111.576C34.2614 111.602 33.9981 111.675 33.7607 111.796C33.5277 111.912 33.3269 112.077 33.1586 112.291C32.9903 112.506 32.8586 112.769 32.7637 113.08C32.673 113.388 32.6277 113.745 32.6277 114.152L31.8702 113.985C31.8702 113.305 31.9911 112.712 32.2328 112.205C32.4788 111.693 32.8219 111.288 33.2622 110.989C33.7068 110.685 34.2291 110.506 34.829 110.453C35.2822 110.412 35.6685 110.45 35.9879 110.564C36.3073 110.679 36.5728 110.846 36.7843 111.065C36.9958 111.28 37.162 111.53 37.2828 111.814C37.4037 112.093 37.4878 112.383 37.5353 112.682C37.5871 112.976 37.613 113.258 37.613 113.527V117.407L36.4476 117.511ZM31.4623 117.954V110.934L32.4982 110.842V112.721L32.6277 112.709V117.851L31.4623 117.954ZM39.4258 108.984V107.788L40.5782 107.686V108.882L39.4258 108.984ZM39.4258 117.246V110.226L40.5782 110.123V117.143L39.4258 117.246ZM47.4997 116.527V113.011C47.4997 112.677 47.4694 112.359 47.409 112.057C47.3529 111.754 47.2515 111.488 47.1047 111.259C46.9623 111.024 46.7681 110.846 46.522 110.725C46.2803 110.604 45.9739 110.56 45.6027 110.593C45.3135 110.618 45.0502 110.692 44.8128 110.812C44.5797 110.928 44.379 111.094 44.2107 111.308C44.0423 111.522 43.9107 111.785 43.8157 112.097C43.7251 112.404 43.6798 112.761 43.6798 113.169L42.9222 113.002C42.9222 112.322 43.0431 111.728 43.2848 111.221C43.5308 110.71 43.874 110.304 44.3142 110.005C44.7588 109.701 45.2811 109.523 45.8811 109.469C46.3343 109.429 46.7206 109.466 47.04 109.581C47.3594 109.695 47.6248 109.862 47.8363 110.082C48.0478 110.297 48.214 110.547 48.3349 110.831C48.4557 111.11 48.5399 111.399 48.5874 111.699C48.6392 111.993 48.6651 112.275 48.6651 112.543V116.424L47.4997 116.527ZM42.5144 116.971V109.951L43.5503 109.859V111.737L43.6798 111.726V116.867L42.5144 116.971ZM53.1776 119.337C52.8107 119.37 52.4525 119.345 52.1029 119.264C51.7533 119.182 51.4317 119.04 51.1382 118.836C50.849 118.637 50.6073 118.372 50.4131 118.043L51.4684 117.39C51.641 117.717 51.8849 117.944 52.2 118.072C52.5194 118.2 52.8474 118.249 53.1841 118.219C53.6287 118.179 53.9977 118.064 54.2912 117.873C54.5847 117.687 54.8006 117.427 54.9387 117.094C55.0811 116.761 55.1502 116.356 55.1459 115.88V113.962L55.2818 113.95V108.815L56.3048 108.724V115.789C56.3048 115.98 56.2983 116.165 56.2854 116.344C56.2767 116.522 56.2551 116.7 56.2206 116.876C56.13 117.382 55.9508 117.808 55.6832 118.152C55.4156 118.501 55.0703 118.772 54.6473 118.966C54.2243 119.164 53.7344 119.288 53.1776 119.337ZM53.0935 116.225C52.4417 116.283 51.8827 116.17 51.4166 115.886C50.9504 115.599 50.59 115.186 50.3354 114.65C50.085 114.113 49.9598 113.494 49.9598 112.792C49.9598 112.09 50.085 111.448 50.3354 110.867C50.59 110.285 50.9504 109.814 51.4166 109.451C51.8827 109.085 52.4395 108.873 53.087 108.815C53.7474 108.756 54.302 108.867 54.7509 109.148C55.1998 109.429 55.5386 109.839 55.7674 110.377C56.0005 110.916 56.117 111.538 56.117 112.244C56.117 112.942 56.0005 113.583 55.7674 114.167C55.5386 114.746 55.1998 115.22 54.7509 115.59C54.302 115.955 53.7495 116.166 53.0935 116.225ZM53.2359 115.152C53.7064 115.111 54.0927 114.964 54.3948 114.711C54.697 114.455 54.9193 114.121 55.0617 113.71C55.2084 113.293 55.2818 112.83 55.2818 112.318C55.2818 111.798 55.2084 111.348 55.0617 110.967C54.9193 110.581 54.6991 110.29 54.4013 110.096C54.1035 109.897 53.7258 109.818 53.2683 109.859C52.7935 109.901 52.4007 110.053 52.0899 110.314C51.7835 110.576 51.5547 110.912 51.4036 111.325C51.2569 111.736 51.1835 112.189 51.1835 112.683C51.1835 113.181 51.259 113.625 51.4101 114.015C51.5612 114.4 51.7878 114.696 52.0899 114.903C52.3964 115.11 52.7784 115.193 53.2359 115.152ZM64.5377 115.206C63.6097 115.289 62.822 115.153 62.1746 114.799C61.5271 114.445 61.0329 113.917 60.6919 113.215C60.3552 112.513 60.1869 111.681 60.1869 110.719C60.1869 109.757 60.3552 108.894 60.6919 108.132C61.0329 107.369 61.5271 106.753 62.1746 106.284C62.822 105.815 63.6097 105.539 64.5377 105.456C65.6168 105.36 66.5038 105.557 67.1987 106.045C67.8979 106.533 68.3792 107.231 68.6425 108.14L67.4706 108.556C67.2807 107.875 66.9419 107.355 66.4541 106.995C65.9664 106.636 65.3276 106.491 64.5377 106.561C63.8428 106.623 63.2644 106.833 62.8026 107.19C62.3407 107.548 61.9933 108.021 61.7602 108.609C61.5271 109.193 61.4084 109.86 61.4041 110.61C61.3998 111.356 61.5142 112.002 61.7472 112.549C61.9803 113.092 62.3299 113.503 62.7961 113.782C63.2623 114.057 63.8428 114.163 64.5377 114.101C65.3276 114.031 65.9664 113.773 66.4541 113.326C66.9419 112.876 67.2807 112.295 67.4706 111.585L68.6425 111.793C68.3792 112.743 67.8979 113.527 67.1987 114.144C66.5038 114.756 65.6168 115.11 64.5377 115.206ZM73.0407 114.45C72.3457 114.512 71.7458 114.407 71.2408 114.136C70.7401 113.864 70.3538 113.46 70.0818 112.926C69.8099 112.391 69.674 111.762 69.674 111.038C69.674 110.301 69.8121 109.643 70.0883 109.064C70.3646 108.485 70.7552 108.019 71.2602 107.666C71.7652 107.309 72.3587 107.101 73.0407 107.04C73.7399 106.978 74.342 107.082 74.847 107.354C75.352 107.621 75.7383 108.022 76.0059 108.557C76.2779 109.088 76.4138 109.715 76.4138 110.438C76.4138 111.171 76.2779 111.828 76.0059 112.412C75.734 112.99 75.3456 113.46 74.8405 113.822C74.3355 114.179 73.7356 114.388 73.0407 114.45ZM73.0407 113.351C73.7658 113.287 74.3053 112.996 74.6593 112.479C75.0132 111.963 75.1902 111.318 75.1902 110.547C75.1902 109.754 75.011 109.14 74.6528 108.703C74.2945 108.263 73.7572 108.075 73.0407 108.138C72.5529 108.182 72.1515 108.328 71.8364 108.577C71.5213 108.826 71.2861 109.152 71.1307 109.556C70.9753 109.96 70.8976 110.418 70.8976 110.929C70.8976 111.718 71.0789 112.334 71.4415 112.779C71.804 113.223 72.3371 113.414 73.0407 113.351ZM86.1978 113.084L86.2043 108.592C86.2043 108.068 86.064 107.671 85.7834 107.401C85.5072 107.127 85.1468 107.009 84.7022 107.049C84.4432 107.072 84.1972 107.154 83.9641 107.296C83.731 107.434 83.5411 107.637 83.3944 107.906C83.2476 108.171 83.1742 108.5 83.1742 108.894L82.5656 108.701C82.557 108.204 82.6584 107.759 82.8699 107.368C83.0858 106.972 83.3793 106.653 83.7505 106.412C84.1217 106.171 84.5403 106.03 85.0065 105.988C85.736 105.923 86.31 106.095 86.7287 106.504C87.1474 106.909 87.3567 107.486 87.3567 108.236L87.3502 112.982L86.1978 113.084ZM77.8328 113.828V106.808L78.8623 106.717V108.595L78.9918 108.584V113.725L77.8328 113.828ZM82.0218 113.456L82.0283 109.009C82.0283 108.472 81.8901 108.064 81.6139 107.785C81.3377 107.502 80.9708 107.381 80.5133 107.421C80.06 107.462 79.6932 107.65 79.4126 107.987C79.132 108.324 78.9918 108.751 78.9918 109.266L78.3832 108.957C78.3832 108.502 78.4911 108.085 78.7069 107.706C78.9227 107.327 79.2162 107.019 79.5874 106.782C79.9586 106.541 80.3794 106.4 80.8499 106.358C81.3204 106.316 81.7304 106.379 82.0801 106.548C82.4297 106.716 82.6995 106.978 82.8894 107.334C83.0793 107.685 83.1742 108.116 83.1742 108.628L83.1678 113.354L82.0218 113.456ZM97.4016 112.087L97.4081 107.595C97.4081 107.071 97.2678 106.674 96.9872 106.404C96.711 106.13 96.3506 106.012 95.906 106.052C95.647 106.075 95.401 106.158 95.1679 106.3C94.9348 106.437 94.7449 106.641 94.5982 106.909C94.4514 107.174 94.378 107.503 94.378 107.897L93.7694 107.705C93.7608 107.207 93.8622 106.762 94.0737 106.371C94.2895 105.975 94.5831 105.656 94.9543 105.415C95.3255 105.174 95.7441 105.033 96.2103 104.991C96.9397 104.926 97.5138 105.099 97.9325 105.508C98.3512 105.912 98.5605 106.49 98.5605 107.239L98.554 111.985L97.4016 112.087ZM89.0366 112.832V105.812L90.0661 105.72V107.599L90.1956 107.587V112.729L89.0366 112.832ZM93.2256 112.459L93.2321 108.012C93.2321 107.475 93.0939 107.067 92.8177 106.788C92.5415 106.505 92.1746 106.384 91.717 106.425C91.2638 106.465 90.8969 106.654 90.6164 106.991C90.3358 107.328 90.1956 107.754 90.1956 108.27L89.587 107.96C89.587 107.505 89.6949 107.088 89.9107 106.709C90.1265 106.33 90.42 106.022 90.7912 105.786C91.1624 105.544 91.5832 105.403 92.0537 105.361C92.5242 105.319 92.9342 105.383 93.2839 105.551C93.6335 105.719 93.9032 105.981 94.0932 106.337C94.2831 106.688 94.378 107.12 94.378 107.631L94.3716 112.357L93.2256 112.459ZM102.901 111.78C102.453 111.82 102.066 111.783 101.742 111.669C101.423 111.554 101.158 111.387 100.946 111.167C100.735 110.948 100.568 110.698 100.448 110.419C100.327 110.139 100.24 109.85 100.189 109.551C100.141 109.252 100.117 108.971 100.117 108.706V104.826L101.283 104.722V108.239C101.283 108.568 101.313 108.884 101.373 109.186C101.434 109.488 101.535 109.757 101.678 109.991C101.824 110.225 102.019 110.403 102.26 110.524C102.506 110.645 102.813 110.689 103.18 110.657C103.469 110.631 103.732 110.558 103.97 110.437C104.207 110.316 104.41 110.151 104.578 109.941C104.747 109.727 104.876 109.464 104.967 109.152C105.057 108.841 105.103 108.484 105.103 108.081L105.86 108.247C105.86 108.923 105.737 109.517 105.491 110.029C105.249 110.54 104.906 110.947 104.462 111.251C104.021 111.55 103.501 111.727 102.901 111.78ZM105.232 111.391V109.512L105.103 109.524V104.382L106.262 104.279V111.299L105.232 111.391ZM113.053 110.695V107.178C113.053 106.845 113.023 106.527 112.963 106.224C112.906 105.922 112.805 105.656 112.658 105.426C112.516 105.192 112.322 105.014 112.076 104.893C111.834 104.771 111.527 104.727 111.156 104.76C110.867 104.786 110.604 104.859 110.366 104.98C110.133 105.096 109.933 105.261 109.764 105.475C109.596 105.69 109.464 105.953 109.369 106.265C109.279 106.572 109.233 106.929 109.233 107.336L108.476 107.17C108.476 106.489 108.597 105.896 108.838 105.389C109.084 104.877 109.428 104.472 109.868 104.173C110.312 103.869 110.835 103.69 111.435 103.637C111.888 103.596 112.274 103.634 112.594 103.748C112.913 103.863 113.178 104.03 113.39 104.249C113.601 104.465 113.768 104.714 113.888 104.998C114.009 105.278 114.093 105.567 114.141 105.866C114.193 106.16 114.219 106.442 114.219 106.711V110.591L113.053 110.695ZM108.068 111.138V104.118L109.104 104.026V105.905L109.233 105.893V111.035L108.068 111.138ZM116.031 102.168V100.972L117.184 100.87V102.066L116.031 102.168ZM116.031 110.43V103.41L117.184 103.307V110.327L116.031 110.43ZM123.03 109.807C122.616 109.926 122.206 109.995 121.8 110.014C121.399 110.037 121.041 109.988 120.726 109.869C120.411 109.745 120.171 109.533 120.007 109.231C119.869 108.966 119.793 108.693 119.78 108.413C119.772 108.127 119.767 107.805 119.767 107.445V101.127L120.92 101.025V107.291C120.92 107.577 120.922 107.821 120.926 108.025C120.935 108.228 120.98 108.399 121.062 108.539C121.218 108.803 121.464 108.943 121.8 108.961C122.141 108.978 122.551 108.929 123.03 108.813V109.807ZM118.349 104.159V103.204L123.03 102.787V103.743L118.349 104.159ZM125.232 112.731L126.585 108.919L126.604 110.009L123.548 102.741L124.759 102.633L127.154 108.485L126.74 108.521L128.987 102.257L130.159 102.153L126.352 112.632L125.232 112.731Z" fill="white"/>
<path d="M24.5742 152.042V137.642L33.6384 136.836V138.526L26.3472 139.174V143.684L32.4431 143.142V144.832L26.3472 145.374V150.194L33.6384 149.546V151.236L24.5742 152.042ZM35.0368 151.111L39.8378 136.284L42.308 136.064L47.1091 150.037L45.2663 150.201L40.7741 137.241L41.3319 137.191L36.8795 150.947L35.0368 151.111ZM37.3476 147.536V145.866L44.7982 145.203V146.873L37.3476 147.536ZM48.8922 149.878V135.478L54.5598 134.974C54.6992 134.962 54.8652 134.954 55.0578 134.95C55.2504 134.939 55.4363 134.943 55.6156 134.96C56.3925 135.011 57.0433 135.22 57.5679 135.586C58.0991 135.953 58.4976 136.44 58.7632 137.05C59.0288 137.653 59.1616 138.338 59.1616 139.105C59.1616 140.218 58.8727 141.21 58.295 142.082C57.7173 142.947 56.8707 143.532 55.7551 143.838L55.0777 144.008L50.6652 144.401V149.721L48.8922 149.878ZM57.4285 149.119L54.5996 143.511L56.3527 142.815L59.4604 148.938L57.4285 149.119ZM50.6652 142.711L54.5 142.369C54.6262 142.358 54.769 142.339 54.9283 142.311C55.0943 142.283 55.2504 142.246 55.3965 142.2C55.8547 142.052 56.2265 141.826 56.5121 141.52C56.8043 141.208 57.0167 140.856 57.1496 140.464C57.2824 140.065 57.3488 139.666 57.3488 139.266C57.3488 138.866 57.2824 138.482 57.1496 138.114C57.0167 137.739 56.8043 137.421 56.5121 137.16C56.2265 136.899 55.8547 136.739 55.3965 136.68C55.2504 136.653 55.0943 136.643 54.9283 136.651C54.769 136.652 54.6262 136.658 54.5 136.669L50.6652 137.011V142.711ZM61.6543 148.743V134.343L63.4472 134.183L70.9276 144.768V133.518L72.7205 133.358V147.758L70.9276 147.918L63.4472 137.323V148.583L61.6543 148.743ZM79.4939 147.156V132.756L81.2869 132.596L88.7673 143.181V131.931L90.5602 131.771V146.171L88.7673 146.331L81.2869 135.736V146.996L79.4939 147.156ZM99.2422 145.699C97.8145 145.826 96.6026 145.617 95.6065 145.072C94.6105 144.527 93.8501 143.715 93.3256 142.635C92.8076 141.554 92.5486 140.274 92.5486 138.794C92.5486 137.314 92.8076 135.988 93.3256 134.815C93.8501 133.642 94.6105 132.694 95.6065 131.972C96.6026 131.25 97.8145 130.826 99.2422 130.699C100.677 130.571 101.892 130.779 102.888 131.324C103.884 131.869 104.641 132.682 105.159 133.762C105.677 134.843 105.936 136.123 105.936 137.603C105.936 139.083 105.677 140.409 105.159 141.582C104.641 142.755 103.884 143.702 102.888 144.424C101.892 145.146 100.677 145.571 99.2422 145.699ZM99.2422 143.999C100.311 143.91 101.201 143.591 101.912 143.041C102.629 142.484 103.163 141.753 103.515 140.848C103.874 139.943 104.053 138.917 104.053 137.77C104.053 136.617 103.874 135.623 103.515 134.788C103.163 133.953 102.629 133.324 101.912 132.901C101.201 132.478 100.311 132.31 99.2422 132.399C98.1731 132.487 97.2833 132.806 96.5727 133.356C95.8688 133.905 95.3376 134.633 94.979 135.538C94.6204 136.443 94.4378 137.473 94.4312 138.627C94.4245 139.774 94.6005 140.765 94.9591 141.6C95.3177 142.434 95.8522 143.067 96.5628 143.497C97.2799 143.92 98.1731 144.087 99.2422 143.999ZM110.391 144.407L106.238 130.376L108.09 130.211L111.278 141.318L114.455 129.655L116.318 129.479L119.505 140.586L122.683 128.913L124.545 128.747L120.392 143.517L118.619 143.675L115.391 132.672L112.164 144.249L110.391 144.407Z" fill="#A6AAAB"/>
<path d="M24.414 152.562V138.162L33.4782 137.356V139.046L26.187 139.694V144.204L32.2829 143.662V145.352L26.187 145.894V150.714L33.4782 150.066V151.756L24.414 152.562ZM34.8766 151.631L39.6776 136.804L42.1479 136.584L46.9489 150.557L45.1062 150.721L40.6139 137.761L41.1717 137.711L36.7193 151.467L34.8766 151.631ZM37.1875 148.056V146.386L44.638 145.723V147.393L37.1875 148.056ZM48.732 150.398V135.998L54.3996 135.494C54.5391 135.482 54.7051 135.474 54.8977 135.47C55.0902 135.459 55.2762 135.463 55.4555 135.48C56.2324 135.531 56.8832 135.74 57.4077 136.106C57.939 136.472 58.3374 136.96 58.603 137.57C58.8686 138.173 59.0015 138.858 59.0015 139.625C59.0015 140.738 58.7126 141.73 58.1349 142.602C57.5572 143.466 56.7105 144.052 55.5949 144.358L54.9176 144.528L50.505 144.921V150.241L48.732 150.398ZM57.2683 149.639L54.4395 144.031L56.1925 143.335L59.3003 149.458L57.2683 149.639ZM50.505 143.231L54.3399 142.889C54.466 142.878 54.6088 142.859 54.7682 142.831C54.9342 142.803 55.0902 142.766 55.2363 142.72C55.6945 142.572 56.0664 142.346 56.3519 142.04C56.6441 141.728 56.8566 141.375 56.9894 140.984C57.1222 140.585 57.1886 140.186 57.1886 139.786C57.1886 139.386 57.1222 139.002 56.9894 138.634C56.8566 138.259 56.6441 137.941 56.3519 137.68C56.0664 137.419 55.6945 137.259 55.2363 137.2C55.0902 137.173 54.9342 137.163 54.7682 137.171C54.6088 137.172 54.466 137.178 54.3399 137.189L50.505 137.531V143.231ZM61.4941 149.263V134.863L63.287 134.703L70.7675 145.288V134.038L72.5604 133.878V148.278L70.7675 148.438L63.287 137.843V149.103L61.4941 149.263ZM79.3338 147.676V133.276L81.1267 133.116L88.6072 143.7V132.45L90.4001 132.291V146.691L88.6072 146.85L81.1267 136.256V147.516L79.3338 147.676ZM99.082 146.218C97.6543 146.346 96.4424 146.137 95.4464 145.592C94.4503 145.047 93.69 144.235 93.1654 143.155C92.6474 142.074 92.3885 140.794 92.3885 139.314C92.3885 137.834 92.6474 136.508 93.1654 135.335C93.69 134.162 94.4503 133.214 95.4464 132.492C96.4424 131.77 97.6543 131.346 99.082 131.218C100.516 131.091 101.732 131.299 102.728 131.844C103.724 132.389 104.481 133.201 104.999 134.282C105.517 135.363 105.776 136.643 105.776 138.123C105.776 139.603 105.517 140.929 104.999 142.102C104.481 143.275 103.724 144.222 102.728 144.944C101.732 145.666 100.516 146.091 99.082 146.218ZM99.082 144.518C100.151 144.43 101.041 144.111 101.751 143.561C102.469 143.004 103.003 142.273 103.355 141.368C103.714 140.463 103.893 139.437 103.893 138.29C103.893 137.137 103.714 136.143 103.355 135.308C103.003 134.473 102.469 133.844 101.751 133.421C101.041 132.998 100.151 132.83 99.082 132.918C98.0129 133.007 97.1231 133.326 96.4126 133.876C95.7087 134.425 95.1774 135.153 94.8189 136.058C94.4603 136.963 94.2777 137.993 94.271 139.147C94.2644 140.294 94.4404 141.285 94.7989 142.12C95.1575 142.954 95.6921 143.587 96.4026 144.017C97.1198 144.44 98.0129 144.607 99.082 144.518ZM110.231 144.927L106.077 130.896L107.93 130.731L111.117 141.838L114.295 130.175L116.158 129.999L119.345 141.106L122.522 129.433L124.385 129.267L120.231 144.037L118.458 144.194L115.231 133.192L112.004 144.769L110.231 144.927Z" fill="white"/>
<path d="M99.3203 36.2927L114.26 0L121.86 3.00734L99.3203 36.2927Z" fill="url(#paint30_linear_1022_808)"/>
<path d="M102.891 40.3944L140.441 6.0058L153.601 11.5578L102.891 40.3944Z" fill="url(#paint31_linear_1022_808)"/>
<path d="M107.5 50.8222L150.55 55.8048L150.15 48.8381L107.5 50.8222Z" fill="url(#paint32_linear_1022_808)"/>
<path d="M104.439 44.941L158.599 36.4351L161.209 26.0073L104.439 44.941Z" fill="url(#paint33_linear_1022_808)"/>
<defs>
<linearGradient id="paint0_linear_1022_808" x1="72.6706" y1="136.084" x2="74.7355" y2="182.499" gradientUnits="userSpaceOnUse">
<stop stop-color="#FF559D"/>
<stop offset="1" stop-color="#F50B9A"/>
</linearGradient>
<linearGradient id="paint1_linear_1022_808" x1="39.42" y1="136.407" x2="126.69" y2="136.407" gradientUnits="userSpaceOnUse">
<stop stop-color="#89D5FF"/>
<stop offset="0.07" stop-color="#7ACEFC"/>
<stop offset="0.25" stop-color="#58BDF4"/>
<stop offset="0.43" stop-color="#3DB0EE"/>
<stop offset="0.61" stop-color="#2AA7EA"/>
<stop offset="0.8" stop-color="#1FA2E8"/>
<stop offset="1" stop-color="#1BA0E7"/>
</linearGradient>
<linearGradient id="paint2_linear_1022_808" x1="73.7906" y1="160.199" x2="75.0667" y2="178.844" gradientUnits="userSpaceOnUse">
<stop stop-color="#5F627B"/>
<stop offset="1" stop-color="white" stop-opacity="0"/>
</linearGradient>
<linearGradient id="paint3_linear_1022_808" x1="19.2693" y1="72.9235" x2="8.85861" y2="77.7564" gradientUnits="userSpaceOnUse">
<stop stop-color="#89D5FF"/>
<stop offset="0.07" stop-color="#7ACEFC"/>
<stop offset="0.25" stop-color="#58BDF4"/>
<stop offset="0.43" stop-color="#3DB0EE"/>
<stop offset="0.61" stop-color="#2AA7EA"/>
<stop offset="0.8" stop-color="#1FA2E8"/>
<stop offset="1" stop-color="#1BA0E7"/>
</linearGradient>
<radialGradient id="paint4_radial_1022_808" cx="0" cy="0" r="1" gradientUnits="userSpaceOnUse" gradientTransform="translate(20.8557 75.2074) rotate(159.879) scale(7.00301 25.0821)">
<stop stop-color="#11327D"/>
<stop offset="1" stop-color="white" stop-opacity="0"/>
</radialGradient>
<linearGradient id="paint5_linear_1022_808" x1="22.0186" y1="71.9126" x2="17.1987" y2="74.1501" gradientUnits="userSpaceOnUse">
<stop stop-color="#89D5FF"/>
<stop offset="0.07" stop-color="#7ACEFC"/>
<stop offset="0.25" stop-color="#58BDF4"/>
<stop offset="0.43" stop-color="#3DB0EE"/>
<stop offset="0.61" stop-color="#2AA7EA"/>
<stop offset="0.8" stop-color="#1FA2E8"/>
<stop offset="1" stop-color="#1BA0E7"/>
</linearGradient>
<linearGradient id="paint6_linear_1022_808" x1="35.8614" y1="89.469" x2="49.5508" y2="76.7137" gradientUnits="userSpaceOnUse">
<stop stop-color="#89D5FF"/>
<stop offset="0.07" stop-color="#7ACEFC"/>
<stop offset="0.25" stop-color="#58BDF4"/>
<stop offset="0.43" stop-color="#3DB0EE"/>
<stop offset="0.61" stop-color="#2AA7EA"/>
<stop offset="0.8" stop-color="#1FA2E8"/>
<stop offset="1" stop-color="#1BA0E7"/>
</linearGradient>
<linearGradient id="paint7_linear_1022_808" x1="28.0486" y1="98.3318" x2="37.1216" y2="87.1223" gradientUnits="userSpaceOnUse">
<stop stop-color="#89D5FF"/>
<stop offset="0.07" stop-color="#7ACEFC"/>
<stop offset="0.25" stop-color="#58BDF4"/>
<stop offset="0.43" stop-color="#3DB0EE"/>
<stop offset="0.61" stop-color="#2AA7EA"/>
<stop offset="0.8" stop-color="#1FA2E8"/>
<stop offset="1" stop-color="#1BA0E7"/>
</linearGradient>
<linearGradient id="paint8_linear_1022_808" x1="38.7023" y1="99.2159" x2="33.7121" y2="82.307" gradientUnits="userSpaceOnUse">
<stop stop-color="white" stop-opacity="0"/>
<stop offset="1" stop-color="#284A7F"/>
</linearGradient>
<linearGradient id="paint9_linear_1022_808" x1="24.1421" y1="61.5871" x2="26.4264" y2="77.0125" gradientUnits="userSpaceOnUse">
<stop stop-color="#89D5FF"/>
<stop offset="0.07" stop-color="#7ACEFC"/>
<stop offset="0.25" stop-color="#58BDF4"/>
<stop offset="0.43" stop-color="#3DB0EE"/>
<stop offset="0.61" stop-color="#2AA7EA"/>
<stop offset="0.8" stop-color="#1FA2E8"/>
<stop offset="1" stop-color="#1BA0E7"/>
</linearGradient>
<radialGradient id="paint10_radial_1022_808" cx="0" cy="0" r="1" gradientUnits="userSpaceOnUse" gradientTransform="translate(12.6496 62.1317) rotate(-156.017) scale(15.0687 20.9246)">
<stop stop-color="white"/>
<stop offset="1" stop-color="white" stop-opacity="0"/>
</radialGradient>
<linearGradient id="paint11_linear_1022_808" x1="34.1038" y1="67.5291" x2="28.008" y2="70.3589" gradientUnits="userSpaceOnUse">
<stop stop-color="#89D5FF"/>
<stop offset="0.07" stop-color="#7ACEFC"/>
<stop offset="0.25" stop-color="#58BDF4"/>
<stop offset="0.43" stop-color="#3DB0EE"/>
<stop offset="0.61" stop-color="#2AA7EA"/>
<stop offset="0.8" stop-color="#1FA2E8"/>
<stop offset="1" stop-color="#1BA0E7"/>
</linearGradient>
<radialGradient id="paint12_radial_1022_808" cx="0" cy="0" r="1" gradientUnits="userSpaceOnUse" gradientTransform="translate(34.4553 74.3157) rotate(150.143) scale(7.74222 30.7536)">
<stop stop-color="#7D597D"/>
<stop offset="1" stop-color="white" stop-opacity="0"/>
</radialGradient>
<linearGradient id="paint13_linear_1022_808" x1="85.9858" y1="48.3565" x2="16.6375" y2="80.5499" gradientUnits="userSpaceOnUse">
<stop stop-color="#89D5FF"/>
<stop offset="0.07" stop-color="#7ACEFC"/>
<stop offset="0.25" stop-color="#58BDF4"/>
<stop offset="0.43" stop-color="#3DB0EE"/>
<stop offset="0.61" stop-color="#2AA7EA"/>
<stop offset="0.8" stop-color="#1FA2E8"/>
<stop offset="1" stop-color="#1BA0E7"/>
</linearGradient>
<radialGradient id="paint14_radial_1022_808" cx="0" cy="0" r="1" gradientUnits="userSpaceOnUse" gradientTransform="translate(81.692 67.5241) rotate(159.879) scale(32.4622 87.5418)">
<stop stop-color="#11327D"/>
<stop offset="1" stop-color="white" stop-opacity="0"/>
</radialGradient>
<linearGradient id="paint15_linear_1022_808" x1="91.485" y1="46.3068" x2="68.9005" y2="56.7911" gradientUnits="userSpaceOnUse">
<stop stop-color="#89D5FF"/>
<stop offset="0.07" stop-color="#7ACEFC"/>
<stop offset="0.25" stop-color="#58BDF4"/>
<stop offset="0.43" stop-color="#3DB0EE"/>
<stop offset="0.61" stop-color="#2AA7EA"/>
<stop offset="0.8" stop-color="#1FA2E8"/>
<stop offset="1" stop-color="#1BA0E7"/>
</linearGradient>
<radialGradient id="paint16_radial_1022_808" cx="0" cy="0" r="1" gradientUnits="userSpaceOnUse" gradientTransform="translate(59.0622 48.253) rotate(158.518) scale(15.3899 53.215)">
<stop stop-color="white"/>
<stop offset="1" stop-color="white" stop-opacity="0"/>
</radialGradient>
<linearGradient id="paint17_linear_1022_808" x1="99.0387" y1="43.5309" x2="84.0651" y2="50.4821" gradientUnits="userSpaceOnUse">
<stop stop-color="#89D5FF"/>
<stop offset="0.07" stop-color="#7ACEFC"/>
<stop offset="0.25" stop-color="#58BDF4"/>
<stop offset="0.43" stop-color="#3DB0EE"/>
<stop offset="0.61" stop-color="#2AA7EA"/>
<stop offset="0.8" stop-color="#1FA2E8"/>
<stop offset="1" stop-color="#1BA0E7"/>
</linearGradient>
<radialGradient id="paint18_radial_1022_808" cx="0" cy="0" r="1" gradientUnits="userSpaceOnUse" gradientTransform="translate(92.2101 53.0469) rotate(159.879) scale(10.8123 48.3958)">
<stop offset="0.24" stop-color="#11327D"/>
<stop offset="1" stop-color="white" stop-opacity="0"/>
</radialGradient>
<radialGradient id="paint19_radial_1022_808" cx="0" cy="0" r="1" gradientUnits="userSpaceOnUse" gradientTransform="translate(90.1911 29.5597) rotate(-156.017) scale(32.2369 44.7646)">
<stop stop-color="white"/>
<stop offset="1" stop-color="white" stop-opacity="0"/>
</radialGradient>
<linearGradient id="paint20_linear_1022_808" x1="86.4575" y1="39.6193" x2="87.2287" y2="53.0611" gradientUnits="userSpaceOnUse">
<stop stop-color="#89D5FF"/>
<stop offset="0.07" stop-color="#7ACEFC"/>
<stop offset="0.25" stop-color="#58BDF4"/>
<stop offset="0.43" stop-color="#3DB0EE"/>
<stop offset="0.61" stop-color="#2AA7EA"/>
<stop offset="0.8" stop-color="#1FA2E8"/>
<stop offset="1" stop-color="#1BA0E7"/>
</linearGradient>
<linearGradient id="paint21_linear_1022_808" x1="93.0213" y1="45.1386" x2="88.8216" y2="47.0883" gradientUnits="userSpaceOnUse">
<stop stop-color="#89D5FF"/>
<stop offset="0.07" stop-color="#7ACEFC"/>
<stop offset="0.25" stop-color="#58BDF4"/>
<stop offset="0.43" stop-color="#3DB0EE"/>
<stop offset="0.61" stop-color="#2AA7EA"/>
<stop offset="0.8" stop-color="#1FA2E8"/>
<stop offset="1" stop-color="#1BA0E7"/>
</linearGradient>
<radialGradient id="paint22_radial_1022_808" cx="0" cy="0" r="1" gradientUnits="userSpaceOnUse" gradientTransform="translate(95.2918 41.2747) rotate(159.879) scale(5.45323 14.7058)">
<stop stop-color="white"/>
<stop offset="1" stop-color="white" stop-opacity="0"/>
</radialGradient>
<linearGradient id="paint23_linear_1022_808" x1="156.991" y1="96.0938" x2="158.34" y2="126.419" gradientUnits="userSpaceOnUse">
<stop stop-color="#89D5FF"/>
<stop offset="0.07" stop-color="#7ACEFC"/>
<stop offset="0.25" stop-color="#58BDF4"/>
<stop offset="0.43" stop-color="#3DB0EE"/>
<stop offset="0.61" stop-color="#2AA7EA"/>
<stop offset="0.8" stop-color="#1FA2E8"/>
<stop offset="1" stop-color="#1BA0E7"/>
</linearGradient>
<linearGradient id="paint24_linear_1022_808" x1="178.601" y1="115.213" x2="153.293" y2="109.691" gradientUnits="userSpaceOnUse">
<stop stop-color="white" stop-opacity="0"/>
<stop offset="1" stop-color="#284A7F"/>
</linearGradient>
<linearGradient id="paint25_linear_1022_808" x1="19.7391" y1="109.051" x2="21.8683" y2="156.913" gradientUnits="userSpaceOnUse">
<stop stop-color="#89D5FF"/>
<stop offset="0.07" stop-color="#7ACEFC"/>
<stop offset="0.25" stop-color="#58BDF4"/>
<stop offset="0.43" stop-color="#3DB0EE"/>
<stop offset="0.61" stop-color="#2AA7EA"/>
<stop offset="0.8" stop-color="#1FA2E8"/>
<stop offset="1" stop-color="#1BA0E7"/>
</linearGradient>
<linearGradient id="paint26_linear_1022_808" x1="25.3091" y1="135.108" x2="20.0421" y2="123.921" gradientUnits="userSpaceOnUse">
<stop stop-color="white" stop-opacity="0"/>
<stop offset="1" stop-color="#284A7F"/>
</linearGradient>
<linearGradient id="paint27_linear_1022_808" x1="78.9104" y1="80.936" x2="82.7632" y2="167.541" gradientUnits="userSpaceOnUse">
<stop stop-color="#FF559D"/>
<stop offset="1" stop-color="#F50B9A"/>
</linearGradient>
<linearGradient id="paint28_linear_1022_808" x1="79.1793" y1="118.418" x2="79.7647" y2="131.578" gradientUnits="userSpaceOnUse">
<stop stop-color="#5F627B"/>
<stop offset="1" stop-color="white" stop-opacity="0"/>
</linearGradient>
<linearGradient id="paint29_linear_1022_808" x1="79.24" y1="89.9078" x2="80.8648" y2="126.431" gradientUnits="userSpaceOnUse">
<stop stop-color="#89D5FF"/>
<stop offset="0.07" stop-color="#7ACEFC"/>
<stop offset="0.25" stop-color="#58BDF4"/>
<stop offset="0.43" stop-color="#3DB0EE"/>
<stop offset="0.61" stop-color="#2AA7EA"/>
<stop offset="0.8" stop-color="#1FA2E8"/>
<stop offset="1" stop-color="#1BA0E7"/>
</linearGradient>
<linearGradient id="paint30_linear_1022_808" x1="99.3203" y1="18.1419" x2="121.86" y2="18.1419" gradientUnits="userSpaceOnUse">
<stop stop-color="#FF559D"/>
<stop offset="1" stop-color="#F50B9A"/>
</linearGradient>
<linearGradient id="paint31_linear_1022_808" x1="102.891" y1="23.2046" x2="153.601" y2="23.2046" gradientUnits="userSpaceOnUse">
<stop stop-color="#FF559D"/>
<stop offset="1" stop-color="#F50B9A"/>
</linearGradient>
<linearGradient id="paint32_linear_1022_808" x1="107.5" y1="52.317" x2="150.55" y2="52.317" gradientUnits="userSpaceOnUse">
<stop stop-color="#FF559D"/>
<stop offset="1" stop-color="#F50B9A"/>
</linearGradient>
<linearGradient id="paint33_linear_1022_808" x1="104.439" y1="35.4741" x2="161.209" y2="35.4741" gradientUnits="userSpaceOnUse">
<stop stop-color="#FF559D"/>
<stop offset="1" stop-color="#F50B9A"/>
</linearGradient>
</defs>
</svg>
