<svg width="500" height="500" viewBox="0 0 500 500" fill="none" xmlns="http://www.w3.org/2000/svg">
<path d="M88.4449 442.214C178.654 495.45 324.912 495.451 415.119 442.215C505.328 388.977 505.328 302.665 415.119 249.429C324.91 196.192 178.652 196.192 88.4429 249.428C-1.76514 302.664 -1.76514 388.978 88.4449 442.214Z" fill="#F5F5F5"/>
<path d="M391.138 431.054C415.544 431.054 435.329 419.631 435.329 405.54C435.329 391.449 415.544 380.026 391.138 380.026C366.732 380.026 346.947 391.449 346.947 405.54C346.947 419.631 366.732 431.054 391.138 431.054Z" fill="#E0E0E0"/>
<path d="M363.419 77.137L371.087 81.565C371.049 81.223 371.022 80.882 371.022 80.55V78.328C371.022 74.375 373.798 72.772 377.221 74.749C378.607 75.549 379.883 76.818 380.916 78.302C381.477 73.331 385.377 71.479 390.114 74.214C395.236 77.171 399.389 84.363 399.389 90.278V93.602C399.389 95.134 399.106 96.424 398.604 97.452L404.974 101.129C406.873 102.226 408.413 104.892 408.413 107.085C408.413 109.278 406.874 110.167 404.974 109.07L363.419 85.078C361.52 83.981 359.98 81.315 359.98 79.122C359.981 76.93 361.52 76.041 363.419 77.137Z" fill="#EBEBEB"/>
<path d="M330.602 99.481L336.389 102.822C336.36 102.564 336.34 102.307 336.34 102.056V100.379C336.34 97.395 338.435 96.186 341.019 97.678C342.065 98.282 343.028 99.24 343.807 100.36C344.23 96.608 347.174 95.211 350.749 97.275C354.615 99.507 357.749 104.935 357.749 109.399V111.907C357.749 113.063 357.535 114.037 357.156 114.813L361.963 117.588C363.396 118.415 364.558 120.428 364.558 122.083C364.558 123.738 363.396 124.409 361.963 123.581L330.601 105.474C329.167 104.647 328.006 102.634 328.006 100.979C328.007 99.325 329.169 98.654 330.602 99.481Z" fill="#EBEBEB"/>
<path d="M73.8753 288.623C73.3093 288.93 62.8543 291.898 58.9803 286.782C55.1073 281.666 61.5333 273.691 57.9003 270.752C54.2673 267.813 44.0853 270.769 41.6343 264.578C39.1833 258.387 46.4483 255.734 42.3653 249.503C39.7933 245.578 33.4793 243.38 32.9233 239.752C31.9933 233.688 42.0423 230.902 50.6363 236.626C59.2303 242.351 64.4273 239.728 67.1543 239.344C69.8813 238.96 75.7593 239.807 75.5713 249.379C75.3833 258.952 73.8753 288.623 73.8753 288.623Z" fill="#2E4053"/>
<path d="M74.5657 275.009C74.2917 275.009 74.0507 274.811 74.0047 274.532C71.0117 256.367 49.8957 241.582 38.9157 238.409C38.6137 238.322 38.4387 238.006 38.5267 237.704C38.6137 237.403 38.9297 237.229 39.2317 237.315C50.4597 240.559 72.0577 255.709 75.1287 274.347C75.1797 274.657 74.9687 274.951 74.6587 275.002C74.6277 275.007 74.5967 275.009 74.5657 275.009Z" fill="white"/>
<path d="M49.6704 259.805C49.4754 259.805 49.2864 259.705 49.1794 259.527C49.0194 259.257 49.1074 258.907 49.3784 258.746C49.7204 258.543 57.8444 253.794 65.8494 256.015C66.1524 256.099 66.3304 256.413 66.2454 256.716C66.1614 257.019 65.8504 257.2 65.5444 257.112C58.0134 255.022 50.0384 259.678 49.9594 259.725C49.8684 259.779 49.7684 259.805 49.6704 259.805Z" fill="white"/>
<path d="M77.9297 295.599C77.9297 298.189 79.8687 301.409 82.2607 302.789L203.587 372.836C205.978 374.217 209.856 374.217 212.247 372.836L378.254 276.992C380.645 275.611 382.584 272.392 382.584 269.801C382.584 267.21 380.646 263.991 378.254 262.61L256.928 192.563C254.537 191.182 250.659 191.182 248.268 192.563L82.2597 288.409C79.8677 289.79 77.9297 293.009 77.9297 295.599Z" fill="#37474F"/>
<path d="M207.918 364.5V373.87C206.348 373.87 204.778 373.53 203.588 372.84L82.2577 302.79C79.8677 301.41 77.9277 298.19 77.9277 295.6C77.9277 293.17 79.6377 290.19 81.8177 288.69C79.8777 290.08 80.0277 292.12 82.2577 293.41L203.588 363.46C204.778 364.15 206.349 364.5 207.918 364.5Z" fill="#263238"/>
<path d="M73.8677 288.564C71.6247 287.269 69.8057 283.98 69.8057 281.219L69.8047 136.434C69.8047 133.673 71.7437 130.315 74.1347 128.934L240.143 33.09C242.534 31.709 246.292 31.64 248.535 32.935C250.779 34.23 252.598 37.519 252.598 40.28V185.065C252.598 187.826 250.659 191.184 248.268 192.565L82.2597 288.409C79.8677 289.79 76.1107 289.859 73.8677 288.564Z" fill="#455A64"/>
<path d="M81.7486 288.67C79.3586 289.79 75.9586 289.77 73.8686 288.56C71.6286 287.27 69.8086 283.98 69.8086 281.22V136.43C69.8086 135.05 70.2886 133.52 71.0786 132.17L79.1986 136.85V136.86C78.4186 138.22 77.9286 139.74 77.9286 141.12V285.91C77.9286 288.47 79.5996 289.62 81.7486 288.67Z" fill="#263238"/>
<path d="M77.9297 141.124V285.909C77.9297 288.67 79.8687 289.79 82.2597 288.409L248.268 192.565C250.659 191.184 252.598 187.826 252.598 185.065V40.2799C252.598 37.5189 250.659 36.3989 248.268 37.7799L82.2597 133.624C79.8677 135.005 77.9297 138.363 77.9297 141.124Z" fill="#37474F"/>
<path d="M82.2588 293.409L203.586 363.456C205.977 364.837 209.855 364.837 212.246 363.456L378.254 267.612C380.645 266.231 380.645 263.993 378.254 262.612L256.928 192.565C254.537 191.184 250.659 191.184 248.268 192.565L82.2588 288.409C79.8668 289.79 79.8668 292.028 82.2588 293.409Z" fill="#455A64"/>
<path d="M84.5882 141.66L244.641 49.278C246.076 48.45 247.239 49.121 247.239 50.778V176.112C247.239 177.769 246.076 179.784 244.641 180.612L84.5882 272.992C83.1532 273.82 81.9902 273.149 81.9902 271.492V146.159C81.9902 144.503 83.1532 142.488 84.5882 141.66Z" fill="white"/>
<path opacity="0.6" d="M84.5882 141.66L244.641 49.278C246.076 48.45 247.239 49.121 247.239 50.778V176.112C247.239 177.769 246.076 179.784 244.641 180.612L84.5882 272.992C83.1532 273.82 81.9902 273.149 81.9902 271.492V146.159C81.9902 144.503 83.1532 142.488 84.5882 141.66Z" fill="#2E4053"/>
<path d="M164.273 133.735C168.534 131.274 171.989 133.269 171.989 138.189C171.989 143.11 168.534 149.093 164.273 151.553C160.012 154.013 156.557 152.019 156.557 147.098C156.557 142.178 160.012 136.195 164.273 133.735Z" fill="#F0F0F0"/>
<path d="M179.479 160.05C179.479 151.966 173.803 148.377 166.803 152.419L162.426 154.945C155.426 158.987 149.75 168.817 149.75 176.901V179.077L179.479 161.925V160.05Z" fill="#F0F0F0"/>
<path d="M194.512 164.044C194.229 163.392 193.511 163.227 192.698 163.693L140.781 193.649C140.258 193.95 139.77 194.474 139.426 195.083C139.075 195.685 138.863 196.359 138.863 196.976V203.085C138.863 204.125 139.483 204.634 140.322 204.397C140.409 204.372 140.458 204.354 140.458 204.354C140.573 204.311 140.68 204.254 140.781 204.196L192.698 174.24C193.759 173.631 194.62 172.139 194.62 170.913V164.804C194.619 164.561 194.591 164.255 194.512 164.044Z" fill="#F0F0F0"/>
<path d="M145.472 194.406C146.479 193.825 147.296 194.296 147.296 195.459C147.296 196.622 146.48 198.036 145.472 198.618C144.464 199.2 143.648 198.728 143.648 197.565C143.648 196.402 144.464 194.987 145.472 194.406Z" fill="#2E4053"/>
<path d="M151.506 190.923C152.513 190.341 153.33 190.813 153.33 191.976C153.33 193.139 152.513 194.553 151.506 195.135C150.499 195.716 149.682 195.245 149.682 194.082C149.682 192.919 150.498 191.504 151.506 190.923Z" fill="#2E4053"/>
<path d="M157.539 187.439C158.546 186.858 159.363 187.329 159.363 188.492C159.363 189.655 158.547 191.069 157.539 191.651C156.531 192.233 155.715 191.761 155.715 190.598C155.715 189.435 156.531 188.021 157.539 187.439Z" fill="#2E4053"/>
<path d="M163.572 183.956C164.579 183.374 165.396 183.846 165.396 185.009C165.396 186.172 164.58 187.586 163.572 188.168C162.564 188.75 161.748 188.278 161.748 187.115C161.748 185.952 162.564 184.538 163.572 183.956Z" fill="#2E4053"/>
<path d="M169.605 180.473C170.612 179.892 171.429 180.363 171.429 181.526C171.429 182.689 170.612 184.103 169.605 184.685C168.598 185.266 167.781 184.795 167.781 183.632C167.781 182.469 168.597 181.055 169.605 180.473Z" fill="#2E4053"/>
<path d="M175.636 176.99C176.643 176.409 177.46 176.88 177.46 178.043C177.46 179.206 176.644 180.62 175.636 181.202C174.628 181.784 173.812 181.312 173.812 180.149C173.812 178.986 174.629 177.572 175.636 176.99Z" fill="#2E4053"/>
<path d="M181.67 173.507C182.677 172.926 183.494 173.397 183.494 174.56C183.494 175.723 182.678 177.137 181.67 177.719C180.663 178.301 179.846 177.829 179.846 176.666C179.846 175.503 180.663 174.089 181.67 173.507Z" fill="#2E4053"/>
<path d="M187.703 170.024C188.71 169.443 189.527 169.914 189.527 171.077C189.527 172.24 188.711 173.654 187.703 174.236C186.696 174.817 185.879 174.346 185.879 173.183C185.88 172.02 186.696 170.605 187.703 170.024Z" fill="#2E4053"/>
<path d="M96.3423 289.66L250.433 200.697C251.629 200.007 253.567 200.007 254.763 200.697L262.644 205.247C263.84 205.937 263.84 207.057 262.644 207.747L108.53 296.696C107.334 297.386 105.395 297.386 104.2 296.696L96.3423 292.16C95.1463 291.469 95.1463 290.35 96.3423 289.66Z" fill="#37474F"/>
<path d="M116.655 301.386L270.744 212.421C271.94 211.731 273.878 211.731 275.074 212.421L323.551 240.41C324.747 241.1 324.747 242.22 323.551 242.91L169.638 331.752C168.442 332.442 166.502 332.445 165.304 331.759L116.66 303.88C115.461 303.192 115.459 302.076 116.655 301.386Z" fill="#263238"/>
<path d="M254.782 252.447L259.606 249.662C259.811 249.543 259.799 249.344 259.579 249.217L254 245.996C253.78 245.869 253.435 245.862 253.23 245.98L248.405 248.766C248.2 248.884 248.212 249.083 248.433 249.21L254.012 252.431C254.232 252.558 254.577 252.565 254.782 252.447ZM245.261 241.379L240.436 244.164C240.231 244.283 240.244 244.482 240.464 244.609L246.043 247.83C246.263 247.957 246.608 247.964 246.813 247.846L251.637 245.06C251.842 244.942 251.83 244.743 251.61 244.616L246.031 241.395C245.811 241.268 245.466 241.261 245.261 241.379ZM229.674 250.379L221.509 255.093C221.304 255.211 221.316 255.41 221.536 255.537L227.115 258.758C227.335 258.885 227.68 258.892 227.885 258.774L236.05 254.06C236.255 253.942 236.243 253.743 236.023 253.616L230.445 250.395C230.224 250.267 229.879 250.26 229.674 250.379ZM238.21 245.45L233.385 248.236C233.181 248.354 233.192 248.553 233.413 248.68L238.992 251.901C239.212 252.028 239.556 252.035 239.761 251.917L244.586 249.132C244.791 249.013 244.779 248.815 244.559 248.688L238.98 245.467C238.76 245.339 238.415 245.332 238.21 245.45ZM219.283 256.378L214.459 259.163C214.254 259.282 214.266 259.48 214.486 259.607L220.065 262.828C220.285 262.955 220.629 262.962 220.834 262.844L225.659 260.058C225.864 259.94 225.852 259.741 225.631 259.614L220.053 256.393C219.832 256.267 219.487 256.26 219.283 256.378ZM212.231 260.449L207.407 263.234C207.202 263.352 207.214 263.551 207.434 263.678L213.013 266.899C213.233 267.026 213.578 267.033 213.783 266.915L218.608 264.13C218.813 264.011 218.801 263.813 218.581 263.686L213.001 260.465C212.781 260.338 212.437 260.331 212.231 260.449ZM234.175 273.547L239 270.761C239.204 270.643 239.193 270.444 238.972 270.317L233.393 267.096C233.173 266.969 232.828 266.962 232.623 267.08L227.798 269.865C227.593 269.984 227.605 270.182 227.825 270.31L233.404 273.531C233.625 273.658 233.97 273.665 234.175 273.547ZM227.124 277.618L231.948 274.833C232.153 274.714 232.141 274.516 231.92 274.388L226.342 271.168C226.122 271.041 225.777 271.034 225.572 271.152L220.748 273.938C220.543 274.056 220.555 274.256 220.775 274.382L226.354 277.603C226.575 277.729 226.919 277.736 227.124 277.618ZM220.073 281.689L224.898 278.903C225.103 278.785 225.091 278.586 224.871 278.459L219.292 275.238C219.072 275.111 218.727 275.104 218.522 275.222L213.698 278.007C213.493 278.126 213.505 278.324 213.726 278.451L219.304 281.672C219.523 281.8 219.868 281.807 220.073 281.689ZM213.021 285.76L217.846 282.975C218.051 282.857 218.039 282.658 217.818 282.531L212.24 279.31C212.02 279.183 211.675 279.176 211.47 279.294L206.646 282.079C206.441 282.197 206.453 282.396 206.673 282.523L212.252 285.743C212.472 285.871 212.816 285.879 213.021 285.76ZM247.731 256.518L252.555 253.732C252.76 253.614 252.748 253.415 252.528 253.288L246.949 250.067C246.729 249.94 246.385 249.933 246.18 250.051L241.355 252.836C241.15 252.955 241.162 253.154 241.382 253.281L246.961 256.502C247.181 256.63 247.526 256.636 247.731 256.518ZM241.227 269.476L251.989 263.262C252.194 263.143 252.181 262.945 251.961 262.818L238.413 254.996C238.193 254.869 237.848 254.862 237.643 254.98L232.076 258.194C231.871 258.313 231.883 258.511 232.103 258.639L239.276 262.78C239.496 262.907 239.508 263.106 239.303 263.224L234.85 265.795C234.645 265.913 234.657 266.112 234.877 266.239L240.456 269.46C240.677 269.587 241.022 269.594 241.227 269.476ZM205.18 264.52L200.355 267.306C200.15 267.424 200.162 267.623 200.383 267.75L205.962 270.971C206.182 271.098 206.526 271.105 206.732 270.987L211.557 268.202C211.762 268.083 211.75 267.885 211.529 267.757L205.951 264.536C205.73 264.409 205.385 264.402 205.18 264.52ZM198.129 268.591L193.304 271.376C193.099 271.495 193.111 271.694 193.331 271.821L198.909 275.042C199.129 275.169 199.474 275.176 199.679 275.058L204.503 272.272C204.708 272.154 204.696 271.954 204.476 271.828L198.897 268.607C198.678 268.48 198.334 268.473 198.129 268.591ZM162.893 314.242C163.113 314.369 163.457 314.376 163.663 314.258L168.488 311.472C168.693 311.354 168.681 311.154 168.461 311.027L162.882 307.806C162.662 307.679 162.317 307.672 162.112 307.79L157.288 310.575C157.083 310.694 157.095 310.892 157.315 311.02L162.893 314.242ZM141.718 301.16L136.893 303.945C136.688 304.063 136.7 304.262 136.92 304.389L142.499 307.61C142.719 307.737 143.064 307.745 143.269 307.626L148.094 304.841C148.299 304.723 148.287 304.524 148.066 304.397L142.487 301.177C142.268 301.049 141.924 301.041 141.718 301.16ZM153.067 310.712C153.287 310.839 153.632 310.846 153.837 310.728L158.662 307.942C158.867 307.824 158.854 307.625 158.634 307.498L153.056 304.277C152.836 304.15 152.492 304.143 152.286 304.261L147.462 307.046C147.257 307.165 147.269 307.363 147.489 307.49L153.067 310.712ZM175.343 316.716L180.168 313.931C180.373 313.812 180.361 313.614 180.141 313.487L174.562 310.266C174.342 310.139 173.997 310.132 173.792 310.251L168.968 313.036C168.764 313.154 168.775 313.353 168.996 313.48L174.575 316.7C174.794 316.827 175.138 316.835 175.343 316.716ZM167.522 320.771C167.742 320.898 168.087 320.905 168.291 320.787L173.116 318.001C173.321 317.883 173.309 317.684 173.089 317.557L167.51 314.336C167.29 314.209 166.946 314.202 166.74 314.32L161.915 317.106C161.71 317.224 161.722 317.423 161.943 317.55L167.522 320.771ZM148.77 297.089L143.945 299.874C143.74 299.993 143.752 300.191 143.973 300.318L149.551 303.539C149.771 303.666 150.116 303.673 150.321 303.555L155.145 300.769C155.35 300.651 155.338 300.452 155.118 300.325L149.539 297.104C149.319 296.977 148.975 296.97 148.77 297.089ZM184.026 276.733L179.201 279.518C178.997 279.637 179.008 279.835 179.229 279.962L184.808 283.183C185.028 283.31 185.372 283.317 185.578 283.199L190.403 280.413C190.608 280.295 190.596 280.096 190.376 279.969L184.797 276.748C184.575 276.622 184.231 276.615 184.026 276.733ZM155.821 293.018L150.996 295.803C150.791 295.921 150.803 296.12 151.023 296.247L156.602 299.468C156.822 299.595 157.167 299.603 157.372 299.484L162.196 296.699C162.401 296.58 162.389 296.382 162.168 296.255L156.59 293.034C156.371 292.906 156.026 292.899 155.821 293.018ZM191.077 272.662L186.253 275.448C186.048 275.566 186.06 275.765 186.281 275.892L191.86 279.113C192.08 279.24 192.424 279.248 192.63 279.129L197.455 276.344C197.66 276.225 197.648 276.027 197.428 275.9L191.849 272.679C191.627 272.551 191.282 272.544 191.077 272.662ZM176.975 280.805L172.15 283.59C171.945 283.708 171.957 283.907 172.177 284.034L177.756 287.254C177.976 287.381 178.321 287.389 178.526 287.27L183.35 284.485C183.555 284.367 183.543 284.168 183.323 284.041L177.744 280.82C177.525 280.693 177.18 280.686 176.975 280.805ZM169.924 284.875L165.1 287.661C164.895 287.779 164.907 287.978 165.127 288.105L170.706 291.326C170.926 291.453 171.271 291.46 171.476 291.342L176.301 288.557C176.505 288.438 176.493 288.239 176.273 288.112L170.695 284.891C170.473 284.764 170.128 284.757 169.924 284.875ZM162.873 288.947L158.048 291.732C157.843 291.851 157.855 292.05 158.075 292.177L163.654 295.398C163.874 295.525 164.219 295.532 164.424 295.414L169.249 292.628C169.454 292.51 169.442 292.31 169.221 292.183L163.642 288.963C163.422 288.835 163.078 288.828 162.873 288.947ZM198.919 293.902L203.744 291.116C203.949 290.998 203.937 290.798 203.717 290.672L198.138 287.451C197.918 287.324 197.573 287.317 197.368 287.435L192.543 290.22C192.338 290.339 192.35 290.537 192.571 290.665L198.15 293.886C198.369 294.014 198.714 294.021 198.919 293.902ZM260.848 232.38L256.024 235.166C255.819 235.284 255.832 235.483 256.051 235.61L261.63 238.831C261.85 238.958 262.195 238.965 262.4 238.847L267.225 236.062C267.43 235.943 267.417 235.745 267.198 235.617L261.619 232.396C261.398 232.269 261.053 232.262 260.848 232.38ZM252.312 237.308L247.487 240.094C247.282 240.212 247.294 240.411 247.514 240.538L253.093 243.759C253.313 243.886 253.658 243.893 253.863 243.775L258.688 240.99C258.893 240.871 258.881 240.672 258.661 240.545L253.082 237.324C252.862 237.197 252.517 237.19 252.312 237.308ZM267.899 228.309L263.075 231.094C262.87 231.212 262.882 231.411 263.102 231.539L268.681 234.76C268.901 234.887 269.246 234.894 269.45 234.776L274.275 231.991C274.48 231.872 274.468 231.673 274.248 231.546L268.67 228.325C268.449 228.198 268.105 228.191 267.899 228.309ZM231.401 265.946L236.226 263.161C236.431 263.042 236.419 262.844 236.198 262.716L230.62 259.495C230.4 259.368 230.055 259.361 229.85 259.479L225.025 262.265C224.82 262.383 224.832 262.582 225.052 262.709L230.631 265.93C230.852 266.057 231.196 266.064 231.401 265.946ZM275.72 224.254C275.5 224.127 275.155 224.12 274.95 224.238L270.126 227.023C269.921 227.142 269.933 227.34 270.153 227.467L275.732 230.688C275.952 230.815 276.297 230.822 276.501 230.704L281.326 227.918C281.531 227.8 281.519 227.601 281.299 227.474L275.72 224.254ZM205.97 289.831L210.794 287.046C210.999 286.927 210.987 286.729 210.766 286.602L205.187 283.381C204.967 283.254 204.623 283.247 204.417 283.365L199.592 286.151C199.387 286.269 199.399 286.468 199.619 286.595L205.197 289.816C205.42 289.943 205.765 289.949 205.97 289.831ZM292.441 239.907L297.266 237.122C297.471 237.004 297.459 236.804 297.239 236.677L291.66 233.457C291.44 233.33 291.095 233.323 290.89 233.441L286.066 236.226C285.861 236.344 285.873 236.543 286.093 236.671L291.672 239.892C291.892 240.018 292.236 240.025 292.441 239.907ZM277.421 239.377L282.246 236.591C282.451 236.473 282.439 236.274 282.218 236.147L276.639 232.926C276.419 232.799 276.074 232.792 275.87 232.91L271.045 235.695C270.84 235.814 270.852 236.012 271.072 236.14L276.651 239.361C276.871 239.488 277.216 239.495 277.421 239.377ZM283.69 228.855C283.47 228.728 283.125 228.721 282.92 228.839L278.095 231.625C277.891 231.743 277.902 231.942 278.123 232.069L283.702 235.29C283.922 235.417 284.267 235.424 284.471 235.306L289.296 232.521C289.501 232.402 289.489 232.204 289.269 232.077L283.69 228.855ZM285.175 227.998L298.723 235.82C298.943 235.947 299.287 235.954 299.493 235.836L304.317 233.051C304.522 232.932 304.51 232.734 304.29 232.606L290.741 224.784C290.521 224.657 290.176 224.65 289.971 224.768L285.147 227.553C284.942 227.672 284.954 227.871 285.175 227.998ZM268.818 236.982L263.994 239.767C263.789 239.885 263.801 240.084 264.021 240.211L269.6 243.431C269.82 243.558 270.165 243.566 270.37 243.447L275.194 240.662C275.399 240.543 275.387 240.345 275.167 240.217L269.588 236.996C269.367 236.87 269.023 236.863 268.818 236.982ZM215.748 267.621L210.923 270.407C210.718 270.525 210.73 270.724 210.95 270.851L216.529 274.072C216.749 274.199 217.094 274.206 217.299 274.088L222.124 271.303C222.329 271.184 222.316 270.986 222.096 270.859L216.518 267.638C216.297 267.51 215.953 267.503 215.748 267.621ZM284.621 243.962C284.841 244.089 285.186 244.096 285.391 243.978L290.216 241.193C290.42 241.074 290.409 240.876 290.188 240.749L284.609 237.528C284.389 237.401 284.044 237.394 283.84 237.512L279.015 240.298C278.81 240.416 278.822 240.615 279.042 240.742L284.621 243.962ZM222.799 263.551L217.974 266.336C217.769 266.455 217.782 266.653 218.002 266.78L223.58 270.001C223.8 270.128 224.144 270.135 224.35 270.017L229.175 267.231C229.38 267.113 229.368 266.914 229.148 266.787L223.569 263.566C223.348 263.439 223.004 263.432 222.799 263.551ZM169.944 310.171C170.164 310.298 170.509 310.305 170.714 310.187L175.539 307.402C175.743 307.283 175.732 307.085 175.511 306.958L169.932 303.737C169.712 303.61 169.368 303.603 169.163 303.721L164.338 306.507C164.133 306.625 164.145 306.824 164.365 306.951L169.944 310.171ZM159.337 300.19L154.512 302.976C154.307 303.094 154.319 303.293 154.54 303.42L160.119 306.641C160.339 306.768 160.684 306.775 160.889 306.657L165.714 303.872C165.919 303.753 165.907 303.555 165.687 303.427L160.108 300.206C159.887 300.079 159.542 300.072 159.337 300.19ZM177.765 306.115L182.59 303.33C182.795 303.212 182.783 303.013 182.563 302.886L176.984 299.666C176.764 299.539 176.419 299.531 176.214 299.65L171.389 302.435C171.185 302.553 171.196 302.752 171.417 302.879L176.996 306.1C177.215 306.226 177.56 306.234 177.765 306.115ZM184.816 302.045L189.641 299.26C189.846 299.141 189.834 298.943 189.614 298.816L184.035 295.595C183.816 295.468 183.471 295.461 183.265 295.579L178.441 298.364C178.236 298.483 178.248 298.681 178.469 298.808L184.048 302.029C184.266 302.156 184.611 302.163 184.816 302.045ZM191.867 297.973L196.692 295.188C196.897 295.069 196.885 294.871 196.665 294.743L191.086 291.522C190.866 291.395 190.522 291.388 190.316 291.507L185.492 294.292C185.287 294.41 185.299 294.61 185.519 294.736L191.097 297.957C191.318 298.085 191.662 298.092 191.867 297.973ZM166.388 296.119L161.564 298.904C161.359 299.022 161.371 299.221 161.591 299.349L167.17 302.569C167.39 302.696 167.734 302.703 167.94 302.585L172.765 299.8C172.97 299.682 172.958 299.482 172.738 299.355L167.159 296.134C166.938 296.008 166.594 296.001 166.388 296.119ZM173.44 292.048L168.615 294.833C168.41 294.952 168.422 295.15 168.642 295.277L174.221 298.498C174.441 298.625 174.786 298.632 174.991 298.514L179.816 295.728C180.02 295.61 180.009 295.411 179.788 295.284L174.209 292.063C173.989 291.937 173.645 291.93 173.44 292.048ZM201.645 275.764L196.82 278.549C196.615 278.668 196.627 278.866 196.848 278.994L202.427 282.214C202.647 282.341 202.991 282.348 203.197 282.23L208.021 279.445C208.226 279.327 208.214 279.127 207.994 279L202.415 275.78C202.194 275.652 201.85 275.645 201.645 275.764ZM194.594 279.835L189.769 282.621C189.564 282.739 189.576 282.939 189.796 283.065L195.374 286.286C195.594 286.413 195.939 286.42 196.144 286.302L200.969 283.517C201.174 283.398 201.162 283.2 200.942 283.072L195.363 279.851C195.143 279.723 194.799 279.716 194.594 279.835ZM208.696 271.692L203.871 274.477C203.666 274.596 203.678 274.794 203.898 274.921L209.476 278.142C209.696 278.269 210.041 278.276 210.246 278.158L215.071 275.372C215.276 275.254 215.264 275.055 215.043 274.928L209.464 271.707C209.246 271.581 208.901 271.574 208.696 271.692ZM180.491 287.977L175.666 290.763C175.461 290.881 175.473 291.08 175.693 291.207L181.272 294.428C181.492 294.555 181.836 294.562 182.042 294.444L186.867 291.659C187.072 291.54 187.06 291.342 186.84 291.215L181.261 287.995C181.041 287.866 180.696 287.858 180.491 287.977ZM187.542 283.906L182.717 286.691C182.512 286.81 182.524 287.008 182.745 287.135L188.324 290.356C188.544 290.483 188.888 290.49 189.093 290.372L193.917 287.586C194.122 287.468 194.11 287.269 193.89 287.142L188.311 283.921C188.092 283.794 187.747 283.788 187.542 283.906ZM182.394 312.645L187.218 309.859C187.423 309.741 187.411 309.542 187.191 309.415L181.612 306.194C181.392 306.067 181.048 306.06 180.842 306.178L176.018 308.963C175.813 309.082 175.825 309.281 176.045 309.408L181.623 312.629C181.845 312.756 182.189 312.763 182.394 312.645ZM141.016 308.467L135.437 305.246C135.217 305.119 134.873 305.112 134.667 305.23L129.843 308.016C129.638 308.134 129.65 308.333 129.87 308.46L135.449 311.681C135.669 311.808 136.014 311.815 136.219 311.697L141.043 308.912C141.248 308.793 141.235 308.595 141.016 308.467ZM151.583 311.569L146.004 308.348C145.784 308.221 145.44 308.213 145.234 308.332L137.812 312.617C137.607 312.735 137.619 312.934 137.84 313.061L143.419 316.281C143.639 316.408 143.983 316.416 144.189 316.297L151.611 312.012C151.815 311.895 151.803 311.696 151.583 311.569ZM132.456 302.24L126.878 299.019C126.658 298.892 126.314 298.884 126.108 299.003L120.17 302.431C119.965 302.549 119.977 302.749 120.198 302.875L125.776 306.096C125.996 306.223 126.341 306.23 126.546 306.112L132.484 302.684C132.689 302.567 132.676 302.367 132.456 302.24ZM137.009 299.612C137.229 299.739 137.573 299.746 137.778 299.628L142.602 296.842C142.807 296.724 142.795 296.525 142.575 296.398L136.996 293.177C136.776 293.05 136.431 293.043 136.226 293.161L131.402 295.946C131.197 296.065 131.209 296.263 131.429 296.39L137.009 299.612ZM161.408 315.099L155.829 311.878C155.609 311.751 155.264 311.744 155.059 311.863L145.781 317.219C145.576 317.338 145.588 317.536 145.809 317.663L151.387 320.884C151.607 321.011 151.951 321.018 152.157 320.9L161.435 315.543C161.641 315.425 161.628 315.226 161.408 315.099ZM166.038 321.628L160.459 318.408C160.24 318.281 159.895 318.273 159.69 318.392L153.752 321.82C153.547 321.938 153.559 322.138 153.779 322.264L159.358 325.485C159.578 325.612 159.923 325.619 160.128 325.501L166.066 322.073C166.27 321.955 166.257 321.755 166.038 321.628ZM189.436 269.343C189.656 269.47 190 269.477 190.205 269.359L195.029 266.573C195.234 266.455 195.222 266.256 195.002 266.129L189.423 262.908C189.203 262.781 188.858 262.774 188.653 262.892L183.829 265.677C183.624 265.796 183.636 265.994 183.856 266.121L189.436 269.343ZM175.333 277.486C175.553 277.613 175.898 277.62 176.103 277.502L180.928 274.716C181.133 274.598 181.121 274.399 180.9 274.272L175.321 271.051C175.101 270.924 174.757 270.917 174.551 271.035L169.726 273.82C169.521 273.939 169.533 274.137 169.753 274.265L175.333 277.486ZM144.06 295.541C144.28 295.668 144.625 295.676 144.83 295.557L149.655 292.772C149.86 292.654 149.848 292.455 149.628 292.328L144.049 289.107C143.829 288.98 143.485 288.973 143.279 289.091L138.454 291.876C138.249 291.994 138.261 292.193 138.481 292.32L144.06 295.541ZM182.384 273.414C182.604 273.541 182.949 273.549 183.154 273.43L187.979 270.645C188.184 270.527 188.171 270.328 187.951 270.201L182.373 266.98C182.153 266.853 181.809 266.846 181.603 266.964L176.779 269.749C176.574 269.867 176.586 270.066 176.806 270.193L182.384 273.414ZM168.282 281.557C168.502 281.684 168.847 281.691 169.052 281.572L173.876 278.787C174.081 278.669 174.069 278.469 173.849 278.342L168.271 275.121C168.051 274.994 167.706 274.987 167.501 275.105L162.676 277.89C162.471 278.009 162.483 278.207 162.704 278.335L168.282 281.557ZM169.913 322.152C169.693 322.025 169.348 322.017 169.143 322.136L161.721 326.421C161.516 326.539 161.528 326.738 161.748 326.865L167.327 330.086C167.547 330.213 167.891 330.22 168.097 330.102L175.519 325.817C175.724 325.699 175.712 325.5 175.491 325.373L169.913 322.152ZM158.163 287.399C158.383 287.526 158.727 287.533 158.933 287.415L163.758 284.63C163.963 284.511 163.951 284.313 163.731 284.185L158.152 280.964C157.932 280.837 157.587 280.83 157.382 280.948L152.557 283.734C152.352 283.852 152.364 284.051 152.584 284.178L158.163 287.399ZM151.111 291.47C151.331 291.597 151.676 291.604 151.881 291.486L156.705 288.7C156.91 288.582 156.898 288.383 156.678 288.256L151.099 285.035C150.879 284.908 150.534 284.901 150.329 285.019L145.504 287.804C145.299 287.923 145.311 288.121 145.532 288.248L151.111 291.47ZM300.548 246.73C300.328 246.603 299.983 246.596 299.778 246.714L287.903 253.571C287.698 253.689 287.71 253.888 287.93 254.016L293.509 257.237C293.729 257.364 294.073 257.371 294.279 257.253L306.155 250.396C306.36 250.278 306.348 250.079 306.128 249.952L300.548 246.73ZM284.961 255.729C284.741 255.602 284.397 255.595 284.191 255.713L279.366 258.498C279.161 258.617 279.174 258.815 279.394 258.943L284.972 262.164C285.192 262.291 285.537 262.298 285.742 262.179L290.566 259.394C290.771 259.276 290.759 259.077 290.538 258.95L284.961 255.729ZM189.446 308.574L194.271 305.789C194.476 305.67 194.464 305.472 194.243 305.344L188.664 302.123C188.444 301.996 188.1 301.989 187.894 302.107L183.07 304.893C182.865 305.011 182.877 305.21 183.097 305.337L188.676 308.558C188.896 308.685 189.241 308.692 189.446 308.574ZM270.858 263.871C270.638 263.744 270.293 263.737 270.088 263.855L265.263 266.64C265.058 266.759 265.07 266.958 265.291 267.085L270.87 270.306C271.09 270.433 271.435 270.44 271.64 270.322L276.465 267.536C276.67 267.418 276.658 267.219 276.438 267.092L270.858 263.871ZM307.599 242.659C307.379 242.532 307.034 242.525 306.829 242.643L302.004 245.429C301.8 245.547 301.811 245.746 302.032 245.873L307.611 249.094C307.831 249.221 308.176 249.228 308.381 249.11L313.206 246.325C313.411 246.206 313.399 246.008 313.179 245.881L307.599 242.659ZM320.229 241.809L306.68 233.986C306.46 233.859 306.115 233.852 305.91 233.97L301.085 236.756C300.88 236.874 300.892 237.073 301.113 237.2L314.661 245.023C314.881 245.15 315.226 245.157 315.431 245.039L320.256 242.253C320.461 242.135 320.449 241.936 320.229 241.809ZM244.508 279.084C244.288 278.957 243.943 278.95 243.739 279.068L237.801 282.496C237.596 282.614 237.608 282.813 237.828 282.941L243.407 286.162C243.627 286.289 243.972 286.296 244.177 286.178L250.115 282.75C250.32 282.632 250.308 282.432 250.088 282.306L244.508 279.084ZM262.322 268.799C262.102 268.672 261.757 268.665 261.552 268.783L254.129 273.069C253.924 273.187 253.937 273.386 254.156 273.513L259.735 276.734C259.955 276.861 260.299 276.868 260.505 276.75L267.927 272.465C268.132 272.347 268.12 272.148 267.9 272.021L262.322 268.799ZM228.179 288.512C227.959 288.385 227.614 288.378 227.409 288.496L187.699 311.423C187.494 311.541 187.506 311.74 187.726 311.867L193.305 315.088C193.525 315.215 193.869 315.223 194.075 315.104L233.785 292.178C233.99 292.059 233.978 291.86 233.758 291.733L228.179 288.512ZM186.243 312.724C186.023 312.597 185.678 312.59 185.473 312.708L179.535 316.136C179.33 316.254 179.342 316.453 179.563 316.581L185.142 319.802C185.362 319.929 185.707 319.936 185.912 319.817L191.85 316.389C192.054 316.271 192.043 316.072 191.822 315.945L186.243 312.724ZM236.344 283.798C236.124 283.671 235.78 283.664 235.574 283.782L229.636 287.21C229.431 287.329 229.443 287.527 229.663 287.655L235.242 290.875C235.462 291.003 235.807 291.01 236.012 290.891L241.95 287.462C242.155 287.344 242.143 287.145 241.922 287.018L236.344 283.798ZM178.078 317.438C177.858 317.311 177.514 317.304 177.308 317.422L171.37 320.85C171.165 320.969 171.178 321.167 171.398 321.294L176.976 324.515C177.196 324.642 177.54 324.649 177.746 324.531L183.684 321.103C183.889 320.984 183.877 320.786 183.657 320.658L178.078 317.438ZM252.673 274.371C252.453 274.244 252.109 274.236 251.903 274.355L245.965 277.783C245.761 277.901 245.772 278.1 245.993 278.227L251.572 281.448C251.792 281.575 252.137 281.582 252.341 281.464L258.279 278.036C258.484 277.918 258.472 277.719 258.251 277.592L252.673 274.371ZM277.909 259.8C277.689 259.673 277.344 259.666 277.139 259.784L272.315 262.57C272.11 262.688 272.122 262.887 272.343 263.014L277.921 266.235C278.141 266.362 278.486 266.369 278.691 266.251L283.516 263.466C283.721 263.347 283.708 263.149 283.489 263.021L277.909 259.8ZM293.359 248.579L298.183 245.794C298.388 245.675 298.376 245.476 298.156 245.349L292.577 242.128C292.357 242.001 292.012 241.994 291.807 242.112L286.982 244.897C286.778 245.015 286.789 245.214 287.01 245.342L292.589 248.563C292.81 248.691 293.155 248.698 293.359 248.579ZM261.833 248.376L266.657 245.591C266.862 245.473 266.85 245.274 266.63 245.146L261.051 241.926C260.831 241.799 260.487 241.791 260.281 241.91L255.456 244.695C255.251 244.814 255.263 245.012 255.484 245.139L261.062 248.359C261.284 248.487 261.628 248.495 261.833 248.376ZM245.856 276.005L259.959 267.863C260.164 267.745 260.152 267.546 259.931 267.419L254.352 264.198C254.132 264.071 253.788 264.064 253.582 264.182L239.479 272.324C239.274 272.442 239.286 272.641 239.506 272.768L245.084 275.988C245.307 276.117 245.651 276.124 245.856 276.005ZM285.539 252.635C285.759 252.762 286.104 252.769 286.308 252.651L291.133 249.866C291.338 249.747 291.326 249.549 291.106 249.421L285.527 246.2C285.307 246.073 284.962 246.066 284.758 246.184L279.933 248.97C279.728 249.088 279.741 249.287 279.96 249.414L285.539 252.635ZM278.339 248.049L283.164 245.263C283.368 245.145 283.357 244.946 283.136 244.819L277.558 241.598C277.338 241.471 276.993 241.464 276.788 241.582L271.963 244.367C271.758 244.486 271.77 244.684 271.99 244.811L277.569 248.032C277.789 248.161 278.134 248.167 278.339 248.049ZM238.805 280.077L243.63 277.291C243.835 277.173 243.823 276.974 243.603 276.847L238.024 273.626C237.804 273.499 237.459 273.492 237.254 273.61L232.429 276.396C232.224 276.514 232.236 276.713 232.457 276.84L238.036 280.061C238.255 280.188 238.6 280.195 238.805 280.077ZM269.951 261.634C270.171 261.761 270.516 261.768 270.721 261.65L275.545 258.864C275.75 258.746 275.738 258.547 275.518 258.42L269.939 255.199C269.719 255.072 269.374 255.065 269.169 255.183L264.344 257.968C264.139 258.087 264.151 258.285 264.371 258.412L269.951 261.634ZM203.549 300.432L208.373 297.646C208.578 297.528 208.566 297.329 208.346 297.202L202.767 293.981C202.547 293.854 202.203 293.847 201.997 293.965L197.173 296.751C196.968 296.869 196.98 297.068 197.2 297.195L202.779 300.416C202.999 300.543 203.343 300.55 203.549 300.432ZM210.6 296.361L215.425 293.576C215.63 293.457 215.618 293.259 215.397 293.132L209.818 289.911C209.598 289.784 209.254 289.777 209.049 289.896L204.224 292.681C204.019 292.799 204.031 292.998 204.251 293.125L209.83 296.346C210.05 296.472 210.395 296.479 210.6 296.361ZM196.497 304.503L201.322 301.718C201.527 301.6 201.515 301.401 201.295 301.274L195.716 298.053C195.496 297.926 195.151 297.918 194.946 298.037L190.122 300.822C189.917 300.94 189.929 301.139 190.149 301.266L195.728 304.487C195.948 304.614 196.292 304.621 196.497 304.503ZM224.702 288.219L229.527 285.434C229.732 285.315 229.72 285.116 229.5 284.989L223.921 281.768C223.701 281.641 223.356 281.634 223.151 281.752L218.326 284.538C218.121 284.656 218.133 284.855 218.353 284.982L223.932 288.203C224.153 288.33 224.497 288.337 224.702 288.219ZM217.651 292.289L222.475 289.504C222.68 289.386 222.668 289.187 222.448 289.06L216.869 285.839C216.649 285.712 216.304 285.705 216.099 285.823L211.274 288.608C211.069 288.727 211.081 288.926 211.302 289.053L216.881 292.274C217.101 292.401 217.446 292.408 217.651 292.289ZM231.753 284.147L236.578 281.362C236.783 281.244 236.771 281.045 236.551 280.918L230.972 277.697C230.752 277.57 230.407 277.562 230.202 277.681L225.377 280.466C225.172 280.584 225.185 280.783 225.405 280.91L230.983 284.131C231.204 284.259 231.548 284.266 231.753 284.147ZM264.013 223.923C264.233 224.05 264.578 224.057 264.783 223.939L269.608 221.153C269.813 221.035 269.801 220.836 269.581 220.709L268.096 219.851C267.876 219.724 267.531 219.717 267.326 219.835L262.502 222.621C262.298 222.739 262.309 222.938 262.53 223.065L264.013 223.923ZM229.319 246.316C229.538 246.443 229.883 246.451 230.089 246.332L234.914 243.547C235.119 243.429 235.107 243.23 234.887 243.103L229.309 239.882C229.089 239.754 228.744 239.747 228.539 239.866L223.715 242.652C223.51 242.77 223.522 242.969 223.742 243.096L229.319 246.316ZM243.422 238.174C243.642 238.301 243.986 238.308 244.191 238.19L249.016 235.405C249.221 235.286 249.209 235.088 248.989 234.96L243.41 231.739C243.19 231.612 242.845 231.605 242.64 231.723L237.815 234.509C237.611 234.627 237.622 234.827 237.843 234.953L243.422 238.174ZM220.709 251.288C220.929 251.415 221.273 251.422 221.479 251.304L226.304 248.519C226.509 248.401 226.497 248.202 226.276 248.075L220.697 244.854C220.477 244.727 220.132 244.72 219.927 244.839L215.102 247.624C214.897 247.742 214.909 247.941 215.129 248.069L220.709 251.288ZM236.37 242.246C236.59 242.373 236.935 242.38 237.14 242.262L241.964 239.476C242.168 239.358 242.157 239.159 241.936 239.032L236.357 235.811C236.137 235.684 235.793 235.677 235.588 235.795L230.763 238.58C230.558 238.699 230.57 238.897 230.79 239.024L236.37 242.246ZM206.606 259.43C206.826 259.557 207.17 259.564 207.376 259.445L212.2 256.66C212.405 256.542 212.393 256.343 212.173 256.215L206.594 252.994C206.374 252.867 206.029 252.86 205.824 252.978L200.999 255.763C200.794 255.882 200.807 256.081 201.027 256.208L206.606 259.43ZM213.657 255.359C213.877 255.486 214.222 255.493 214.427 255.375L219.252 252.589C219.457 252.471 219.445 252.272 219.224 252.145L213.646 248.924C213.426 248.797 213.081 248.79 212.876 248.908L208.052 251.693C207.847 251.812 207.859 252.01 208.079 252.138L213.657 255.359ZM249.91 232.065C250.13 232.192 250.475 232.199 250.68 232.081L255.505 229.295C255.71 229.177 255.698 228.978 255.478 228.851L253.993 227.994C253.773 227.867 253.429 227.86 253.224 227.978L248.399 230.764C248.194 230.882 248.206 231.081 248.426 231.208L249.91 232.065ZM271.064 219.851C271.284 219.978 271.629 219.986 271.834 219.867L276.659 217.082C276.864 216.963 276.852 216.765 276.631 216.638L275.146 215.78C274.926 215.653 274.581 215.646 274.376 215.765L269.551 218.55C269.346 218.668 269.358 218.868 269.578 218.995L271.064 219.851ZM282.783 226.617C283.003 226.744 283.348 226.751 283.553 226.633L288.378 223.848C288.583 223.729 288.571 223.531 288.351 223.404L282.772 220.183C282.552 220.056 282.207 220.049 282.002 220.167L277.177 222.953C276.972 223.071 276.984 223.27 277.204 223.397L282.783 226.617ZM300.411 244.508L305.236 241.722C305.441 241.604 305.429 241.405 305.209 241.278L299.63 238.057C299.41 237.93 299.065 237.923 298.86 238.041L294.036 240.826C293.831 240.945 293.843 241.143 294.064 241.27L299.642 244.491C299.861 244.62 300.206 244.626 300.411 244.508ZM256.962 227.993C257.182 228.12 257.526 228.128 257.732 228.009L262.557 225.224C262.762 225.106 262.75 224.907 262.53 224.78L261.045 223.923C260.825 223.796 260.48 223.789 260.275 223.907L255.45 226.692C255.246 226.811 255.257 227.009 255.478 227.136L256.962 227.993ZM199.555 263.501C199.775 263.628 200.12 263.635 200.325 263.517L205.15 260.732C205.355 260.613 205.343 260.415 205.123 260.288L199.544 257.067C199.324 256.94 198.979 256.933 198.774 257.051L193.949 259.837C193.745 259.955 193.756 260.154 193.977 260.281L199.555 263.501Z" fill="#455A64"/>
<path d="M230.824 305.826L278.434 278.338C279.869 277.51 282.195 277.51 283.63 278.338L310.931 294.1C312.366 294.928 312.366 296.271 310.931 297.1L263.32 324.588C261.885 325.416 259.559 325.416 258.124 324.588L230.824 308.826C229.389 307.997 229.389 306.654 230.824 305.826Z" fill="#263238"/>
<path d="M318.379 173.638C318.379 173.628 318.389 173.628 318.389 173.628L318.329 173.588L310.201 168.906C309.731 168.696 309.041 168.896 308.211 169.526C300.647 175.315 290.482 177.109 282.17 174.465C281.639 173.97 281.129 173.447 280.649 172.888C280.599 172.828 280.549 172.768 280.499 172.718H280.489C280.209 172.408 279.929 172.178 279.649 172.028L279.509 171.948L271.371 167.276C270.441 166.836 269.601 167.276 269.041 168.656C261.181 188.186 244.431 207.976 233.261 212.926C232.431 213.296 231.661 213.866 231.061 214.566C230.271 215.476 229.781 216.596 229.821 217.766L231.431 261.616C231.431 274.286 236.781 287.666 247.691 294.176L256.109 299.038L256.259 299.118C260.439 301.508 265.409 302.908 271.179 302.908C272.349 302.908 273.539 302.858 274.769 302.738C276.829 302.538 279.689 301.048 281.129 299.558C305.539 274.348 317.409 240.228 317.409 221.348L319.019 175.478C319.059 174.488 318.819 173.878 318.379 173.638Z" fill="#2E4053"/>
<path d="M319.02 175.478L317.41 221.348C317.41 240.228 305.54 274.348 281.13 299.558C279.69 301.048 276.83 302.538 274.77 302.738C273.54 302.858 272.35 302.908 271.18 302.908C265.41 302.908 260.44 301.508 256.26 299.118L256.11 299.038L255.82 298.858C244.91 292.348 239.56 278.968 239.56 266.298L237.95 222.448C237.91 221.278 238.4 220.158 239.19 219.248C239.79 218.548 240.56 217.978 241.39 217.608C252.56 212.658 269.31 192.868 277.17 173.338C277.73 171.958 278.58 171.508 279.51 171.948L279.65 172.028C279.93 172.178 280.21 172.408 280.49 172.718H280.5C280.55 172.768 280.6 172.828 280.65 172.888C288.99 182.598 305.39 182.588 316.34 174.208C317.17 173.578 317.86 173.378 318.33 173.588L318.39 173.628C318.39 173.628 318.38 173.628 318.38 173.638C318.82 173.878 319.06 174.488 319.02 175.478Z" fill="#2E4053"/>
<path opacity="0.4" d="M318.331 173.583C317.861 173.373 317.171 173.573 316.341 174.203C306.031 182.093 290.881 182.563 282.191 174.463C290.501 177.113 300.651 175.313 308.211 169.523C309.041 168.893 309.731 168.693 310.201 168.903L318.331 173.583Z" fill="white"/>
<path opacity="0.4" d="M279.512 171.943C278.582 171.503 277.732 171.953 277.172 173.333C269.312 192.863 252.562 212.653 241.392 217.603C240.562 217.973 239.792 218.543 239.192 219.243C238.982 219.483 238.792 219.743 238.632 220.013L230.512 215.323C230.672 215.063 230.852 214.803 231.062 214.563C231.172 214.433 231.292 214.313 231.422 214.193L231.432 214.183C231.482 214.143 231.522 214.093 231.572 214.043C231.622 214.003 231.662 213.963 231.712 213.913C232.172 213.513 232.702 213.163 233.262 212.923C244.432 207.973 261.182 188.183 269.042 168.653C269.602 167.273 270.442 166.833 271.372 167.273L279.512 171.943Z" fill="white"/>
<path d="M231.433 214.173C231.473 214.123 231.523 214.083 231.573 214.043C231.523 214.093 231.483 214.143 231.433 214.183C231.433 214.183 231.422 214.173 231.433 214.173Z" fill="#2E4053"/>
<path opacity="0.15" d="M231.572 214.043C231.522 214.093 231.482 214.143 231.432 214.183C231.432 214.183 231.422 214.173 231.432 214.173C231.471 214.123 231.521 214.083 231.572 214.043Z" fill="black"/>
<path opacity="0.15" d="M256.263 299.113L256.113 299.043L247.693 294.173C236.783 287.663 231.433 274.283 231.433 261.613L229.823 217.763C229.793 216.903 230.053 216.063 230.513 215.323L238.633 220.013C238.183 220.753 237.923 221.583 237.953 222.443L239.563 266.293C239.563 278.963 244.913 292.343 255.823 298.853L256.113 299.033L256.263 299.113Z" fill="black"/>
<path d="M284.982 258.766L271.986 266.269L274 242.76C272.445 241.938 271.455 239.916 271.455 237.012C271.455 231.835 274.602 225.822 278.485 223.58C282.367 221.339 285.514 223.718 285.514 228.895C285.514 231.799 284.523 234.965 282.969 237.582L284.982 258.766Z" fill="#455A64"/>
<path d="M284.982 258.766L273.211 251.97L271.986 266.27L284.982 258.766Z" fill="#37474F"/>
<path d="M278.485 223.58C275.945 225.047 273.726 228.13 272.49 231.535L282.969 237.585V237.582C284.524 234.965 285.514 231.799 285.514 228.895C285.514 223.718 282.366 221.339 278.485 223.58Z" fill="#37474F"/>
<path d="M115.918 395.335V399.244C115.902 403.837 118.928 408.433 124.998 411.937C134.139 417.214 147.564 418.501 158.806 415.81L169.247 421.838L177.269 420.024L182.744 423.185L183.043 429.802L185.992 431.505L193.4 432.156L198.724 435.126V438.856L205.405 442.713H222.395L228.485 439.199V435.254L174.146 407.827C176.649 405.172 177.904 402.228 177.91 399.285V395.334C177.093 391.52 173.915 389.552 168.841 386.623C156.734 379.633 137.105 379.633 124.998 386.623C119.555 389.767 116.467 391.226 115.918 395.335ZM132.561 390.769C135.991 388.789 141.551 388.789 144.981 390.769C148.411 392.749 148.411 395.96 144.981 397.94C141.551 399.92 135.991 399.92 132.561 397.94C129.131 395.96 129.131 392.749 132.561 390.769Z" fill="#2E4053"/>
<path opacity="0.1" d="M115.918 395.335V399.244C115.902 403.837 118.928 408.433 124.998 411.937C134.139 417.214 147.564 418.501 158.806 415.81L169.247 421.838L177.269 420.024L182.744 423.185L183.043 429.802L185.992 431.505L193.4 432.156L198.724 435.126V438.856L205.405 442.713H222.395L228.485 439.199V435.254L174.146 407.827C176.649 405.172 177.904 402.228 177.91 399.285V395.334C177.093 391.52 173.915 389.552 168.841 386.623C156.734 379.633 137.105 379.633 124.998 386.623C119.555 389.767 116.467 391.226 115.918 395.335ZM132.561 390.769C135.991 388.789 141.551 388.789 144.981 390.769C148.411 392.749 148.411 395.96 144.981 397.94C141.551 399.92 135.991 399.92 132.561 397.94C129.131 395.96 129.131 392.749 132.561 390.769Z" fill="black"/>
<path d="M124.998 407.992C134.139 413.269 147.564 414.556 158.806 411.865L169.247 417.893L177.269 416.08L182.744 419.241L183.043 425.858L185.992 427.561L193.4 428.212L199.176 431.435L198.724 434.912L205.405 438.769H222.395L228.485 435.255L174.146 403.883C180.546 397.094 178.789 388.423 168.841 382.679C156.734 375.689 137.105 375.689 124.998 382.679C112.891 389.668 112.891 401.002 124.998 407.992ZM132.561 386.824C135.991 384.844 141.551 384.844 144.981 386.824C148.411 388.804 148.411 392.015 144.981 393.995C141.551 395.975 135.991 395.975 132.561 393.995C129.131 392.014 129.131 388.804 132.561 386.824Z" fill="#2E4053"/>
<path opacity="0.3" d="M146.921 409.8C139.235 409.8 132.06 408.102 126.717 405.018C122.037 402.315 119.354 398.786 119.354 395.335C119.354 391.884 122.038 388.355 126.717 385.653C132.06 382.569 139.236 380.871 146.922 380.871C154.608 380.871 161.783 382.569 167.126 385.653C171.805 388.356 174.489 391.885 174.489 395.336C174.489 398.787 171.805 402.316 167.127 405.018C161.782 408.102 154.607 409.8 146.921 409.8ZM146.921 382.245C139.473 382.245 132.541 383.878 127.403 386.843C123.161 389.293 120.727 392.388 120.727 395.335C120.727 398.282 123.161 401.377 127.403 403.828C132.54 406.793 139.472 408.426 146.92 408.426C154.368 408.426 161.299 406.793 166.437 403.828C170.679 401.378 173.112 398.283 173.112 395.336C173.112 392.389 170.679 389.294 166.436 386.843C161.301 383.878 154.37 382.245 146.921 382.245Z" fill="black"/>
<path opacity="0.1" d="M135.762 412.03V415.974C143.168 417.623 151.454 417.568 158.806 415.809V411.865C151.455 413.624 143.169 413.679 135.762 412.03Z" fill="black"/>
<path opacity="0.1" d="M169.248 417.893V421.838L177.27 420.025V416.079L169.248 417.893Z" fill="black"/>
<path opacity="0.1" d="M182.744 419.24V423.186L183.043 429.803V425.858L182.744 419.24Z" fill="black"/>
<path opacity="0.1" d="M185.992 427.561V431.506L193.4 432.157V428.211L185.992 427.561Z" fill="black"/>
<path opacity="0.1" d="M222.396 438.769H205.406V442.714H222.396V438.769Z" fill="black"/>
<path opacity="0.15" d="M228.485 435.255V439.2L222.395 442.714V438.769L225.064 437.228V438.931L226.537 438.081V436.36L228.485 435.255Z" fill="black"/>
<path d="M226.537 436.36L225.064 437.228V438.931L226.537 438.081V436.36Z" fill="#2E4053"/>
<path opacity="0.15" d="M226.538 436.36V438.081L170.812 405.904L172.286 405.036L226.538 436.36Z" fill="black"/>
<path opacity="0.15" d="M172.286 405.036V406.757L170.812 405.904L172.286 405.036Z" fill="black"/>
<path d="M414.534 288.561C415.235 262.516 413.147 256.274 406.213 251.502L403.527 266.594C403.527 266.594 406.686 284.379 406.347 290.302C406.049 295.506 405.543 302.016 404.312 306.223C404.094 306.968 403.591 307.595 402.933 308.007C401.167 309.112 400.455 310.245 399.125 311.638C398.084 312.728 397.197 312.999 397.334 313.346C397.51 313.792 398.253 314.513 399.529 314.124C400.171 313.928 401 313.426 402.034 312.765C402.034 312.765 401.295 314.935 399.468 317.175C396.992 320.21 396.883 322.075 401.882 322.119C405.015 322.147 407.514 320.215 409.871 313.312C410.55 311.324 411.613 308.184 412.073 305.561C413.271 298.729 414.421 292.753 414.534 288.561Z" fill="#B16668"/>
<path d="M400.379 249.524C403.689 249.044 408.188 249.738 411.094 254.936C414 260.134 414.713 269.075 415.044 277.966C415.044 277.966 409.271 282.794 402.346 280.42L400.379 249.524Z" fill="#2E4053"/>
<path opacity="0.7" d="M400.379 249.524C403.689 249.044 408.188 249.738 411.094 254.936C414 260.134 414.713 269.075 415.044 277.966C415.044 277.966 409.271 282.794 402.346 280.42L400.379 249.524Z" fill="black"/>
<path d="M410.117 392.776C410.643 392.975 410.775 393.976 410.855 395.967C410.915 397.473 411.238 400.102 409.474 400.627C407.71 401.152 405.125 400.884 403.995 399.464C402.584 397.692 401.63 396.132 399.616 393.97C397.869 392.095 395.979 390.344 395.274 387.714C394.637 385.337 395.167 384.306 396.789 383.615C399.019 382.665 402.522 385.77 404.269 386.259C405.774 386.68 409.592 392.577 410.117 392.776Z" fill="#263238"/>
<path d="M410.116 390.933V393.377C410.116 393.377 407.575 395.329 403.94 393.544C403.833 393.308 403.299 390.048 403.299 390.048L410.116 390.933Z" fill="#B16668"/>
<path d="M390.325 406.861C390.325 406.861 391.026 408.987 391.404 410.845C391.704 412.322 392.135 414.792 391.617 415.904C391.099 417.015 389.081 417.733 385.952 417.709C383.925 417.694 380.767 419.07 378.605 420.276C376.372 421.522 371.727 422.019 369.364 421.741C366.58 421.414 363.696 419.8 363.246 418.647C362.796 417.494 363.394 416.297 369.954 413.501C370.014 413.475 379.074 410.529 382.249 407.026L390.325 406.861Z" fill="#263238"/>
<path d="M390.326 404.219C390.326 404.219 390.317 406.033 390.326 407.069C390.335 408.105 389.111 409.65 385.943 409.537C383.717 409.458 382.164 408.859 382.252 407.026V404.384L390.326 404.219Z" fill="#B16668"/>
<path d="M411.707 358.501C410.588 350.516 408.821 345.773 408.821 345.773C408.821 345.773 409.693 334.791 410.112 324.379C410.564 313.133 410.088 298.996 410.302 296.19C410.302 296.19 374.012 288.847 373.364 301.848C372.717 314.849 374.796 347.943 375.226 353.654C375.655 359.365 376.642 364.416 377.822 373.673C378.986 382.809 382.251 404.383 382.251 404.383C386.397 406.624 390.325 404.218 390.325 404.218C390.325 404.218 392.879 378.223 392.611 371.633C392.284 363.586 390.112 357.249 390.112 357.249C390.112 357.249 390.8 346.529 391.408 337.205C392.015 327.881 392.659 323.402 392.8 319.346L393.581 318.959C393.581 318.959 394.377 335.045 394.806 340.757C395.235 346.468 396.143 351.944 397.796 362.553C399.229 371.756 403.498 391.227 403.498 391.227C407.644 393.468 410.117 390.934 410.117 390.934C410.117 390.934 412.826 366.486 411.707 358.501Z" fill="#37474F"/>
<path d="M392.799 319.346C392.799 319.346 401.602 315.008 406.009 311.095C406.009 311.095 401.918 316.86 396.547 319.415C396.547 319.415 394.637 339.398 394.647 339.002L393.544 319.316L392.799 319.346Z" fill="#263238"/>
<path d="M384.965 245.406L387.112 257.225L397.788 256.445L395.546 243.047L384.965 245.406Z" fill="#B16668"/>
<path d="M409.062 255.582C408.005 252.368 403.928 248.871 399.848 249.628C392.353 251.02 386.408 252.509 381.982 254.09C378.247 255.424 374.844 258.652 374.535 270.938C374.535 270.938 373.284 299.58 373.262 305.12C382.641 308.831 392.396 308.717 397.788 307.539C409.012 305.087 410.366 300.431 410.366 300.431C410.366 300.431 410.511 279.834 410.175 270.939C409.888 263.381 409.788 257.789 409.062 255.582Z" fill="#2E4053"/>
<g opacity="0.15">
<path d="M409.062 255.582C408.005 252.368 403.928 248.871 399.848 249.628C392.353 251.02 386.408 252.509 381.982 254.09C378.247 255.424 374.844 258.652 374.535 270.938C374.535 270.938 373.284 299.58 373.262 305.12C382.641 308.831 392.396 308.717 397.788 307.539C409.012 305.087 410.366 300.431 410.366 300.431C410.366 300.431 410.511 279.834 410.175 270.939C409.888 263.381 409.788 257.789 409.062 255.582Z" fill="black"/>
</g>
<path d="M376.727 231.03C376.727 231.03 374.02 235.346 374.348 235.757C374.677 236.168 376.748 236.498 376.748 236.498L376.727 231.03Z" fill="#9A4A4D"/>
<path d="M384.244 219.088C378.599 220.412 377.017 222.943 376.685 231.966C376.339 241.394 377.366 244.332 378.632 245.572C379.486 246.409 384.13 246.459 386.456 245.761C389.368 244.887 395.936 242.392 398.93 237.586C402.452 231.932 403.24 224.358 399.265 221.348C393.672 217.112 386.541 218.549 384.244 219.088Z" fill="#B16668"/>
<path d="M376.748 221.435C378.405 224.272 382.001 225.628 382.001 225.628C383.083 226.861 382.487 231.671 384.392 232.435C384.392 232.435 385.21 228.934 388.153 229.306C391.116 229.68 391.599 233.435 389.79 235.763C387.98 238.091 386.226 237.254 386.226 237.254C386.226 237.254 386.429 242.227 388.696 244.993C388.696 244.993 391.223 245.748 395.814 244.661C398.636 243.993 402.566 240.358 404.167 236.567C407.554 228.547 407.642 221.398 402.525 219.371C401.895 215.725 398.977 214.15 395.676 213.469C388.571 212.005 383.991 216.439 378.522 216.054C375.392 215.833 374.807 218.112 376.748 221.435Z" fill="#263238"/>
<path d="M402.642 220.593L405.991 218.516C405.417 217.591 404.203 217.307 403.278 217.88C402.353 218.453 402.069 219.668 402.642 220.593Z" fill="#263238"/>
<path d="M336.838 275.366C338.594 276.147 359.278 291.434 362.503 289.653C365.728 287.873 382.274 268.542 382.274 268.542C387.079 260.581 382.274 254.04 382.274 254.04C382.274 254.04 376.968 255.02 374.195 259.217C371.422 263.414 359.429 278.453 359.429 278.453C356.467 276.971 353.516 275.467 350.574 273.945C348.15 272.69 345.722 271.437 343.349 270.087C342.757 269.75 341.975 269.423 341.484 268.937C340.314 267.78 340.515 264.981 340.537 263.459C340.547 262.747 340.557 262.034 340.64 261.327C340.741 260.458 340.907 258.329 339.342 259.004C339.04 259.135 338.796 259.371 338.595 259.632C338.349 259.952 338.158 260.315 338.035 260.699C337.74 261.619 337.835 262.626 337.564 263.554C337.525 263.689 337.474 263.828 337.372 263.924C337.244 264.046 337.055 264.081 336.878 264.075C334.598 264.006 332.441 260.812 331.394 259.116C330.928 258.361 330.469 257.52 329.665 257.145C328.417 256.562 326.919 257.397 326.116 258.515C325.092 259.941 324.784 261.793 324.987 263.537C325.267 265.954 326.194 268.19 327.959 269.835C330.633 272.332 333.537 273.898 336.838 275.366Z" fill="#B16668"/>
<path d="M383.959 253.417C381.677 253.68 377.887 253.852 374.174 258.057C369.833 262.974 364.115 271.001 364.115 271.001C364.115 271.001 365.667 278.785 374.119 280.419C374.119 280.419 381.946 272.4 384.123 267.985C386.299 263.569 386.646 256.397 383.959 253.417Z" fill="#2E4053"/>
<path opacity="0.7" d="M383.959 253.417C381.677 253.68 377.887 253.852 374.174 258.057C369.833 262.974 364.115 271.001 364.115 271.001C364.115 271.001 365.667 278.785 374.119 280.419C374.119 280.419 381.946 272.4 384.123 267.985C386.299 263.569 386.646 256.397 383.959 253.417Z" fill="black"/>
</svg>
